<?xml version="1.0" encoding="utf-8"?>
<!-- Generator: Adobe Illustrator 23.0.6, SVG Export Plug-In . SVG Version: 6.00 Build 0)  -->
<!DOCTYPE svg PUBLIC "-//W3C//DTD SVG 1.1//EN" "http://www.w3.org/Graphics/SVG/1.1/DTD/svg11.dtd" [
	<!ENTITY ns_extend "http://ns.adobe.com/Extensibility/1.0/">
	<!ENTITY ns_ai "http://ns.adobe.com/AdobeIllustrator/10.0/">
	<!ENTITY ns_graphs "http://ns.adobe.com/Graphs/1.0/">
	<!ENTITY ns_vars "http://ns.adobe.com/Variables/1.0/">
	<!ENTITY ns_imrep "http://ns.adobe.com/ImageReplacement/1.0/">
	<!ENTITY ns_sfw "http://ns.adobe.com/SaveForWeb/1.0/">
	<!ENTITY ns_custom "http://ns.adobe.com/GenericCustomNamespace/1.0/">
	<!ENTITY ns_adobe_xpath "http://ns.adobe.com/XPath/1.0/">
]>
<svg version="1.1"
	 id="svg983" xmlns:x="&ns_extend;" xmlns:i="&ns_ai;" xmlns:graph="&ns_graphs;" xmlns:cc="http://creativecommons.org/ns#" xmlns:dc="http://purl.org/dc/elements/1.1/" xmlns:inkscape="http://www.inkscape.org/namespaces/inkscape" xmlns:rdf="http://www.w3.org/1999/02/22-rdf-syntax-ns#" xmlns:sodipodi="http://sodipodi.sourceforge.net/DTD/sodipodi-0.dtd" xmlns:svg="http://www.w3.org/2000/svg"
	 xmlns="http://www.w3.org/2000/svg" xmlns:xlink="http://www.w3.org/1999/xlink" x="0px" y="0px" width="6389.3px"
	 height="6389.3px" viewBox="0 0 6389.3 6389.3" style="enable-background:new 0 0 6389.3 6389.3;" xml:space="preserve">
<style type="text/css">
	.st0{fill:#F89401;}
	.st1{fill:#FFFFFF;}
</style>
<metadata  id="metadata989">
	<rdf:RDF>
		<cc:Work  rdf:about="">
			<dc:format>image/svg+xml</dc:format>
			<dc:type  rdf:resource="http://purl.org/dc/dcmitype/StillImage"></dc:type>
			<dc:title></dc:title>
		</cc:Work>
	</rdf:RDF>
	<sfw  xmlns="&ns_sfw;">
		<slices></slices>
		<sliceSourceBounds  bottomLeftOrigin="true" height="5030.4" width="6389.3" x="5.3" y="666.7"></sliceSourceBounds>
	</sfw>
</metadata>
<sodipodi:namedview  bordercolor="#666666" borderopacity="1" gridtolerance="10" guidetolerance="10" id="namedview985" inkscape:current-layer="svg983" inkscape:cx="1170.208" inkscape:cy="3465.4012" inkscape:pageopacity="0" inkscape:pageshadow="2" inkscape:window-height="1009" inkscape:window-maximized="1" inkscape:window-width="1860" inkscape:window-x="1980" inkscape:window-y="34" inkscape:zoom="0.10447237" objecttolerance="10" pagecolor="#ffffff" showgrid="false">
	</sodipodi:namedview>
<path class="st0" d="M8.7,3282.8c-0.5,1.6,0,4.7-3.4,2.5c0-24.9,0-49.8,0-74.7c4.3,18.8,5.6,38,6.2,57.2
	C11.6,3273,12.9,3278.4,8.7,3282.8z"/>
<path class="st0" d="M6394.7,3429.3c-1.5-3.1-3-6.2-4.5-9.3c-2.8-18.6,4.8-36.3,4.5-54.7C6394.7,3386.7,6394.7,3408,6394.7,3429.3z"
	/>
<path class="st0" d="M6392,2986.9c0.9-1.9,1.8-3.7,2.7-5.6c0,12.4,0,24.9,0,37.3C6393.8,3008.1,6392.9,2997.5,6392,2986.9z"/>
<path class="st1" d="M1277.2,2775.1c2-23.9,3.5-47.9,6-71.7c2-19-1.9-37.2-5.8-55.4c-11-51.2-21.5-102.5-26.9-154.8
	c-3.6-34.7-2.9-69.3,3.6-103.5c4.5-23.7,13-46,24.5-67.3c27-50,56.7-98.5,86.8-146.7c45.3-72.3,91.6-143.9,142.3-212.5
	c19.5-26.4,39.7-52.4,62.9-75.9c17-17.3,35.9-31.6,57.5-42.7c27.6-14.3,54.6-29.6,80.5-47c28.4-19.1,28.4-19.1,35.2-51.9
	c4.2-20,9-39.8,15.8-59.1c17.9-50.3,48-90.8,94.7-117.9c12.4-7.2,23.3-16.2,34.3-25.2c17.9-14.6,36.6-28.1,56.8-39.5
	c36.5-20.6,76.7-27.7,117.5-31.5c65.5-6.1,131-10.8,196.5-16.8c40.7-3.7,81.1-9.1,120.7-20.1c15.2-4.2,27.1-11.6,37.7-23.2
	c39.6-43.5,73.6-91.2,104.9-140.9c31.7-50.3,63.4-100.7,94.1-151.6c23-38,53.4-68.5,89.5-93.7c23.3-16.3,46.7-32.4,70.2-48.3
	c12.9-8.7,21.5-19.7,27.5-34.6c22.4-55.4,58.6-101.2,102.3-141.3c52.6-48.2,112.5-83.6,182.3-100.6c58.3-14.2,116.1-12.5,173.1,7.7
	c39.4,13.9,73.5,35.5,99.4,68.7c7.6,9.7,15.9,15.2,28.5,16.6c30.7,3.5,57.6,16.7,81.8,35.8c28.7,22.7,54.7,48.1,79.8,74.6
	c63.9,67.5,64.6,67.8,146.4,113.4c29.5,16.4,58.6,33.5,87.3,51.1c48.1,29.5,89.3,67.2,125.9,110.1c25.4,29.8,50.8,59.5,76.4,89
	c22.3,25.7,48.1,46.5,78.6,62.7c60.4,32.2,116.7,71.3,172.5,110.8c45.7,32.3,90.2,66.3,133.6,101.7c40.3,32.9,74.7,70.8,102.5,114.7
	c18.5,29.3,36.5,58.9,52.2,89.8c5.9,11.5,13.5,20.6,24.1,27.7c16.2,10.9,32.3,22,48.3,33.3c40.4,28.5,75.1,62.2,99,106.3
	c10.6,19.6,25.6,36.2,39.9,53.2c49.2,58.6,101.8,114,155.3,168.6c71.5,73,143.1,146,216.4,217.2c40.8,39.7,59.8,87.4,63.2,142.4
	c4.4,69.8-5.5,138.2-23.5,205.6c-15,56.3-49.5,99.6-91.4,138c-25.6,23.5-53.7,43.9-82.7,62.8c-11.4,7.4-17.3,16.6-19.7,29.6
	c-11.2,62.1-20.9,124.4-26,187.3c-2.4,29.2-1,58.6-1.8,87.9c-2.4,84.4-7.8,168.6-21.6,252.1c-7.7,46.5-18.4,92.2-37,135.8
	c-14.5,34-34.5,64.1-62.5,88.4c-3.4,2.9-6.4,6.3-10,8.8c-15.1,10.6-23.8,25.6-31.7,41.8c-15.6,31.9-32.1,63.4-48.7,94.7
	c-13.8,25.9-30.2,50.3-48.7,73c-5.5,6.7-7.8,13.6-6.9,22c3,28.3,6,56.5,8.9,84.8c3.1,29.3,3.5,58.4-0.8,87.7
	c-8.1,54.3-34.3,98.3-75,134.2c-17.4,15.3-36.9,27.7-56.5,40c-22.6,14.2-22.5,14.2-28.9,40.8c-3.8,15.5-7.5,31.1-12.1,46.4
	c-6.1,20.5-14,40.5-26.5,57.9c-9.6,13.4-11.3,27.2-9.8,42.7c3.9,38,9.7,75.7,17.6,113.1c12.4,59.3,19.3,119.2,13.7,180
	c-1.9,20.5-6,40.6-15,59.1c-41.1,84.9-70.8,174.2-103.3,262.4c-23.9,65-48.3,129.7-78.9,192c-14.1,28.7-29.7,56.6-47,83.5
	c-24.7,38.5-55.4,71.6-89.7,101.5c-61.3,53.4-129.3,96.7-200.3,135.8c-70,38.5-142.2,72.9-214,107.9c-42.3,20.7-87,30.7-134.1,27.6
	c-42.2-2.8-81.9-14.8-119.4-34.4c-49.6-25.8-91.1-61.5-128.8-102.2c-47.9-51.7-87.8-109.4-123-170.4c-7.2-12.4-14.8-23.9-26.3-33
	c-6.9-5.4-12.7-12.5-17.9-19.6c-25.4-34.3-50.8-68.5-75.4-103.3c-11.2-15.9-20.7-33.1-30.8-49.8c-18.2-30.3-27.2-63.6-30.9-98.3
	c-2.9-27.5-8-53.9-18.4-79.9c-10.2-25.4-16.9-52.4-22.8-79.2c-7-31.8-20-60.6-37.1-87.8c-13.8-21.8-28.1-43.1-42.2-64.7
	c-27.9-42.8-48.3-88.8-59.2-138.8c-7-32.2-10.5-64.9-11.7-97.8c-1.1-30.2-1.2-60.3-4.8-90.5c-2.7-22.9-2.2-46.1,2.2-69
	c1.4-7,1.8-14.1,2.9-21.1c0.8-5.1-0.9-8.6-5.7-10.4c-7.5-2.8-14.9-5.6-22.5-8.3c-101.8-35.5-199-80.7-290.7-137.5
	c-81.8-50.7-159.1-107.3-226.7-176.3c-81-82.6-143.9-178-195.2-281.2c-34.4-69.3-63-140.9-86.7-214.5c-1.6-5.1-3.4-10.1-5.2-15.1
	c-1.7-4.8-5.2-6.9-10.2-6.6c-5.3,0.4-10.6,1.2-15.9,1.5c-79.8,5.1-157.8-3.7-233.7-29.5c-79-26.8-142.6-74.5-191.8-141.9
	c-22.6-30.9-41.6-64-61.8-96.4c-12.2-19.6-24.6-39.1-38-57.9c-20.7-29.1-44.7-55.1-73.6-76.6c-15.7-11.6-30.4-24.5-45.2-37.3
	c-44.1-38-65.5-87.4-71.7-144.3c-1.1-9.7-2.1-19.5-2.3-29.2c-0.5-33-8.5-65.1-11-97.9C1276.3,2807.1,1275.9,2791.1,1277.2,2775.1z
	 M4211.6,2708.7c-12.6-24.6-25.2-49.3-37.8-73.9c5.4-7,10.6-14.2,16.4-20.8c63.7-72.9,127.3-145.9,191.3-218.6
	c52.8-60.1,105.8-119.9,158.8-179.7c14.8-16.7,28-34.5,37.6-54.7c7.7-16.1,13.3-32.8,14.4-50.9c2.5-41-13.2-74-42.8-101.8
	c-91.4-85.6-182.5-171.6-273.9-257.3c-7.7-7.2-16.2-14-25.4-19.3c-26.2-15.2-52.3-14.6-77.8,2.4c-11.2,7.5-20.8,16.6-29.3,27
	c-12.5,15.1-22.6,31.7-31.5,49.2c-5.2,10.2-10.8,20.5-17.4,29.8c-93.7,131.7-187.6,263.2-281.5,394.7c-3,4.3-6.9,7.9-10.4,11.8
	c-27.1-15.1-54.2-30.3-81.4-45.4c4.7-6.4,9.1-13,14-19.3c14.9-18.8,30.5-37.1,44.8-56.3c43.1-57.6,85.4-115.7,128.6-173.3
	c54.3-72.5,106.2-146.7,163-217.4c8.9-11.1,16.2-23.3,21.9-36.4c13.3-30.7,14.3-61.9,3.1-93.4c-8.5-23.9-22.3-44.3-39.9-62.3
	c-11.8-12.1-23.6-24.1-35.2-36.4c-52.7-55.4-106.5-109.6-162.8-161.2c-34-31.2-68.6-61.8-107.1-87.7c-20.1-13.5-41.4-24.1-65.6-28
	c-33.8-5.4-61.2,5.5-81.5,33.2c-4.2,5.7-7.6,12-11.3,18c-76.9,123.6-150,249.5-224.8,374.4c-7.7,12.9-16.1,25.5-24.4,38.1
	c-6.9,10.4-12.6,21.2-17,33c-8.4,22.6,1.1,45.2,20.4,57.9c9.7,6.4,20,11.4,31.5,13.9c14.1,3.1,26.5,9.4,38.7,17
	c42.2,26.2,84.7,52,127.2,77.8c17.5,10.6,34.2,22.4,49.5,35.9c17.4,15.4,32.6,32.7,43.6,53.4c17.5,33,21.9,67.3,8.4,102.8
	c-4.5,11.8-6.7,23.9-8.4,36.2c-1.9,13.2-4.2,26.3-6.3,39.4c-24.7-8.3-49.4-16.5-74.1-24.7c-5.6-16.1,0.3-31.6,2.6-47.2
	c3.8-25.5,9.5-50.7,12.6-76.2c4.7-37.8,1.2-42-36.2-50.6c-39.1-9-79-11.6-118.9-14.5c-26.6-2-53.2-3.6-79.9-4.3
	c-11.8-0.3-20.1-4.8-27.3-13.5c-7.3-8.9-15.8-16.9-22.9-26c-13.4-17.1-29.7-27.8-52.2-26.8c-1.7,0.1-3.5-0.3-5.3-0.7
	c-23.5-4.4-30.1-12.1-30.5-35.7c-0.1-8.9,0.7-17.8,0.4-26.7c-0.7-18.2-4.1-21.8-21.9-22.8c-40.9-2.2-81.4-7.2-121.6-14.9
	c-37.5-7.2-74.7-15.8-110.5-29.5c-32.6-12.5-37-19.5-35.5-53.3c0.2-5.3,0.7-10.6,0.9-16c0.1-3.5,0.1-7.1-0.3-10.6
	c-1.3-10.7-6.9-18.2-17.5-21.1c-6-1.6-12.1-2.5-18.3-3.4c-12.3-1.7-24.7-3.1-37-4.8c-10.4-1.4-19-5.8-21.2-17
	c-2.4-12-10.9-17.7-20.7-22.5c-17.8-8.7-36.9-12.3-56.6-13.7c-21.3-1.5-42.7-2.1-63.8-5c-34.6-4.7-67.8-15.9-97.1-34.5
	c-15.8-10-29.9-14.1-47.3-9.3c-6.8,1.9-13.9,2.8-20.8,4.6c-68.9,18-135.1,43.3-199.6,73.5c-7.2,3.4-14.4,7.2-20.5,12.2
	c-18.7,15.3-39.8,18.1-62.7,14.6c-25.6-3.8-49.9-12.2-74.2-20.8c-20.9-7.3-41.9-14.5-62.9-21.6c-9.5-3.2-18.9-4-28.6,0.2
	c-18.7,8.1-37.7,15.6-56.5,23.6c-13.8,5.9-23.3,15.9-28.2,30.2c-2.9,8.4-6.5,16.6-8.7,25.2c-6.1,24.7-20.8,42.7-42,56
	c-10.5,6.6-21,13.3-31.1,20.6c-10.8,7.8-21.6,15.6-31.5,24.5c-15.9,14.3-24.5,32.3-24.1,54.2c0.2,12.4,0.2,24.9,0.1,37.3
	c-0.1,13.3-0.3,26.7-0.4,40c-0.2,25.4-11.3,44.2-34.1,55.8c-7.9,4-15.5,8.8-23.6,12.4c-22.3,9.9-41,24.3-57.4,42.4
	c-33.5,36.8-67,73.7-101.6,109.4c-22.5,23.2-41.4,48.5-56,77.4c-11.2,22.2-23,44.2-40.1,62.6c-5.1,5.5-7.5,11.8-7.4,19.3
	c0.1,5.3-0.4,10.7-0.4,16c-0.1,9.5-3.5,17.2-10.8,23.3c-8.2,6.8-16.1,14-24.2,20.9c-13.6,11.4-27,23.2-41.1,33.9
	c-13.6,10.4-17.2,23.5-15.4,39.8c2.3,20.5,6.1,41,16.4,58.6c10.4,17.7,14,36.2,14.6,55.9c0.6,20.4,1.4,40.9,0.9,61.3
	c-1,48-3,95.9-3.9,143.9c-0.7,36.4-7.3,70.6-31.7,99.3c-0.5,0.6-0.4,1.7-0.5,2.6c0.9,1.5,1.4,3.6,2.6,4.3
	c20.8,12.5,26.8,31.8,25.9,54.7c-0.4,10.6-0.4,21.3-0.1,32c0.9,35.5,16.2,63.1,46,82.5c5.2,3.4,10.5,6.8,16,9.6
	c14.5,7.4,26.9,17.4,37.6,29.4c13,14.6,26.4,29,37.8,44.7c21.9,30.2,44,60.4,63.2,92.3c12.5,20.9,29.3,34,50.1,45.2
	c73.4,39.6,146.4,80.1,219,121.4c14.3,8.2,27.1,10.4,42.8,6.7c31.2-7.3,61.5-17.3,92.2-26.1c38.4-11,76.5-23.3,116.9-25
	c1.1,4.3,2.5,8.5,3.3,12.8c10.9,65,26.6,128.7,49,190.7c69.7,192.7,183.7,354,344.2,481.6c145.5,115.7,310.6,188,494.1,218.5
	c15.7,2.6,31.9,2.3,47,8.3c-7.4,41.1-19,81.2-30.8,121.2c-4.5,15.2-11.7,27.6-26,35.3c-18.5,9.9-25,26.1-25.4,46.4
	c-0.5,25.8,0.3,51.5,2.1,77.2c3.6,54.1,18.1,104.7,49.1,150c23.4,34.2,37,72.6,45.8,112.8c7.5,34.4,21.2,65.8,44.2,92.7
	c20.9,24.5,31.4,53.3,35.1,84.9c2.6,22.1,7.6,43.7,13.9,65c13.2,45.1,24.9,90.6,40.3,135.1c2.4,7,5,12.8,9.9,18.1
	c27.2,29.5,49.3,62.8,70,97.1c28,46.4,52.2,94.9,76.2,143.4c11.1,22.4,24.5,43.2,42.7,60.7c8.3,8,16.9,16.4,28.2,19.5
	c22.5,6.1,43.4,16,63.8,26.6c20.1,10.4,40.4,11.6,62,9.3c54.4-5.7,106.1-20.9,156.1-42.5c38.4-16.6,75.2-36.1,108.2-62.1
	c15.5-12.2,28.9-26.1,37.2-44.4c8.2-18.2,21.6-32.7,37.1-44.8c14.7-11.4,30.1-22.1,45.8-31.9c18.8-11.8,38.4-22.2,57.6-33.4
	c18.4-10.8,36.3-22.3,53-35.7c30.1-24.1,50.8-53.8,59.7-91.9c6.9-29.4,13.5-58.8,16.9-88.8c2.7-23.4,2.7-45.7-9.9-67
	c-6.5-11-3.6-17.7,8.2-23.8c9.4-4.8,19.3-9.1,29.5-12c17.1-4.8,29.8-14.8,40.7-28.4c15.1-18.9,27.6-39.3,36.2-61.8
	c9.2-24,17.5-48.4,26.2-72.6c7.4-20.7,7.1-41.6,2-62.9c-6.4-27-16.7-52.5-29.8-76.7c-15.5-28.5-19.5-58.5-16.8-90.2
	c2.5-29.2,6.5-58.2,11-87.2c5.3-34.3,9.2-68.6,3.7-103.4c-2.4-14.8-1.1-30.2-2.1-45.2c-1.4-20,5.4-35.4,20.3-49.4
	c37.4-35.4,74-71.8,108.3-110.3c27.9-31.2,53.3-64.2,74.1-100.7c25.3-44.3,37.6-91.6,34.6-142.8c-1.6-26.6-2.1-53.3-1.8-79.9
	c0.3-31.6,8.2-61.3,24.8-88.7c21.2-34.9,42.2-69.9,62.1-105.6c9.9-17.8,23.5-30.8,40.2-41.6c14.9-9.7,29.7-19.5,44-30
	c21.5-16,34.9-37.7,40.9-63.7c3.8-16.4,6.7-33.1,6.7-50.1c0.1-27.6-0.4-55-3.2-82.5c-3.1-30-4.2-60.3-3.6-90.5
	c0.5-24.2,4.8-47.6,15.1-69.8c7.8-17,12-35.1,14.5-53.8c2.6-19.4,3.3-38.9,4.3-58.4c1.9-36.4,3.3-72.9,19.3-106.7
	c0.7-1.5,0.9-3.4,1-5.2c0.2-4.1-2.2-6.8-5.9-7.5c-3.3-0.6-7-0.4-10.3,0.3c-11.5,2.5-21.3,8.9-30.5,15.9
	c-16.9,13-33.8,26.1-49.7,40.2c-16.8,14.8-35.2,26.7-55.4,36.3c-31.3,14.8-62,30.7-93.1,45.9c-16.9,8.3-31.7,19.1-45.2,32.4
	c-21.5,21.2-43.6,41.8-66.1,62c-37.2,33.3-77.8,61.8-123.2,83c0.8-13,1.3-26,2.6-39c2.1-20.8,3.8-41.6,2.7-62.5
	c13.8-9.6,28.6-17.4,41.7-28.2c175.3-144.9,350.7-289.5,526.3-434.1c26.7-22,54-43.3,81.2-64.8c12.6-10,24.3-20.8,33.9-33.7
	c25.5-34.5,28.9-71.5,12.2-110.7c-6-14.1-15-26-25.1-37.4c-58.6-65.6-117-131.4-175.6-196.9c-9.5-10.6-19.6-20.6-30-30.3
	c-11.1-10.3-23.6-18.8-37.5-25.1c-32.8-15-63.8-12.1-92.7,9.6c-17.3,13-30.8,29.3-41.6,48c-6.2,10.8-13.3,20.8-21.9,30
	c-117.2,124-234.1,248.1-351.2,372.2C4223.5,2698.1,4217.4,2703.3,4211.6,2708.7z M3168.1,1680.6c30.3,1,55.9-10,78.4-28.9
	c15.1-12.8,26.9-28.3,36.3-45.6c4.7-8.6,8.9-17.4,14-25.7c65.4-104.7,130.1-209.9,198.9-312.4c5.9-8.8,12-17.7,16.9-27.1
	c20.7-39.4,23.1-79.5,4.3-120.4c-6.8-14.8-16.3-26.7-30.1-36.3c-67.1-46.7-132.6-95.6-197.2-145.6c-23.9-18.5-47.3-37.6-71.3-55.9
	c-18.4-14.1-38.4-25.5-61.1-31.6c-35-9.3-63.2,1.6-82.7,31.9c-7.7,11.9-15.5,23.8-24,35.2c-69.5,93.4-139.1,186.7-208.6,280
	c-52.6,70.5-105.3,140.9-157.7,211.6c-27.4,36.9-20.1,75.3,18.3,100.5c14.3,9.4,30.3,14.8,46.4,19.6c8.5,2.5,17.3,4,25.7,7
	c56,19.9,112.1,39.5,167.9,60.2c52.4,19.5,103.8,41.6,154.5,65.3C3119.5,1672.9,3142.9,1681.2,3168.1,1680.6z"/>
<path class="st0" d="M3721,2201.2c27.1,15.1,54.2,30.3,81.4,45.4c-4.7,7.5-9,15.2-14.1,22.4c-38.5,54.2-77.1,108.4-115.8,162.4
	c-18.6,25.9-36.3,52.5-57,76.9c-8.6,10.2-15.7,21.5-20.7,33.9c-11.8,29.2-4.6,51.9,22,68.5c12.1,7.6,25.5,12,39.5,15.3
	c10.3,2.4,20.7,4.1,30.4,9.1c81.7,42.6,165.8,80.4,246.2,125.6c38.7,21.8,77.7,21.6,116.6,0.3c11.7-6.4,22.4-14.2,32.3-23.2
	c11.2-10.2,21-21.5,30.5-33.3c19.5-24.1,39-48.1,61.5-69.6c12.6,24.6,25.2,49.3,37.7,74c-6.9,8.1-13.5,16.4-20.8,24.2
	c-51.1,54.3-102.4,108.5-153.6,162.7c-10.4,11-20.4,22.3-27.1,36c-12.5,25.7-10,49.9,8,72.1c3.9,4.8,8.5,9,13.1,13.2
	c10.5,9.5,21.6,18.4,31.9,28.2c42.3,40.4,87.7,77.6,126.7,121.6c24.5,27.7,56.4,39.3,93.6,33.1c8.7-1.5,17.2-3.9,25.8-6
	c1.1,20.9-0.6,41.7-2.7,62.5c-1.3,13-1.8,26-2.6,39c-1.6,6.9-3.6,13.7-4.6,20.7c-8.9,59.8-22.6,118.5-41.2,176.1
	c-100.2,310.5-343.8,575.3-689.9,689.5c-80.4,26.5-162.9,42.9-247.5,49.2c-53.3,4-106.4,4.9-159.7,0c-16.8-1.5-33.7-2-50.5-2.9
	c-15.1-6-31.3-5.7-47-8.3c-183.5-30.4-348.6-102.7-494.1-218.5c-160.5-127.6-274.5-288.9-344.2-481.6c-22.4-62-38.1-125.7-49-190.7
	c-0.7-4.3-2.2-8.5-3.3-12.8c-1.2-14.2-2.2-28.3-3.7-42.5c-9-84.3-8.3-168.6,2.7-252.6c13.8-105.4,42.6-206.7,86.6-303.7
	c77.3-170.3,191.4-310.7,341.7-422c36.4-27,75.1-50.4,113.7-74c19.3-10,38.6-19.9,57.9-29.9c16.7,11.9,29.6,27.9,44.1,42.1
	c31.1,30.4,61.6,61.4,96,88.3c44.2,34.5,93.5,57.3,148.5,68.1c54.2,10.7,109,13.8,164.1,14.9c30.4,0.6,60.2-1.9,89.7-9.5
	c13.7-3.6,27.5-7.1,41.3-10.3c21.6-4.9,42.9-11,65.1-13c63.1-5.8,104.8-39.6,125.2-99.3c7.8-22.8,11.4-46.5,11.5-70.6
	c0-22.2-0.2-44.3-0.3-66.5c24.7,8.3,49.4,16.5,74.2,24.8c-0.6,11.4-1.4,22.8-1.9,34.2c-0.7,16.7-1.4,33.5-1.7,50.2
	c-0.2,10.7,2.1,21.1,6.1,31c2.9,7.2,11.5,9.7,17.6,4.5c6-5.1,11.1-11.2,16.4-17.2C3685.7,2242.7,3701.2,2220.1,3721,2201.2z
	 M2686.6,3481.1c8.1,2.7,13,4.8,18,6.1c23.2,5.8,46.6,11.3,69.8,17.2c45.6,11.6,91.2,23.3,136.7,35.2c11,2.9,11.5,4.3,9,14.8
	c-5.2,21.6-10.8,43.1-16.1,64.6c-9.6,38.7-19.1,77.4-28.4,114.9c3.6,5.6,8.1,6.5,12.3,7.6c20.6,5.3,41.3,10.6,62.1,15.3
	c12.9,2.9,25.2,8.8,38.8,8c11.1-10.8,10-26,13.5-39.3c12.3-46.3,23.4-93,35.3-139.4c2.8-10.9,4.2-11.6,14.6-9
	c18.1,4.4,36.2,9,54.2,13.7c27.7,7.2,27.7,7.3,20.7,35.2c-12.7,50.8-25.4,101.6-38,152.5c-2.5,10-1,12.6,9,15.2
	c30.9,8.1,61.9,15.9,92.9,23.6c11,2.7,13,1.4,16.3-11c6.5-24.9,12.7-49.9,18.9-74.9c7.7-31,15.2-62.1,23-93.1
	c2.8-11,5.8-12.8,17.2-11.1c14.9,2.2,29.8,4.9,44.7,7.1c52.1,7.4,104.1,10.8,156.6,3.3c79.2-11.3,139.7-49.8,178-120.6
	c24.8-45.9,39.9-95,41.8-147.4c1.5-42.1-9.1-80.8-34.7-115.1c-17.3-23.1-39-41.1-62.8-57c-8-5.4-17.6-8.6-24.1-16.4
	c6.5-5.6,14.6-6.5,22.1-9.3c51.3-19,86.8-54.1,106.9-104.9c7.2-18.2,12.3-37.2,15.2-56.5c8.5-57-0.9-109.8-38.2-155.5
	c-13-15.9-27.8-30-44.1-42.4c-26.3-20-55-36-85.1-49.3c-18.7-8.2-37.9-15.2-56.8-23c-8.9-3.6-10.7-6.9-8.4-16.6
	c5.8-24.2,11.9-48.3,17.9-72.4c8-31.9,16.1-63.7,23.9-95.6c2.7-11.1,0.8-13.8-10.7-16.7c-24.1-6.1-48.2-12-72.4-17.9
	c-38.3-9.4-29.7-12.1-39,23.3c-12.7,48-24.3,96.4-36.6,144.6c-2.6,10.3-5.1,11.9-14.9,9.7c-24.3-5.4-48.4-11.1-72.6-17
	c-7.6-1.8-9-5-6.7-14.2c7.2-29.3,14.7-58.6,21.9-87.8c6.2-25,12.6-49.9,18.4-75c3.1-13.5,1.7-15.5-11.1-18.8
	c-27.5-7.1-55.1-13.9-82.7-20.8c-3.4-0.9-7-1.3-10.5-1.9c-6.2-1.1-10.4,1.3-12,7.4c-2.3,8.6-4.3,17.2-6.5,25.8
	c-11.9,47.4-23.7,94.7-35.7,142c-3.5,13.9-5.1,14.6-18.1,12.1c-3.5-0.7-6.9-1.7-10.3-2.5c-59.4-14.8-118.7-30.1-178.3-44.4
	c-38.4-9.2-32.7-14.7-42.9,25.7c-6.8,26.7-13.2,53.4-19.5,80.2c-1.9,8.3,0.3,11.8,8.1,13.8c17.2,4.5,34.6,8.1,51.7,12.7
	c13.7,3.7,27.6,7.2,40.6,12.7c23.6,9.9,35.6,29,36.5,54.2c0.3,9.5-2.6,19.3-4.9,28.7c-40.3,162-80.6,323.9-121,485.8
	c-1.9,7.8-3.5,15.7-6.2,23.1c-7.8,21.6-25,32-47.8,29.4c-4.4-0.5-8.7-1.7-13-2.7c-21.5-5.3-43-10.8-64.6-16.1
	c-12.8-3.1-14.3-2.5-20,10.4c-9.8,21.9-19.2,44-28.7,66C2702.3,3444.4,2695,3461.5,2686.6,3481.1z"/>
<path d="M2714.1,2221.4c-38.6,23.5-77.3,47-113.7,74c-150.2,111.3-264.4,251.7-341.7,422c-44,96.9-72.7,198.3-86.6,303.7
	c-11,84-11.7,168.3-2.7,252.6c1.5,14.1,2.5,28.3,3.7,42.5c-40.4,1.6-78.5,13.9-116.9,25c-30.7,8.8-61,18.8-92.2,26.1
	c-15.7,3.7-28.5,1.4-42.8-6.7c-72.5-41.3-145.5-81.8-219-121.4c-20.8-11.2-37.6-24.3-50.1-45.2c-19.2-31.9-41.3-62.1-63.2-92.3
	c-11.4-15.8-24.8-30.2-37.8-44.7c-10.7-12-23.1-22-37.6-29.4c-5.5-2.8-10.8-6.2-16-9.6c-29.8-19.4-45.1-47-46-82.5
	c-0.3-10.7-0.3-21.3,0.1-32c1-22.8-5.1-42.2-25.9-54.7c-1.3-0.8-1.8-2.9-2.6-4.3c0.2-0.9,0-2,0.5-2.6c24.4-28.7,30.9-62.9,31.7-99.3
	c0.9-48,2.9-95.9,3.9-143.9c0.4-20.4-0.3-40.9-0.9-61.3c-0.6-19.7-4.2-38.2-14.6-55.9c-10.3-17.6-14.1-38.1-16.4-58.6
	c-1.8-16.3,1.8-29.4,15.4-39.8c14.1-10.7,27.5-22.5,41.1-33.9c8.2-6.9,16.1-14,24.2-20.9c7.3-6.1,10.8-13.9,10.8-23.3
	c0-5.3,0.5-10.7,0.4-16c-0.1-7.5,2.3-13.8,7.4-19.3c17.2-18.4,28.9-40.4,40.1-62.6c14.6-28.8,33.5-54.1,56-77.4
	c34.6-35.7,68.1-72.6,101.6-109.4c16.4-18,35.1-32.5,57.4-42.4c8.1-3.6,15.7-8.4,23.6-12.4c22.8-11.6,33.9-30.4,34.1-55.8
	c0.1-13.3,0.3-26.7,0.4-40c0.1-12.4,0.1-24.9-0.1-37.3c-0.4-21.9,8.2-39.9,24.1-54.2c9.9-8.9,20.7-16.7,31.5-24.5
	c10.1-7.3,20.6-14,31.1-20.6c21.2-13.3,35.9-31.3,42-56c2.1-8.6,5.8-16.8,8.7-25.2c4.9-14.3,14.4-24.4,28.2-30.2
	c18.8-8,37.8-15.5,56.5-23.6c9.7-4.2,19.1-3.4,28.6-0.2c21,7.1,42,14.3,62.9,21.6c24.3,8.5,48.6,16.9,74.2,20.8
	c23,3.4,44.1,0.7,62.7-14.6c6.1-5,13.3-8.9,20.5-12.2c64.4-30.2,130.7-55.5,199.6-73.5c6.9-1.8,13.9-2.7,20.8-4.6
	c17.4-4.8,31.5-0.8,47.3,9.3c29.3,18.6,62.5,29.8,97.1,34.5c21.1,2.9,42.5,3.5,63.8,5c19.7,1.4,38.7,5,56.6,13.7
	c9.8,4.8,18.4,10.5,20.7,22.5c2.2,11.2,10.8,15.6,21.2,17c12.3,1.7,24.7,3,37,4.8c6.1,0.9,12.3,1.8,18.3,3.4
	c10.6,2.9,16.2,10.4,17.5,21.1c0.4,3.5,0.4,7.1,0.3,10.6c-0.2,5.3-0.6,10.6-0.9,16c-1.6,33.8,2.9,40.9,35.5,53.3
	c35.8,13.7,72.9,22.3,110.5,29.5c40.2,7.7,80.7,12.6,121.6,14.9c17.8,1,21.3,4.6,21.9,22.8c0.3,8.9-0.5,17.8-0.4,26.7
	c0.3,23.7,7,31.3,30.5,35.7c1.7,0.3,3.5,0.7,5.3,0.7c22.5-1,38.8,9.6,52.2,26.8c7.1,9.1,15.6,17.1,22.9,26
	c7.2,8.7,15.4,13.2,27.3,13.5c26.6,0.7,53.3,2.3,79.9,4.3c39.8,3,79.8,5.5,118.9,14.5c37.4,8.6,40.9,12.8,36.2,50.6
	c-3.1,25.5-8.9,50.7-12.6,76.2c-2.3,15.6-8.2,31.1-2.6,47.2c0.1,22.2,0.3,44.3,0.3,66.5c0,24.1-3.7,47.9-11.5,70.6
	c-20.4,59.7-62.1,93.5-125.2,99.3c-22.3,2.1-43.6,8.1-65.1,13c-13.8,3.2-27.6,6.7-41.3,10.3c-29.4,7.6-59.3,10.1-89.7,9.5
	c-55.1-1.2-109.9-4.3-164.1-14.9c-55-10.8-104.4-33.7-148.5-68.1c-34.4-26.8-64.9-57.8-96-88.3c-14.5-14.2-27.4-30.2-44.1-42.1
	c-15.5-13.6-25.4-14.7-38.1-3C2724.2,2197.4,2715.6,2207.4,2714.1,2221.4z"/>
<path d="M3110.7,4228c16.8,0.9,33.7,1.4,50.5,2.9c53.2,4.9,106.4,4,159.7,0c84.6-6.3,167.1-22.7,247.5-49.2
	c346.1-114.3,589.7-379,689.9-689.5c18.6-57.6,32.3-116.3,41.2-176.1c1-7,3.1-13.8,4.6-20.7c45.4-21.3,86-49.7,123.2-83
	c22.5-20.1,44.6-40.7,66.1-62c13.5-13.3,28.3-24.1,45.2-32.4c31.1-15.3,61.8-31.1,93.1-45.9c20.3-9.6,38.6-21.5,55.4-36.3
	c16-14.1,32.9-27.1,49.7-40.2c9.1-7,18.9-13.4,30.5-15.9c3.3-0.7,7-0.9,10.3-0.3c3.7,0.7,6.1,3.4,5.9,7.5c-0.1,1.7-0.3,3.6-1,5.2
	c-16,33.9-17.4,70.4-19.3,106.7c-1,19.5-1.7,39-4.3,58.4c-2.5,18.7-6.6,36.7-14.5,53.8c-10.2,22.2-14.6,45.5-15.1,69.8
	c-0.6,30.2,0.5,60.5,3.6,90.5c2.9,27.5,3.3,55,3.2,82.5c0,17-2.9,33.7-6.7,50.1c-6,25.9-19.4,47.7-40.9,63.7
	c-14.2,10.6-29.1,20.4-44,30c-16.6,10.8-30.3,23.8-40.2,41.6c-19.8,35.7-40.9,70.7-62.1,105.6c-16.6,27.4-24.4,57.1-24.8,88.7
	c-0.3,26.6,0.2,53.3,1.8,79.9c3,51.3-9.3,98.5-34.6,142.8c-20.8,36.5-46.2,69.4-74.1,100.7c-34.3,38.5-70.9,74.9-108.3,110.3
	c-14.9,14.1-21.7,29.4-20.3,49.4c1,15.1-0.2,30.4,2.1,45.2c5.6,34.8,1.6,69.1-3.7,103.4c-4.5,29-8.4,58-11,87.2
	c-2.7,31.7,1.3,61.6,16.8,90.2c13.1,24.2,23.4,49.7,29.8,76.7c5.1,21.3,5.4,42.2-2,62.9c-8.7,24.2-16.9,48.6-26.2,72.6
	c-8.7,22.5-21.1,42.9-36.2,61.8c-10.8,13.6-23.6,23.6-40.7,28.4c-10.2,2.8-20.1,7.1-29.5,12c-11.8,6.1-14.7,12.8-8.2,23.8
	c12.6,21.3,12.6,43.6,9.9,67c-3.4,30.1-10,59.4-16.9,88.8c-8.9,38.1-29.7,67.8-59.7,91.9c-16.7,13.4-34.6,24.9-53,35.7
	c-19.2,11.2-38.8,21.6-57.6,33.4c-15.8,9.9-31.2,20.5-45.8,31.9c-15.5,12.1-28.8,26.6-37.1,44.8c-8.3,18.4-21.7,32.2-37.2,44.4
	c-33,26-69.8,45.5-108.2,62.1c-50,21.6-101.7,36.8-156.1,42.5c-21.6,2.2-41.9,1.1-62-9.3c-20.4-10.6-41.3-20.5-63.8-26.6
	c-11.3-3.1-19.9-11.5-28.2-19.5c-18.2-17.5-31.6-38.3-42.7-60.7c-24-48.5-48.1-97-76.2-143.4c-20.7-34.3-42.8-67.5-70-97.1
	c-4.9-5.3-7.5-11.2-9.9-18.1c-15.4-44.5-27.1-90-40.3-135.1c-6.3-21.3-11.3-42.9-13.9-65c-3.7-31.5-14.2-60.4-35.1-84.9
	c-23.1-26.9-36.7-58.3-44.2-92.7c-8.7-40.2-22.4-78.6-45.8-112.8c-31-45.3-45.4-95.8-49.1-150c-1.7-25.7-2.6-51.4-2.1-77.2
	c0.4-20.3,6.9-36.5,25.4-46.4c14.3-7.7,21.5-20.1,26-35.3C3091.7,4309.1,3103.3,4269.1,3110.7,4228z"/>
<path d="M4173.8,2634.8c-22.5,21.4-42.1,45.5-61.5,69.6c-9.5,11.8-19.3,23.1-30.5,33.3c-9.9,9-20.6,16.8-32.3,23.2
	c-38.9,21.3-77.9,21.5-116.6-0.3c-80.4-45.2-164.5-83-246.2-125.6c-9.7-5.1-20.1-6.7-30.4-9.1c-13.9-3.3-27.3-7.7-39.5-15.3
	c-26.6-16.6-33.8-39.3-22-68.5c5-12.4,12-23.8,20.7-33.9c20.7-24.4,38.5-50.9,57-76.9c38.7-54.1,77.3-108.2,115.8-162.4
	c5.1-7.2,9.4-14.9,14.1-22.4c3.5-3.9,7.4-7.6,10.4-11.8c93.9-131.5,187.8-263,281.5-394.7c6.6-9.3,12.2-19.5,17.4-29.8
	c8.9-17.5,19-34.1,31.5-49.2c8.5-10.3,18.1-19.5,29.3-27c25.4-16.9,51.6-17.5,77.8-2.4c9.1,5.3,17.6,12,25.4,19.3
	c91.4,85.7,182.4,171.7,273.9,257.3c29.6,27.7,45.3,60.7,42.8,101.8c-1.1,18-6.7,34.8-14.4,50.9c-9.6,20.2-22.8,38-37.6,54.7
	c-53,59.8-106.1,119.6-158.8,179.7c-63.9,72.7-127.6,145.7-191.3,218.6C4184.4,2620.6,4179.3,2627.8,4173.8,2634.8z"/>
<path d="M4309.3,3193.9c-8.6,2-17.1,4.5-25.8,6c-37.2,6.2-69.1-5.3-93.6-33.1c-39-44-84.4-81.2-126.7-121.6
	c-10.3-9.8-21.3-18.7-31.9-28.2c-4.6-4.1-9.2-8.4-13.1-13.2c-18-22.3-20.5-46.4-8-72.1c6.7-13.8,16.6-25,27.1-36
	c51.3-54.2,102.5-108.4,153.6-162.7c7.3-7.7,13.8-16.1,20.8-24.2c5.8-5.5,11.9-10.6,17.4-16.4c117.1-124.1,234-248.2,351.2-372.2
	c8.7-9.2,15.7-19.2,21.9-30c10.7-18.7,24.3-35,41.6-48c29-21.8,59.9-24.7,92.7-9.6c13.8,6.3,26.4,14.8,37.5,25.1
	c10.4,9.7,20.5,19.7,30,30.3c58.6,65.5,117,131.3,175.6,196.9c10.1,11.3,19.2,23.3,25.1,37.4c16.7,39.2,13.3,76.1-12.2,110.7
	c-9.6,13-21.3,23.8-33.9,33.7c-27.2,21.5-54.4,42.8-81.2,64.8c-175.5,144.6-351,289.3-526.3,434.1
	C4338,3176.4,4323.1,3184.2,4309.3,3193.9z"/>
<path d="M3168.1,1680.6c-25.2,0.6-48.6-7.7-71.3-18.3c-50.7-23.7-102-45.8-154.5-65.3c-55.7-20.7-111.8-40.4-167.9-60.2
	c-8.3-3-17.2-4.4-25.7-7c-16.2-4.8-32.1-10.2-46.4-19.6c-38.4-25.3-45.7-63.7-18.3-100.5c52.4-70.6,105.1-141,157.7-211.6
	c69.6-93.3,139.2-186.6,208.6-280c8.5-11.4,16.3-23.3,24-35.2c19.6-30.3,47.8-41.2,82.7-31.9c22.7,6.1,42.7,17.5,61.1,31.6
	c24,18.3,47.4,37.4,71.3,55.9c64.6,50,130.1,99,197.2,145.6c13.8,9.6,23.3,21.5,30.1,36.3c18.8,40.9,16.4,81-4.3,120.4
	c-4.9,9.4-11,18.3-16.9,27.1c-68.8,102.5-133.5,207.7-198.9,312.4c-5.2,8.3-9.4,17.1-14,25.7c-9.4,17.3-21.2,32.9-36.3,45.6
	C3224,1670.6,3198.4,1681.6,3168.1,1680.6z"/>
<path d="M3721,2201.2c-19.8,18.9-35.3,41.6-53.3,62.1c-5.2,5.9-10.4,12.1-16.4,17.2c-6,5.2-14.6,2.7-17.6-4.5
	c-4-9.9-6.3-20.3-6.1-31c0.3-16.7,1-33.5,1.7-50.2c0.5-11.4,1.3-22.8,1.9-34.2c2.1-13.1,4.4-26.2,6.3-39.4c1.8-12.3,4-24.4,8.4-36.2
	c13.4-35.4,9-69.7-8.4-102.8c-10.9-20.7-26.1-38-43.6-53.4c-15.3-13.6-32-25.3-49.5-35.9c-42.5-25.8-85-51.6-127.2-77.8
	c-12.2-7.5-24.6-13.9-38.7-17c-11.4-2.5-21.8-7.5-31.5-13.9c-19.3-12.8-28.8-35.3-20.4-57.9c4.4-11.8,10.1-22.6,17-33
	c8.3-12.6,16.7-25.1,24.4-38.1c74.8-124.9,147.9-250.8,224.8-374.4c3.8-6,7.1-12.3,11.3-18c20.3-27.7,47.7-38.6,81.5-33.2
	c24.1,3.9,45.5,14.4,65.6,28c38.4,25.9,73,56.5,107.1,87.7c56.3,51.7,110.2,105.9,162.8,161.2c11.6,12.2,23.4,24.3,35.2,36.4
	c17.6,18,31.4,38.4,39.9,62.3c11.2,31.6,10.2,62.7-3.1,93.4c-5.7,13.1-12.9,25.3-21.9,36.4c-56.7,70.6-108.6,144.9-163,217.4
	c-43.1,57.5-85.5,115.7-128.6,173.3c-14.4,19.2-29.9,37.4-44.8,56.3C3730.1,2188.1,3725.7,2194.7,3721,2201.2z"/>
<path class="st1" d="M2686.6,3481.1c8.4-19.6,15.7-36.7,23-53.7c9.5-22,18.9-44.1,28.7-66c5.8-12.9,7.3-13.6,20-10.4
	c21.6,5.3,43.1,10.8,64.6,16.1c4.3,1.1,8.6,2.2,13,2.7c22.8,2.6,40-7.8,47.8-29.4c2.7-7.5,4.3-15.4,6.2-23.1
	c40.4-161.9,80.8-323.9,121-485.8c2.3-9.4,5.2-19.2,4.9-28.7c-0.8-25.2-12.9-44.3-36.5-54.2c-13-5.5-26.9-9-40.6-12.7
	c-17.1-4.6-34.5-8.2-51.7-12.7c-7.8-2-10-5.5-8.1-13.8c6.2-26.8,12.7-53.5,19.5-80.2c10.3-40.4,4.6-34.9,42.9-25.7
	c59.6,14.3,118.9,29.5,178.3,44.4c3.4,0.9,6.9,1.9,10.3,2.5c13,2.5,14.6,1.8,18.1-12.1c12.1-47.3,23.9-94.7,35.7-142
	c2.2-8.6,4.2-17.3,6.5-25.8c1.6-6.1,5.8-8.5,12-7.4c3.5,0.6,7,1.1,10.5,1.9c27.6,6.9,55.1,13.7,82.7,20.8
	c12.8,3.3,14.2,5.3,11.1,18.8c-5.8,25.1-12.2,50-18.4,75c-7.3,29.3-14.7,58.5-21.9,87.8c-2.3,9.2-0.8,12.3,6.7,14.2
	c24.2,5.9,48.3,11.6,72.6,17c9.8,2.2,12.3,0.6,14.9-9.7c12.3-48.2,23.9-96.5,36.6-144.6c9.4-35.4,0.7-32.7,39-23.3
	c24.1,5.9,48.3,11.8,72.4,17.9c11.5,2.9,13.4,5.6,10.7,16.7c-7.8,31.9-15.9,63.7-23.9,95.6c-6,24.1-12.2,48.2-17.9,72.4
	c-2.3,9.7-0.5,12.9,8.4,16.6c18.9,7.7,38.1,14.7,56.8,23c30.1,13.3,58.8,29.3,85.1,49.3c16.4,12.4,31.1,26.5,44.1,42.4
	c37.3,45.8,46.7,98.6,38.2,155.5c-2.9,19.3-7.9,38.3-15.2,56.5c-20.1,50.7-55.6,85.9-106.9,104.9c-7.4,2.8-15.6,3.7-22.1,9.3
	c6.5,7.8,16,11.1,24.1,16.4c23.8,15.9,45.6,33.9,62.8,57c25.5,34.2,36.2,73,34.7,115.1c-1.9,52.4-17,101.5-41.8,147.4
	c-38.3,70.9-98.9,109.3-178,120.6c-52.5,7.5-104.6,4.2-156.6-3.3c-14.9-2.1-29.8-4.9-44.7-7.1c-11.4-1.7-14.4,0.1-17.2,11.1
	c-7.8,31-15.3,62.1-23,93.1c-6.2,25-12.4,50-18.9,74.9c-3.3,12.5-5.3,13.8-16.3,11c-31-7.7-62-15.5-92.9-23.6
	c-10-2.6-11.5-5.2-9-15.2c12.6-50.9,25.3-101.7,38-152.5c7-28,7-28-20.7-35.2c-18-4.7-36.1-9.3-54.2-13.7c-10.4-2.5-11.8-1.9-14.6,9
	c-11.9,46.5-23,93.1-35.3,139.4c-3.5,13.3-2.4,28.5-13.5,39.3c-13.6,0.8-25.9-5.1-38.8-8c-20.8-4.7-41.4-10-62.1-15.3
	c-4.2-1.1-8.7-2-12.3-7.6c9.3-37.5,18.8-76.2,28.4-114.9c5.3-21.5,10.8-43,16.1-64.6c2.6-10.5,2-12-9-14.8
	c-45.5-11.9-91.1-23.6-136.7-35.2c-23.2-5.9-46.6-11.4-69.8-17.2C2699.6,3485.9,2694.7,3483.9,2686.6,3481.1z M3286.6,3471.3
	c35.5,0.3,65.2-3.3,93.8-14.8c62.5-25.1,84.2-108.1,45.7-161.4c-12.2-16.8-27.3-30.3-44.4-41.7c-23.8-15.9-49.7-27.4-76.3-37.4
	c-49.2-18.5-100.5-29.2-151.4-41.3c-8.1-1.9-10.1-0.2-12.9,8.9c-1.3,4.2-2.5,8.5-3.6,12.8c-17.6,70.6-35.3,141.2-52.8,211.8
	c-1.1,4.3-1.9,8.7-2.6,13.1c-1.3,8.5,0.2,11.2,8.6,13.4c24.9,6.6,49.7,13.3,74.8,19C3206.8,3463.3,3248.9,3469.9,3286.6,3471.3z
	 M3335.2,3085c20.4,1.9,40.9,0.1,60.8-4.1c63.2-13.4,99.4-72.6,81.7-132.2c-6.8-23-21.1-40.7-39.5-55.3
	c-13.2-10.5-27.8-19.1-43-26.3c-48.4-23.1-100.3-34.7-152.3-45.8c-8.4-1.8-11.6,0.4-13.8,8.3c-3.7,13.7-7,27.5-10.4,41.2
	c-13.9,55.9-27.3,111.9-41.9,167.5c-4.2,16,0.4,16.5,12.3,19.6C3237.2,3070.4,3285.1,3083.2,3335.2,3085z"/>
<path class="st1" d="M2714.1,2221.4c1.6-14,10.2-23.9,19.8-32.9c12.7-11.8,22.6-10.6,38.1,3
	C2752.6,2201.5,2733.3,2211.4,2714.1,2221.4z"/>
<path class="st0" d="M3286.6,3471.3c-37.7-1.4-79.7-8-121.3-17.5c-25.1-5.7-49.9-12.4-74.8-19c-8.4-2.2-9.8-4.9-8.6-13.4
	c0.7-4.4,1.5-8.8,2.6-13.1c17.6-70.6,35.2-141.2,52.8-211.8c1.1-4.3,2.3-8.6,3.6-12.8c2.8-9.1,4.9-10.8,12.9-8.9
	c50.9,12.1,102.2,22.8,151.4,41.3c26.7,10,52.6,21.6,76.3,37.4c17.1,11.4,32.3,24.8,44.4,41.7c38.5,53.2,16.8,136.3-45.7,161.4
	C3351.7,3468,3322.1,3471.6,3286.6,3471.3z"/>
<path class="st0" d="M3335.2,3085c-50-1.8-98-14.6-146-27.1c-11.9-3.1-16.6-3.6-12.3-19.6c14.6-55.7,28-111.7,41.9-167.5
	c3.4-13.8,6.6-27.6,10.4-41.2c2.2-8,5.4-10.1,13.8-8.3c52,11.1,103.9,22.7,152.3,45.8c15.2,7.3,29.8,15.8,43,26.3
	c18.4,14.6,32.7,32.3,39.5,55.3c17.7,59.7-18.5,118.9-81.7,132.2C3376.1,3085.2,3355.6,3086.9,3335.2,3085z"/>
<g id="flowRoot4747" transform="matrix(1.0716419,0,0,1.2254803,150.0065,-781.8426)">
</g>
<g id="flowRoot4755">
</g>
</svg>
