<svg width="774" height="830" viewBox="0 0 774 830" fill="none" xmlns="http://www.w3.org/2000/svg">
<path d="M610.5 169.156C612.797 173.527 615.008 177.94 617.151 182.384H617.152L616.251 182.818C618.392 187.256 620.468 191.726 622.497 196.215L623.408 195.804V195.803C625.443 200.303 627.431 204.821 629.393 209.346V209.347L628.476 209.744C629.456 212.006 630.431 214.271 631.401 216.535V216.536C632.395 218.876 633.422 221.187 634.492 223.461L635.397 223.035V223.034C637.566 227.64 639.914 232.087 642.541 236.317V236.318L641.691 236.846C644.378 241.173 647.359 245.282 650.737 249.11L651.486 248.449L651.487 248.447C654.76 252.156 658.406 255.593 662.523 258.701V258.702L661.921 259.5C663.915 261.005 666.018 262.433 668.239 263.779V263.78C670.298 265.067 672.267 266.607 674.15 268.329L674.824 267.591C678.517 270.967 681.85 274.994 684.853 279.117V279.118L684.045 279.706C685.562 281.79 686.997 283.902 688.354 285.97C689.764 288.16 691.114 290.175 692.426 292.02L693.24 291.439V291.438C696.579 296.133 699.652 299.69 702.846 302.239V302.241L702.222 303.022C706.379 306.34 710.763 308.027 716.105 308.321L716.16 307.323V307.322C720.225 307.546 724.883 306.937 730.512 305.619L730.513 305.62L730.74 306.594C732.394 306.207 734.128 305.76 735.95 305.257L737.803 304.734L737.828 304.727C739.065 304.336 740.298 303.947 741.534 303.566L741.239 302.61C743.707 301.85 746.192 301.122 748.725 300.492L748.966 301.463C749.895 301.232 750.83 301.014 751.771 300.813L752.716 300.618L752.729 300.615L752.742 300.612C755.763 299.923 758.476 299.63 760.851 299.714L760.885 298.715C767.601 298.951 771.959 302.077 773.212 308.046L772.236 308.251C772.699 310.457 772.718 313.128 772.211 316.28C771.922 317.982 771.596 319.688 771.234 321.393L772.213 321.601C771.489 325.01 770.619 328.415 769.6 331.776L768.644 331.487C767.634 334.817 766.477 338.103 765.169 341.304L766.094 341.681C764.759 344.947 763.269 348.128 761.617 351.184L760.738 350.709C760.117 351.858 759.473 352.989 758.807 354.099L758.133 355.201L758.127 355.21C756.677 357.595 755.19 359.956 753.671 362.297L754.509 362.84C751.46 367.538 748.284 372.15 745.017 376.702L744.205 376.12C740.949 380.656 737.601 385.134 734.197 389.577L734.991 390.185C731.587 394.628 728.13 399.035 724.653 403.43L723.869 402.81C722.134 405.003 720.394 407.193 718.654 409.385C717.062 411.359 715.356 413.225 713.564 415.016L714.27 415.723C710.648 419.343 706.703 422.64 702.694 425.873L702.067 425.096C701.07 425.9 700.07 426.7 699.066 427.502L696.058 429.913L696.042 429.927C694.827 430.95 693.56 431.911 692.252 432.831L692.826 433.648C690.196 435.499 687.42 437.171 684.597 438.829L684.091 437.968C682.71 438.779 681.298 439.598 679.897 440.426C677.577 441.78 675.375 443.186 673.292 444.644L673.865 445.463L673.866 445.465C669.406 448.586 665.497 451.94 662.11 455.518L661.385 454.83C657.658 458.767 654.551 462.972 652.026 467.432L652.896 467.924C650.343 472.434 648.4 477.205 647.021 482.22H647.02L646.055 481.954C644.697 486.893 643.883 492.058 643.571 497.432L644.569 497.49H644.572C644.283 502.463 644.427 507.624 644.977 512.962V512.963L643.981 513.065C644.211 515.291 644.509 517.547 644.875 519.83L645.036 520.811V520.812C645.36 522.724 645.692 524.635 646.03 526.546L647.015 526.372V526.371C647.689 530.183 648.387 533.995 649.094 537.808H649.095L648.111 537.99C648.465 539.895 648.82 541.801 649.175 543.705C649.53 545.61 649.885 547.514 650.238 549.418L651.221 549.235V549.234C651.927 553.047 652.625 556.859 653.3 560.672H653.301L652.316 560.846C652.485 561.799 652.652 562.752 652.817 563.705L653.308 566.564L653.309 566.572C653.706 568.819 654.035 571.041 654.29 573.234L655.283 573.119V573.118C655.823 577.756 656.04 582.278 655.91 586.671L654.913 586.643C654.777 591.222 654.257 595.653 653.322 599.921L654.297 600.134C653.32 604.591 651.896 608.879 649.987 612.982L649.084 612.562C647.239 616.531 644.932 620.324 642.128 623.927L642.914 624.539C640.239 627.976 637.122 631.242 633.531 634.321L632.882 633.563C631.227 634.983 629.468 636.363 627.604 637.703C625.595 639.142 623.725 640.624 621.99 642.153L622.651 642.903L622.652 642.904C618.907 646.207 615.819 649.721 613.364 653.485L613.363 653.484L612.526 652.938C609.866 657.018 607.93 661.386 606.693 666.082L607.66 666.337H607.661C606.513 670.694 605.979 675.343 606.033 680.321L606.031 680.322L605.031 680.333C605.053 682.359 605.171 684.436 605.383 686.565L605.479 687.481L605.48 687.488C605.692 689.272 605.798 691.013 605.801 692.71L606.799 692.709C606.804 696.422 606.324 699.946 605.354 703.272L604.395 702.992C603.426 706.316 601.957 709.438 599.984 712.35L600.812 712.909C598.89 715.745 596.506 718.385 593.66 720.822L593.011 720.064C591.883 721.03 590.68 721.965 589.4 722.867L588.847 723.251C586.872 724.589 584.998 726.001 583.217 727.48L583.855 728.25C580.227 731.264 576.987 734.563 574.068 738.099L573.297 737.462C570.309 741.081 567.657 744.942 565.267 748.988L566.127 749.496H566.128C563.792 753.45 561.704 757.59 559.796 761.868L558.883 761.461C558.174 763.05 557.49 764.658 556.828 766.28L556.173 767.908L556.171 767.913C555.418 769.838 554.626 771.704 553.795 773.512L554.699 773.928C552.931 777.774 550.987 781.367 548.871 784.716L548.028 784.184C545.811 787.693 543.405 790.929 540.818 793.907L541.571 794.561C538.85 797.694 535.928 800.546 532.814 803.134L532.178 802.367C529.072 804.948 525.771 807.264 522.282 809.328L522.79 810.187C519.31 812.245 515.647 814.054 511.809 815.633L511.43 814.711C507.761 816.219 503.926 817.514 499.933 818.608L500.196 819.57C496.343 820.626 492.347 821.496 488.213 822.19L488.048 821.207C486.072 821.539 484.064 821.831 482.024 822.084C479.23 822.409 476.457 822.847 473.702 823.348L473.882 824.331C468.389 825.33 462.945 826.587 457.518 827.717L457.315 826.738C455.267 827.165 453.224 827.572 451.186 827.94L449.147 828.294C447.219 828.597 445.366 828.804 443.589 828.912L443.649 829.909C439.513 830.16 435.749 829.888 432.339 829.052L432.577 828.083C428.899 827.181 425.666 825.602 422.842 823.293L422.21 824.065C419.466 821.822 417.088 818.914 415.06 815.292L415.932 814.805C415.071 813.267 414.271 811.593 413.533 809.776L413.53 809.768L412.682 807.754C411.828 805.746 410.955 803.755 410.062 801.781L409.15 802.193C406.747 796.882 404.197 791.699 401.462 786.639L402.343 786.163C399.576 781.045 396.62 776.05 393.438 771.177L392.601 771.724C389.458 766.91 386.095 762.215 382.474 757.637H382.475L383.259 757.017C381.467 754.751 379.611 752.513 377.689 750.303H377.69L377.685 750.296L377.404 749.971C376.019 748.322 374.862 746.318 373.91 744.069L372.991 744.457C371.11 740.013 370.048 734.76 369.547 729.633L370.542 729.536C370.29 726.959 370.181 724.413 370.181 722.021C370.212 719.504 370.175 717.017 370.064 714.559L369.065 714.604H369.063C368.836 709.574 368.297 704.672 367.397 699.899H367.398L368.382 699.714C367.451 694.775 366.136 689.967 364.387 685.293L363.45 685.644H363.449C361.739 681.074 359.608 676.637 357.007 672.331H357.008L357.863 671.814C356.589 669.705 355.204 667.627 353.702 665.582C352.204 663.532 350.811 661.473 349.522 659.407L348.674 659.936C345.92 655.519 343.635 651.06 341.808 646.561L342.732 646.186C340.824 641.488 339.423 636.749 338.516 631.967L337.535 632.152C336.597 627.209 336.181 622.218 336.271 617.179L337.268 617.196C337.354 612.33 337.922 607.415 338.958 602.449L337.981 602.245C338.976 597.479 340.395 592.67 342.234 587.821L343.17 588.176C343.928 586.176 344.759 584.169 345.66 582.153L346.051 581.289L346.052 581.287C347.038 579.116 347.924 576.899 348.738 574.655L347.798 574.314C349.4 569.898 350.73 565.353 352.012 560.808L352.013 560.804L352.975 561.075C353.296 559.933 353.615 558.796 353.933 557.661L354.892 554.265L354.896 554.249C355.576 551.711 356.122 549.196 356.53 546.708L355.544 546.547L355.542 546.546C356.394 541.353 356.635 536.285 356.24 531.365H356.242L357.239 531.285C356.822 526.084 355.707 521.043 353.865 516.191L352.931 516.546H352.928C351.172 511.922 348.745 507.477 345.62 503.233L345.622 503.232L346.427 502.64C344.933 500.611 343.284 498.629 341.478 496.698H341.477C339.846 494.942 338.262 493.169 336.726 491.378L335.967 492.028C332.812 488.35 329.856 484.593 327.113 480.742L327.928 480.163C325.149 476.262 322.593 472.265 320.273 468.156L319.403 468.647C317.049 464.479 314.936 460.194 313.078 455.776L313.998 455.39C312.173 451.051 310.598 446.584 309.286 441.973L308.325 442.245C307.038 437.721 306.002 433.059 305.231 428.243L306.219 428.086C305.848 425.769 305.54 423.416 305.295 421.025H305.294C305.076 418.791 304.77 416.71 304.369 414.775L303.391 414.979H303.388C302.419 410.3 300.9 406.536 298.771 403.547H298.772L299.587 402.967C297.036 399.385 293.653 396.87 289.397 395.206L289.033 396.137L289.032 396.138C285.616 394.802 281.591 394.024 276.907 393.681L276.908 393.68L276.981 392.682C274.999 392.536 272.904 392.469 270.696 392.469L269.37 392.462C268.049 392.447 266.741 392.411 265.447 392.349L265.399 393.346C261.797 393.173 258.29 392.806 254.875 392.18L255.056 391.197C251.613 390.566 248.273 389.668 245.027 388.438L244.673 389.371C241.433 388.142 238.282 386.586 235.214 384.636L235.75 383.794C234.318 382.884 232.903 381.885 231.506 380.791L231.5 380.786L231.494 380.782L230.867 380.313C229.402 379.234 227.918 378.255 226.418 377.378L225.913 378.242H225.912C222.305 376.134 218.611 374.633 214.854 373.734H214.855L215.089 372.762C211.073 371.801 206.987 371.51 202.864 371.884L202.955 372.88V372.881C199.114 373.229 195.237 374.171 191.349 375.7V375.699L190.982 374.769C189.365 375.405 187.749 376.14 186.134 376.973L185.441 377.336C183.106 378.582 180.76 379.717 178.402 380.742L178.801 381.657C173.872 383.801 168.889 385.473 163.838 386.676L163.607 385.703C158.534 386.911 153.392 387.641 148.168 387.896L148.216 388.894C143.043 389.147 137.791 388.941 132.447 388.279L132.569 387.289C130.018 386.973 127.445 386.552 124.849 386.026H124.847C121.574 385.372 118.272 384.833 114.955 384.364L114.815 385.354L114.814 385.355C108.258 384.43 101.621 383.776 95.001 383.042H95.002L95.1123 382.048C91.8081 381.682 88.5143 381.296 85.2393 380.847H85.2402C82.1841 380.419 79.3869 379.65 76.8018 378.591L76.4219 379.515C70.7919 377.207 66.1212 373.549 61.9893 368.995L62.7295 368.325C60.7969 366.195 58.9777 363.858 57.2285 361.359C56.0709 359.687 54.905 358.023 53.7314 356.367L52.916 356.945H52.915C50.5635 353.627 48.1794 350.341 45.7637 347.087L46.5684 346.491C44.1404 343.221 41.6793 339.982 39.1865 336.776L38.3975 337.39H38.3965C35.9011 334.181 33.3738 331.003 30.8135 327.859L31.5889 327.229C30.304 325.651 29.0111 324.081 27.71 322.52C26.2552 320.663 24.8558 318.801 23.5127 316.934L22.7021 317.516C19.8902 313.605 17.3223 309.666 15.0078 305.691L15.8701 305.189C13.4727 301.073 11.3509 296.921 9.51562 292.729L8.60156 293.127C6.68942 288.758 5.08335 284.343 3.79688 279.872L4.75684 279.597C3.46381 275.103 2.49607 270.556 1.86719 265.945L0.87793 266.079C0.247194 261.455 -0.0453088 256.768 0.00976562 252.01L1.00684 252.021C1.05971 247.454 1.43715 242.819 2.15234 238.109L1.16699 237.959C1.85428 233.433 2.84862 228.841 4.16211 224.177L5.12207 224.448C5.58911 222.79 6.09763 221.121 6.64648 219.443L7.20898 217.762V217.76C8.32234 214.485 9.23657 211.137 10.0576 207.766L9.08594 207.528C10.6136 201.256 11.8301 194.857 13.4258 188.622L13.7324 187.446L14.6992 187.702C15.577 184.389 16.5716 181.143 17.7891 178.002C18.4341 176.389 19.0907 174.77 19.7627 173.149L18.8389 172.766C20.1734 169.548 21.57 166.324 23.0547 163.146L23.96 163.569C25.4389 160.403 27.0048 157.286 28.6836 154.269L27.8096 153.782C29.5281 150.693 31.3666 147.704 33.3545 144.867L34.1738 145.441C35.1726 144.016 36.2087 142.631 37.2852 141.294L37.2842 141.293C38.74 139.514 40.2032 137.738 41.6709 135.965L40.9004 135.327L40.8994 135.326C43.8359 131.778 46.7953 128.242 49.7744 124.717L49.7754 124.718L50.5391 125.363C53.5108 121.847 56.5025 118.342 59.5107 114.848L58.7529 114.195L58.752 114.194C61.7587 110.702 64.7824 107.22 67.8193 103.749L68.5723 104.408C71.606 100.94 74.6538 97.4831 77.7119 94.0352L76.9629 93.3711C78.4942 91.6446 80.0283 89.9208 81.5645 88.1992L86.1719 83.0498L86.916 83.7178C89.9954 80.2854 93.083 76.8627 96.1748 73.4482L95.4336 72.7764L95.4326 72.7754C98.5299 69.3548 101.632 65.9434 104.735 62.54L104.736 62.541L105.475 63.2148L110.138 58.1084L110.141 58.1055C111.39 56.7275 112.645 55.34 113.911 53.9521L113.173 53.2783C115.685 50.525 118.24 47.7697 120.86 45.0996L121.574 45.7998C124.202 43.1225 126.889 40.5382 129.66 38.1338L129.006 37.3799C131.874 34.8919 134.836 32.5894 137.919 30.5703L138.467 31.4062C140.017 30.3908 141.596 29.4495 143.206 28.5947C144.762 27.7843 146.372 27.0718 148.026 26.4395L147.67 25.5049C150.99 24.236 154.469 23.2899 158.034 22.5195L158.245 23.4971C161.7 22.7505 165.242 22.1689 168.815 21.6162L168.662 20.6279C172.229 20.0763 175.806 19.5559 179.324 18.9316L179.499 19.917C181.23 19.6098 182.951 19.2751 184.652 18.9004C186.592 19.2001 188.518 19.4466 190.431 19.6396L190.531 18.6445V18.6436C194.55 19.0491 198.512 19.2223 202.428 19.1914L202.429 19.1934L202.437 20.1934C206.48 20.1614 210.474 19.913 214.43 19.4766L214.319 18.4824L214.318 18.4805C218.274 18.0442 222.193 17.4191 226.088 16.6328L226.089 16.6338L226.286 17.6143C230.192 16.8257 234.073 15.8776 237.939 14.7988L237.67 13.835L237.669 13.834C241.469 12.7737 245.257 11.5847 249.048 10.2969L249.049 10.2998L249.37 11.2461C250.78 10.7669 252.191 10.2746 253.602 9.76953L255.012 9.26074C256.781 8.61742 258.574 7.99797 260.386 7.4082L260.076 6.45703C263.26 5.42069 266.502 4.47474 269.776 3.64453L271.072 3.32227L271.309 4.29395C274.998 3.39568 278.721 2.65028 282.437 2.09766L282.29 1.10938C286.101 0.542641 289.909 0.176052 293.672 0.0498047L293.705 1.04883C295.603 0.985164 297.487 0.983345 299.354 1.04883H299.375C301.443 1.07715 303.383 1.25522 305.196 1.57227L305.367 0.587891C309.688 1.34318 313.355 2.87359 316.382 5.08398L315.795 5.89062C318.86 8.12919 321.249 11.1058 322.971 14.7344L323.872 14.3057C325.464 17.6608 326.498 21.5339 326.982 25.8467L325.989 25.958C326.2 27.8326 326.306 29.7962 326.306 31.8428V31.8545C326.328 33.8348 326.361 35.666 326.416 37.3574L327.415 37.3242L327.417 37.3232C327.567 41.9068 327.886 45.4381 328.641 48.1758L328.64 48.1768L327.675 48.4424C328.259 50.564 329.112 52.3019 330.375 53.7051C331.64 55.1104 333.265 56.1202 335.301 56.8682L335.646 55.9297V55.9287C338.289 56.8999 341.78 57.4442 346.393 57.833V57.835L346.309 58.832C347.989 58.9737 349.813 59.0935 351.793 59.2061V59.207C353.571 59.3297 355.308 59.5069 357.005 59.7422L357.142 58.7529C360.749 59.253 364.19 60.0103 367.494 61.0498L367.194 62.0029C370.525 63.051 373.713 64.39 376.788 66.0469L377.261 65.168C380.304 66.8076 383.239 68.7529 386.097 71.0283L385.476 71.8096C386.477 72.6074 387.47 73.4466 388.455 74.3291L389.438 75.2256L389.439 75.2275C391.868 77.4736 394.304 79.1978 396.764 80.4062L397.205 79.5088V79.5068C402.761 82.2364 408.308 82.1577 414.015 79.5977L414.016 79.5996L414.425 80.5117C416.941 79.383 419.464 77.798 422.009 75.7988L422.01 75.7998C422.617 75.3273 423.205 74.8393 423.781 74.3418L423.128 73.585L423.127 73.584C424.246 72.6178 425.334 71.6039 426.454 70.5732L427.131 71.3096C427.402 71.0601 427.675 70.8101 427.949 70.5605L428.78 69.8135L428.791 69.8037C430.673 68.0833 432.488 66.5304 434.255 65.1406L433.637 64.3545C437.948 60.9636 442 58.5122 446.043 56.957L446.402 57.8896C450.885 56.1653 455.347 55.5811 460.177 56.0762L460.277 55.083C464.577 55.5236 469.146 56.7925 474.228 58.8525L473.853 59.7793C475.94 60.6256 478.12 61.6084 480.409 62.7266C482.186 63.5989 483.963 64.4798 485.744 65.3623L486.188 64.4658V64.4648C489.742 66.2253 493.302 67.991 496.888 69.7031H496.889L496.458 70.6055C500.052 72.3219 503.677 73.9889 507.345 75.5479L507.736 74.6279V74.627C511.395 76.182 515.095 77.6283 518.851 78.9082L518.528 79.8555C520.421 80.5003 522.329 81.1025 524.254 81.6572V81.6582C526.799 82.3949 529.458 82.9432 532.172 83.3213L532.31 82.3301V82.3291C537.502 83.0524 542.926 83.1481 548.181 82.7393L548.182 82.7402L548.26 83.7373C550.984 83.5253 553.665 83.179 556.245 82.7158L556.244 82.7148C559.246 82.1974 562.098 81.8655 564.794 81.7148L564.738 80.7188C571.396 80.3468 577.154 81.0652 581.927 82.8652L581.574 83.7998C587.119 85.8913 591.245 89.4777 593.854 94.5488L594.742 94.0918C597.068 98.6123 598.232 104.262 598.144 111.028L597.147 111.017C597.117 113.354 596.934 115.833 596.593 118.454L596.437 119.586C596.157 121.512 595.973 123.399 595.878 125.253L596.877 125.304C596.68 129.163 596.878 132.869 597.414 136.475V136.476L596.425 136.623C596.986 140.398 597.912 144.059 599.135 147.663L600.082 147.341V147.34C601.26 150.812 602.721 154.236 604.406 157.668L604.405 157.669L603.508 158.109C604.122 159.36 604.765 160.611 605.435 161.864L606.113 163.118L606.115 163.122C607.305 165.277 608.471 167.444 609.615 169.622L610.5 169.156Z" stroke="#6F6157" stroke-width="2" stroke-dasharray="14 14"/>
<path d="M687.088 700.277L686.643 699.98L686.285 699.753C686.162 699.678 686.035 699.603 685.905 699.53L685.418 700.404H685.417C685.038 700.193 684.624 699.995 684.196 699.828C685.031 697.259 685.818 694.691 686.59 692.138L685.633 691.849L685.632 691.848C687.194 686.685 688.706 681.555 690.46 676.522L690.461 676.523L691.406 676.852C692.282 674.339 693.216 671.854 694.247 669.406L694.246 669.405C695.128 667.327 695.851 665.309 696.374 663.319L695.407 663.065L695.405 663.064C696.515 658.845 696.692 654.812 695.604 650.591H695.607L696.575 650.342C696.063 648.354 695.284 646.339 694.214 644.262L694.213 644.259L693.835 643.519C692.975 641.801 692.257 640.138 691.677 638.534L690.739 638.873C689.057 634.224 688.492 630.018 688.99 626.337L689.978 626.471C690.536 622.344 692.504 618.937 695.827 616.349L695.214 615.561C698.143 613.281 702.051 611.616 706.889 610.65L707.085 611.629C708.761 611.294 710.556 611.045 712.47 610.885L713.298 610.821L713.31 610.82C715.569 610.637 717.627 610.256 719.488 609.655L719.18 608.703L719.179 608.7C723.3 607.369 726.307 604.939 728.363 601.251L728.366 601.253L729.24 601.739C730.198 600.021 730.948 598.062 731.515 595.86C732.193 593.269 732.954 590.646 733.899 588.187L732.967 587.83C735.081 582.328 738.119 577.569 743.177 575.81L743.506 576.756C745.437 576.085 747.728 575.876 750.482 576.328L751.038 576.427L751.042 576.428C753.899 576.963 756.112 578.069 757.849 579.562L758.499 578.806C762.466 582.216 764.214 587.574 765.112 593.235L764.126 593.393C764.544 596.025 764.775 598.734 764.963 601.365C765.089 603.348 765.156 605.31 765.16 607.251L766.159 607.249C766.168 611.287 765.903 615.245 765.317 619.126L764.329 618.977C763.744 622.852 762.833 626.644 761.546 630.361L762.49 630.687C761.218 634.364 759.582 637.969 757.537 641.509L756.674 641.01C755.715 642.67 754.663 644.316 753.514 645.949C752.161 647.85 750.86 649.771 749.614 651.715L750.454 652.254C747.946 656.165 745.663 660.166 743.634 664.272L742.739 663.83C740.677 668.003 738.874 672.287 737.362 676.697L738.308 677.021H738.309C736.827 681.343 735.624 685.786 734.733 690.366L733.751 690.176C733.31 692.44 732.945 694.738 732.657 697.07L732.656 697.08C732.4 699.324 731.947 701.576 731.344 703.824L732.309 704.083C731.113 708.545 729.348 712.959 727.393 717.229L726.485 716.813C725.751 718.415 724.99 719.998 724.221 721.559L723.449 723.112C722.412 725.187 721.173 726.977 719.757 728.457L720.479 729.147C717.28 732.492 713.17 734.396 708.336 734.521L708.311 733.523C706.557 733.569 704.689 733.368 702.715 732.895L701.863 732.676C699.624 732.026 697.666 731.145 695.971 730.06L695.432 730.902C691.496 728.384 688.852 724.784 687.383 720.361L688.329 720.048C687.682 718.098 687.268 715.968 687.086 713.678C687.023 712.607 686.991 711.549 686.979 710.495L685.979 710.506C685.954 708.34 686.01 706.208 686.051 704.043L686.052 704.044L687.052 704.062C687.062 703.528 687.071 702.991 687.077 702.449L687.088 700.812V700.277Z" stroke="#6F6157" stroke-width="2" stroke-dasharray="14 14"/>
</svg>
