<svg width="385" height="515" viewBox="0 0 385 515" fill="none" xmlns="http://www.w3.org/2000/svg">
<path d="M291.426 326.39C298.225 317.699 301.955 316.631 312.222 315.413C317.364 318.86 318.788 320.335 323.179 324.792C328.684 337.997 326.787 342.338 313.638 348.591C304.905 349.052 302.429 349.389 294.133 346.638C286.319 339.384 286.883 334.838 291.426 326.39Z" fill="#F8A830"/>
<path d="M301.808 250.117C306.696 233.559 319.473 229.168 334.755 235.374L344.852 245.611C349.572 260.374 343.696 268.672 328.909 272.352C327.644 272.672 326.368 272.95 325.085 273.186C312.097 270.419 302.999 264.48 301.808 250.117Z" fill="#F8A830"/>
<path d="M245.547 274.025C251.595 262.817 259.299 250.127 270.99 264.644L274.308 274.07C274.168 283.241 272.504 286.542 269.496 295.161C266.198 298.056 263.641 299.375 259.202 299.79C245.191 301.102 245.804 282.817 245.547 274.025Z" fill="#F8A830"/>
<path d="M269.494 295.169C281.529 283.301 289.304 287.125 299.808 298.168C304.677 310.33 297.845 314.513 289.868 321.551C280.923 323.246 271.348 321.462 267.588 312.223C264.749 305.239 266.87 301.664 269.494 295.169Z" fill="#F8A830"/>
<path d="M347.657 120.294C361.241 127.152 368.628 136.364 355.595 149.246C375.939 141.974 386.444 161.343 370.204 171.263C366.229 171.25 357.675 172.628 354.319 174.422C338.049 173.738 344.402 158.836 352.883 151.199C348.013 153.43 346.745 153.436 341.627 153.946C334.798 151.131 328.549 146.685 327.503 138.804C326.965 134.714 328.162 130.581 330.803 127.411C335.87 121.226 340.569 120.745 347.657 120.294Z" fill="#F8A830"/>
<path d="M161.011 235.016C171.879 240.914 171.28 246.543 170.672 257.958C174.634 252.033 178.14 246.592 185.798 245.334C209.357 241.451 215.474 281.444 190.372 282.748C186.296 282.963 178.836 281.6 175.047 278.622C167.51 265.4 173.37 264.904 170.533 258.737C160.482 275.352 144.123 276.396 130.01 262.693C125.116 257.935 126.243 250.916 126.717 244.405C134.664 231.514 136.617 230.903 150.862 232.689C153.329 233.457 158.3 234.405 161.011 235.016Z" fill="#F8A830"/>
<path d="M84.2407 434.992C86.0477 431.376 89.3492 428.945 92.2227 425.429C78.7872 395.379 127.884 397.623 133.066 413.994C135.461 421.564 128.325 428.609 125.155 433.732C142.535 459.915 108.166 460.312 91.1382 454.46C85.8189 448.143 82.936 443.838 84.2407 434.992Z" fill="#F8A830"/>
<path d="M302.637 424.943C307.96 426.266 312.493 427.089 316.492 431.165C320.403 435.162 322.816 440.168 322.436 445.866C322.101 450.706 319.68 455.16 315.803 458.064C312.164 460.768 307.664 461.53 303.285 460.561C294.458 458.604 291.264 452.274 286.689 445.264C287.784 448.79 289.157 452.512 289.748 456.156C290.612 461.494 289.09 464.183 285.952 468.411C285.412 468.817 284.859 469.22 284.299 469.599C280.345 472.273 275.776 473.623 271.049 472.428C266.24 471.221 262.343 467.713 260.119 463.332C257.617 458.39 257.206 452.656 259.278 447.49C260.818 443.648 264.572 439.575 268.456 438.029C274.615 435.573 281.867 439.411 287.339 442.042C287.764 440.877 288.212 439.73 288.682 438.599C291.974 430.597 294.71 428.202 302.637 424.943Z" fill="#F8A830"/>
<path d="M84.3505 256.999L102.722 260.941L103.126 264.083C121.896 274.528 117.199 297.47 98.4186 301.711C78.9717 306.092 67.458 294.931 68.9857 274.169C73.3067 266.995 74.9946 263.192 83.7176 261.152L85.9657 259.419L84.3505 256.999Z" fill="#F8A830"/>
<path d="M100.234 460.246C105.435 461.546 111.846 462.544 115.737 466.481C119.731 470.534 121.843 475.822 121.545 481.521C121.266 487.301 118.69 492.717 114.385 496.576C109.139 501.207 104.414 501.468 97.8475 501.068C91.566 499.652 85.1591 498.633 80.464 493.796C76.0896 489.288 73.7546 483.455 74.1871 477.142C74.5475 471.902 77.0284 467.078 81.2176 463.882C87.2917 459.254 93.1143 459.498 100.234 460.246Z" fill="#F8A830"/>
<path d="M23.6705 368.678C28.165 370.252 34.0433 371.735 37.4385 375.174C41.8343 379.644 43.8601 386.221 43.4175 392.388C42.9642 398.684 40.2201 404.805 35.2205 408.763C30.3074 412.646 25.9442 412.982 20.0336 412.207C16.1822 411.766 11.5539 410.509 8.28214 408.327C3.83281 405.376 0.921827 400.313 0.195071 395.067C-0.639435 388.578 1.22648 382.023 5.3523 376.947C10.4353 370.64 16.1383 369.694 23.6705 368.678Z" fill="#F8A830"/>
<path d="M131.027 361.722C134.203 362.797 137.465 364.293 139.65 366.921C143.15 371.128 144.425 377.018 143.61 382.368C142.772 387.865 139.859 393.202 135.174 396.319C127.528 401.406 120.404 399.345 112.12 397.633C108.219 396.23 104.393 394.616 101.727 391.296C96.8599 385.21 99.0438 376.469 99.9725 369.407C102.382 366.45 104.739 363.423 108.035 361.41C115.078 357.097 123.6 360.053 131.027 361.722Z" fill="#F8A830"/>
<path d="M87.346 305.737C92.2026 306.272 96.6969 308.276 99.9479 312.018C103.528 316.136 104.78 321.767 104.141 327.108C103.478 332.741 100.611 337.892 96.1723 341.417C90.3636 345.962 84.8184 345.043 77.986 344.35L65.0731 340.136C65.005 340.029 64.9341 339.933 64.8612 339.836C59.4748 332.497 59.1764 328.237 59.1644 319.257C61.4779 314.818 63.7822 310.234 68.0191 307.327C73.9389 303.263 80.7797 304.697 87.346 305.737Z" fill="#F8A830"/>
<path d="M132.619 315.576C136.345 316.348 140.564 317.097 143.949 318.858C149.699 321.839 151.152 327.193 152.692 332.956C151.451 339.106 150.469 347.091 146.193 351.928C142.336 356.282 136.867 356.475 131.498 356.562C125.806 355.151 120.123 353.71 114.444 352.247C114.317 352.069 114.185 351.902 114.06 351.725C113.852 351.426 113.65 351.129 113.444 350.831C109.712 345.548 108.214 341.009 108.613 334.467C108.965 328.694 111.442 322.899 115.982 319.203C121.453 314.743 126.056 314.692 132.619 315.576Z" fill="#F8A830"/>
<path d="M71.4144 346.729C78.0108 348.086 84.8621 349.566 89.5436 354.83C93.3065 359.052 95.115 364.402 94.6603 370.058C94.2481 375.196 91.955 379.707 87.8828 382.9C83.2886 386.505 79.0468 386.742 73.5326 386.239L58.2768 382.981C56.657 381.64 55.0525 380.271 53.6729 378.676C49.8264 374.233 48.4463 368.843 49.0976 363.009C49.6656 357.912 51.976 353.252 56.0694 350.086C60.9589 346.308 65.5883 346.065 71.4144 346.729Z" fill="#F8A830"/>
<path d="M189.361 474.933C195.958 476.29 202.809 477.771 207.49 483.034C211.253 487.256 213.062 492.606 212.607 498.262C212.195 503.4 209.902 507.911 205.83 511.105C201.236 514.709 196.994 514.946 191.479 514.443L176.224 511.185C174.604 509.845 172.999 508.475 171.62 506.88C167.773 502.437 166.393 497.048 167.045 491.213C167.613 486.117 169.923 481.456 174.016 478.29C178.906 474.512 183.535 474.269 189.361 474.933Z" fill="#F8A830"/>
<path d="M140.558 272.576C145.413 273.012 151.909 274.132 155.644 277.431C159.747 281.05 161.884 286.036 162.013 291.486C162.157 297.27 159.968 302.878 155.94 307.032C151.07 311.974 146.462 312.255 140.001 312.071C133.442 311.099 126.71 310.257 122.22 304.781C118.44 300.168 116.838 294.631 117.516 288.682C118.141 283.182 120.81 278.067 125.342 274.81C130.435 271.152 134.772 271.691 140.558 272.576Z" fill="#F8A830"/>
<path d="M166.658 402.226C174.08 407.345 174.967 409.017 178.776 416.902L180.431 416.3C179.993 420.901 179.678 423.397 180.064 428.089L176.038 430.49C167.365 447.542 158.12 443.994 142.905 439.303C138.039 433.836 135.12 427.492 136.516 420.225C140.115 401.487 152.383 400.147 166.658 402.226Z" fill="#F8A830"/>
<path d="M111.768 225.181C121.469 229.259 122.023 233.51 123.514 243.197C118.642 255.351 117.406 261.613 102.725 260.936L84.353 256.993C71.2866 239.912 76.917 219.736 99.6224 223.223C103.265 223.818 108.212 224.775 111.768 225.181Z" fill="#F8A830"/>
<path d="M192.584 1.01786C198.881 1.79887 204.643 2.92648 208.588 8.3542C211.606 12.506 212.632 17.6796 211.772 22.7205C210.885 28.2051 207.707 33.0542 203.034 36.0475C197.532 39.5719 192.245 38.1077 186.261 37.0274C180.242 35.9539 174.248 34.8156 170.237 29.7119C167.244 25.89 165.943 21.0051 166.637 16.1932C167.336 10.7593 170.335 5.88853 174.868 2.82331C180.655 -1.12821 186.165 -0.120125 192.584 1.01786Z" fill="#F8A830"/>
<path d="M144.452 228.781C132.811 223.538 131.4 213.768 136.507 202.955C147.535 179.604 187.876 200.484 175.038 223.255C172.209 228.271 167.041 230.824 161.613 232.065L161.011 235.016C158.3 234.405 153.329 233.457 150.862 232.689C149.363 231.3 146.373 229.84 144.452 228.781Z" fill="#F8A830"/>
<path d="M251.105 89.0224C246.255 82.0452 245.095 79.9496 246.093 70.9374C248.945 45.2065 294.803 53.9873 287.835 78.437C284.542 89.9944 277.784 93.4784 266.757 93.6164C269.201 95.1048 271.588 96.59 274.106 97.958C270.942 97.4272 260.42 95.1195 258.337 94.9382C257.054 93.8827 253.499 92.1978 251.905 91.4478L251.105 89.0224Z" fill="#F8A830"/>
<path d="M120.306 105.736C125.142 107.125 129.873 108.621 134.84 109.416C144.777 116.712 148.387 126.563 140.252 137.961C133.629 147.241 119.542 143.053 109.836 141.265C108.447 140.086 107.089 138.872 105.762 137.624C93.3563 125.732 102.059 106.127 120.306 105.736Z" fill="#F8A830"/>
<path d="M171.379 156.715C187.846 162.004 187.9 183.765 173.884 191.143C168.507 193.974 156.081 190.471 149.539 189.414C141.508 181.794 141.125 180.248 140.815 168.723L140.781 167.365C145.227 159.469 148.636 153.443 158.986 154.176L171.379 156.715Z" fill="#F8A830"/>
<path d="M274.103 97.954C280.478 103.81 281.203 106.429 283.44 114.702C281.331 122.127 279.927 129.455 272.617 133.294C257.704 141.125 235.579 126.179 241.679 108.726C244.65 100.224 250.679 97.5292 258.335 94.9342C260.417 95.1155 270.939 97.4232 274.103 97.954Z" fill="#F8A830"/>
<path d="M112.85 144.899C119.369 146.27 128.225 147.344 132.915 152.601C137.672 157.931 136.611 164.55 136.139 171.102C134.971 173.072 133.801 175.212 132.375 177.006C128.224 182.226 122.499 182.468 116.388 182.986C111.665 181.925 105.434 181.167 101.501 178.175C97.0124 174.763 93.6947 169.822 92.9927 164.145C92.4323 159.608 93.6374 155.054 96.702 151.62C101.108 146.683 106.543 145.184 112.85 144.899Z" fill="#F8A830"/>
<path d="M106.237 184.32C112.756 185.69 121.611 186.765 126.301 192.022C131.058 197.352 129.998 203.971 129.525 210.522C128.358 212.493 127.188 214.633 125.761 216.427C121.611 221.647 115.885 221.889 109.774 222.406C105.051 221.346 98.8203 220.588 94.8878 217.596C90.3989 214.183 87.0811 209.243 86.3792 203.566C85.8188 199.029 87.0239 194.475 90.0885 191.041C94.4946 186.104 99.9296 184.605 106.237 184.32Z" fill="#F8A830"/>
<path d="M167.754 114.97C174.274 116.34 183.129 117.415 187.819 122.672C192.576 128.002 191.515 134.621 191.043 141.172C189.876 143.143 188.706 145.283 187.279 147.077C183.129 152.297 177.403 152.539 171.292 153.056C166.569 151.996 160.338 151.238 156.405 148.246C151.917 144.833 148.599 139.893 147.897 134.216C147.336 129.679 148.542 125.125 151.606 121.691C156.012 116.754 161.447 115.255 167.754 114.97Z" fill="#F8A830"/>
<path d="M129.254 64.712C135.774 66.0821 144.629 67.157 149.319 72.4137C154.076 77.7437 153.015 84.3628 152.543 90.914C151.376 92.8847 150.206 95.0246 148.779 96.8186C144.629 102.039 138.903 102.281 132.792 102.798C128.069 101.737 121.838 100.98 117.905 97.9879C113.417 94.575 110.099 89.6347 109.397 83.9572C108.836 79.4206 110.042 74.8663 113.106 71.4324C117.512 66.4959 122.947 64.9969 129.254 64.712Z" fill="#F8A830"/>
<path d="M75.4287 96.0174C71.9849 90.3052 66.7337 83.0832 67.371 76.0548C68.0158 68.9271 73.5653 65.1801 78.6646 61.0487C80.8973 60.557 83.255 59.9515 85.5354 59.7705C92.1708 59.2431 96.2492 63.2725 100.791 67.3958C103.236 71.5807 106.93 76.6632 107.429 81.5888C107.999 87.2099 106.658 93.0169 102.996 97.4115C100.07 100.923 95.9271 103.152 91.3344 103.254C84.7318 103.4 79.9347 100.443 75.4287 96.0174Z" fill="#F8A830"/>
<path d="M60.6155 388.708C66.8166 390.564 73.9814 391.093 79.2921 395.081C82.7047 397.643 85.0395 401.271 85.5783 405.54C86.3326 411.522 83.8385 417.963 79.9219 422.434C75.9015 427.02 72.3657 427.755 66.6348 428.208C61.0154 427.876 55.6668 425.895 50.3337 424.217C47.6258 421.338 45.4941 418.205 43.2885 414.943C43.185 408.938 43.1335 402.682 46.44 397.386C49.8585 391.91 54.755 390.251 60.6155 388.708Z" fill="#F8A830"/>
<path d="M219.461 82.9337C224.452 83.6972 230.425 84.3678 234.283 87.8712C238.401 91.6088 240.597 97.2011 240.576 102.722C240.554 108.463 238.579 113.926 234.349 117.893C230.325 121.671 226.245 122.422 220.904 122.289C215.791 121.638 209.526 120.863 205.654 117.243C201.622 113.418 199.424 108.042 199.616 102.477C199.752 96.8958 202.024 91.4057 206.071 87.5405C210.123 83.6709 214.007 82.7668 219.461 82.9337Z" fill="#F8A830"/>
<path d="M305.394 95.4004C310.385 96.1639 316.358 96.8344 320.216 100.338C324.334 104.075 326.531 109.668 326.509 115.189C326.487 120.93 324.513 126.393 320.283 130.36C316.258 134.138 312.178 134.889 306.837 134.755C301.724 134.105 295.46 133.329 291.587 129.71C287.556 125.885 285.357 120.508 285.549 114.943C285.685 109.362 287.957 103.872 292.005 100.007C296.056 96.1376 299.94 95.2334 305.394 95.4004Z" fill="#F8A830"/>
<path d="M362.037 364.282C365.231 364.855 368.9 366.063 371.198 368.468C376.039 373.532 375.135 381.185 374.86 387.595C372.194 392.016 369.755 396.223 365.25 399.024C360.662 401.88 356.162 401.672 351.075 400.623C343.803 398.72 341.05 396.303 336.166 390.654C335.11 386.764 334.437 383.087 334.863 379.011C335.383 374.023 337.337 369.311 341.506 366.331C348.285 361.473 354.509 362.729 362.037 364.282Z" fill="#F8A830"/>
<path d="M274.977 17.5739C279.666 18.4944 284.509 19.145 288.285 22.3187C292.112 25.5334 294.522 30.4975 294.893 35.4717C295.29 40.7793 293.729 46.0492 289.964 49.8955C285.45 54.5053 280.764 54.4362 274.805 54.2963C268.885 53.1846 262.948 52.6063 258.563 48.046C254.836 44.1664 252.6 39.0884 252.803 33.659C252.937 28.7855 255.193 24.2131 258.976 21.1447C264.113 16.9561 268.798 16.7828 274.977 17.5739Z" fill="#F8A830"/>
<path d="M185.898 79.6598C213.284 92.407 187.576 124.716 165.231 112.178C156.017 107.01 156.167 98.3411 156.224 89.2377C161.224 82.6271 162.976 79.7938 171.099 77.1515C173.325 78.1157 182.908 79.2419 185.898 79.6598Z" fill="#F8A830"/>
<path d="M192.566 41.3473C219.951 54.0945 194.243 86.4031 171.899 73.866C162.685 68.6971 162.834 60.0286 162.892 50.9252C167.892 44.3146 169.644 41.4813 177.767 38.839C179.993 39.8032 189.576 40.9294 192.566 41.3473Z" fill="#F8A830"/>
<path d="M338.831 400.527C342.745 401.548 347.022 403.471 350.184 406.054C353.791 408.988 356.2 413.728 356.593 418.355C357.089 423.837 355.162 429.273 351.325 433.214C346.727 437.997 342.141 438.979 335.853 439.217C331.867 437.702 327.26 436.175 324.059 433.295C320.113 429.73 317.509 423.824 317.508 418.508C317.506 413.975 319.188 409.587 322.562 406.503C327.269 402.201 332.596 400.437 338.831 400.527Z" fill="#F8A830"/>
<path d="M283.105 255.886C285.786 254.979 289.062 254.577 291.982 255.128C295.307 255.747 298.719 258.192 300.927 261.406C303.562 265.2 304.788 269.984 304.278 274.482C303.693 279.917 301.486 282.571 297.984 285.4C295.05 285.977 291.755 286.807 288.686 286.056C284.896 285.118 280.871 281.904 278.592 278.023C276.648 274.713 275.731 270.797 276.343 267.12C277.196 261.991 279.493 258.453 283.105 255.886Z" fill="#F8A830"/>
<path d="M308.352 276.663C311.67 275.086 315.748 273.888 319.416 273.757C323.592 273.601 327.943 275.306 330.818 278.093C334.245 281.376 335.948 286.018 335.471 290.781C334.934 296.528 332.271 299.793 327.996 303.549C324.351 304.846 320.264 306.492 316.402 306.451C311.633 306.39 306.49 304.038 303.503 300.579C300.956 297.63 299.67 293.81 300.303 289.871C301.187 284.375 303.931 280.175 308.352 276.663Z" fill="#F8A830"/>
<path d="M333.719 301.917C336.913 300.844 340.754 300.184 344.095 300.43C347.902 300.703 351.649 302.645 353.931 305.401C356.655 308.652 357.657 312.938 356.667 317.116C355.508 322.162 352.71 324.796 348.393 327.707C344.935 328.498 341.035 329.555 337.536 329.138C333.218 328.613 328.827 326.019 326.523 322.656C324.557 319.788 323.838 316.273 324.873 312.84C326.318 308.052 329.298 304.597 333.719 301.917Z" fill="#F8A830"/>
<path d="M353.564 323.938C365.617 323.72 375.174 328.542 375.168 342.292C375.214 347.201 373.255 351.923 369.746 355.367C354.688 370.006 321.751 351.192 342.099 329.541L344.37 328.201C348.077 325.405 349.054 325.238 353.564 323.938Z" fill="#F8A830"/>
<path d="M349.475 207.949C370.655 207.365 382.364 220.583 366.457 240.081C364.15 242.909 358.355 243.764 354.753 244.766C351.246 245.921 350.361 245.406 346.577 244.596L344.852 245.611L334.755 235.374L337.64 233.64C334.676 218.154 337.556 217.32 349.475 207.949Z" fill="#F8A830"/>
<path d="M224.414 254.031C228.705 254.845 233.516 255.632 236.992 258.476C241.293 261.983 243.883 268.007 244.186 273.481C244.461 278.528 243.115 283.382 239.662 287.172C236.073 291.103 232.637 291.953 227.493 292.222C223.906 291.819 219.778 291.568 216.561 289.831C211.893 287.317 208.452 282.266 207.252 277.157C206.146 272.426 206.945 267.447 209.472 263.309C213.131 257.423 218.058 255.518 224.414 254.031Z" fill="#F8A830"/>
<path d="M180.433 416.294C187.715 405.021 198.284 401.018 210.239 409.011C221.39 416.469 221.889 441.415 206.108 440.773C194.188 440.277 184.945 439.807 180.066 428.083C179.679 423.392 179.994 420.896 180.433 416.294Z" fill="#F8A830"/>
<path d="M330.99 183.284C332.969 183.835 335.157 184.39 336.938 185.444C340.27 187.417 342.501 191.803 343.061 195.519C344.115 202.496 340.924 209.991 336.638 215.401C332.777 220.272 327.553 224.349 321.278 225.106C315.277 221.323 310.788 216.141 309.078 209.091C307.742 203.548 308.786 197.695 311.959 192.956C316.722 185.869 323.221 184.727 330.99 183.284Z" fill="#F8A830"/>
<path d="M307.18 144.355C308.79 143.072 310.525 141.623 312.425 140.795C315.978 139.249 320.832 140.01 324.162 141.734C330.417 144.969 334.592 151.951 336.439 158.599C338.102 164.587 338.32 171.214 335.24 176.748C328.654 179.4 321.829 180.004 315.13 177.258C309.867 175.094 305.755 170.815 303.795 165.463C300.874 157.445 303.775 151.503 307.18 144.355Z" fill="#F8A830"/>
<path d="M354.317 174.43C357.672 172.636 366.227 171.258 370.202 171.272L375.512 173.483C380.783 176.671 382.435 180 384.872 185.509C379.106 209.026 366.152 213.558 347.622 197.346C344.486 187.981 344.754 182.086 353.319 176.387L354.317 174.43Z" fill="#F8A830"/>
<path d="M233.225 440.71C239.067 441.897 244.855 443.687 250.609 445.258C251.886 447.509 253.235 449.836 254.057 452.306C255.538 456.752 255.6 462.128 253.334 466.338C250.026 472.483 245.067 474.048 238.844 475.891C234.762 475.145 230.614 474.414 226.997 472.25C222.82 469.746 219.686 465.153 218.576 460.433C217.606 456.312 218.231 452.212 220.62 448.687C223.606 444.285 228.132 441.776 233.225 440.71Z" fill="#F8A830"/>
<path d="M189.706 436.644C195.548 437.83 201.336 439.62 207.091 441.191C208.367 443.443 209.716 445.769 210.538 448.24C212.019 452.686 212.081 458.062 209.815 462.271C206.508 468.416 201.549 469.982 195.325 471.824C191.243 471.078 187.096 470.348 183.478 468.183C179.301 465.68 176.167 461.087 175.058 456.366C174.087 452.245 174.713 448.145 177.101 444.62C180.087 440.219 184.613 437.71 189.706 436.644Z" fill="#F8A830"/>
<path d="M242.923 405.834C245.699 406.691 247.986 407.671 250.147 409.675C253.696 413.002 255.695 417.664 255.656 422.528C255.608 427.169 253.609 431.99 250.116 435.086C246.041 438.698 241.155 438.849 236.049 438.61C232.948 437.379 230.086 436.068 227.51 433.897C223.884 430.847 221.519 426.34 221.415 421.559C221.322 417.387 223.029 413.502 226.005 410.598C230.897 405.816 236.573 405.812 242.923 405.834Z" fill="#F8A830"/>
<path d="M302.581 376.28C305.557 377.203 308.006 378.265 310.311 380.462C314.096 384.107 316.203 389.243 316.118 394.619C316.025 399.749 313.834 405.097 310.052 408.549C305.64 412.578 300.388 412.789 294.901 412.57C291.579 411.236 288.515 409.812 285.765 407.435C281.895 404.097 279.393 399.135 279.323 393.852C279.261 389.242 281.13 384.932 284.354 381.695C289.655 376.367 295.756 376.311 302.581 376.28Z" fill="#F8A830"/>
<path d="M320.978 350.556C323.601 351.355 325.768 352.245 327.844 354.001C331.254 356.915 333.246 360.924 333.334 365.051C333.407 368.989 331.658 373.03 328.464 375.568C324.739 378.529 320.166 378.533 315.375 378.2C312.439 377.075 309.724 375.889 307.255 373.981C303.781 371.3 301.449 367.413 301.23 363.353C301.036 359.81 302.536 356.556 305.25 354.167C309.711 350.234 315.029 350.375 320.978 350.556Z" fill="#F8A830"/>
<path d="M282.704 409.915C290.672 443.832 247.338 437.856 257.81 407.426C261.148 397.727 270.453 398.964 278.17 402.574L282.704 409.915Z" fill="#F8A830"/>
</svg>
