<svg width="96" height="29" viewBox="0 0 96 29" fill="none" xmlns="http://www.w3.org/2000/svg">
<path d="M18.0279 0.439828C18.0154 0.43609 18.0017 0.432352 17.988 0.42986C16.8168 0.139549 15.6443 0 14.4893 0L14.4843 0C7.98037 0.00249194 2.06574 4.41323 0.429781 11.0107C-1.49774 18.7818 3.23945 26.6426 11.0106 28.5701C12.183 28.8605 13.3555 29 14.5105 29C21.0157 29 26.9329 24.588 28.5688 17.9893C30.4926 10.2332 25.7778 2.38479 18.0279 0.439828ZM27.4312 17.7065C25.9535 23.6647 20.6407 27.8263 14.5105 27.8263C13.4327 27.8263 12.35 27.693 11.2922 27.4313C7.83833 26.5753 4.924 24.4248 3.08744 21.3759C1.25088 18.327 0.711371 14.7461 1.56735 11.2922C3.04508 5.3365 8.36413 1.17495 14.4931 1.17246C15.5696 1.17246 16.6511 1.30578 17.7164 1.56992L17.7301 1.57366L17.7438 1.5774C24.8483 3.36039 29.1955 10.5957 27.4312 17.7065Z" fill="url(#paint0_linear_4108_21778)"/>
<path d="M17.5219 12.5584C17.1058 14.2243 14.5665 13.3696 13.7416 13.1665L14.4705 10.2521C15.2817 10.4515 17.9381 10.8352 17.5095 12.5584H17.5219ZM17.0671 17.2682C16.6174 19.0823 13.5622 18.1005 12.5717 17.8551L13.3753 14.6367C14.3659 14.8859 17.5381 15.3731 17.0671 17.2682ZM20.3976 12.5833C20.6593 10.8103 19.3111 9.85716 17.4833 9.22421L18.0826 6.82197L16.6049 6.45566L16.0218 8.79559C15.6393 8.69965 15.243 8.6087 14.8518 8.52023L15.4349 6.15538L13.9734 5.78906L13.3741 8.1913L12.4421 7.98322L10.4236 7.47985L10.0361 9.04105C10.0361 9.04105 11.0454 9.28775 11.0977 9.30769C11.4241 9.37372 11.8129 9.72509 11.7805 10.14L10.1395 16.7175C10.0498 16.9978 9.7508 17.1523 9.46921 17.0626C9.43806 17.0539 8.4039 16.801 8.4039 16.801L7.67999 18.4668L9.58259 18.9378L10.623 19.2082L10.0199 21.6353L11.4815 22.0017L12.0808 19.5994C12.4745 19.7078 12.862 19.8075 13.242 19.8997L12.6514 22.3107L14.1129 22.6732L14.716 20.2511C17.2142 20.722 19.0831 20.5339 19.8743 18.2774C20.511 16.4621 19.8407 15.4179 18.5299 14.7351C19.4856 14.5121 20.1933 13.9003 20.3976 12.5833Z" fill="black"/>
<path d="M41.9178 10.0951C42.8249 10.0951 43.6086 10.2558 44.2702 10.5773C44.9318 10.8988 45.4788 11.3323 45.9136 11.8806C46.3485 12.4288 46.6687 13.0705 46.8768 13.8081C47.0849 14.5457 47.1883 15.3381 47.1883 16.1879C47.1883 17.4912 46.9478 18.7247 46.4656 19.8859C45.9834 21.0484 45.3268 22.0589 44.4957 22.9186C43.6647 23.7784 42.6816 24.4587 41.549 24.9583C40.4152 25.4592 39.1866 25.7096 37.8647 25.7096C37.6952 25.7096 37.3974 25.7046 36.9725 25.6959C36.5477 25.6859 36.0605 25.6436 35.5135 25.5688C34.9653 25.4928 34.3847 25.3794 33.7704 25.2287C33.1561 25.0779 32.5755 24.8698 32.0273 24.6057L36.9302 4.00354L41.3235 3.32324L39.5667 10.6346C39.9442 10.4639 40.3217 10.3331 40.7005 10.2371C41.0768 10.1424 41.483 10.0951 41.9178 10.0951ZM38.2335 22.2246C38.8951 22.2246 39.5181 22.0652 40.1037 21.7424C40.6893 21.421 41.1951 20.9911 41.62 20.4529C42.0449 19.9146 42.3801 19.3053 42.6255 18.625C42.871 17.9447 42.9943 17.2358 42.9943 16.4994C42.9943 15.5923 42.8423 14.8846 42.5408 14.3738C42.238 13.8642 41.6811 13.6087 40.8687 13.6087C40.6033 13.6087 40.2594 13.6561 39.8345 13.7508C39.4097 13.8455 39.0272 14.0436 38.687 14.3464L36.8168 22.1113C36.9302 22.1299 37.0286 22.1486 37.1146 22.1686C37.2006 22.1885 37.289 22.2022 37.3837 22.2109C37.4784 22.2209 37.5918 22.2246 37.7239 22.2246C37.8559 22.2246 38.0254 22.2246 38.2335 22.2246Z" fill="black"/>
<path d="M53.9347 25.5965C52.5928 25.5965 51.5399 25.4208 50.7749 25.072C50.0099 24.7231 49.4616 24.2459 49.1315 23.6416C48.8013 23.0373 48.6405 22.3433 48.6493 21.5583C48.6592 20.7746 48.7676 19.9385 48.9757 19.0502L52.5753 4.00257L56.9674 3.32227L53.0276 19.6457C52.9516 19.9859 52.9092 20.2974 52.9005 20.5815C52.8906 20.8656 52.9429 21.116 53.0563 21.3328C53.1696 21.5508 53.3628 21.7253 53.6369 21.8573C53.911 21.9894 54.2935 22.0741 54.7844 22.1128L53.9347 25.5965Z" fill="black"/>
<path d="M60.3097 25.314H56.1157L59.658 10.4072H63.8806L60.3097 25.314Z" fill="black"/>
<path d="M66.9963 11.0871C67.3178 10.9924 67.6716 10.884 68.0591 10.7607C68.4466 10.6386 68.8815 10.5252 69.3624 10.4205C69.8446 10.3171 70.3828 10.2324 70.9784 10.1651C71.574 10.0991 72.2493 10.0654 73.0044 10.0654C75.2334 10.0654 76.7635 10.7084 77.5958 11.9929C78.4268 13.2775 78.5689 15.0344 78.0207 17.2634L76.0931 25.3111H71.8705L73.7407 17.4329C73.8541 16.9419 73.9438 16.4647 74.0099 16.0025C74.0759 15.539 74.0709 15.134 73.9962 14.7839C73.9202 14.4351 73.7457 14.151 73.4716 13.9342C73.1975 13.7174 72.7776 13.6077 72.2107 13.6077C71.6625 13.6077 71.1055 13.665 70.5386 13.7784L67.79 25.3124H63.5674L66.9963 11.0871Z" fill="black"/>
<path d="M84.9918 15.7917C86.1256 14.8846 87.1922 13.9589 88.1939 13.0144C89.1945 12.07 90.0542 11.2003 90.7731 10.4078H95.534C94.4761 11.5791 93.3759 12.7266 92.2321 13.8505C91.0883 14.9743 89.7801 16.1692 88.3073 17.4351C88.7035 17.926 89.1047 18.493 89.5122 19.1359C89.9184 19.7788 90.3059 20.4491 90.6734 21.1481C91.0422 21.8471 91.3824 22.5561 91.6939 23.2737C92.0054 23.9914 92.2658 24.6717 92.4726 25.3146H87.7691C87.5984 24.8237 87.3866 24.2855 87.1311 23.6999C86.8757 23.1143 86.5929 22.5336 86.2814 21.9568C85.9699 21.3811 85.6434 20.8192 85.3033 20.271C84.9631 19.7227 84.623 19.2318 84.2828 18.797L82.6955 25.3146H78.5015L83.6025 4.00354L87.9946 3.32324L84.9918 15.7917Z" fill="black"/>
<path d="M65.367 5.90547C65.367 6.29795 65.2923 6.66302 65.1428 7.00317C64.9933 7.34332 64.7889 7.63986 64.5322 7.8928C64.2743 8.14573 63.9728 8.34633 63.6264 8.49585C63.2813 8.64536 62.9125 8.72012 62.52 8.72012C62.1275 8.72012 61.7587 8.64536 61.4136 8.49585C61.0684 8.34633 60.7694 8.14573 60.5165 7.8928C60.2635 7.63986 60.0629 7.34332 59.9134 7.00317C59.7639 6.66302 59.6891 6.29671 59.6891 5.90547C59.6891 5.5242 59.7639 5.16038 59.9134 4.81525C60.0629 4.47011 60.2635 4.17108 60.5165 3.91815C60.7694 3.66521 61.0684 3.46461 61.4136 3.3151C61.7587 3.16558 62.1275 3.09082 62.52 3.09082C62.9125 3.09082 63.28 3.16558 63.6264 3.3151C63.9716 3.46461 64.2731 3.66521 64.5322 3.91815C64.7902 4.17108 64.9933 4.47011 65.1428 4.81525C65.2923 5.16038 65.367 5.5242 65.367 5.90547Z" fill="black"/>
<defs>
<linearGradient id="paint0_linear_4108_21778" x1="-6.36266" y1="30.8867" x2="-5.47163" y2="-0.675353" gradientUnits="userSpaceOnUse">
<stop stop-color="#FE9F0C"/>
<stop offset="1" stop-color="#FB5607"/>
</linearGradient>
</defs>
</svg>
