<svg width="847" height="393" viewBox="0 0 847 393" fill="none" xmlns="http://www.w3.org/2000/svg">
<path d="M846.941 392.709C833.254 391.301 821.455 390.195 809.629 388.911C790.91 387.048 772.184 385.221 753.447 383.425C746.805 382.798 740.139 382.319 733.471 381.942C716.179 380.968 698.893 380.029 681.617 379.123C652.784 377.689 623.927 376.383 595.094 374.873C586.816 374.444 578.538 373.564 569.381 372.809C572.903 369.764 576.25 366.972 579.444 364.005C581.81 361.938 583.973 359.656 585.911 357.186C586.524 356.502 586.96 355.674 587.176 354.779C587.393 353.883 587.383 352.949 587.148 352.059C586.913 351.169 586.462 350.349 585.833 349.678C585.204 349.004 584.419 348.499 583.545 348.205C578.64 345.94 573.357 343.174 568.2 343.174C546.736 342.596 525.25 342.77 503.766 342.947C495.011 342.947 486.154 343.45 477.497 344.381C458.15 346.443 438.704 348.028 419.63 351.374C385.994 357.262 352.556 364.281 318.993 370.873C316.737 371.529 314.355 371.633 312.049 371.175C314.566 368.835 317.081 366.443 319.596 364.13C322.836 361.564 325.912 358.8 328.805 355.854C333.838 349.99 332.429 344.381 325.283 341.438C322.463 340.001 319.382 339.145 316.225 338.921C297.079 339.551 277.909 340.129 258.786 341.589C242.358 342.846 225.928 344.707 209.651 347.325C190.077 350.443 170.628 354.269 151.231 358.42C119.881 365.127 88.574 372.114 57.3091 379.376C39.3957 383.527 21.658 388.433 3.81994 392.961C3.2413 393.112 2.5369 392.784 0.473816 392.407C85.2109 348.556 120.963 274.846 132.108 185.232H161.293C165.319 197.383 169.344 209.585 173.471 221.761C173.722 222.516 174.755 223.045 176.842 224.982C180.087 214.793 183.408 205.484 185.999 196C188.592 186.515 188.29 186.264 198.579 186.264C218.153 186.264 237.704 186.264 257.278 186.264C324.73 186.691 392.156 187.371 459.611 187.547C487.286 187.547 514.961 186.817 542.487 186.163C549.103 186.012 555.719 184.981 561.38 184.427C568.299 208.453 574.187 231.774 581.784 254.517C589.383 277.261 599.571 299.297 618.292 315.701C628.279 324.87 640.995 330.517 654.495 331.777C678.497 333.992 698.022 324.883 715.684 310.04C725.295 301.939 734.728 293.636 743.611 285.99C762.63 332.709 800.85 365.413 846.941 392.709Z" fill="#F7E2B2"/>
<path d="M394.496 0.626709C393.565 19.9983 392.61 39.219 391.629 59.2445L426.851 57.5591L427.809 59.5717L360.13 157.008V89.0818H329.082C329.862 81.5848 387.93 1.8846 394.496 0.626709Z" fill="#F7E2B2"/>
<path d="M291.344 105.21L314.767 102.09L277.429 168.13L275.796 167.979C275.039 154.167 274.285 140.305 273.505 126.166L253.378 129.009C255.264 118.946 284.222 70.6677 289.13 69.1582C289.758 81.1334 290.512 92.9577 291.344 105.21Z" fill="#F7E2B2"/>
<path d="M428.184 119.169C448.163 95.1438 448.565 95.5464 472.843 67.772C471.184 80.351 469.597 92.4519 468.014 104.427C473.748 105.257 478.504 105.785 483.109 106.716C486.706 107.446 487.612 109.71 485.222 112.704C475.308 125.031 465.322 137.308 455.382 149.611C452.212 153.51 449.144 157.51 445.873 161.334C444.696 162.493 443.407 163.53 442.022 164.429L440.313 163.573L447.532 121.383L428.184 119.169Z" fill="#F7E2B2"/>
</svg>
