<svg width="225" height="60" viewBox="0 0 225 60" fill="none" xmlns="http://www.w3.org/2000/svg">
<path d="M202.109 29.9487C202.109 38.784 202.109 47.5919 202.109 56.4272C202.109 58.5399 202.054 58.5948 199.969 58.5948C198.048 58.5948 196.127 58.5674 194.207 58.5948C192.862 58.6223 192.286 57.9912 192.313 56.7015C192.313 55.6863 192.286 54.6985 192.149 53.6833C192.094 53.354 191.764 52.9699 191.435 52.8052C191.298 52.7229 190.804 53.1071 190.639 53.354C187.566 58.8966 179.774 60.4881 174.094 59.3082C170.527 58.5674 167.399 57.1954 164.929 54.5339C162.487 51.8998 160.841 48.8266 160.402 45.2047C160.128 43.0096 159.853 40.7596 159.881 38.5371C159.99 32.9121 161.719 27.8085 165.945 23.9122C168.442 21.6073 171.432 20.0159 174.945 19.6592C176.07 19.5494 177.195 19.1653 178.319 19.1927C183.066 19.3299 187.429 20.4549 190.585 24.4061C190.804 24.6805 191.243 24.7902 191.572 24.9549C191.764 24.5433 192.149 24.1043 192.149 23.6927C192.204 20.5372 192.176 17.3818 192.176 14.2263C192.176 10.5221 192.176 6.81783 192.176 3.1136C192.176 1.46727 192.313 1.33008 193.987 1.33008C195.963 1.33008 197.911 1.33008 199.886 1.33008C202.027 1.33008 202.054 1.38496 202.054 3.44286C202.136 12.3056 202.136 21.1134 202.109 29.9487ZM191.819 39.4151C191.765 38.3176 191.874 37.1651 191.6 36.1499C189.377 28.0006 180.432 26.5463 174.945 29.8664C170.801 32.3633 169.265 37.5493 170.692 43.0919C172.695 51.0217 182.6 52.4485 187.786 48.415C190.722 46.1376 192.094 43.1468 191.819 39.4151Z" fill="white"/>
<path d="M73.421 29.8933C73.421 21.058 73.421 12.2501 73.421 3.41484C73.421 1.41181 73.5033 1.35693 75.5338 1.35693C86.1526 1.35693 96.744 1.35693 107.363 1.35693C109.311 1.35693 109.338 1.38437 109.338 3.3874C109.338 5.39043 109.284 7.4209 109.366 9.42394C109.421 10.7684 108.872 11.18 107.582 11.18C100.723 11.1526 93.8629 11.1526 87.0032 11.1526C86.4544 11.1526 85.9057 11.1526 85.3569 11.18C84.4514 11.2349 83.9026 11.6739 83.9026 12.6343C83.9026 16.558 83.8752 20.5092 83.9301 24.433C83.9301 25.6951 84.8081 26.189 85.9605 26.189C89.5276 26.189 93.0946 26.1616 96.6617 26.189C99.0763 26.189 101.491 26.2165 103.933 26.2165C104.948 26.2165 105.277 26.7652 105.277 27.6982C105.25 29.7561 105.223 31.814 105.305 33.8719C105.36 35.1615 104.811 35.5182 103.604 35.5182C97.8415 35.4633 92.0794 35.4908 86.3173 35.4908C84.0398 35.4908 83.9575 35.5731 83.9575 37.9054C83.9575 44.134 83.9575 50.3352 83.9575 56.5638C83.9575 58.457 83.8478 58.5668 81.927 58.5668C79.8143 58.5668 77.7289 58.5668 75.6161 58.5668C73.6131 58.5668 73.5033 58.4845 73.5033 56.4815C73.421 47.6462 73.421 38.756 73.421 29.8933Z" fill="white"/>
<path d="M151.567 48.1676C150.853 50.9663 149.509 53.1065 147.561 54.7803C142.512 59.0882 136.448 60.2132 130.11 59.5546C122.399 58.7589 115.979 53.6553 113.646 45.7255C112.549 41.9938 112.521 38.2073 113.207 34.6402C114.277 29.0427 117.433 24.5702 122.674 21.6891C126.021 19.8507 129.588 19.0276 133.292 19.2196C139.302 19.494 144.625 21.5519 148.329 26.6281C150.442 29.5092 151.649 32.7744 151.841 36.3963C151.923 37.8506 151.896 39.3323 151.896 40.7865C151.896 42.4603 151.759 42.5975 150.112 42.5975C141.716 42.5975 133.292 42.5975 124.896 42.5975C122.674 42.5975 122.344 43.0639 123.03 45.2042C124.375 49.32 127.695 51.7346 132.085 51.7895C134.747 51.8444 137.381 51.762 139.768 50.3078C139.96 50.198 140.207 50.1157 140.344 49.9511C141.963 47.8932 144.241 48.1401 146.49 48.195C148.082 48.195 149.728 48.1676 151.567 48.1676ZM132.277 35.5457C134.939 35.5457 137.573 35.5732 140.234 35.5183C141.716 35.4908 142.128 34.8597 141.771 33.5152C140.92 30.3049 138.863 28.3293 135.625 27.6159C130.274 26.436 125.253 27.6433 123.195 33.3232C122.646 34.8597 123.003 35.4908 124.622 35.5183C127.174 35.5732 129.725 35.5457 132.277 35.5457Z" fill="white"/>
<path d="M0.735691 29.9481C0.735691 21.1129 0.735691 12.305 0.735691 3.46972C0.735691 1.41181 0.790568 1.35693 2.76616 1.35693C13.9337 1.35693 25.0739 1.35693 36.2415 1.35693C38.2171 1.35693 38.2719 1.41181 38.2719 3.33253C38.2719 5.66482 38.2719 7.99712 38.2719 10.3294C38.2719 12.3873 38.2445 12.4148 36.214 12.4148C28.8604 12.4148 21.5068 12.4148 14.1258 12.4148C11.6014 12.4148 11.6014 12.4148 11.6014 14.8843C11.6014 28.686 11.6014 42.4877 11.6014 56.3168C11.6014 58.5668 11.6014 58.5668 9.29659 58.5668C7.04661 58.5668 4.82407 58.5668 2.57409 58.5668C0.818007 58.5668 0.708252 58.4296 0.708252 56.701C0.735691 47.7834 0.735691 38.8657 0.735691 29.9481Z" fill="white"/>
<path d="M58.3572 30.0582C58.3572 38.8386 58.3572 47.619 58.3572 56.3994C58.3572 58.5122 58.3023 58.5945 56.217 58.5945C45.1042 58.5945 33.9915 58.5945 22.9063 58.5945C20.8484 58.5945 20.7935 58.5397 20.7935 56.5641C20.7935 54.1769 20.8484 51.8172 20.766 49.43C20.7386 48.0855 21.2599 47.6739 22.5496 47.7013C29.8757 47.7288 37.1744 47.7288 44.5006 47.7288C47.464 47.7288 47.464 47.7288 47.464 44.7105C47.464 30.9637 47.464 17.1894 47.464 3.44258C47.464 1.43955 47.4914 1.43955 49.4396 1.41211C51.8267 1.41211 54.1865 1.41211 56.5737 1.41211C58.22 1.41211 58.3846 1.5493 58.3846 3.22307C58.3572 12.1407 58.3572 21.0857 58.3572 30.0582Z" fill="white"/>
<path d="M213.661 39.6891C213.661 34.0093 213.661 28.3569 213.661 22.677C213.661 20.8661 213.798 20.7289 215.636 20.7289C217.886 20.7289 220.109 20.7563 222.359 20.7289C223.484 20.7015 224.005 21.0856 224.005 22.3203C223.978 33.8721 223.978 45.4512 224.005 57.003C224.005 58.2103 223.539 58.6219 222.386 58.5944C220.054 58.5395 217.722 58.5395 215.389 58.5944C214.072 58.6219 213.633 58.128 213.633 56.8109C213.688 51.1036 213.661 45.3964 213.661 39.6891Z" fill="white"/>
<path d="M20.7385 29.8663C20.3269 24.6254 25.1287 21.1133 29.6013 21.1133C34.0738 21.1133 38.4914 24.7626 38.4091 30.3053C38.3542 35.354 33.7445 39.0034 29.5189 39.0034C25.3757 39.0308 20.1898 35.4363 20.7385 29.8663Z" fill="white"/>
<path d="M224.581 6.35108C224.856 9.53398 221.755 12.2779 218.6 12.3876C215.499 12.4699 212.536 9.36935 212.563 6.26876C212.618 3.1133 215.499 0.287109 218.764 0.287109C221.673 0.287109 224.938 3.36025 224.581 6.35108Z" fill="white"/>
</svg>
