<svg width="1920" height="1385" viewBox="0 0 1920 1385" fill="none" xmlns="http://www.w3.org/2000/svg">
<rect y="66" width="1920" height="1319" fill="#484139"/>
<path d="M1347 174.757C1335.54 173.575 1325.65 172.647 1315.75 171.571C1300.07 170.007 1284.38 168.474 1268.69 166.968C1263.13 166.441 1257.54 166.039 1251.96 165.723C1237.47 164.906 1223 164.118 1208.53 163.358C1184.37 162.155 1160.2 161.059 1136.05 159.792C1129.12 159.432 1122.19 158.694 1114.52 158.06C1117.47 155.505 1120.27 153.162 1122.94 150.673C1124.93 148.939 1126.74 147.024 1128.36 144.952C1128.88 144.378 1129.24 143.683 1129.42 142.932C1129.6 142.181 1129.59 141.397 1129.4 140.65C1129.2 139.903 1128.82 139.215 1128.3 138.652C1127.77 138.086 1127.11 137.663 1126.38 137.416C1122.27 135.516 1117.85 133.195 1113.53 133.195C1095.55 132.71 1077.55 132.856 1059.56 133.005C1052.22 133.005 1044.81 133.426 1037.55 134.208C1021.35 135.938 1005.06 137.267 989.085 140.076C960.912 145.015 932.904 150.904 904.792 156.436C902.902 156.986 900.907 157.073 898.975 156.689C901.084 154.726 903.19 152.719 905.297 150.778C908.011 148.625 910.587 146.306 913.01 143.834C917.225 138.914 916.045 134.208 910.06 131.738C907.698 130.533 905.117 129.815 902.473 129.627C886.436 130.155 870.38 130.64 854.362 131.865C840.602 132.92 826.84 134.481 813.207 136.678C796.811 139.294 780.521 142.504 764.274 145.987C738.015 151.614 711.793 157.477 685.605 163.57C670.601 167.053 655.744 171.169 640.803 174.968C640.318 175.095 639.728 174.82 638 174.503C708.976 137.711 738.921 75.865 748.257 0.675632H772.702C776.074 10.871 779.446 21.1086 782.903 31.3251C783.112 31.9584 783.978 32.4017 785.726 34.027C788.444 25.4779 791.226 17.6678 793.396 9.71011C795.568 1.75218 795.314 1.54101 803.933 1.54101C820.328 1.54101 836.704 1.54101 853.099 1.54101C909.597 1.89978 966.073 2.46973 1022.57 2.61756C1045.75 2.61756 1068.93 2.00548 1091.99 1.45651C1097.53 1.32985 1103.07 0.464466 1107.81 0C1113.61 20.1587 1118.54 39.7264 1124.9 58.8083C1131.27 77.8914 1139.8 96.3805 1155.48 110.144C1163.85 117.837 1174.5 122.576 1185.81 123.633C1205.91 125.491 1222.27 117.848 1237.06 105.395C1245.11 98.5969 1253.01 91.631 1260.45 85.2154C1276.38 124.414 1308.39 151.854 1347 174.757Z" fill="#484139"/>
<path d="M1127.43 66C1133.54 82.485 1141.78 98.1187 1155.48 110.145C1163.85 117.837 1174.5 122.576 1185.81 123.633C1205.91 125.491 1222.27 117.848 1237.06 105.395C1245.11 98.597 1253.01 91.6313 1260.45 85.2158C1276.38 124.415 1308.39 151.855 1347 174.757C1335.54 173.575 1325.65 172.647 1315.75 171.57C1300.07 170.007 1284.38 168.474 1268.69 166.968C1263.13 166.442 1257.54 166.039 1251.96 165.723C1237.47 164.906 1223 164.118 1208.53 163.358C1184.37 162.155 1160.2 161.059 1136.05 159.792C1129.12 159.432 1122.19 158.694 1114.52 158.061C1117.47 155.506 1120.27 153.162 1122.94 150.673C1124.93 148.939 1126.74 147.024 1128.36 144.952C1128.88 144.378 1129.24 143.683 1129.42 142.932C1129.6 142.181 1129.59 141.397 1129.4 140.65C1129.2 139.904 1128.82 139.216 1128.3 138.652C1127.77 138.087 1127.11 137.663 1126.38 137.416C1122.27 135.516 1117.85 133.195 1113.53 133.195C1095.55 132.711 1077.55 132.856 1059.56 133.005C1052.22 133.005 1044.81 133.426 1037.55 134.208C1021.35 135.937 1005.06 137.268 989.085 140.076C960.912 145.016 932.904 150.904 904.792 156.436C902.902 156.986 900.906 157.074 898.975 156.689C901.083 154.726 903.19 152.72 905.297 150.778C908.011 148.625 910.587 146.306 913.011 143.834C917.226 138.914 916.046 134.208 910.061 131.738C907.698 130.533 905.118 129.815 902.474 129.627C886.437 130.155 870.38 130.64 854.362 131.865C840.602 132.92 826.84 134.481 813.207 136.678C796.812 139.294 780.52 142.504 764.273 145.987C738.015 151.615 711.793 157.477 685.605 163.569C670.601 167.052 655.744 171.169 640.803 174.969C640.318 175.095 639.728 174.82 638 174.503C687.119 149.04 716.586 111.579 733.172 66H1127.43Z" fill="#EEECE9"/>
</svg>
