<svg width="925" height="533" viewBox="0 0 925 533" fill="none" xmlns="http://www.w3.org/2000/svg">
<circle cx="339.5" cy="266.5" r="264.5" stroke="#796656" stroke-width="4" stroke-dasharray="17 17"/>
<path fill-rule="evenodd" clip-rule="evenodd" d="M43.889 353.333C46.5482 355.106 97.0728 388.789 76.2425 391.448C71.3673 391.891 -4.86279 336.491 0.898788 328.071C7.98996 318.764 36.7978 348.015 43.889 353.333Z" fill="#006BB9"/>
<path fill-rule="evenodd" clip-rule="evenodd" d="M37.2412 310.343C49.2076 319.207 128.983 377.709 129.87 386.13C132.086 406.517 74.9131 355.992 70.0379 352.003C59.4011 344.026 -3.53302 299.706 0.455765 291.285C6.66054 279.762 31.0364 305.468 37.2412 310.343Z" fill="#F03327"/>
<path fill-rule="evenodd" clip-rule="evenodd" d="M43.8894 277.103C58.5149 288.626 178.622 377.709 178.622 386.13C179.508 406.96 122.779 355.106 115.244 348.901C101.948 338.707 -1.31687 262.477 0.0127266 254.5C3.11511 238.101 38.1278 273.114 43.8894 277.103Z" fill="#00713D"/>
<path fill-rule="evenodd" clip-rule="evenodd" d="M43.8892 239.431C62.0604 253.613 226.93 376.822 227.816 386.13C228.703 406.517 173.746 356.435 166.655 351.117C148.927 337.821 -2.20337 225.249 0.455816 216.385C4.4446 200.873 37.6845 234.556 43.8892 239.431Z" fill="#FDBA31"/>
<path fill-rule="evenodd" clip-rule="evenodd" d="M43.8892 201.316C66.4923 218.601 273.909 378.152 276.125 384.357C277.898 388.789 273.023 395.88 262.386 387.459C239.783 370.174 -0.430623 186.247 0.0125754 179.156C1.34217 160.542 39.9004 198.213 43.8892 201.316Z" fill="white"/>
<path fill-rule="evenodd" clip-rule="evenodd" d="M53.1964 170.292C77.5723 189.35 324.877 377.709 324.877 385.686C325.32 406.074 281.444 364.856 277.455 361.754C250.863 340.923 8.43339 155.223 8.87658 148.132C10.6494 129.961 48.7644 167.19 53.1964 170.292Z" fill="#FAB44B"/>
<path fill-rule="evenodd" clip-rule="evenodd" d="M74.4698 142.814C90.8681 148.575 34.5819 192.009 38.1275 170.292C39.4571 163.201 66.9354 142.371 74.4698 142.814Z" fill="#FAB44B"/>
<path fill-rule="evenodd" clip-rule="evenodd" d="M93.5271 155.667C117.017 134.393 131.642 141.041 100.618 166.747C99.2887 168.076 57.1849 204.418 59.4009 185.804C61.1737 176.054 85.9928 162.315 93.5271 155.667Z" fill="#FAB44B"/>
<path fill-rule="evenodd" clip-rule="evenodd" d="M111.255 173.394C113.471 171.178 161.337 128.188 158.234 149.462C157.348 154.78 93.5274 207.078 84.2203 205.305C69.1515 201.759 109.039 175.167 111.255 173.394Z" fill="#FAB44B"/>
<path fill-rule="evenodd" clip-rule="evenodd" d="M135.631 183.588C139.62 180.486 196.793 128.188 195.906 148.575C195.463 155.666 107.71 223.919 101.948 220.373C88.6524 212.839 129.87 188.463 135.631 183.588Z" fill="#FAB44B"/>
<path fill-rule="evenodd" clip-rule="evenodd" d="M154.246 199.1C162.666 192.452 222.941 142.371 230.032 143.257C250.863 145.473 194.133 184.031 190.588 187.134C185.713 191.122 115.244 254.057 118.347 231.453C118.79 222.146 145.825 205.748 154.246 199.1Z" fill="#FAB44B"/>
<path fill-rule="evenodd" clip-rule="evenodd" d="M177.292 213.282C189.258 203.532 262.386 142.371 270.807 142.814C294.296 144.143 229.146 188.463 224.271 192.452C214.078 200.43 149.371 256.273 142.279 250.068C131.643 241.647 170.201 219.044 177.292 213.282Z" fill="#FAB44B"/>
<path fill-rule="evenodd" clip-rule="evenodd" d="M194.133 231.453C207.429 220.817 301.831 141.927 310.694 143.257C331.082 145.916 269.92 188.02 265.045 192.009C253.079 201.759 167.541 273.557 160.007 268.682C148.041 259.818 187.485 236.329 194.133 231.453Z" fill="#FAB44B"/>
<path fill-rule="evenodd" clip-rule="evenodd" d="M209.202 252.284C223.828 240.317 343.935 141.484 352.799 142.814C373.629 146.803 307.592 191.122 300.944 196.441C288.535 206.634 190.588 287.296 183.497 284.194C168.871 277.103 204.77 255.829 209.202 252.284Z" fill="#FAB44B"/>
<path fill-rule="evenodd" clip-rule="evenodd" d="M228.703 270.012C245.101 257.159 386.038 141.041 394.902 142.814C415.29 146.803 351.912 189.35 344.821 194.668C328.423 207.964 210.532 305.468 202.554 301.036C189.702 293.944 223.385 274.444 228.703 270.012Z" fill="#FAB44B"/>
<path fill-rule="evenodd" clip-rule="evenodd" d="M237.567 315.218C234.021 330.287 226.044 325.411 225.157 307.683C225.157 304.581 222.498 258.932 235.351 270.898C241.556 276.66 238.01 305.911 237.567 315.218Z" fill="#FAB44B"/>
<path fill-rule="evenodd" clip-rule="evenodd" d="M258.841 290.842C259.727 302.808 263.716 335.162 252.193 341.81C241.556 334.719 245.545 297.933 245.545 285.967C246.431 234.999 260.17 255.829 259.284 272.671C259.284 278.876 258.841 284.194 258.841 290.842Z" fill="#FAB44B"/>
<path fill-rule="evenodd" clip-rule="evenodd" d="M283.66 276.216C283.66 282.864 289.864 368.845 274.352 357.322C268.591 352.89 269.034 237.658 275.239 235.442C288.978 230.124 283.216 269.568 283.66 276.216Z" fill="#FAB44B"/>
<path fill-rule="evenodd" clip-rule="evenodd" d="M308.035 256.716C308.035 271.784 311.581 370.618 305.376 376.379C290.307 391.005 295.626 314.331 295.183 308.127C295.183 294.831 291.194 217.714 300.501 215.941C313.354 213.725 308.035 248.738 308.035 256.716Z" fill="#FAB44B"/>
<path fill-rule="evenodd" clip-rule="evenodd" d="M332.854 236.329C332.854 252.284 336.843 384.8 330.195 391.005C315.126 405.187 320.445 332.059 320.445 325.411C320.445 310.343 316.456 199.543 324.877 196.884C338.173 192.895 332.854 228.794 332.854 236.329Z" fill="#FAB44B"/>
<path fill-rule="evenodd" clip-rule="evenodd" d="M357.231 216.828C357.231 235.885 361.22 384.8 354.572 391.005C339.503 404.744 344.821 334.719 344.821 327.627C344.821 310.786 341.276 181.372 348.367 178.27C362.549 170.735 357.231 210.623 357.231 216.828Z" fill="#FAB44B"/>
<path fill-rule="evenodd" clip-rule="evenodd" d="M382.05 197.327C382.05 217.714 386.482 384.8 379.39 391.005C364.322 404.301 369.197 335.605 369.197 328.514C369.197 310.343 365.208 161.871 373.186 158.769C386.925 153.007 382.05 190.679 382.05 197.327Z" fill="#FAB44B"/>
<path fill-rule="evenodd" clip-rule="evenodd" d="M406.425 183.145C406.425 203.089 410.857 368.402 403.766 374.163C388.698 387.459 394.016 317.877 394.016 310.343C394.016 292.172 389.584 146.359 398.005 142.814C411.744 137.495 406.425 176.054 406.425 183.145Z" fill="#FAB44B"/>
<path fill-rule="evenodd" clip-rule="evenodd" d="M431.688 182.258C432.131 201.316 436.12 350.674 429.029 356.879C413.96 370.618 419.278 300.149 419.278 293.501C419.278 276.216 415.733 146.803 422.381 143.257C437.006 135.723 431.688 176.054 431.688 182.258Z" fill="#FAB44B"/>
<path fill-rule="evenodd" clip-rule="evenodd" d="M456.95 182.258C456.95 198.214 460.939 331.173 454.291 337.378C439.222 351.56 444.541 278.432 444.097 271.784C444.097 256.273 440.109 145.473 448.529 142.814C462.268 138.825 456.95 174.724 456.95 182.258Z" fill="#FAB44B"/>
<path fill-rule="evenodd" clip-rule="evenodd" d="M482.213 182.702C482.656 199.1 486.201 311.672 479.553 317.877C464.928 332.503 469.36 256.716 469.36 250.511C469.36 237.658 465.371 145.473 473.792 142.814C487.088 138.825 482.213 174.724 482.213 182.702Z" fill="#FAB44B"/>
<path fill-rule="evenodd" clip-rule="evenodd" d="M507.032 182.702C507.475 197.77 510.134 290.842 504.816 297.49C489.747 314.775 494.622 236.772 494.622 230.124C494.622 217.714 490.633 144.143 499.497 142.371C512.35 140.155 507.032 174.724 507.032 182.702Z" fill="#FAB44B"/>
<path fill-rule="evenodd" clip-rule="evenodd" d="M532.294 183.145C532.737 194.225 534.953 272.671 529.635 277.546C515.009 292.172 519.884 226.135 519.441 220.817C519.441 212.839 512.793 129.961 528.748 143.7C535.84 149.905 532.294 173.394 532.294 183.145Z" fill="#FAB44B"/>
<path fill-rule="evenodd" clip-rule="evenodd" d="M557.556 181.815C557.556 187.577 563.761 271.784 548.249 258.045C542.931 253.613 542.487 144.587 549.578 142.814C562.431 139.268 557.556 174.281 557.556 181.815Z" fill="#FAB44B"/>
<path fill-rule="evenodd" clip-rule="evenodd" d="M582.818 181.372C582.818 184.918 587.693 253.17 572.625 238.101C569.079 234.556 565.534 143.257 575.727 142.371C587.25 141.927 582.375 172.951 582.818 181.372Z" fill="#FAB44B"/>
<path fill-rule="evenodd" clip-rule="evenodd" d="M607.637 178.713C608.08 182.258 611.183 233.226 597.887 219.487C595.228 216.828 587.693 129.961 604.535 144.143C611.626 150.348 607.194 169.849 607.637 178.713Z" fill="#FAB44B"/>
<path fill-rule="evenodd" clip-rule="evenodd" d="M632.457 192.452C628.911 208.407 620.934 202.646 620.047 184.474C620.047 181.815 616.945 131.291 629.797 144.143C636.445 150.348 632.9 182.258 632.457 192.452Z" fill="#FAB44B"/>
<path fill-rule="evenodd" clip-rule="evenodd" d="M651.514 181.372C636.002 173.838 647.969 126.415 656.832 147.246C660.821 156.11 661.708 176.94 651.514 181.372Z" fill="#FAB44B"/>
<path fill-rule="evenodd" clip-rule="evenodd" d="M665.254 362.197C655.946 370.618 632.457 394.55 619.161 390.118C617.831 378.152 645.31 361.31 655.06 353.776C659.049 350.674 702.039 313.002 699.38 332.059C698.493 341.367 673.231 355.549 665.254 362.197Z" fill="white"/>
<path fill-rule="evenodd" clip-rule="evenodd" d="M662.594 326.298C651.514 335.162 583.705 392.334 575.284 391.448C552.681 390.118 616.944 345.799 622.263 341.81C632.456 333.389 690.959 282.864 697.606 289.069C708.243 298.376 669.685 320.979 662.594 326.298Z" fill="#FDBA31"/>
<path fill-rule="evenodd" clip-rule="evenodd" d="M664.367 287.296C649.742 298.82 534.953 393.664 526.532 391.891C506.145 387.902 569.966 345.355 577.943 339.594C591.239 328.957 690.073 247.409 697.164 250.511C711.789 257.602 669.686 282.864 664.367 287.296Z" fill="#00713D"/>
<path fill-rule="evenodd" clip-rule="evenodd" d="M663.924 249.181C645.753 263.807 487.088 393.664 477.337 391.891C457.394 387.902 518.998 346.685 526.089 340.923C543.374 327.184 688.743 207.964 696.721 212.396C710.46 220.373 670.129 244.306 663.924 249.181Z" fill="#F03327"/>
<path fill-rule="evenodd" clip-rule="evenodd" d="M664.367 211.066C641.764 228.794 438.336 391.005 430.802 391.891C425.927 392.778 420.608 386.13 430.802 377.709C452.962 359.981 689.629 171.622 695.834 173.838C713.562 179.599 668.356 207.964 664.367 211.066Z" fill="#006BB9"/>
<path fill-rule="evenodd" clip-rule="evenodd" d="M655.06 180.486C630.684 199.986 389.141 394.107 380.72 391.891C360.776 387.459 411.301 354.663 415.289 352.003C441.438 331.173 680.322 141.041 686.97 143.257C704.255 149.019 659.048 176.94 655.06 180.486Z" fill="#FAB44B"/>
<path fill-rule="evenodd" clip-rule="evenodd" d="M670.572 147.689C674.561 133.95 693.618 153.007 677.663 161.428C670.129 164.974 670.572 151.678 670.572 147.689Z" fill="#FAB44B"/>
<path fill-rule="evenodd" clip-rule="evenodd" d="M725.528 344.469C738.824 354.219 769.405 373.72 772.951 389.675C761.871 395.88 725.528 361.754 714.892 352.89C714.448 352.447 680.765 330.287 697.164 326.298C704.698 324.525 718.437 339.594 725.528 344.469Z" fill="white"/>
<path fill-rule="evenodd" clip-rule="evenodd" d="M731.29 311.229C741.04 318.32 822.145 378.595 821.702 387.016C820.816 405.63 749.904 342.253 739.711 334.275C736.608 332.059 677.22 291.728 697.607 288.183C705.584 286.853 724.199 305.467 731.29 311.229Z" fill="#FDBA31"/>
<path fill-rule="evenodd" clip-rule="evenodd" d="M735.278 276.66C749.904 287.74 870.011 377.709 869.567 387.016C868.681 405.63 789.792 335.605 782.257 329.843C770.734 320.979 690.072 262.034 693.175 254.057C698.493 240.761 729.074 271.341 735.278 276.66Z" fill="#00713D"/>
<path fill-rule="evenodd" clip-rule="evenodd" d="M917.876 386.13C918.319 406.074 880.648 369.731 876.659 366.629C859.817 353.333 690.516 224.362 692.732 216.385C697.164 201.759 735.279 238.545 741.483 243.863C766.746 262.92 909.455 371.947 917.876 386.13Z" fill="#F03327"/>
<path fill-rule="evenodd" clip-rule="evenodd" d="M924.967 367.072C854.942 313.002 691.845 184.918 692.732 178.713C695.834 161.428 745.029 207.964 751.677 213.282C774.723 231.453 869.124 303.695 924.967 348.901V367.072Z" fill="#006BB9"/>
<path fill-rule="evenodd" clip-rule="evenodd" d="M924.967 329.4C846.078 268.239 701.596 154.78 702.039 149.019C703.368 129.961 758.325 180.929 763.643 184.918C815.054 224.805 871.341 267.353 924.967 309.9V329.4Z" fill="#FAB44B"/>
<path fill-rule="evenodd" clip-rule="evenodd" d="M731.733 168.076C763.2 126.859 790.678 145.916 746.358 172.065C741.04 175.167 725.971 182.258 731.733 168.076Z" fill="#FAB44B"/>
<path fill-rule="evenodd" clip-rule="evenodd" d="M791.122 168.076C748.575 203.975 733.506 192.452 779.155 160.542C780.042 159.655 817.714 130.404 808.85 149.462C805.747 155.223 796.44 163.644 791.122 168.076Z" fill="#FAB44B"/>
<path fill-rule="evenodd" clip-rule="evenodd" d="M847.851 152.564C844.749 155.667 765.416 226.578 774.28 198.657C776.496 191.566 839.43 143.257 846.522 143.7C852.283 144.143 849.624 149.462 847.851 152.564Z" fill="#FAB44B"/>
<path fill-rule="evenodd" clip-rule="evenodd" d="M885.08 151.678C881.978 154.78 784.474 242.977 792.008 214.169C794.224 206.191 874 145.03 881.534 144.143C888.182 143.257 887.739 147.246 885.08 151.678Z" fill="#FAB44B"/>
<path fill-rule="evenodd" clip-rule="evenodd" d="M920.535 143.257C940.923 145.473 885.08 184.031 881.534 187.134C878.875 189.35 805.304 254.943 810.622 230.567C811.952 221.703 910.342 147.246 920.535 143.257Z" fill="#FAB44B"/>
<path fill-rule="evenodd" clip-rule="evenodd" d="M868.238 213.725C874.886 208.407 901.921 185.804 924.967 167.633V185.361C919.649 189.35 915.66 192.009 914.774 192.895C913.001 194.225 823.032 273.557 832.339 244.306C835.441 235.442 859.817 219.93 868.238 213.725Z" fill="#FAB44B"/>
<path fill-rule="evenodd" clip-rule="evenodd" d="M884.636 231.453C889.512 227.465 905.91 213.726 924.967 198.214V216.828C891.727 244.306 842.976 281.978 849.624 261.591C852.283 253.17 876.659 237.215 884.636 231.453Z" fill="#FAB44B"/>
<path fill-rule="evenodd" clip-rule="evenodd" d="M899.705 252.727C903.251 250.068 912.558 242.09 924.524 232.34V250.068C900.149 269.125 877.545 285.967 874 284.637C859.817 277.103 895.273 256.273 899.705 252.727Z" fill="#FAB44B"/>
<path fill-rule="evenodd" clip-rule="evenodd" d="M924.967 282.421C908.126 294.831 895.716 302.808 893.5 301.479C881.091 294.388 915.217 272.671 924.967 265.58V282.421Z" fill="#FAB44B"/>
<path fill-rule="evenodd" clip-rule="evenodd" d="M924.968 322.752C921.422 327.627 916.547 321.423 915.66 308.127C915.66 305.024 913.001 261.148 924.968 270.898V322.752Z" fill="#FAB44B"/>
<circle cx="339.5" cy="266.5" r="255.5" fill="#4C4138"/>
<path fill-rule="evenodd" clip-rule="evenodd" d="M197.578 390.444C232.515 429.492 279.784 451.071 328.08 453.811C376.719 456.551 426.043 441.138 465.433 406.2C504.481 371.262 526.06 323.994 528.8 275.698C531.541 227.059 516.127 177.735 481.189 138.345C446.937 99.6392 399.326 78.0601 351.029 75.3199C302.391 72.5797 253.067 87.9933 213.677 122.931C174.629 157.869 153.049 205.137 150.309 253.433C147.227 301.729 162.983 351.396 197.578 390.444Z" fill="#F7E2B2"/>
<path fill-rule="evenodd" clip-rule="evenodd" d="M339.384 352.766C450.704 346.943 455.5 196.574 356.167 176.708C256.15 156.499 206.826 295.564 297.595 342.833C311.639 350.368 323.627 352.423 339.384 352.766Z" fill="#D8871F"/>
<path fill-rule="evenodd" clip-rule="evenodd" d="M359.25 266.107C357.537 266.107 356.167 264.394 356.167 262.682C356.167 260.969 357.88 259.599 359.592 259.941L429.125 264.052C430.838 264.052 432.208 265.764 431.865 267.477C431.865 269.19 430.153 270.56 428.44 270.217L359.25 266.107Z" fill="#F7E2B2"/>
<path fill-rule="evenodd" clip-rule="evenodd" d="M354.112 280.15C349.317 284.603 343.152 286.316 336.986 285.973C330.821 285.631 324.998 282.891 320.545 278.095C316.092 273.3 314.379 267.134 314.722 260.969C315.064 254.803 317.805 248.981 322.6 244.528C327.395 240.075 333.561 238.362 339.726 238.705C345.892 239.047 351.715 241.787 356.168 246.583C360.62 251.378 362.333 257.544 361.99 263.709C361.648 269.875 358.908 275.698 354.112 280.15ZM337.329 276.725C341.096 277.068 344.522 275.698 347.604 273.3C350.687 270.56 352.057 267.134 352.4 263.367C352.742 259.599 351.372 256.174 348.974 253.091C346.234 250.008 342.809 248.638 339.041 248.295C335.273 247.953 331.848 249.323 328.765 251.721C325.683 254.461 324.313 257.886 323.97 261.654C323.628 265.422 324.998 268.847 327.395 271.93C330.478 274.67 333.903 276.383 337.329 276.725Z" fill="#F7E2B2"/>
<path fill-rule="evenodd" clip-rule="evenodd" d="M486.327 359.959C487.012 358.931 487.697 358.246 488.04 357.219C489.41 354.821 489.067 352.423 487.697 349.683C487.355 349.341 487.355 348.998 487.012 348.656C486.327 347.286 485.3 346.258 484.272 345.23C481.874 343.518 480.504 343.175 477.764 343.175C475.709 343.518 471.941 343.518 470.228 344.545C466.461 346.943 464.063 350.026 464.748 354.479C465.433 357.561 466.461 360.644 468.516 363.384C470.571 366.124 473.996 366.809 477.421 366.809C479.477 366.809 482.559 366.124 483.929 364.412C484.615 362.699 485.3 361.329 486.327 359.959Z" fill="#F7E2B2"/>
<path fill-rule="evenodd" clip-rule="evenodd" d="M213.676 179.79C214.362 178.763 215.047 178.078 215.389 177.05C216.759 174.652 216.417 172.255 215.047 169.515C214.704 169.172 214.704 168.829 214.362 168.487C213.676 167.117 212.649 166.089 211.621 165.062C209.224 163.349 207.854 163.007 205.113 163.007C203.058 163.349 199.29 163.349 197.578 164.377C193.81 166.774 191.412 169.857 192.097 174.31C192.782 177.393 193.81 180.475 195.865 183.216C197.92 185.956 201.346 186.641 204.771 186.641C206.826 186.641 209.909 185.956 211.279 183.901C211.964 182.873 212.649 181.16 213.676 179.79Z" fill="#F7E2B2"/>
<path fill-rule="evenodd" clip-rule="evenodd" d="M506.194 318.856C506.536 317.828 506.879 316.801 507.221 315.773C507.906 313.033 506.879 310.635 505.166 308.58C504.824 308.238 504.481 307.895 504.481 307.552C503.453 306.525 502.426 305.84 500.713 305.155C497.973 304.127 496.603 304.127 493.863 305.155C492.15 305.84 488.382 306.867 487.012 308.238C483.929 311.32 482.559 315.088 484.272 319.198C485.642 322.281 487.355 325.021 490.095 326.734C492.835 328.789 496.26 328.447 499.343 327.761C501.398 327.076 504.138 325.706 504.824 323.651C505.166 321.939 505.509 320.226 506.194 318.856Z" fill="#F7E2B2"/>
<path fill-rule="evenodd" clip-rule="evenodd" d="M196.208 215.413C196.55 214.385 196.893 213.358 197.235 212.33C197.92 209.59 196.893 207.192 195.18 205.137C194.837 204.795 194.495 204.452 194.495 204.11C193.467 203.082 192.44 202.397 190.727 201.712C187.987 200.684 186.617 200.684 183.877 201.712C182.164 202.397 178.396 203.425 177.026 204.795C173.943 207.877 172.573 211.645 174.286 215.756C175.656 218.838 177.369 221.579 180.109 223.291C182.849 225.346 186.274 225.004 189.357 224.319C191.412 223.634 194.152 222.264 194.837 220.208C195.18 218.838 195.522 217.126 196.208 215.413Z" fill="#F7E2B2"/>
<path fill-rule="evenodd" clip-rule="evenodd" d="M514.414 273.985C514.414 272.957 514.414 271.93 514.414 270.56C514.414 267.82 512.702 265.764 510.647 264.394C510.304 264.052 509.961 264.052 509.619 263.709C508.249 263.024 506.879 262.339 505.509 262.339C502.768 261.997 501.056 262.339 499.001 264.052C497.288 265.079 494.205 267.134 493.178 268.847C491.123 272.615 490.437 276.725 493.178 280.15C495.233 282.548 497.631 284.946 500.713 285.973C503.796 287.001 507.221 285.973 509.961 284.603C511.674 283.576 514.072 281.521 514.072 279.123C514.414 277.068 514.414 275.698 514.414 273.985Z" fill="#F7E2B2"/>
<path fill-rule="evenodd" clip-rule="evenodd" d="M188.33 254.461C188.33 253.433 188.33 252.406 188.33 251.036C188.33 248.296 186.617 246.24 184.562 244.87C184.219 244.528 183.877 244.528 183.534 244.185C182.164 243.5 180.794 242.815 179.424 242.815C176.684 242.473 174.971 242.815 172.916 244.528C171.203 245.555 168.121 247.61 167.093 249.323C165.038 253.091 164.353 257.201 167.093 260.626C169.148 263.024 171.546 265.422 174.629 266.449C177.711 267.477 181.137 266.449 183.877 265.079C185.589 264.052 187.987 261.997 187.987 259.599C188.33 257.544 188.33 256.174 188.33 254.461Z" fill="#F7E2B2"/>
<path fill-rule="evenodd" clip-rule="evenodd" d="M510.989 228.429C510.647 227.401 510.647 226.374 510.304 225.346C509.619 222.606 507.564 221.236 504.824 220.208C504.481 220.208 504.139 219.866 503.796 219.866C502.426 219.523 501.056 219.523 499.343 219.523C496.603 219.866 495.233 220.551 493.521 222.949C492.15 224.319 489.753 227.401 489.068 229.114C488.04 233.224 488.383 237.335 492.15 240.075C494.891 242.13 497.631 243.5 501.056 243.843C504.481 244.185 507.222 242.13 509.619 240.075C510.989 238.362 512.702 235.965 512.359 233.909C511.674 231.512 511.332 230.142 510.989 228.429Z" fill="#F7E2B2"/>
<path fill-rule="evenodd" clip-rule="evenodd" d="M183.877 285.288C182.507 284.946 181.137 284.946 179.424 284.946C176.684 285.288 175.314 285.973 173.601 288.371C172.231 289.741 169.833 292.824 169.148 294.537C168.121 298.647 168.463 302.757 172.231 305.497C174.971 307.552 177.711 308.923 181.137 309.265C184.562 309.608 187.302 307.552 189.7 305.497C191.07 303.785 192.783 301.387 192.44 299.332C192.097 297.619 191.755 296.249 191.412 294.537C191.07 293.509 191.07 292.481 190.727 291.454C190.042 288.714 187.987 287.343 185.247 286.316C184.562 285.631 184.219 285.288 183.877 285.288Z" fill="#F7E2B2"/>
<path fill-rule="evenodd" clip-rule="evenodd" d="M495.918 185.271C495.575 184.243 494.89 183.216 494.548 182.531C493.178 180.133 490.78 179.105 488.04 179.105C487.697 179.105 487.355 179.105 486.67 179.105C484.957 179.105 483.929 179.448 482.217 179.79C479.477 180.818 478.449 181.846 477.421 184.586C476.736 186.298 474.681 189.724 474.681 191.779C474.681 196.232 476.394 199.999 480.504 201.712C483.587 202.74 486.67 203.425 490.095 203.082C493.52 202.397 495.918 199.999 497.288 197.259C498.315 195.204 499.343 192.464 498.315 190.409C497.288 188.353 496.603 186.983 495.918 185.271Z" fill="#F7E2B2"/>
<path fill-rule="evenodd" clip-rule="evenodd" d="M203.743 331.529C203.401 330.502 202.716 329.474 202.373 328.789C201.003 326.391 198.606 325.364 195.865 325.364C195.523 325.364 195.18 325.364 194.495 325.364C192.783 325.364 191.755 325.706 190.042 326.049C187.302 327.076 186.275 328.104 185.247 330.844C184.562 332.557 182.507 335.982 182.507 338.037C182.507 342.49 184.219 346.258 188.33 347.971C191.413 348.998 194.495 349.683 197.921 349.341C201.346 348.656 203.743 346.258 205.114 343.518C206.141 341.463 207.169 338.722 206.141 336.667C205.114 334.27 204.428 332.899 203.743 331.529Z" fill="#F7E2B2"/>
<path fill-rule="evenodd" clip-rule="evenodd" d="M470.228 147.593C469.543 146.908 468.858 145.88 467.831 145.195C465.775 143.14 463.378 143.14 460.638 143.483C460.295 143.483 459.953 143.483 459.61 143.825C458.24 144.168 456.87 144.853 455.5 145.88C453.102 147.593 452.417 148.963 452.074 151.703C451.732 153.758 450.704 157.526 451.389 159.239C452.759 163.349 455.157 166.774 459.61 167.117C462.693 167.459 466.118 167.117 469.201 165.747C472.283 164.377 473.996 161.294 474.681 158.211C475.366 156.156 475.366 153.073 473.996 151.361C472.283 149.991 471.256 148.963 470.228 147.593Z" fill="#F7E2B2"/>
<path fill-rule="evenodd" clip-rule="evenodd" d="M225.665 364.412C224.98 363.727 224.295 362.699 223.267 362.014C221.212 359.959 218.814 359.959 216.074 360.301C215.732 360.301 215.389 360.301 215.047 360.644C213.676 360.987 212.306 361.672 210.936 362.699C208.539 364.412 207.853 365.782 207.511 368.522C207.168 370.577 206.141 374.345 206.826 376.058C208.196 380.168 210.594 383.593 215.047 383.936C218.129 384.278 221.555 383.936 224.637 382.566C227.72 381.196 229.433 378.113 230.118 375.03C230.803 372.975 230.803 369.892 229.433 368.18C228.062 366.809 226.692 365.782 225.665 364.412Z" fill="#F7E2B2"/>
<path fill-rule="evenodd" clip-rule="evenodd" d="M435.291 118.136C434.263 117.451 433.578 116.766 432.551 116.423C430.153 115.053 427.755 115.395 425.015 116.766C424.673 117.108 424.33 117.108 423.988 117.451C422.617 118.136 421.59 119.163 420.562 120.191C418.85 122.589 418.507 123.959 418.507 126.699C418.85 128.754 418.85 132.522 419.877 134.234C422.275 138.002 425.358 140.4 429.81 139.715C432.893 139.03 435.976 138.002 438.716 135.947C441.456 133.892 442.141 130.467 442.141 127.041C442.141 124.986 441.456 121.903 439.401 120.533C438.374 119.848 437.003 118.821 435.291 118.136Z" fill="#F7E2B2"/>
<path fill-rule="evenodd" clip-rule="evenodd" d="M255.465 390.444C254.437 389.759 253.752 389.074 252.724 388.731C250.327 387.361 247.929 387.704 245.189 389.074C244.846 389.416 244.504 389.416 244.161 389.759C242.791 390.444 241.764 391.471 240.736 392.499C239.023 394.897 238.681 396.267 238.681 399.007C239.023 401.062 239.023 404.83 240.051 406.542C242.449 410.31 245.531 412.708 249.984 412.023C253.067 411.338 256.15 410.31 258.89 408.255C261.63 406.2 262.315 402.775 262.315 399.349C262.315 397.294 261.63 394.211 259.575 392.841C258.205 392.499 256.835 391.471 255.465 390.444Z" fill="#F7E2B2"/>
<path fill-rule="evenodd" clip-rule="evenodd" d="M394.188 98.2691C393.16 97.9266 392.132 97.5841 391.105 97.2416C388.365 96.5565 385.967 97.5841 383.912 99.2967C383.569 99.6392 383.227 99.9818 382.884 99.9818C381.857 101.009 381.172 102.037 380.487 103.75C379.459 106.49 379.459 107.86 380.487 110.6C381.172 112.313 382.199 116.08 383.569 117.451C386.652 120.533 390.42 121.903 394.53 120.191C397.613 118.821 400.353 117.108 402.066 114.368C404.121 111.628 403.778 108.202 403.093 105.12C402.408 103.065 401.038 100.324 398.983 99.6392C397.613 99.2967 395.9 98.9542 394.188 98.2691Z" fill="#F7E2B2"/>
<path fill-rule="evenodd" clip-rule="evenodd" d="M291.088 408.255C290.06 407.913 289.033 407.57 288.005 407.228C285.265 406.543 282.867 407.57 280.812 409.283C280.469 409.625 280.127 409.968 279.784 409.968C278.757 410.995 278.072 412.023 277.387 413.736C276.359 416.476 276.359 417.846 277.387 420.586C278.072 422.299 279.099 426.067 280.469 427.437C283.552 430.519 287.32 431.889 291.43 430.177C294.513 428.807 297.253 427.094 298.966 424.354C301.021 421.614 300.678 418.188 299.993 415.106C299.308 413.051 297.938 410.31 295.883 409.625C294.17 408.94 292.8 408.598 291.088 408.255Z" fill="#F7E2B2"/>
<path fill-rule="evenodd" clip-rule="evenodd" d="M349.317 89.7061C348.289 89.7061 347.262 89.7061 345.892 89.7061C343.152 89.7061 341.096 91.4187 339.726 93.4738C339.384 93.8164 339.384 94.1589 339.041 94.5014C338.356 95.8715 337.671 97.2416 337.671 98.6117C337.329 101.352 337.671 103.065 339.384 105.12C340.411 106.832 342.466 109.915 344.179 110.943C347.947 112.998 352.057 113.683 355.482 110.943C357.88 108.887 360.278 106.49 361.305 103.407C362.333 100.324 361.305 96.8991 359.935 94.1589C358.908 92.4463 356.853 90.0486 354.455 90.0486C352.742 90.0486 351.03 90.0486 349.317 89.7061Z" fill="#F7E2B2"/>
<path fill-rule="evenodd" clip-rule="evenodd" d="M329.793 415.791C328.765 415.791 327.738 415.791 326.368 415.791C323.627 415.791 321.572 417.503 320.202 419.559C319.86 419.901 319.86 420.244 319.517 420.586C318.832 421.956 318.147 423.326 318.147 424.696C317.804 427.437 318.147 429.149 319.86 431.204C320.887 432.917 322.942 436 324.655 437.027C328.423 439.083 332.533 439.768 335.958 437.027C338.356 434.972 340.754 432.575 341.781 429.492C342.809 426.409 341.781 422.984 340.411 420.244C339.384 418.531 337.328 416.133 334.931 416.133C333.218 416.133 331.505 416.133 329.793 415.791Z" fill="#F7E2B2"/>
<path fill-rule="evenodd" clip-rule="evenodd" d="M304.103 93.4738C303.076 93.8163 302.048 93.8163 301.02 94.1589C298.28 94.8439 296.91 96.8991 295.883 99.6393C295.883 99.9818 295.54 100.324 295.54 100.667C295.198 102.037 295.198 103.407 295.198 105.12C295.54 107.86 296.225 109.23 298.623 110.943C299.993 112.313 303.076 114.71 304.788 115.395C308.899 116.423 313.009 116.081 315.749 112.313C317.804 109.573 319.174 106.832 319.517 103.407C319.859 99.9818 317.804 97.2416 315.749 94.8439C314.036 93.4738 311.639 91.7612 309.584 92.1037C307.186 92.4462 305.473 93.1313 304.103 93.4738Z" fill="#F7E2B2"/>
<path fill-rule="evenodd" clip-rule="evenodd" d="M369.526 413.393C368.498 413.736 367.471 413.736 366.443 414.078C363.703 414.763 362.333 416.818 361.305 419.558C361.305 419.901 360.963 420.244 360.963 420.586C360.62 421.956 360.62 423.326 360.62 425.039C360.963 427.779 361.648 429.149 364.045 430.862C365.415 432.232 368.498 434.63 370.211 435.315C374.321 436.342 378.431 436 381.172 432.232C383.227 429.492 384.597 426.751 384.939 423.326C385.282 419.901 383.227 417.161 381.172 414.763C379.459 413.393 377.061 411.68 375.006 412.023C372.609 412.708 371.238 413.05 369.526 413.393Z" fill="#F7E2B2"/>
<path fill-rule="evenodd" clip-rule="evenodd" d="M260.945 108.545C259.918 108.887 258.89 109.573 258.205 109.915C255.807 111.285 254.78 113.683 254.78 116.423C254.78 116.766 254.78 117.108 254.78 117.793C254.78 119.506 255.122 120.533 255.465 122.246C256.492 124.986 257.52 126.014 260.26 127.041C261.973 127.726 265.398 129.782 267.453 129.782C271.906 129.782 275.674 128.069 277.386 123.959C278.414 120.876 279.099 117.793 278.757 114.368C278.072 110.943 275.674 108.545 272.934 107.175C270.878 106.147 268.138 105.12 266.083 106.147C264.028 106.832 262.315 107.86 260.945 108.545Z" fill="#F7E2B2"/>
<path fill-rule="evenodd" clip-rule="evenodd" d="M407.204 400.72C406.176 401.062 405.148 401.747 404.463 402.09C402.066 403.46 401.038 405.857 401.038 408.598C401.038 408.94 401.038 409.283 401.038 409.968C401.038 411.68 401.381 412.708 401.723 414.421C402.751 417.161 403.778 418.188 406.518 419.216C408.231 419.901 411.656 421.956 413.712 421.956C418.164 421.956 421.932 420.244 423.645 416.133C424.672 413.051 425.357 409.968 425.015 406.543C424.33 403.117 421.932 400.72 419.192 399.349C417.137 398.322 414.397 397.294 412.341 398.322C409.944 399.007 408.574 400.035 407.204 400.72Z" fill="#F7E2B2"/>
<path fill-rule="evenodd" clip-rule="evenodd" d="M223.267 134.234C222.582 134.919 221.555 135.605 220.87 136.29C218.815 138.345 218.815 140.742 219.157 143.483C219.157 143.825 219.157 144.168 219.5 144.51C219.842 145.88 220.527 147.25 221.555 148.621C223.267 151.018 224.638 151.703 227.378 152.046C229.433 152.388 233.201 153.416 234.913 152.731C239.024 151.361 242.449 148.963 242.791 144.51C243.134 141.427 242.791 138.002 241.421 134.919C240.051 131.837 236.968 130.124 233.886 129.439C231.831 128.754 228.748 128.754 227.035 130.124C225.665 131.837 224.638 133.207 223.267 134.234Z" fill="#F7E2B2"/>
<path fill-rule="evenodd" clip-rule="evenodd" d="M440.086 378.455C439.401 379.14 438.373 379.825 437.688 380.853C435.633 382.908 435.633 385.306 435.976 388.046C435.976 388.389 435.976 388.731 436.318 389.074C436.661 390.444 437.346 391.814 438.373 393.184C440.086 395.582 441.456 396.267 444.196 396.609C446.251 396.952 450.019 397.979 451.732 397.294C455.842 395.924 459.267 393.526 459.61 389.074C459.953 385.991 459.61 382.566 458.24 379.483C456.87 376.4 453.787 374.688 450.704 374.002C448.649 373.317 445.566 373.317 443.854 374.688C442.484 376.4 441.114 377.428 440.086 378.455Z" fill="#F7E2B2"/>
<path fill-rule="evenodd" clip-rule="evenodd" d="M442.484 381.538C441.799 382.223 441.114 382.908 440.428 383.593C439.401 384.621 439.401 385.991 439.743 387.703C439.743 388.046 439.743 388.389 439.743 388.389C440.086 389.416 440.428 390.444 441.114 391.129C442.141 392.499 442.826 392.841 444.539 393.184C445.909 393.526 449.334 394.211 450.362 393.869C453.102 393.184 455.5 391.814 455.842 389.074C456.185 386.676 455.842 383.936 454.815 381.538C453.787 379.483 451.389 378.455 449.677 378.113C448.992 378.113 446.936 377.428 446.251 378.113C444.881 379.14 443.854 380.168 442.484 381.538Z" fill="#D8871F"/>
<path fill-rule="evenodd" clip-rule="evenodd" d="M225.665 136.975C224.98 137.66 224.295 138.345 223.61 139.03C222.582 140.057 222.582 141.427 222.925 143.14C222.925 143.483 222.925 143.825 222.925 143.825C223.267 144.853 223.61 145.88 224.295 146.565C225.323 147.935 226.008 148.278 227.72 148.62C229.09 148.963 232.516 149.648 233.543 149.305C236.283 148.62 238.681 147.25 239.024 144.51C239.366 142.112 239.024 139.372 237.996 136.975C236.968 134.919 234.571 133.892 232.858 133.549C232.173 133.549 230.118 133.207 229.433 133.549C228.063 134.577 227.035 135.947 225.665 136.975Z" fill="#D8871F"/>
<path fill-rule="evenodd" clip-rule="evenodd" d="M408.573 403.802C407.546 404.145 406.861 404.487 406.176 405.172C404.805 406.2 404.463 407.227 404.463 408.94C404.463 409.283 404.463 409.625 404.463 409.968C404.463 410.995 404.463 412.023 405.148 413.05C405.833 414.763 406.176 415.106 407.888 416.133C408.916 416.818 412.341 418.188 413.369 418.531C416.109 418.531 418.849 417.846 419.877 415.106C420.904 412.708 421.247 409.968 420.904 407.57C420.562 405.515 418.506 403.802 416.794 402.775C416.109 402.432 414.054 401.405 413.369 401.747C411.656 402.432 410.286 403.117 408.573 403.802Z" fill="#D8871F"/>
<path fill-rule="evenodd" clip-rule="evenodd" d="M262.658 111.97C261.63 112.313 260.945 112.655 260.26 113.34C258.89 114.368 258.547 115.395 258.547 117.108C258.547 117.451 258.547 117.793 258.547 118.136C258.547 119.163 258.547 120.191 259.232 121.218C259.917 122.931 260.26 123.274 261.973 124.301C263 124.986 266.425 126.356 267.453 126.699C270.193 126.699 272.933 126.014 273.961 123.274C274.989 120.876 275.331 118.136 274.989 115.738C274.646 113.683 272.591 111.97 270.878 110.943C270.193 110.6 268.138 109.572 267.453 109.915C265.398 110.258 264.028 110.943 262.658 111.97Z" fill="#D8871F"/>
<path fill-rule="evenodd" clip-rule="evenodd" d="M370.211 417.161C369.183 417.503 368.155 417.503 367.47 417.846C365.758 418.188 365.415 419.558 364.73 420.929C364.73 421.271 364.388 421.614 364.388 421.614C364.045 422.641 364.045 423.669 364.045 424.696C364.388 426.409 364.388 427.094 366.1 428.122C367.128 428.807 369.868 431.204 370.896 431.547C373.636 432.232 376.376 432.232 378.089 429.834C379.459 427.779 380.829 425.381 381.171 422.984C381.514 420.929 379.801 418.873 378.431 417.503C378.089 417.161 376.376 415.791 375.349 415.791C373.636 416.133 371.923 416.818 370.211 417.161Z" fill="#D8871F"/>
<path fill-rule="evenodd" clip-rule="evenodd" d="M304.788 96.899C303.76 97.2416 302.733 97.2416 302.048 97.5841C300.335 97.9266 299.993 99.2967 299.308 100.667C299.308 101.009 298.965 101.352 298.965 101.352C298.623 102.379 298.623 103.407 298.623 104.435C298.965 106.147 298.965 106.832 300.678 107.86C301.705 108.545 304.445 110.943 305.473 111.285C308.213 111.97 310.953 111.97 312.666 109.572C314.036 107.517 315.406 105.12 315.749 102.722C316.091 100.667 314.379 98.6117 313.009 97.2416C312.666 96.899 310.953 95.5289 309.926 95.5289C307.871 96.214 306.501 96.5565 304.788 96.899Z" fill="#D8871F"/>
<path fill-rule="evenodd" clip-rule="evenodd" d="M329.793 419.559C328.765 419.559 327.738 419.559 327.052 419.559C325.34 419.559 324.655 420.586 323.627 421.956C323.285 422.299 323.285 422.641 323.285 422.641C322.6 423.669 322.257 424.354 322.257 425.381C321.915 427.094 322.257 427.779 323.285 429.492C323.97 430.519 326.025 433.602 326.71 434.287C329.108 435.657 331.848 436.342 333.903 434.63C335.958 432.917 337.671 431.204 338.698 428.464C339.383 426.409 338.356 424.011 337.328 422.299C336.986 421.614 335.616 419.901 334.931 419.901C332.875 419.558 331.505 419.901 329.793 419.559Z" fill="#D8871F"/>
<path fill-rule="evenodd" clip-rule="evenodd" d="M349.316 93.4738C348.289 93.4738 347.261 93.4738 346.576 93.4738C344.864 93.4738 344.178 94.5013 343.151 95.8714C342.808 96.214 342.808 96.5565 342.808 96.5565C342.123 97.5841 341.781 98.2691 341.781 99.2967C341.438 101.009 341.781 101.694 342.808 103.407C343.493 104.435 345.549 107.517 346.234 108.202C348.631 109.572 351.371 110.258 353.427 108.545C355.482 106.832 357.194 105.12 358.222 102.379C358.907 100.324 357.879 97.9266 356.852 96.214C356.509 95.5289 355.139 93.8163 354.454 93.8163C352.742 93.8163 351.029 93.8163 349.316 93.4738Z" fill="#D8871F"/>
<path fill-rule="evenodd" clip-rule="evenodd" d="M289.717 411.68C288.689 411.338 288.004 410.995 286.977 410.995C285.264 410.653 284.237 411.338 283.209 412.365C282.867 412.708 282.867 412.708 282.524 413.05C281.839 413.735 281.154 414.42 280.811 415.448C280.126 417.161 280.126 417.846 280.811 419.558C281.154 420.928 282.182 424.011 283.209 425.039C285.264 426.751 287.662 428.464 290.06 427.094C292.457 426.066 294.512 424.696 296.225 422.641C297.595 420.928 297.253 418.188 296.568 416.476C296.225 415.791 295.54 413.735 294.855 413.393C293.142 412.708 291.43 412.365 289.717 411.68Z" fill="#D8871F"/>
<path fill-rule="evenodd" clip-rule="evenodd" d="M393.159 101.694C392.132 101.352 391.447 101.009 390.419 101.009C388.707 100.667 387.679 101.352 386.651 102.379C386.309 102.722 386.309 102.722 385.966 103.064C385.281 103.75 384.596 104.435 384.254 105.462C383.569 107.175 383.569 107.86 384.254 109.572C384.596 110.943 385.624 114.025 386.651 115.053C388.707 116.766 391.104 118.478 393.502 117.108C395.9 116.08 397.955 114.71 399.667 112.655C401.038 110.943 400.695 108.202 400.01 106.49C399.667 105.805 398.982 103.75 398.297 103.407C396.242 102.722 394.872 102.379 393.159 101.694Z" fill="#D8871F"/>
<path fill-rule="evenodd" clip-rule="evenodd" d="M253.409 393.869C252.724 393.184 251.697 392.841 251.012 392.499C249.642 391.814 248.271 392.156 246.901 392.841C246.559 392.841 246.216 393.184 246.216 393.184C245.189 393.869 244.504 394.211 243.819 395.239C242.791 396.609 242.449 397.294 242.791 399.007C242.791 400.377 243.134 403.802 243.476 404.83C244.846 407.227 246.901 408.94 249.642 408.598C252.039 408.255 254.779 407.227 256.835 405.857C258.547 404.487 258.89 402.09 258.89 400.034C258.89 399.349 258.547 397.294 257.862 396.609C256.15 395.582 254.779 394.554 253.409 393.869Z" fill="#D8871F"/>
<path fill-rule="evenodd" clip-rule="evenodd" d="M433.235 121.218C432.55 120.533 431.523 120.191 430.838 119.848C429.467 119.163 428.097 119.506 426.727 120.191C426.385 120.191 426.042 120.533 426.042 120.533C425.015 121.218 424.33 121.561 423.645 122.588C422.617 123.959 422.274 124.644 422.617 126.356C422.617 127.726 422.959 131.152 423.302 132.179C424.672 134.577 426.727 136.289 429.467 135.947C431.865 135.604 434.605 134.577 436.661 133.207C438.373 131.837 438.716 129.439 438.716 127.384C438.716 126.699 438.373 124.644 437.688 123.959C436.318 122.931 434.948 121.903 433.235 121.218Z" fill="#D8871F"/>
<path fill-rule="evenodd" clip-rule="evenodd" d="M222.924 366.809C222.239 366.124 221.554 365.439 220.869 364.754C219.842 363.727 218.471 363.727 216.759 364.069C216.416 364.069 216.074 364.069 216.074 364.412C215.046 364.754 214.019 365.097 213.334 365.782C211.963 366.809 211.621 367.494 211.278 369.207C210.936 370.577 210.251 374.002 210.593 375.03C211.278 377.77 212.649 380.168 215.389 380.51C217.786 380.853 220.527 380.51 222.924 379.483C224.979 378.455 226.007 376.058 226.35 374.345C226.35 373.66 227.035 371.605 226.35 370.92C225.322 369.207 223.952 368.18 222.924 366.809Z" fill="#D8871F"/>
<path fill-rule="evenodd" clip-rule="evenodd" d="M467.145 150.333C466.46 149.648 465.775 148.963 465.09 148.278C464.063 147.25 462.693 147.25 460.98 147.593C460.637 147.593 460.295 147.593 460.295 147.593C459.267 147.935 458.24 148.278 457.555 148.963C456.185 149.991 455.842 150.676 455.5 152.388C455.157 153.758 454.472 157.184 454.815 158.211C455.5 160.951 456.87 163.349 459.61 163.692C462.008 164.034 464.748 163.692 467.145 162.664C469.201 161.636 470.228 159.239 470.571 157.526C470.571 156.841 471.256 154.786 470.571 154.101C469.543 152.731 468.516 151.361 467.145 150.333Z" fill="#D8871F"/>
<path fill-rule="evenodd" clip-rule="evenodd" d="M194.495 328.789C193.467 328.789 192.44 328.789 191.412 329.474C189.699 330.159 189.357 330.502 188.329 332.214C187.644 333.242 186.274 336.667 185.932 337.695C185.932 340.435 186.617 343.175 189.357 344.203C191.755 345.23 194.495 345.573 196.892 345.23C198.948 344.888 200.66 342.833 201.688 341.12C202.03 340.435 203.058 338.38 202.715 337.695C202.03 336.325 201.003 334.612 200.318 333.242C199.975 332.214 199.633 331.529 198.948 330.844C197.92 329.474 196.892 329.132 195.18 329.132C195.18 328.789 194.837 328.789 194.495 328.789Z" fill="#D8871F"/>
<path fill-rule="evenodd" clip-rule="evenodd" d="M492.493 186.983C492.15 185.956 491.807 185.271 491.122 184.586C490.095 183.216 489.067 182.873 487.355 182.873C487.012 182.873 486.67 182.873 486.327 182.873C485.299 182.873 484.272 182.873 483.244 183.558C481.532 184.243 481.189 184.586 480.162 186.298C479.477 187.326 478.106 190.751 477.764 191.779C477.764 194.519 478.449 197.259 481.189 198.287C483.587 199.314 486.327 199.657 488.725 199.314C490.78 198.972 492.493 196.917 493.52 195.204C493.863 194.519 494.89 192.464 494.548 191.779C494.205 190.066 493.178 188.353 492.493 186.983Z" fill="#D8871F"/>
<path fill-rule="evenodd" clip-rule="evenodd" d="M182.849 288.714C181.821 288.371 180.794 288.371 179.766 288.371C178.054 288.713 177.368 288.714 176.341 290.426C175.656 291.454 173.258 294.194 172.916 295.221C172.231 297.962 172.231 300.702 174.628 302.415C176.683 303.785 179.081 305.155 181.479 305.497C183.534 305.84 185.589 304.127 186.959 302.757C187.302 302.415 188.672 300.702 188.672 299.674C188.329 297.962 187.987 296.592 187.644 294.879C187.302 293.851 187.302 292.824 186.959 292.139C186.617 290.426 185.247 290.084 183.876 289.399C183.191 289.056 183.191 289.056 182.849 288.714Z" fill="#D8871F"/>
<path fill-rule="evenodd" clip-rule="evenodd" d="M507.221 229.114C506.879 228.086 506.879 227.059 506.536 226.374C506.194 224.661 504.823 224.319 503.453 223.634C503.111 223.634 502.768 223.291 502.768 223.291C501.741 222.949 500.713 222.949 499.686 222.949C497.973 223.291 497.288 223.291 496.26 225.004C495.575 226.031 493.178 228.771 492.835 229.799C492.15 232.539 492.15 235.279 494.548 236.992C496.603 238.362 499.001 239.732 501.398 240.075C503.453 240.417 505.509 238.705 506.879 237.335C507.221 236.992 508.591 235.279 508.591 234.252C508.249 232.539 507.564 230.827 507.221 229.114Z" fill="#D8871F"/>
<path fill-rule="evenodd" clip-rule="evenodd" d="M184.561 254.118C184.561 253.091 184.561 252.063 184.561 251.378C184.561 249.666 183.534 248.98 182.164 247.953C181.821 247.61 181.479 247.61 181.479 247.61C180.451 246.925 179.766 246.583 178.739 246.583C177.026 246.24 176.341 246.583 174.628 247.61C173.601 248.295 170.518 250.351 169.833 251.036C168.463 253.433 167.778 256.174 169.49 258.229C171.203 260.284 172.916 261.996 175.656 263.024C177.711 263.709 180.109 262.682 181.821 261.654C182.506 261.311 184.219 259.941 184.219 259.256C184.561 257.544 184.561 255.831 184.561 254.118Z" fill="#D8871F"/>
<path fill-rule="evenodd" clip-rule="evenodd" d="M510.646 273.642C510.646 272.615 510.646 271.587 510.646 270.902C510.646 269.19 509.619 268.504 508.248 267.477C507.906 267.134 507.563 267.134 507.563 267.134C506.536 266.449 505.851 266.107 504.823 266.107C503.111 265.764 502.426 266.107 500.713 267.134C499.685 267.819 496.603 269.875 495.918 270.56C494.547 272.957 493.862 275.698 495.575 277.753C497.288 279.808 499 281.52 501.74 282.548C503.796 283.233 506.193 282.206 507.906 281.178C508.591 280.835 510.304 279.465 510.304 278.78C510.646 277.068 510.646 275.355 510.646 273.642Z" fill="#D8871F"/>
<path fill-rule="evenodd" clip-rule="evenodd" d="M192.783 214.385C193.125 213.358 193.468 212.673 193.468 211.645C193.81 209.933 193.125 208.905 192.098 207.877C191.755 207.535 191.755 207.535 191.413 207.192C190.727 206.507 190.042 205.822 189.015 205.48C187.302 204.795 186.617 204.795 184.905 205.48C183.534 205.822 180.452 206.85 179.424 207.877C177.712 209.933 175.999 212.33 177.369 214.728C178.397 217.126 179.767 219.181 181.822 220.893C183.534 222.263 186.275 221.921 187.987 221.236C188.672 220.893 190.727 220.208 191.07 219.523C191.755 217.468 192.098 215.755 192.783 214.385Z" fill="#D8871F"/>
<path fill-rule="evenodd" clip-rule="evenodd" d="M502.426 317.486C502.768 316.458 503.111 315.773 503.111 314.746C503.453 313.033 502.768 312.005 501.741 310.978C501.398 310.635 501.398 310.635 501.056 310.293C500.371 309.608 499.686 308.923 498.658 308.58C496.945 307.895 496.26 307.895 494.548 308.58C493.178 308.923 490.095 309.95 489.067 310.978C487.355 313.033 485.642 315.431 487.012 317.828C488.04 320.226 489.41 322.281 491.465 323.994C493.178 325.364 495.918 325.021 497.63 324.336C498.315 323.994 500.371 323.309 500.713 322.624C501.398 320.911 502.083 319.198 502.426 317.486Z" fill="#D8871F"/>
<path fill-rule="evenodd" clip-rule="evenodd" d="M210.594 177.735C211.279 177.05 211.621 176.023 211.964 175.337C212.649 173.967 212.306 172.597 211.621 171.227C211.621 170.885 211.279 170.542 211.279 170.542C210.594 169.515 210.251 168.829 209.223 168.144C207.853 167.117 207.168 166.774 205.456 167.117C204.086 167.117 200.66 167.459 199.633 167.802C197.235 169.172 195.522 171.227 195.865 173.967C196.207 176.365 197.235 179.105 198.605 181.16C199.975 182.873 202.373 183.216 204.428 183.216C205.113 183.216 207.168 182.873 207.853 182.188C208.881 180.818 209.566 179.105 210.594 177.735Z" fill="#D8871F"/>
<path fill-rule="evenodd" clip-rule="evenodd" d="M483.244 357.904C483.929 357.219 484.272 356.191 484.614 355.506C485.299 354.136 484.957 352.766 484.272 351.396C484.272 351.053 483.929 350.711 483.929 350.711C483.244 349.683 482.901 348.998 481.874 348.313C480.504 347.285 479.819 346.943 478.106 347.285C476.736 347.285 473.311 347.628 472.283 347.97C469.885 349.341 468.173 351.396 468.515 354.136C468.858 356.534 469.885 359.274 471.256 361.329C472.626 363.042 475.023 363.384 477.078 363.384C477.764 363.384 479.819 363.042 480.504 362.357C481.531 360.644 482.216 359.274 483.244 357.904Z" fill="#D8871F"/>
<path fill-rule="evenodd" clip-rule="evenodd" d="M482.559 406.542C496.945 396.609 495.918 410.653 499.001 425.381C506.536 462.374 501.398 451.756 466.118 441.138C445.567 434.972 457.555 428.464 471.599 415.791C475.366 412.708 478.792 409.625 482.559 406.542ZM489.067 418.873C485.985 410.995 478.449 421.271 472.969 426.066C460.98 436.685 473.996 435.315 489.41 439.768C498.658 442.508 492.15 433.259 490.095 421.956L489.067 418.873ZM393.845 498.339C385.282 516.151 382.199 503.135 369.526 488.749C348.974 465.457 349.659 470.595 386.995 461.347C411.999 455.181 405.834 465.799 398.298 486.008L393.845 498.339ZM393.503 474.02C394.873 465.799 382.884 470.937 376.034 472.307C359.935 475.733 372.951 481.213 383.912 493.202C389.05 498.682 391.105 480.528 393.503 474.02ZM298.965 469.567C295.198 474.02 266.426 503.82 261.973 499.024C261.63 498.682 245.189 451.413 256.492 451.413C262.658 451.413 302.048 462.374 298.965 469.567ZM261.63 463.744C263.343 471.965 265.055 480.528 266.426 488.749C294.17 464.087 293.485 472.993 265.74 462.374L261.288 461.347L261.63 463.744ZM378.089 68.4694C384.597 59.9062 404.463 39.3547 414.739 36.6145C418.85 42.4374 429.468 86.9658 421.59 85.9382C415.424 85.5957 378.431 75.3199 377.404 70.182L378.089 68.4694ZM406.861 51.6856C384.939 70.8671 384.939 66.7567 409.944 74.6348C418.85 77.375 415.767 74.6348 413.027 60.9338C412.342 57.5085 412.342 51.0005 409.944 49.2879L406.861 51.6856ZM167.436 430.862C148.939 431.547 159.9 417.846 165.038 403.802C175.314 375.373 171.888 378.113 198.263 407.913C215.389 427.094 198.605 425.039 178.739 428.807L167.436 430.862ZM175.314 398.322C163.325 432.917 161.27 421.271 192.097 417.503C198.263 416.818 187.645 408.598 183.192 403.117C181.137 400.72 179.081 397.637 176.684 396.267L175.314 398.322ZM111.261 322.281C93.45 313.718 106.466 310.978 121.195 298.304C144.486 278.438 139.691 278.438 148.597 316.458C154.42 341.805 143.459 334.955 123.592 327.076L111.261 322.281ZM133.183 298.304C126.675 303.785 120.167 309.608 114.002 315.088C149.282 327.076 141.404 330.844 136.608 301.387L135.238 297.277L133.183 298.304ZM569.218 213.358C587.715 220.893 573.671 226.031 559.285 238.02C534.623 258.571 539.076 257.201 531.198 216.441C526.745 193.834 538.391 203.425 557.573 209.59L569.218 213.358ZM546.612 238.02C574.356 213.358 570.589 224.319 541.131 213.015C535.308 210.618 540.789 222.949 542.159 230.142C542.844 232.882 542.844 236.992 544.557 239.39L546.612 238.02ZM111.261 189.381C117.769 187.668 160.928 174.31 158.53 186.983C157.502 192.806 146.541 225.346 142.774 227.744C137.636 231.169 120.852 208.22 118.112 204.452C115.029 200.684 109.891 195.204 109.891 190.066L111.261 189.381ZM124.277 198.629C142.774 220.893 139.006 220.893 146.884 195.889C149.624 186.983 147.227 190.066 133.525 192.464C130.443 193.149 123.935 192.806 122.222 195.204L124.277 198.629ZM546.954 352.081C514.072 359.959 519.21 354.479 529.828 323.994C539.076 297.962 542.159 309.265 560.655 329.474C579.494 349.683 569.903 346.258 546.954 352.081ZM556.545 337.01C537.364 315.431 541.474 315.431 533.596 340.435C530.856 349.341 533.596 346.258 546.954 343.175C550.379 342.49 556.887 342.49 558.6 340.092L556.545 337.01ZM195.523 127.041C179.766 139.372 183.534 127.041 178.396 105.805C171.203 73.6073 174.286 82.5129 207.169 92.4462C234.571 100.667 217.102 108.545 199.633 123.274L195.523 127.041ZM190.385 95.1864C179.081 91.0761 184.562 96.214 187.987 112.313C191.07 127.726 194.495 119.163 207.854 105.12C213.677 98.9542 198.948 98.2691 190.385 95.1864ZM500.371 106.832C531.198 99.9818 526.06 101.694 513.729 136.632C505.509 159.924 502.426 152.388 486.327 132.864C466.118 108.202 470.228 112.998 500.371 106.832ZM512.702 113.683C513.729 109.915 504.481 114.025 499.343 115.053C479.134 118.821 482.559 115.395 499.686 135.262C507.221 143.825 507.221 130.124 510.989 118.478L512.702 113.683ZM285.949 73.2647C265.74 74.9774 276.016 65.3866 282.867 45.1776C293.143 14.0077 292.115 24.2835 314.722 50.3155C332.533 70.8671 315.064 69.1544 292.8 72.2372L285.949 73.2647ZM306.501 61.6189C314.379 58.5361 304.103 50.3155 299.651 44.8351C289.032 31.8191 290.745 46.5477 285.264 61.9614C282.867 69.1544 299.308 62.6464 306.501 61.6189Z" fill="#F7E2B2"/>
<path fill-rule="evenodd" clip-rule="evenodd" d="M447.965 470.937C446.937 488.064 441.457 477.103 425.358 466.827C403.779 452.441 413.712 457.236 440.087 443.193C456.185 434.63 448.65 445.248 447.965 464.429V470.937Z" fill="#D8871F"/>
<path fill-rule="evenodd" clip-rule="evenodd" d="M239.366 57.166C224.98 47.2328 230.461 58.8787 229.776 78.0601C228.748 104.092 230.118 93.8163 257.52 80.8003C273.619 72.9222 260.261 72.2372 245.189 61.2763L239.366 57.166Z" fill="#D8871F"/>
<path fill-rule="evenodd" clip-rule="evenodd" d="M331.163 497.997C321.572 512.383 322.257 500.395 314.037 483.268C302.733 459.976 308.899 468.882 338.699 470.252C356.852 470.937 344.864 476.418 334.588 492.516L331.163 497.997Z" fill="#D8871F"/>
<path fill-rule="evenodd" clip-rule="evenodd" d="M356.167 35.9294C348.289 20.1732 347.604 32.5041 337.328 48.9454C323.285 70.867 329.793 62.9889 360.277 65.3866C378.089 66.7567 367.128 59.2212 358.907 42.0949L356.167 35.9294Z" fill="#D8871F"/>
<path fill-rule="evenodd" clip-rule="evenodd" d="M217.102 462.717C201.688 470.252 208.539 460.319 209.909 441.138C211.964 415.448 212.649 426.066 237.996 442.165C253.067 451.756 240.051 450.728 223.267 459.291L217.102 462.717Z" fill="#D8871F"/>
<path fill-rule="evenodd" clip-rule="evenodd" d="M469.201 75.6624C470.229 58.1936 463.378 68.8119 446.252 77.7176C422.96 90.0485 432.894 86.2807 458.24 103.407C473.312 113.34 467.146 101.694 468.516 82.5129L469.201 75.6624Z" fill="#D8871F"/>
<path fill-rule="evenodd" clip-rule="evenodd" d="M136.266 374.688C119.14 373.66 129.758 368.18 140.719 352.423C155.447 331.187 150.652 340.778 164.353 367.495C172.574 383.593 161.955 376.058 143.116 375.03L136.266 374.688Z" fill="#D8871F"/>
<path fill-rule="evenodd" clip-rule="evenodd" d="M547.982 166.432C557.573 151.703 546.612 157.526 527.088 156.841C501.056 155.813 511.332 157.526 524.69 184.928C532.568 201.027 533.253 187.668 543.872 171.912L547.982 166.432Z" fill="#D8871F"/>
<path fill-rule="evenodd" clip-rule="evenodd" d="M110.234 257.544C95.8479 247.953 107.494 248.98 124.963 240.417C148.254 229.457 139.349 235.279 138.321 265.422C137.636 283.576 131.813 271.245 116.057 260.969L110.234 257.544Z" fill="#D8871F"/>
<path fill-rule="evenodd" clip-rule="evenodd" d="M570.246 284.261C585.66 276.383 573.672 276.04 557.23 265.764C534.966 252.063 543.187 258.571 541.132 289.056C539.761 307.21 547.297 295.564 564.081 287.343L570.246 284.261Z" fill="#D8871F"/>
<path fill-rule="evenodd" clip-rule="evenodd" d="M144.486 143.14C136.608 127.726 146.199 134.234 165.723 135.947C191.412 138.002 181.137 138.687 165.038 164.377C155.447 179.79 156.132 165.747 147.569 149.305L144.486 143.14Z" fill="#D8871F"/>
<path fill-rule="evenodd" clip-rule="evenodd" d="M530.17 397.294C547.639 398.322 537.363 391.814 528.458 374.687C516.469 351.738 519.895 361.671 502.768 387.018C492.492 402.09 504.481 395.924 523.32 396.952L530.17 397.294Z" fill="#D8871F"/>
<path fill-rule="evenodd" clip-rule="evenodd" d="M409.601 369.207C408.231 373.66 407.203 377.77 406.518 381.196C404.121 390.444 402.751 395.239 399.325 396.609C395.558 398.322 391.105 395.582 381.856 390.101C379.459 388.731 377.061 387.019 373.978 385.306C371.238 389.074 369.183 392.841 367.128 395.582C361.99 403.46 359.25 407.57 355.482 408.255C351.372 408.598 347.946 404.83 341.096 396.609C339.383 394.554 337.328 392.156 334.93 389.416C331.163 392.499 328.08 394.897 325.34 396.952C317.804 403.117 314.036 406.2 310.269 405.172C306.158 404.487 304.103 399.692 299.993 389.759C298.965 387.019 297.595 384.278 296.225 381.196C291.772 382.908 288.004 384.278 284.579 385.648C275.673 389.074 271.221 390.786 267.795 389.074C264.028 387.019 263.685 381.881 263 371.262C262.657 368.522 262.657 365.439 262.315 362.014C257.52 362.014 253.409 362.357 249.984 362.699C240.393 363.384 235.598 363.384 232.858 360.644C230.117 357.561 231.145 352.423 233.543 342.148C234.228 339.407 234.913 336.667 235.598 332.899C231.488 331.529 227.72 330.502 224.295 329.817C215.046 327.419 210.251 326.049 208.881 322.624C207.168 318.856 209.908 314.403 215.389 305.155C216.759 302.757 218.472 300.359 220.184 297.277C216.416 294.537 212.649 292.481 209.908 290.426C202.03 285.288 197.92 282.548 197.235 278.78C196.892 274.67 200.66 271.245 208.881 264.394C210.936 262.682 213.334 260.626 216.074 258.229C212.991 254.461 210.594 251.378 208.538 248.638C202.373 241.102 199.29 237.335 200.318 233.567C201.003 229.457 205.798 227.401 215.731 223.291C218.472 222.264 221.212 220.893 224.295 219.523C222.582 215.07 221.212 211.303 219.842 207.877C216.416 198.972 214.704 194.519 216.416 191.094C218.472 187.326 223.61 186.983 234.228 186.298C236.968 185.956 240.051 185.956 243.476 185.613C243.476 180.818 243.133 176.708 242.791 173.282C242.106 163.692 242.106 158.896 244.846 156.156C247.929 153.416 253.067 154.443 263.343 156.841C266.083 157.526 268.823 158.211 272.591 158.896C273.961 154.443 274.988 150.333 275.673 146.908C278.071 137.66 279.441 132.864 282.866 131.494C286.634 129.782 291.087 132.522 300.335 138.002C302.733 139.372 305.131 141.085 308.213 142.798C310.954 139.03 313.009 135.262 315.064 132.522C320.202 124.644 322.942 120.533 326.71 119.848C330.82 119.506 334.245 123.274 341.096 131.494C342.809 133.549 344.864 135.947 347.261 138.687C351.029 135.604 354.112 133.207 356.852 131.152C364.388 124.986 368.155 121.903 371.923 122.931C376.034 123.616 378.089 128.411 382.199 138.345C383.227 141.085 384.597 143.825 385.967 146.908C390.42 145.195 394.187 143.825 397.613 142.455C406.518 139.03 410.971 137.317 414.396 139.03C418.164 141.085 418.507 146.223 419.192 156.841C419.534 159.581 419.534 162.664 419.877 166.089C424.672 166.089 428.783 165.747 432.208 165.404C441.798 164.719 446.594 164.719 449.334 167.459C452.074 170.542 451.047 175.68 448.649 185.956C447.964 188.696 447.279 191.436 446.594 195.204C451.047 196.574 455.157 197.602 458.582 198.287C467.83 200.684 472.626 202.055 473.996 205.48C475.709 209.248 472.968 213.7 467.488 222.949C466.118 225.346 464.405 227.744 462.693 230.827C466.46 233.567 470.228 235.622 472.968 237.677C480.846 242.815 484.957 245.555 485.642 249.323C485.984 253.433 482.217 256.859 473.996 263.709C471.941 265.422 469.543 267.477 466.803 269.875C469.886 273.642 472.283 276.725 474.338 279.465C480.504 287.001 483.587 290.769 482.559 294.537C481.874 298.647 477.079 300.702 467.145 304.812C464.405 305.84 461.665 307.21 458.582 308.58C460.295 313.033 461.665 316.801 463.035 320.226C466.46 329.132 468.173 333.584 466.46 337.01C464.405 340.778 459.267 341.12 448.649 341.805C445.909 342.148 442.826 342.148 439.401 342.49C439.401 347.286 439.743 351.396 440.086 354.821C440.771 364.412 440.771 369.207 438.031 371.947C434.948 374.688 429.81 373.66 419.534 371.262C416.109 370.577 413.369 369.892 409.601 369.207ZM401.38 379.483C402.408 375.715 403.778 370.92 405.148 365.439C405.491 364.069 406.861 363.042 408.231 363.384C412.341 364.412 416.452 365.097 419.877 366.124C428.44 368.18 432.55 369.207 433.578 368.18C434.605 367.152 434.263 363.042 433.92 355.164C433.578 351.053 433.235 346.258 433.235 340.435C433.235 339.065 434.263 338.037 435.633 337.695C440.428 337.352 444.196 337.01 447.279 336.667C456.185 335.982 460.295 335.64 460.98 334.27C461.665 332.899 460.295 329.132 457.212 321.939C455.842 318.171 454.129 314.06 452.074 308.238C451.389 306.867 452.074 305.497 453.444 304.812C457.897 302.757 461.322 301.387 464.405 300.017C472.626 296.592 476.394 294.879 476.736 293.509C477.079 292.139 474.338 289.056 469.543 282.891C466.803 279.808 463.72 276.04 460.295 271.245C459.61 270.217 459.61 268.505 460.637 267.819C464.063 264.737 467.145 262.339 469.543 259.941C476.051 254.118 479.476 251.378 479.134 250.008C479.134 248.638 475.709 246.24 468.858 242.13C465.433 240.075 461.665 237.335 456.527 233.909C455.5 233.224 454.814 231.512 455.5 230.484C457.555 226.716 459.952 223.291 461.665 220.208C466.118 212.673 468.516 209.248 467.83 207.877C467.145 206.507 463.378 205.48 455.5 203.425C451.732 202.397 446.936 201.027 441.456 199.657C440.086 199.314 439.058 197.944 439.401 196.574C440.428 192.464 441.113 188.353 442.141 184.928C444.196 176.365 445.224 172.255 444.196 171.227C443.169 170.2 439.058 170.542 431.18 170.885C427.07 171.227 422.275 171.57 416.452 171.57C415.081 171.57 414.054 170.542 413.711 169.172C413.369 164.377 413.026 160.609 412.684 157.526C411.999 148.62 411.656 144.51 410.286 143.825C408.916 143.14 405.148 144.51 397.955 147.593C394.187 148.963 390.077 150.676 384.254 152.731C382.884 153.416 381.514 152.731 380.829 151.361C378.774 146.908 377.404 143.483 376.034 140.4C372.608 132.179 370.896 128.411 369.526 128.069C368.155 127.726 365.073 130.467 358.907 135.262C355.825 138.002 352.057 141.085 347.261 144.51C346.234 145.195 344.521 145.195 343.836 144.168C340.753 140.742 338.356 137.66 335.958 135.262C330.135 128.754 327.395 125.329 326.025 125.671C324.655 125.671 322.257 129.096 318.147 135.947C316.092 139.372 313.351 143.14 309.926 148.278C309.241 149.306 307.528 149.991 306.501 149.306C302.733 147.25 299.308 144.853 296.225 143.14C288.689 138.687 285.264 136.29 283.894 136.975C282.524 137.66 281.496 141.427 279.441 149.306C278.414 153.073 277.044 157.869 275.673 163.349C275.331 164.719 273.961 165.747 272.591 165.404C268.48 164.377 264.37 163.692 260.945 162.664C252.382 160.609 248.271 159.581 247.244 160.609C246.216 161.636 246.559 165.747 246.901 173.625C247.244 177.735 247.586 182.531 247.586 188.353C247.586 189.724 246.559 190.751 245.189 191.094C240.393 191.436 236.625 191.779 233.543 192.121C224.637 192.806 220.527 193.149 219.842 194.519C219.157 195.889 220.527 199.657 223.61 206.85C224.98 210.618 226.692 214.728 228.747 220.551C229.432 221.921 228.747 223.291 227.377 223.976C222.924 226.031 219.499 227.401 216.416 228.772C208.196 232.197 204.428 233.909 204.086 235.28C203.743 236.65 206.483 239.732 211.279 245.898C214.019 248.981 217.102 252.748 220.527 257.544C221.212 258.571 221.212 260.284 220.184 260.969C216.759 264.052 213.676 266.449 211.279 268.847C204.771 274.67 201.345 277.41 201.688 278.78C201.688 280.15 205.113 282.548 211.964 286.658C215.389 288.714 219.157 291.454 224.295 294.879C225.322 295.564 226.007 297.277 225.322 298.304C223.267 302.072 220.869 305.497 219.157 308.58C214.704 316.116 212.306 319.541 212.991 320.911C213.676 322.281 217.444 323.309 225.322 325.364C229.09 326.391 233.885 327.762 239.366 329.132C240.736 329.474 241.763 330.844 241.421 332.214C240.393 336.325 239.708 340.435 238.681 343.86C236.625 352.423 235.598 356.534 236.625 357.561C237.653 358.589 241.763 358.246 249.641 357.904C253.752 357.561 258.547 357.219 264.37 357.219C265.74 357.219 266.768 358.246 267.11 359.616C267.453 364.412 267.795 368.18 268.138 371.262C268.823 380.168 269.165 384.278 270.536 384.963C271.906 385.648 275.673 384.278 282.866 381.196C286.634 379.825 290.745 378.113 296.568 376.058C297.938 375.373 299.308 376.058 299.993 377.428C302.048 381.881 303.418 385.306 304.788 388.389C308.213 396.609 309.926 400.377 311.296 400.72C312.666 401.062 315.749 398.322 321.914 393.527C324.997 390.786 328.765 387.704 333.56 384.278C334.588 383.593 336.301 383.593 336.986 384.621C340.068 388.046 342.466 391.129 344.864 393.527C350.687 400.035 353.427 403.46 354.797 403.117C356.167 403.117 358.565 399.692 362.675 392.841C364.73 389.416 367.47 385.648 370.896 380.511C371.581 379.14 373.293 378.798 374.321 379.483C378.089 381.538 381.514 383.936 384.597 385.648C392.132 390.101 395.558 392.499 396.928 391.814C398.298 391.129 399.325 387.361 401.38 379.483Z" fill="#D8871F"/>
<path fill-rule="evenodd" clip-rule="evenodd" d="M417.822 349.683C416.11 351.053 413.712 351.053 412.342 349.341C410.972 347.628 410.972 345.23 412.684 343.86C414.397 342.49 416.795 342.49 418.165 344.203C419.877 345.573 419.535 347.971 417.822 349.683Z" fill="#F7E2B2"/>
<path fill-rule="evenodd" clip-rule="evenodd" d="M273.619 186.641C271.907 188.011 269.509 188.011 268.139 186.298C266.769 184.586 266.769 182.188 268.481 180.818C270.194 179.448 272.592 179.448 273.962 181.16C275.332 182.531 274.989 185.271 273.619 186.641Z" fill="#F7E2B2"/>
<path fill-rule="evenodd" clip-rule="evenodd" d="M393.503 366.124C391.448 367.152 389.05 366.467 388.023 364.412C386.995 362.357 387.68 359.959 389.735 358.931C391.79 357.904 394.188 358.589 395.216 360.644C396.243 362.699 395.558 365.097 393.503 366.124Z" fill="#F7E2B2"/>
<path fill-rule="evenodd" clip-rule="evenodd" d="M296.225 171.227C294.17 172.255 291.773 171.57 290.745 169.515C289.717 167.459 290.403 165.062 292.458 164.034C294.513 163.007 296.911 163.692 297.938 165.747C298.966 167.802 298.281 170.2 296.225 171.227Z" fill="#F7E2B2"/>
<path fill-rule="evenodd" clip-rule="evenodd" d="M365.759 375.715C363.704 376.058 361.648 374.688 360.963 372.632C360.621 370.577 361.991 368.522 364.046 367.837C366.101 367.494 368.156 368.865 368.841 370.92C369.184 372.975 367.814 375.373 365.759 375.715Z" fill="#F7E2B2"/>
<path fill-rule="evenodd" clip-rule="evenodd" d="M321.915 162.321C319.86 162.664 317.805 161.294 317.12 159.239C316.777 157.184 318.147 155.128 320.203 154.443C322.258 154.101 324.313 155.471 324.998 157.526C325.683 159.924 324.313 161.979 321.915 162.321Z" fill="#F7E2B2"/>
<path fill-rule="evenodd" clip-rule="evenodd" d="M336.301 377.77C334.246 377.77 332.533 375.715 332.533 373.66C332.533 371.605 334.589 369.892 336.644 369.892C338.699 369.892 340.412 371.947 340.412 374.002C340.412 376.058 338.356 377.77 336.301 377.77Z" fill="#F7E2B2"/>
<path fill-rule="evenodd" clip-rule="evenodd" d="M349.317 160.266C347.262 160.266 345.55 158.211 345.55 156.156C345.55 154.101 347.605 152.388 349.66 152.388C351.715 152.388 353.428 154.443 353.428 156.499C353.428 158.896 351.372 160.609 349.317 160.266Z" fill="#F7E2B2"/>
<path fill-rule="evenodd" clip-rule="evenodd" d="M307.529 372.29C305.474 371.605 304.446 369.207 305.131 367.152C305.816 365.097 308.214 364.069 310.269 364.754C312.324 365.439 313.352 367.837 312.667 369.892C311.639 371.605 309.584 372.975 307.529 372.29Z" fill="#F7E2B2"/>
<path fill-rule="evenodd" clip-rule="evenodd" d="M376.034 165.747C373.979 165.062 372.951 162.664 373.636 160.609C374.321 158.554 376.719 157.526 378.774 158.211C380.829 158.896 381.857 161.294 381.172 163.349C380.487 165.062 378.432 166.432 376.034 165.747Z" fill="#F7E2B2"/>
<path fill-rule="evenodd" clip-rule="evenodd" d="M280.812 359.274C279.099 357.904 278.414 355.506 279.785 353.793C281.155 352.081 283.552 351.396 285.265 352.766C286.978 354.136 287.663 356.534 286.293 358.246C285.265 359.959 282.867 360.644 280.812 359.274Z" fill="#F7E2B2"/>
<path fill-rule="evenodd" clip-rule="evenodd" d="M400.696 177.735C398.983 176.365 398.298 173.967 399.668 172.255C401.038 170.542 403.436 169.857 405.149 171.227C406.861 172.597 407.546 174.995 406.176 176.708C405.149 178.42 402.751 178.763 400.696 177.735Z" fill="#F7E2B2"/>
<path fill-rule="evenodd" clip-rule="evenodd" d="M258.548 340.092C257.178 338.38 257.178 335.982 258.89 334.612C260.603 333.242 263.001 333.242 264.371 334.955C265.741 336.667 265.741 339.065 264.028 340.435C262.658 341.805 259.918 341.463 258.548 340.092Z" fill="#F7E2B2"/>
<path fill-rule="evenodd" clip-rule="evenodd" d="M421.59 195.547C420.22 193.834 420.22 191.436 421.932 190.066C423.645 188.696 426.043 188.696 427.413 190.409C428.783 192.121 428.783 194.519 427.07 195.889C425.358 197.259 422.96 197.259 421.59 195.547Z" fill="#F7E2B2"/>
<path fill-rule="evenodd" clip-rule="evenodd" d="M242.106 315.431C241.079 313.375 241.764 310.978 243.819 309.95C245.874 308.923 248.272 309.608 249.299 311.663C250.327 313.718 249.642 316.116 247.587 317.143C245.532 318.171 243.134 317.486 242.106 315.431Z" fill="#F7E2B2"/>
<path fill-rule="evenodd" clip-rule="evenodd" d="M437.004 218.153C435.976 216.098 436.661 213.7 438.716 212.673C440.772 211.645 443.169 212.33 444.197 214.385C445.224 216.441 444.539 218.838 442.484 219.866C440.087 220.893 437.689 220.208 437.004 218.153Z" fill="#F7E2B2"/>
<path fill-rule="evenodd" clip-rule="evenodd" d="M232.516 287.686C232.173 285.631 233.543 283.576 235.598 282.891C237.653 282.548 239.709 283.918 240.394 285.973C240.736 288.029 239.366 290.084 237.311 290.769C234.913 291.111 232.858 289.741 232.516 287.686Z" fill="#F7E2B2"/>
<path fill-rule="evenodd" clip-rule="evenodd" d="M445.909 244.185C445.567 242.13 446.937 240.075 448.992 239.39C451.047 239.047 453.102 240.417 453.787 242.473C454.13 244.528 452.76 246.583 450.705 247.268C448.307 247.61 446.252 246.24 445.909 244.185Z" fill="#F7E2B2"/>
<path fill-rule="evenodd" clip-rule="evenodd" d="M230.46 258.229C230.46 256.174 232.516 254.461 234.571 254.461C236.626 254.461 238.338 256.516 238.338 258.571C238.338 260.626 236.283 262.339 234.228 262.339C231.831 262.339 230.118 260.626 230.46 258.229Z" fill="#F7E2B2"/>
<path fill-rule="evenodd" clip-rule="evenodd" d="M447.622 271.245C447.622 269.19 449.677 267.477 451.732 267.477C453.787 267.477 455.5 269.532 455.5 271.587C455.5 273.642 453.445 275.355 451.39 275.355C449.334 275.355 447.622 273.642 447.622 271.245Z" fill="#F7E2B2"/>
<path fill-rule="evenodd" clip-rule="evenodd" d="M235.941 229.457C236.626 227.401 239.024 226.374 241.079 227.059C243.134 227.744 244.161 230.142 243.476 232.197C242.791 234.252 240.394 235.28 238.339 234.594C236.283 233.909 235.256 231.512 235.941 229.457Z" fill="#F7E2B2"/>
<path fill-rule="evenodd" clip-rule="evenodd" d="M442.484 298.304C443.169 296.249 445.567 295.222 447.622 295.907C449.677 296.592 450.705 298.989 450.02 301.044C449.335 303.1 446.937 304.127 444.882 303.442C442.827 302.757 441.799 300.359 442.484 298.304Z" fill="#F7E2B2"/>
<path fill-rule="evenodd" clip-rule="evenodd" d="M248.957 202.74C250.327 201.027 252.725 200.342 254.437 201.712C256.15 203.082 256.835 205.48 255.465 207.192C254.095 208.905 251.697 209.59 249.984 208.22C248.272 207.192 247.587 204.795 248.957 202.74Z" fill="#F7E2B2"/>
<path fill-rule="evenodd" clip-rule="evenodd" d="M430.495 322.966C431.866 321.253 434.263 320.568 435.976 321.939C437.689 323.309 438.374 325.706 437.003 327.419C435.633 329.132 433.236 329.817 431.523 328.447C429.81 327.076 429.468 324.679 430.495 322.966Z" fill="#F7E2B2"/>
<path fill-rule="evenodd" clip-rule="evenodd" d="M339.041 314.403C359.593 313.375 373.636 303.785 381.514 290.769C385.625 283.918 388.022 275.698 388.707 267.477C389.392 259.256 388.022 251.036 384.939 243.5C379.117 229.457 367.128 217.811 348.632 214.043C330.478 210.275 315.064 215.755 304.788 226.031C298.623 231.854 294.17 239.047 291.43 246.925C288.69 254.803 287.662 263.367 288.69 271.587C290.402 285.973 298.965 300.017 315.407 308.58C319.517 310.635 323.285 312.005 327.053 313.033C330.478 313.718 334.588 314.403 339.041 314.403ZM392.133 297.277C382.199 313.375 364.73 325.706 339.384 326.734H339.041C333.561 326.734 328.765 326.049 323.97 325.021C319.174 323.994 314.379 322.281 309.584 319.541C289.032 308.923 278.756 291.454 276.359 273.3C274.989 263.024 276.359 252.748 279.784 242.815C283.209 233.224 288.69 224.319 296.225 217.126C309.584 204.452 328.423 197.259 351.029 202.054C373.979 206.85 389.392 221.236 396.585 239.047C400.353 248.295 402.066 258.571 401.381 268.504C400.353 278.438 397.27 288.371 392.133 297.277Z" fill="#F7E2B2"/>
<path fill-rule="evenodd" clip-rule="evenodd" d="M402.751 330.502C403.779 331.872 403.779 333.584 402.408 334.955C401.038 335.982 399.326 335.982 397.956 334.612L350.002 280.15C348.974 278.78 348.974 277.068 350.345 275.698C351.715 274.67 353.427 274.67 354.797 276.04L402.751 330.502Z" fill="#F7E2B2"/>
<path fill-rule="evenodd" clip-rule="evenodd" d="M327.053 244.87C328.08 246.24 328.08 247.953 326.71 249.323C325.34 250.351 323.627 250.351 322.257 248.98L274.646 195.546C273.619 194.176 273.619 192.464 274.989 191.094C276.359 190.066 278.072 190.066 279.442 191.436L327.053 244.87Z" fill="#F7E2B2"/>
<path fill-rule="evenodd" clip-rule="evenodd" d="M362.333 364.412C362.676 366.124 361.648 367.837 359.935 368.18C358.223 368.522 356.51 367.494 356.168 365.782L339.384 283.576C339.041 281.863 340.069 280.15 341.781 279.808C343.494 279.465 345.207 280.493 345.549 282.206L362.333 364.412Z" fill="#F7E2B2"/>
<path fill-rule="evenodd" clip-rule="evenodd" d="M336.986 240.417C337.328 242.13 335.958 243.843 334.588 243.843C332.876 244.185 331.163 242.815 331.163 241.445L319.517 170.542C319.175 168.829 320.545 167.117 321.915 167.117C323.627 166.774 325.34 168.144 325.34 169.515L336.986 240.417Z" fill="#F7E2B2"/>
<path fill-rule="evenodd" clip-rule="evenodd" d="M261.63 315.088C260.26 316.116 258.205 315.773 257.177 314.06C256.15 312.69 256.492 310.635 258.205 309.608L319.174 270.217C320.544 269.19 322.6 269.532 323.627 271.245C324.655 272.615 324.312 274.67 322.6 275.698L261.63 315.088Z" fill="#F7E2B2"/>
<path fill-rule="evenodd" clip-rule="evenodd" d="M356.51 252.063C355.14 253.091 353.085 252.748 352.057 251.378C351.029 250.008 351.372 247.953 352.742 246.925L426.728 196.917C428.098 195.889 430.153 196.232 431.18 197.602C432.208 198.972 431.865 201.027 430.495 202.054L356.51 252.063Z" fill="#F7E2B2"/>
<path fill-rule="evenodd" clip-rule="evenodd" d="M228.405 258.229C226.693 258.229 225.323 256.516 225.665 254.803C225.665 253.091 227.378 251.721 229.09 252.063L318.832 257.544C320.545 257.544 321.915 259.256 321.572 260.969C321.572 262.682 319.86 264.052 318.147 263.709L228.405 258.229Z" fill="#F7E2B2"/>
<path fill-rule="evenodd" clip-rule="evenodd" d="M348.974 241.445C348.289 243.158 346.577 243.843 345.206 243.5C343.494 242.815 342.809 241.102 343.151 239.732L365.415 171.227C366.101 169.515 367.813 168.829 369.183 169.172C370.896 169.857 371.581 171.57 371.238 172.94L348.974 241.445Z" fill="#F7E2B2"/>
<path fill-rule="evenodd" clip-rule="evenodd" d="M311.982 353.793C311.297 355.506 309.584 356.191 308.214 355.849C306.501 355.164 305.816 353.451 306.159 352.081L328.423 283.576C329.108 281.863 330.821 281.178 332.191 281.52C333.903 282.205 334.589 283.918 334.246 285.288L311.982 353.793Z" fill="#F7E2B2"/>
</svg>
