<svg width="16" height="16" viewBox="0 0 16 16" fill="none" xmlns="http://www.w3.org/2000/svg">
<path d="M0.58123 2.17661L12.9517 1.11207L1.45735 15.1786C1.26705 15.3915 1.29855 15.7075 1.52757 15.8843C1.75664 16.0612 2.09658 16.0319 2.28687 15.8191L13.7812 1.75248L14.9249 13.2507C14.9575 13.5258 15.2238 13.7243 15.5198 13.694C15.8085 13.6645 16.0202 13.4276 15.9985 13.1584L14.734 0.45561C14.707 0.180015 14.4446 -0.0230387 14.1481 0.00210454L14.1467 0.00220696L0.480247 1.17749C0.184244 1.20779 -0.0292716 1.45535 0.00327826 1.73048C0.0350504 1.9989 0.289838 2.19561 0.579565 2.17542L0.58123 2.17661Z" fill="black"/>
</svg>
