<svg width="18" height="18" viewBox="0 0 18 18" fill="none" xmlns="http://www.w3.org/2000/svg">
<path d="M12.4891 18.0002H5.51091C2.47212 18.0002 0 15.5281 0 12.4893V5.51091C0 2.47212 2.47212 0 5.51091 0H12.4891C15.5279 0 18 2.47212 18 5.51091V12.4893C18.0002 15.5279 15.5281 18.0002 12.4891 18.0002ZM5.51091 1.34787C3.21546 1.34787 1.34787 3.21546 1.34787 5.51091V12.4893C1.34787 14.7848 3.21546 16.6524 5.51091 16.6524H12.4891C14.7848 16.6524 16.6524 14.7848 16.6524 12.4893V5.51091C16.6524 3.21546 14.7848 1.34787 12.4891 1.34787H5.51091Z" fill="#EEDB5F"/>
<path d="M9.00031 13.5519C6.48964 13.5519 4.44727 11.5093 4.44727 8.99859C4.44727 6.48792 6.48964 4.44531 9.00031 4.44531C11.511 4.44531 13.5536 6.48792 13.5536 8.99859C13.5536 11.5093 11.511 13.5519 9.00031 13.5519ZM9.00031 5.82567C7.25074 5.82567 5.82739 7.24902 5.82739 8.99882C5.82739 10.7484 7.25074 12.1717 9.00031 12.1717C10.7499 12.1717 12.1732 10.7484 12.1732 8.99882C12.1732 7.24902 10.7499 5.82567 9.00031 5.82567Z" fill="#EEDB5F"/>
<path d="M15.2342 3.95109C15.2342 4.60586 14.7035 5.13655 14.0488 5.13655C13.394 5.13655 12.8633 4.60586 12.8633 3.95109C12.8633 3.29631 13.394 2.76562 14.0488 2.76562C14.7035 2.76562 15.2342 3.29631 15.2342 3.95109Z" fill="#EEDB5F"/>
</svg>
