<svg width="244" height="227" viewBox="0 0 244 227" fill="none" xmlns="http://www.w3.org/2000/svg">
<path d="M153.513 0C152.325 24.7147 151.107 49.2369 149.855 74.7859L194.792 72.6356L196.014 75.2033L109.668 199.515V112.853H70.0559C71.0511 103.288 145.136 1.60485 153.513 0Z" fill="#F7E2B2"/>
<path d="M48.4387 146.215L78.3215 142.235L30.6849 226.489L28.6012 226.297C27.636 208.675 26.6741 190.99 25.6789 172.951L0 176.578C2.40646 163.74 39.3521 102.145 45.6129 100.22C46.4151 115.498 47.377 130.584 48.4387 146.215Z" fill="#F7E2B2"/>
<path d="M169.489 165.794C194.978 135.141 195.491 135.655 226.465 100.22C224.348 116.268 222.325 131.707 220.304 146.985C227.62 148.044 233.688 148.718 239.563 149.906C244.153 150.836 245.308 153.725 242.259 157.545C229.611 173.272 216.869 188.936 204.188 204.631C200.144 209.606 196.23 214.709 192.056 219.588C190.555 221.067 188.91 222.39 187.143 223.536L184.963 222.445L194.173 168.618L169.489 165.794Z" fill="#F7E2B2"/>
</svg>
