<svg width="244" height="228" viewBox="0 0 244 228" fill="none" xmlns="http://www.w3.org/2000/svg">
<path d="M153.513 0.956543C152.325 25.6712 151.107 50.1934 149.855 75.7424L194.792 73.5921L196.014 76.1598L109.668 200.471V113.809H70.0559C71.0511 104.245 145.136 2.56139 153.513 0.956543Z" fill="#FAB44B"/>
<path d="M48.4387 147.171L78.3215 143.191L30.6849 227.446L28.6012 227.253C27.636 209.632 26.6741 191.947 25.6789 173.908L0 177.535C2.40646 164.696 39.3521 103.102 45.6129 101.176C46.4151 116.455 47.377 131.54 48.4387 147.171Z" fill="#FAB44B"/>
<path d="M169.489 166.75C194.978 136.098 195.491 136.611 226.465 101.176C224.348 117.225 222.325 132.663 220.304 147.941C227.62 149.001 233.688 149.675 239.563 150.862C244.153 151.793 245.308 154.682 242.259 158.501C229.611 174.229 216.869 189.892 204.188 205.588C200.144 210.563 196.23 215.666 192.056 220.545C190.555 222.023 188.91 223.346 187.143 224.493L184.963 223.401L194.173 169.575L169.489 166.75Z" fill="#FAB44B"/>
</svg>
