<svg width="795" height="471" viewBox="0 0 795 471" fill="none" xmlns="http://www.w3.org/2000/svg">
<g clip-path="url(#clip0_2168_1273)">
<path d="M597.599 242.152C589.174 241.285 581.909 240.605 574.629 239.815C563.106 238.667 551.577 237.543 540.043 236.437C535.954 236.051 531.85 235.756 527.745 235.524C517.1 234.925 506.458 234.346 495.823 233.789C478.073 232.906 460.308 232.102 442.558 231.172C437.462 230.908 432.366 230.367 426.729 229.902C428.897 228.027 430.957 226.308 432.923 224.482C434.38 223.21 435.711 221.804 436.905 220.284C437.282 219.863 437.55 219.353 437.684 218.802C437.817 218.251 437.81 217.676 437.666 217.128C437.521 216.58 437.244 216.075 436.857 215.662C436.469 215.247 435.986 214.936 435.448 214.755C432.429 213.361 429.176 211.658 426.001 211.658C412.788 211.302 399.561 211.409 386.335 211.518C380.945 211.518 375.492 211.828 370.163 212.401C358.253 213.67 346.281 214.646 334.539 216.706C313.832 220.33 293.247 224.652 272.585 228.71C271.196 229.114 269.73 229.178 268.31 228.896C269.86 227.455 271.408 225.983 272.956 224.559C274.951 222.979 276.845 221.277 278.626 219.464C281.724 215.854 280.857 212.401 276.458 210.589C274.721 209.705 272.825 209.178 270.881 209.04C259.094 209.427 247.293 209.783 235.521 210.682C225.407 211.456 215.292 212.601 205.272 214.213C193.222 216.133 181.249 218.488 169.308 221.043C150.008 225.172 130.735 229.474 111.488 233.944C100.46 236.5 89.5404 239.52 78.559 242.308C78.2027 242.401 77.7691 242.199 76.499 241.966C128.665 214.971 150.674 169.594 157.536 114.426H175.502C177.98 121.907 180.459 129.418 182.999 136.914C183.153 137.379 183.789 137.704 185.074 138.897C187.072 132.624 189.117 126.894 190.712 121.055C192.308 115.216 192.122 115.061 198.456 115.061C210.506 115.061 222.542 115.061 234.592 115.061C276.117 115.324 317.626 115.742 359.152 115.851C376.189 115.851 393.226 115.402 410.172 114.999C414.245 114.906 418.318 114.271 421.803 113.93C426.062 128.721 429.687 143.078 434.364 157.079C439.042 171.081 445.314 184.646 456.839 194.745C462.987 200.39 470.815 203.866 479.126 204.642C493.902 206.005 505.922 200.398 516.795 191.26C522.712 186.273 528.519 181.162 533.988 176.454C545.696 205.215 569.225 225.348 597.599 242.152Z" fill="#FAB44B"/>
<path d="M642.238 361.44V465.208C629.598 465.208 617.161 465.208 604.724 465.101C603.718 465.101 602.385 463.8 601.765 462.761C594.176 450.139 586.712 437.439 579.198 424.77C578.819 424.291 578.405 423.841 577.96 423.423V465.008H537.797V361.115H561.728C565.754 361.115 569.766 361.255 573.778 361.115C574.893 361.019 576.009 361.277 576.969 361.854C577.928 362.429 578.681 363.293 579.121 364.321C586.432 376.866 593.96 389.288 601.967 402.67V361.44H642.238Z" fill="#FAB44B"/>
<path d="M417.048 466.959C403.573 467.115 391.057 463.862 380.216 455.685C369.033 447.212 361.629 436.293 359.351 422.077C356.44 403.352 361.769 387.462 375.614 374.607C384.522 366.367 395.224 361.907 407.275 360.141C424.312 357.648 439.801 361.226 453.616 371.369C459.073 375.184 463.694 380.072 467.19 385.738C470.688 391.403 472.99 397.724 473.952 404.312C475.691 414.229 474.569 424.437 470.716 433.738C468.024 440.329 463.988 446.286 458.865 451.23C453.741 456.175 447.645 459.996 440.962 462.452C433.497 465.349 425.287 466.355 417.419 468.214L417.048 466.959ZM431.669 413.883C431.777 404.498 424.962 398.999 416.722 398.209C408.977 397.482 401.621 405.815 401.512 414.193C401.528 418.232 403.139 422.099 405.993 424.956C408.847 427.814 412.714 429.428 416.754 429.449C425.039 429.418 432.459 422.154 431.669 413.93V413.883Z" fill="#FAB44B"/>
<path d="M80.5407 408.848C88.8426 412.24 95.2549 417.615 96.7108 426.209C99.2664 441.356 96.463 454.537 77.7681 460.685C69.4572 463.276 60.8351 464.734 52.1344 465.022C37.2499 465.703 22.3189 465.208 7.40324 465.208H2.53979V361.44C3.7634 361.347 4.987 361.192 6.21061 361.192C21.405 361.192 36.6303 360.651 51.7938 361.363C63.2243 361.889 74.5465 363.454 85.0633 369.23C98.1047 376.386 97.8725 401.29 83.2822 407.161C82.3313 407.66 81.4153 408.224 80.5407 408.848ZM44.545 423.375V438.306C53.8381 438.972 58.4848 436.199 58.3144 430.639C58.144 425.079 53.2187 422.524 44.483 423.375H44.545ZM44.7154 403.242C49.3621 403.536 53.6987 403.411 55.5574 398.904C55.9663 397.849 56.1433 396.717 56.0765 395.588C56.0097 394.457 55.7007 393.354 55.1702 392.353C52.7385 388.947 48.6804 388.791 44.669 388.822L44.7154 403.242Z" fill="#FAB44B"/>
<path d="M352.506 405.411C342.934 399.619 333.145 398.379 322.985 398.969C319.097 399.259 315.417 400.834 312.522 403.444C309.624 406.054 307.678 409.551 306.986 413.387C306.226 419.071 312.7 426.629 319.763 428.225C330.389 430.609 340.456 428.657 350.184 424.182C350.802 423.888 351.499 423.732 352.506 423.392C352.506 435.673 352.506 447.661 352.399 459.665C352.256 460.286 351.968 460.866 351.56 461.356C351.151 461.847 350.63 462.233 350.044 462.483C331.054 468.678 312.019 469.529 293.572 460.933C277.836 453.562 267.334 441.079 264.144 423.98C259.017 396.706 273.437 371.323 301.952 362.697C317.285 358.05 332.263 358.84 347.349 362.975C350.571 363.858 352.816 365.406 352.662 369.79C352.243 381.343 352.506 392.959 352.506 405.411Z" fill="#FAB44B"/>
<path d="M186.607 397.169H158.294V361.455H258.412V397.262H230.532V464.958H186.607V397.169Z" fill="#FAB44B"/>
<path d="M478.413 263.047C488.062 263.047 497.371 262.938 506.665 263.17C507.433 263.324 508.159 263.636 508.798 264.091C509.436 264.545 509.971 265.128 510.366 265.804C515.494 274.167 520.404 282.67 525.39 291.125C525.7 291.668 526.057 292.194 527.032 293.727V263.356H557.87V343.892C548.577 343.892 539.501 344.017 530.393 343.752C529.185 343.752 527.714 341.926 526.908 340.655C521.115 331.13 515.462 321.528 509.174 310.965V343.613H478.413V263.047Z" fill="#FAB44B"/>
<path d="M224.585 262.085C242.258 262.332 256.414 269.178 264.855 285.192C268.287 291.633 269.842 298.907 269.344 306.187C268.846 313.467 266.314 320.461 262.037 326.373C247.911 346.849 218.668 350.302 198.456 337.742C193.349 334.573 189.017 330.303 185.776 325.244C182.535 320.184 180.466 314.462 179.724 308.501C178.981 302.537 179.583 296.484 181.485 290.785C183.385 285.085 186.537 279.882 190.711 275.558C195.074 271.032 200.351 267.488 206.192 265.165C212.035 262.841 218.305 261.79 224.585 262.085ZM235.535 303.684C235.588 302.167 235.326 300.658 234.767 299.246C234.21 297.835 233.367 296.555 232.291 295.486C231.215 294.416 229.93 293.579 228.517 293.028C227.102 292.477 225.59 292.226 224.074 292.285C218.048 292.285 212.318 298.016 212.318 303.901C212.318 309.787 218.188 315.563 224.508 315.517C230.826 315.47 235.535 310.531 235.504 303.684H235.535Z" fill="#FAB44B"/>
<path d="M96.3079 343.055V263.851C109.582 263.851 122.639 263.851 135.758 263.851C143.821 263.957 151.676 266.435 158.34 270.976C167.896 277.279 173.999 285.812 175.377 297.816C177.05 311.553 173.271 322.844 163.266 332.106C156.48 338.407 147.726 342.172 138.483 342.76C124.699 343.722 110.681 343.055 96.3079 343.055ZM129.81 316.417C135.541 316.587 139.924 314.868 142.619 310.082C143.94 308.055 144.592 305.665 144.484 303.247C144.375 300.831 143.512 298.508 142.015 296.608C140.693 294.677 138.827 293.181 136.655 292.309C134.482 291.439 132.1 291.231 129.81 291.713V316.417Z" fill="#FAB44B"/>
<path d="M615.039 315.472H608.332V297.707H642.408C642.408 310.577 642.408 323.292 642.315 336.009C642.209 336.512 641.992 336.985 641.682 337.395C641.371 337.803 640.974 338.14 640.518 338.378C628.421 344.573 615.643 345.813 602.292 344.108C592.007 342.793 583.04 339.09 575.683 331.718C569.389 325.138 565.496 316.627 564.633 307.562C563.769 298.497 565.987 289.404 570.927 281.755C573.99 276.992 578.005 272.914 582.721 269.781C587.436 266.647 592.75 264.522 598.327 263.542C612.267 260.784 625.85 261.156 638.876 267.336C639.503 267.634 640.057 268.066 640.499 268.601C640.94 269.137 641.258 269.761 641.432 270.434C641.632 278.735 641.541 287.036 641.541 295.4C635.639 293.85 630.062 291.931 624.332 291.016C618.137 290.01 611.617 289.468 605.591 292.565C602.607 294.02 600.239 296.494 598.916 299.54C597.593 302.585 597.4 306.003 598.373 309.179C599.347 312.352 601.422 315.076 604.224 316.858C607.027 318.639 610.372 319.36 613.661 318.894C614.575 318.771 615.303 317.454 616.123 316.68C615.783 316.262 615.41 315.858 615.039 315.472Z" fill="#FAB44B"/>
<path d="M0 343.909C1.54887 339.526 2.726 335.84 4.089 332.2C12.3496 310.032 20.6669 287.895 29.0413 265.789C29.3506 265.118 29.8156 264.532 30.3974 264.077C30.9791 263.62 31.6612 263.311 32.3867 263.171C42.5473 262.955 52.7234 263.048 63.0078 263.048C72.9516 289.904 82.8488 316.635 92.932 343.893C81.2845 343.893 70.1637 343.893 59.0272 343.8C58.1908 343.8 56.9673 342.499 56.6265 341.555C55.7436 339.061 55.248 336.444 54.5666 333.81H36.1815C35.6292 336.329 34.9257 338.811 34.075 341.245C33.6104 342.345 32.1545 343.77 31.1166 343.786C21.0956 343.986 11.0899 343.909 0 343.909ZM41.556 313.475H49.5637C48.2782 308.411 47.0855 303.704 45.676 298.189L41.556 313.475Z" fill="#FAB44B"/>
<path d="M482.657 361.331H526.025V464.929H482.657V361.331Z" fill="#FAB44B"/>
<path d="M308.55 324.471V343.677H275.42V263.234C276.644 263.234 278.022 263.032 279.4 263.064C291.947 263.327 304.491 263.543 317.038 263.931C330.296 264.333 343.895 273.844 346.202 285.04C349.811 302.542 343.244 317.564 322.878 322.32C318.369 323.372 313.723 323.728 308.55 324.471ZM308.813 288.231V300.621C312.035 301.457 314.839 300.544 316.062 297.787C316.882 295.664 316.882 293.312 316.062 291.189C314.916 288.355 312.082 287.502 308.813 288.246V288.231Z" fill="#FAB44B"/>
<path d="M105.788 464.91V361.344H148.273V464.91H105.788Z" fill="#FAB44B"/>
<path d="M428.803 291.437H406.932V343.598H373.276V291.577H351.128V263.341H428.803V291.437Z" fill="#FAB44B"/>
<path d="M469.305 263.356V343.659H436.315V263.356H469.305Z" fill="#FAB44B"/>
<path d="M319.066 0.778809C318.493 12.7043 317.905 24.5369 317.301 36.865L338.985 35.8274L339.574 37.0664L297.91 97.0499V55.2333H278.796C279.276 50.618 315.024 1.55319 319.066 0.778809Z" fill="#FAB44B"/>
<path d="M255.564 65.1615L269.983 63.241L246.997 103.896L245.992 103.803C245.526 95.3004 245.062 86.7668 244.582 78.0627L232.191 79.8128C233.352 73.6178 251.18 43.8969 254.201 42.9677C254.588 50.3398 255.052 57.6191 255.564 65.1615Z" fill="#FAB44B"/>
<path d="M339.805 73.7562C352.105 58.9656 352.352 59.2134 367.298 42.115C366.277 49.8589 365.3 57.3084 364.325 64.6804C367.855 65.1915 370.783 65.5168 373.618 66.0899C375.833 66.539 376.39 67.9329 374.919 69.7759C368.816 77.3648 362.668 84.9228 356.549 92.4963C354.597 94.8968 352.709 97.3594 350.695 99.7135C349.97 100.427 349.177 101.065 348.324 101.618L347.272 101.092L351.716 75.1192L339.805 73.7562Z" fill="#FAB44B"/>
<path d="M696.095 466.789C692.536 466.789 689.345 465.972 686.519 464.336C683.693 462.665 681.496 460.421 679.926 457.602C678.321 454.749 677.52 451.634 677.52 448.258C677.52 444.395 678.479 440.968 680.398 437.975C682.28 434.947 684.967 432.756 688.455 431.397V438.549C686.536 439.488 685.107 440.794 684.164 442.465C683.223 444.134 682.752 446.067 682.752 448.258C682.752 450.66 683.292 452.799 684.374 454.678C685.455 456.558 687.008 458.037 689.03 459.116C691.054 460.159 693.409 460.682 696.095 460.682C698.781 460.682 701.135 460.159 703.159 459.116C705.183 458.037 706.752 456.558 707.868 454.678C708.95 452.799 709.49 450.66 709.49 448.258C709.49 446.067 709.019 444.134 708.078 442.465C707.136 440.794 705.706 439.488 703.787 438.549V431.397C707.275 432.756 709.961 434.947 711.845 437.975C713.728 440.968 714.671 444.395 714.671 448.258C714.671 451.669 713.886 454.784 712.317 457.602C710.711 460.421 708.496 462.665 705.671 464.336C702.846 465.972 699.653 466.789 696.095 466.789ZM706.927 380.112V395.303L714.356 397.913V404.124L677.937 391.127V384.236L714.356 371.239V377.502L706.927 380.112ZM702.06 381.783L685.158 387.681L702.06 393.633V381.783ZM688.822 317.771C690.67 317.771 692.414 318.205 694.054 319.075C695.694 319.945 697.037 321.337 698.084 323.252C699.096 325.165 699.602 327.618 699.602 330.611V337.19H714.356V343.14H677.99V330.611C677.99 327.828 678.479 325.479 679.455 323.564C680.398 321.616 681.687 320.171 683.327 319.232C684.967 318.258 686.798 317.771 688.822 317.771ZM694.735 330.611C694.735 328.35 694.229 326.662 693.217 325.548C692.17 324.434 690.706 323.879 688.822 323.879C684.845 323.879 682.857 326.123 682.857 330.611V337.19H694.735V330.611ZM682.804 283.697H693.479V271.168H698.346V283.697H709.49V269.603H714.356V289.648H677.937V269.603H682.804V283.697Z" fill="white"/>
<path d="M740.781 441.367H745.647V451.025H777.147V456.976H745.647V466.685H740.781V441.367ZM777.513 404.176C777.513 407.551 776.728 410.666 775.159 413.52C773.554 416.339 771.338 418.584 768.513 420.254C765.652 421.889 762.443 422.707 758.884 422.707C755.327 422.707 752.134 421.889 749.309 420.254C746.484 418.584 744.285 416.339 742.716 413.52C741.112 410.666 740.309 407.551 740.309 404.176C740.309 400.766 741.112 397.652 742.716 394.832C744.285 391.978 746.484 389.734 749.309 388.099C752.134 386.463 755.327 385.645 758.884 385.645C762.443 385.645 765.652 386.463 768.513 388.099C771.338 389.734 773.554 391.978 775.159 394.832C776.728 397.652 777.513 400.766 777.513 404.176ZM772.333 404.176C772.333 401.776 771.792 399.635 770.711 397.756C769.594 395.876 768.024 394.415 766.001 393.37C763.943 392.292 761.571 391.752 758.884 391.752C756.199 391.752 753.844 392.292 751.821 393.37C749.797 394.415 748.246 395.876 747.163 397.756C746.082 399.635 745.541 401.776 745.541 404.176C745.541 406.577 746.082 408.718 747.163 410.597C748.246 412.477 749.797 413.955 751.821 415.034C753.844 416.078 756.199 416.599 758.884 416.599C761.571 416.599 763.943 416.078 766.001 415.034C768.024 413.955 769.594 412.477 770.711 410.597C771.792 408.718 772.333 406.577 772.333 404.176ZM740.781 317.931L777.147 328.684V335.418L749.624 343.039L777.147 351.13L777.198 357.811L740.781 368.094V361.778L770.397 354.263L740.781 346.119V339.437L770.239 331.869L740.781 324.3V317.931ZM777.147 268.598V274.55L749.99 292.455H777.147V298.405H740.728V292.455L767.833 274.55H740.728V268.598H777.147Z" fill="white"/>
</g>
<defs>
<clipPath id="clip0_2168_1273">
<rect width="795" height="469.442" fill="white" transform="translate(0 0.778809)"/>
</clipPath>
</defs>
</svg>
