<svg width="716" height="481" viewBox="0 0 716 481" fill="none" xmlns="http://www.w3.org/2000/svg">
<path d="M652.206 372.216V477.442C639.389 477.442 626.777 477.442 614.164 477.334C613.145 477.334 611.793 476.014 611.164 474.961C603.469 462.162 595.899 449.283 588.28 436.436C587.896 435.95 587.476 435.494 587.025 435.07V477.239H546.297V371.886H570.564C574.647 371.886 578.715 372.027 582.784 371.886C583.914 371.788 585.046 372.05 586.02 372.635C586.992 373.218 587.756 374.094 588.202 375.137C595.616 387.859 603.249 400.455 611.37 414.025V372.216H652.206Z" fill="#F7E2B2"/>
<path d="M423.849 479.218C410.185 479.376 397.493 476.078 386.499 467.785C375.159 459.194 367.651 448.121 365.342 433.705C362.389 414.717 367.793 398.603 381.833 385.568C390.866 377.212 401.719 372.689 413.939 370.898C431.215 368.37 446.922 371.998 460.932 382.284C466.466 386.153 471.151 391.11 474.697 396.855C478.244 402.6 480.578 409.009 481.553 415.69C483.317 425.747 482.179 436.098 478.272 445.53C475.542 452.214 471.449 458.255 466.254 463.268C461.059 468.282 454.876 472.157 448.099 474.648C440.529 477.585 432.204 478.606 424.225 480.49L423.849 479.218ZM438.676 425.396C438.785 415.879 431.875 410.302 423.518 409.501C415.665 408.764 408.206 417.214 408.095 425.71C408.111 429.806 409.745 433.728 412.639 436.625C415.533 439.523 419.455 441.159 423.551 441.18C431.953 441.149 439.477 433.783 438.676 425.443V425.396Z" fill="#F7E2B2"/>
<path d="M82.6106 420.29C91.0292 423.729 97.5318 429.18 99.0081 437.895C101.6 453.255 98.7568 466.622 79.7991 472.856C71.3713 475.483 62.628 476.961 53.8049 477.254C38.7112 477.944 23.5701 477.442 8.44477 477.442H3.51294V372.216C4.75375 372.121 5.99455 371.964 7.23537 371.964C22.6434 371.964 38.0828 371.415 53.4595 372.138C65.0507 372.671 76.5322 374.258 87.1969 380.115C100.422 387.371 100.186 412.626 85.3907 418.579C84.4264 419.086 83.4976 419.658 82.6106 420.29ZM46.1088 435.021V450.162C55.5326 450.838 60.2446 448.025 60.0718 442.387C59.899 436.75 54.9044 434.158 46.0459 435.021H46.1088ZM46.2816 414.605C50.9936 414.904 55.3912 414.777 57.2761 410.207C57.6907 409.136 57.8702 407.989 57.8025 406.843C57.7347 405.696 57.4213 404.579 56.8834 403.563C54.4175 400.109 50.3024 399.951 46.2345 399.982L46.2816 414.605Z" fill="#F7E2B2"/>
<path d="M358.4 416.805C348.694 410.931 338.767 409.674 328.464 410.272C324.521 410.566 320.79 412.163 317.854 414.81C314.916 417.456 312.942 421.003 312.24 424.893C311.469 430.657 318.035 438.321 325.197 439.939C335.972 442.357 346.181 440.378 356.045 435.84C356.672 435.541 357.379 435.383 358.4 435.039C358.4 447.492 358.4 459.649 358.291 471.821C358.146 472.451 357.855 473.04 357.441 473.537C357.026 474.034 356.498 474.426 355.904 474.679C336.647 480.962 317.344 481.824 298.637 473.108C282.68 465.632 272.03 452.974 268.796 435.635C263.597 407.978 278.219 382.237 307.136 373.49C322.684 368.778 337.873 369.579 353.171 373.772C356.438 374.668 358.715 376.237 358.558 380.682C358.133 392.398 358.4 404.177 358.4 416.805Z" fill="#F7E2B2"/>
<path d="M190.168 408.447H161.457V372.23H262.983V408.541H234.711V477.189H190.168V408.447Z" fill="#F7E2B2"/>
<path d="M486.078 272.438C495.863 272.438 505.302 272.328 514.727 272.563C515.506 272.719 516.242 273.036 516.89 273.498C517.537 273.957 518.079 274.549 518.48 275.234C523.68 283.715 528.659 292.338 533.716 300.911C534.03 301.462 534.392 301.995 535.38 303.55V272.752H566.652V354.42C557.228 354.42 548.025 354.547 538.789 354.279C537.564 354.279 536.072 352.427 535.255 351.138C529.38 341.479 523.647 331.742 517.271 321.03V354.137H486.078V272.438Z" fill="#F7E2B2"/>
<path d="M228.68 271.464C246.602 271.714 260.957 278.656 269.517 294.895C272.998 301.427 274.574 308.803 274.069 316.186C273.564 323.568 270.996 330.66 266.659 336.655C252.335 357.419 222.681 360.921 202.184 348.184C197.005 344.971 192.613 340.641 189.326 335.51C186.039 330.379 183.942 324.577 183.189 318.532C182.435 312.484 183.046 306.346 184.974 300.567C186.901 294.786 190.098 289.511 194.331 285.126C198.754 280.536 204.106 276.942 210.029 274.586C215.954 272.23 222.312 271.165 228.68 271.464ZM239.785 313.648C239.838 312.109 239.573 310.579 239.006 309.147C238.441 307.716 237.586 306.418 236.495 305.334C235.404 304.249 234.101 303.401 232.667 302.842C231.233 302.283 229.7 302.028 228.163 302.088C222.052 302.088 216.241 307.9 216.241 313.867C216.241 319.836 222.194 325.693 228.602 325.646C235.009 325.599 239.785 320.59 239.754 313.648H239.785Z" fill="#F7E2B2"/>
<path d="M98.5996 353.572V273.254C112.06 273.254 125.301 273.254 138.604 273.254C146.781 273.361 154.746 275.875 161.504 280.479C171.194 286.871 177.383 295.524 178.781 307.696C180.478 321.627 176.645 333.076 166.499 342.469C159.618 348.859 150.74 352.677 141.368 353.273C127.39 354.248 113.175 353.572 98.5996 353.572ZM132.573 326.559C138.384 326.732 142.829 324.988 145.562 320.135C146.901 318.08 147.563 315.656 147.453 313.204C147.343 310.754 146.467 308.398 144.949 306.471C143.608 304.514 141.717 302.996 139.514 302.112C137.311 301.23 134.895 301.019 132.573 301.508V326.559Z" fill="#F7E2B2"/>
<path d="M624.625 325.601H617.824V307.586H652.379C652.379 320.637 652.379 333.531 652.284 346.426C652.177 346.937 651.957 347.416 651.643 347.832C651.327 348.246 650.924 348.587 650.462 348.829C638.195 355.111 625.237 356.368 611.698 354.639C601.269 353.306 592.176 349.551 584.715 342.075C578.332 335.403 574.385 326.772 573.51 317.58C572.634 308.387 574.883 299.167 579.893 291.41C582.998 286.58 587.07 282.445 591.852 279.267C596.633 276.089 602.023 273.935 607.677 272.94C621.814 270.144 635.587 270.521 648.797 276.788C649.432 277.09 649.994 277.529 650.442 278.071C650.89 278.614 651.213 279.248 651.388 279.93C651.592 288.348 651.499 296.765 651.499 305.246C645.514 303.675 639.859 301.729 634.048 300.801C627.767 299.781 621.154 299.232 615.044 302.372C612.018 303.847 609.617 306.356 608.275 309.445C606.933 312.533 606.738 315.999 607.725 319.219C608.711 322.437 610.816 325.2 613.658 327.006C616.5 328.813 619.892 329.544 623.228 329.071C624.154 328.946 624.892 327.611 625.724 326.826C625.379 326.402 625.001 325.992 624.625 325.601Z" fill="#F7E2B2"/>
<path d="M0.9375 354.438C2.50814 349.993 3.70183 346.256 5.08399 342.565C13.4608 320.085 21.8951 297.636 30.3871 275.22C30.7008 274.539 31.1723 273.945 31.7624 273.483C32.3523 273.02 33.0439 272.706 33.7796 272.565C44.083 272.346 54.4023 272.44 64.8313 272.44C74.9149 299.674 84.9513 326.78 95.1762 354.422C83.365 354.422 72.0877 354.422 60.7947 354.328C59.9465 354.328 58.7058 353.008 58.3602 352.051C57.465 349.522 56.9624 346.869 56.2713 344.198H37.6278C37.0677 346.752 36.3543 349.268 35.4916 351.736C35.0205 352.852 33.5441 354.297 32.4917 354.313C22.3297 354.516 12.1833 354.438 0.9375 354.438ZM43.0778 323.577H51.1981C49.8945 318.441 48.6851 313.667 47.2558 308.075L43.0778 323.577Z" fill="#F7E2B2"/>
<path d="M490.381 372.105H534.359V477.16H490.381V372.105Z" fill="#F7E2B2"/>
<path d="M313.826 334.727V354.202H280.23V272.628C281.471 272.628 282.869 272.424 284.266 272.456C296.989 272.723 309.711 272.942 322.434 273.335C335.878 273.743 349.668 283.387 352.008 294.741C355.668 312.489 349.008 327.723 328.355 332.545C323.784 333.612 319.072 333.973 313.826 334.727ZM314.093 297.977V310.541C317.36 311.389 320.204 310.463 321.443 307.667C322.276 305.514 322.276 303.129 321.443 300.976C320.282 298.102 317.408 297.238 314.093 297.992V297.977Z" fill="#F7E2B2"/>
<path d="M108.213 477.14V372.118H151.296V477.14H108.213Z" fill="#F7E2B2"/>
<path d="M435.771 301.228H413.592V354.123H379.462V301.37H357.003V272.737H435.771V301.228Z" fill="#F7E2B2"/>
<path d="M476.842 272.752V354.184H443.388V272.752H476.842Z" fill="#F7E2B2"/>
<path d="M606.94 244.768C598.396 243.889 591.029 243.198 583.647 242.397C571.961 241.234 560.271 240.093 548.574 238.972C544.427 238.581 540.266 238.282 536.103 238.046C525.309 237.438 514.517 236.852 503.732 236.286C485.733 235.391 467.718 234.576 449.719 233.633C444.551 233.365 439.383 232.816 433.667 232.345C435.865 230.444 437.955 228.701 439.948 226.848C441.425 225.558 442.776 224.134 443.986 222.592C444.368 222.164 444.64 221.648 444.776 221.089C444.911 220.53 444.904 219.947 444.758 219.391C444.611 218.835 444.329 218.324 443.937 217.904C443.544 217.484 443.054 217.168 442.508 216.985C439.447 215.571 436.149 213.844 432.929 213.844C419.53 213.483 406.116 213.592 392.705 213.703C387.239 213.703 381.71 214.016 376.306 214.598C364.228 215.885 352.088 216.874 340.181 218.964C319.183 222.639 298.308 227.021 277.356 231.136C275.947 231.546 274.46 231.611 273.02 231.325C274.592 229.864 276.162 228.371 277.732 226.926C279.755 225.324 281.675 223.599 283.481 221.76C286.623 218.099 285.743 214.598 281.282 212.76C279.522 211.864 277.599 211.329 275.628 211.189C263.675 211.583 251.708 211.943 239.77 212.855C229.514 213.639 219.257 214.801 209.096 216.436C196.876 218.382 184.735 220.77 172.626 223.362C153.055 227.549 133.511 231.911 113.993 236.444C102.81 239.036 91.737 242.098 80.6011 244.925C80.2399 245.019 79.8001 244.815 78.5122 244.579C131.411 217.204 153.73 171.189 160.688 115.245H178.908C181.421 122.831 183.934 130.448 186.51 138.05C186.666 138.521 187.311 138.851 188.614 140.06C190.64 133.699 192.714 127.888 194.331 121.967C195.95 116.046 195.761 115.889 202.184 115.889C214.404 115.889 226.609 115.889 238.829 115.889C280.937 116.156 323.03 116.58 365.14 116.69C382.416 116.69 399.693 116.235 416.877 115.826C421.007 115.732 425.137 115.088 428.672 114.743C432.991 129.741 436.667 144.3 441.409 158.498C446.153 172.696 452.513 186.453 464.2 196.694C470.435 202.418 478.373 205.943 486.801 206.73C501.785 208.112 513.973 202.426 524.999 193.16C530.999 188.102 536.888 182.919 542.434 178.146C554.307 207.311 578.166 227.727 606.94 244.768Z" fill="#F7E2B2"/>
<path d="M324.49 0C323.909 12.0932 323.313 24.0922 322.701 36.5936L344.689 35.5414L345.287 36.7978L303.036 97.6248V55.2202H283.654C284.141 50.54 320.391 0.78527 324.49 0Z" fill="#F7E2B2"/>
<path d="M260.095 65.2882L274.717 63.3406L251.408 104.567L250.389 104.473C249.916 95.8508 249.446 87.1972 248.959 78.3708L236.394 80.1455C237.571 73.8633 255.649 43.7246 258.713 42.7822C259.105 50.2581 259.576 57.6397 260.095 65.2882Z" fill="#F7E2B2"/>
<path d="M340.219 79.635C353.803 64.6062 354.076 64.8581 370.582 47.4844C369.454 55.3529 368.376 62.9224 367.299 70.4131C371.198 70.9324 374.431 71.2629 377.562 71.8452C380.008 72.3016 380.623 73.7179 378.999 75.5906C372.259 83.3017 365.469 90.9814 358.711 98.6767C356.556 101.116 354.47 103.618 352.245 106.01C351.445 106.735 350.569 107.384 349.627 107.946L348.466 107.411L353.374 81.0199L340.219 79.635Z" fill="#F7E2B2"/>
<path d="M691.983 307.966C696.007 304.79 699.159 302.19 701.439 300.166C703.722 298.111 705.638 295.978 707.191 293.767C708.775 291.525 709.567 289.33 709.567 287.182C709.567 285.158 709.061 283.57 708.047 282.418C707.063 281.235 705.464 280.643 703.245 280.643C701.092 280.643 699.412 281.313 698.209 282.651C697.036 283.959 696.403 285.718 696.307 287.929H692.125C692.253 284.442 693.328 281.749 695.358 279.849C697.385 277.95 699.998 277 703.198 277C706.463 277 709.043 277.888 710.945 279.662C712.878 281.437 713.843 283.881 713.843 286.995C713.843 289.579 713.051 292.101 711.469 294.561C709.914 296.99 708.141 299.138 706.145 301.007C704.15 302.844 701.599 304.992 698.494 307.452H714.842V311.001H691.983V307.966ZM690 348.551C690 343.195 690.886 339.023 692.66 336.034C694.436 333.014 697.54 331.503 701.976 331.503C706.38 331.503 709.469 333.014 711.243 336.034C713.017 339.023 713.905 343.195 713.905 348.551C713.905 354 713.017 358.234 711.243 361.255C709.469 364.275 706.38 365.785 701.976 365.785C697.54 365.785 694.436 364.275 692.66 361.255C690.886 358.234 690 354 690 348.551ZM709.627 348.551C709.627 345.842 709.437 343.553 709.056 341.685C708.709 339.786 707.964 338.26 706.822 337.108C705.715 335.956 704.099 335.38 701.976 335.38C699.821 335.38 698.173 335.956 697.033 337.108C695.924 338.26 695.179 339.786 694.8 341.685C694.451 343.553 694.276 345.842 694.276 348.551C694.276 351.353 694.451 353.704 694.8 355.603C695.179 357.503 695.924 359.028 697.033 360.18C698.173 361.332 699.821 361.908 701.976 361.908C704.099 361.908 705.715 361.332 706.822 360.18C707.964 359.028 708.709 357.503 709.056 355.603C709.437 353.704 709.627 351.353 709.627 348.551ZM691.983 416.785C696.007 413.61 699.159 411.009 701.439 408.986C703.722 406.93 705.638 404.798 707.191 402.586C708.775 400.345 709.567 398.15 709.567 396.002C709.567 393.977 709.061 392.39 708.047 391.237C707.063 390.055 705.464 389.463 703.245 389.463C701.092 389.463 699.412 390.132 698.209 391.472C697.036 392.78 696.403 394.538 696.307 396.75H692.125C692.253 393.261 693.328 390.568 695.358 388.67C697.385 386.77 699.998 385.819 703.198 385.819C706.463 385.819 709.043 386.707 710.945 388.481C712.878 390.256 713.843 392.7 713.843 395.814C713.843 398.399 713.051 400.92 711.469 403.381C709.914 405.809 708.141 407.958 706.145 409.827C704.15 411.664 701.599 413.811 698.494 416.272H714.842V419.821H691.983V416.785Z" fill="#FAB44B"/>
<path d="M708.711 451.731C708.026 448.276 705.894 446.548 702.314 446.548C699.544 446.548 697.474 447.622 696.105 449.77C694.735 451.887 694.066 455.388 694.097 460.275C694.813 458.657 695.996 457.396 697.646 456.493C699.326 455.56 701.194 455.093 703.248 455.093C706.454 455.093 709.007 456.089 710.905 458.081C712.835 460.073 713.8 462.828 713.8 466.345C713.8 468.462 713.38 470.36 712.54 472.041C711.73 473.722 710.485 475.06 708.804 476.057C707.155 477.053 705.147 477.551 702.781 477.551C699.575 477.551 697.07 476.835 695.264 475.403C693.459 473.971 692.198 471.994 691.482 469.473C690.767 466.952 690.409 463.839 690.409 460.135C690.409 448.712 694.393 443 702.361 443C705.412 443 707.808 443.825 709.551 445.475C711.295 447.124 712.322 449.21 712.633 451.731H708.711ZM702.361 458.688C701.023 458.688 699.762 458.968 698.579 459.528C697.396 460.057 696.432 460.882 695.685 462.003C694.969 463.092 694.611 464.431 694.611 466.018C694.611 468.384 695.295 470.314 696.665 471.808C698.035 473.271 699.996 474.002 702.548 474.002C704.727 474.002 706.454 473.333 707.731 471.994C709.038 470.625 709.692 468.788 709.692 466.485C709.692 464.057 709.069 462.158 707.824 460.789C706.579 459.388 704.758 458.688 702.361 458.688Z" fill="#FAB44B"/>
</svg>
