<svg width="116" height="93" viewBox="0 0 116 93" fill="none" xmlns="http://www.w3.org/2000/svg">
<rect x="44.9292" y="37.2461" width="3.54707" height="20.6913" rx="1.77354" fill="black"/>
<rect x="46.7017" y="37.8359" width="22.4648" height="19.5089" rx="1.89319" fill="black"/>
<rect x="49.6602" y="37.2461" width="2.95589" height="20.6913" rx="1.47795" fill="black"/>
<rect x="53.7983" y="37.2461" width="2.95589" height="20.6913" rx="1.47795" fill="black"/>
<rect x="58.5264" y="37.2461" width="2.95589" height="20.6913" rx="1.47795" fill="black"/>
<rect x="62.6636" y="37.2461" width="2.95589" height="20.6913" rx="1.47795" fill="black"/>
<rect x="66.8022" y="37.2461" width="2.95589" height="20.6913" rx="1.47795" fill="black"/>
<rect x="21.2827" y="17.7344" width="3.54707" height="20.6913" rx="1.77354" fill="black"/>
<rect x="23.0566" y="18.3281" width="22.4648" height="19.5089" rx="1.89319" fill="black"/>
<rect x="26.0137" y="17.7344" width="2.95589" height="20.6913" rx="1.47795" fill="black"/>
<rect x="30.1519" y="17.7344" width="2.95589" height="20.6913" rx="1.47795" fill="black"/>
<rect x="34.8804" y="17.7344" width="2.95589" height="20.6913" rx="1.47795" fill="black"/>
<rect x="39.0186" y="17.7344" width="2.95589" height="20.6913" rx="1.47795" fill="black"/>
<rect x="43.1567" y="17.7344" width="2.95589" height="20.6913" rx="1.47795" fill="black"/>
<rect x="21.2827" y="54.9805" width="3.54707" height="20.6913" rx="1.77354" fill="black"/>
<rect x="23.0566" y="55.5742" width="22.4648" height="19.5089" rx="1.89319" fill="black"/>
<rect x="26.0137" y="54.9805" width="2.95589" height="20.6913" rx="1.47795" fill="black"/>
<rect x="30.1519" y="54.9805" width="2.95589" height="20.6913" rx="1.47795" fill="black"/>
<rect x="34.8804" y="54.9805" width="2.95589" height="20.6913" rx="1.47795" fill="black"/>
<rect x="39.0186" y="54.9805" width="2.95589" height="20.6913" rx="1.47795" fill="black"/>
<rect x="43.1567" y="54.9805" width="2.95589" height="20.6913" rx="1.47795" fill="black"/>
<rect y="73.3086" width="3.29371" height="19.2133" rx="1.64686" fill="black"/>
<rect x="1.64648" y="73.8555" width="20.8602" height="18.1154" rx="1.89319" fill="black"/>
<rect x="4.39258" y="73.3086" width="2.74476" height="19.2133" rx="1.37238" fill="black"/>
<rect x="8.23486" y="73.3086" width="2.74476" height="19.2133" rx="1.37238" fill="black"/>
<rect x="12.626" y="73.3086" width="2.74476" height="19.2133" rx="1.37238" fill="black"/>
<rect x="16.4688" y="73.3086" width="2.74476" height="19.2133" rx="1.37238" fill="black"/>
<rect x="20.3125" y="73.3086" width="2.74476" height="19.2133" rx="1.37238" fill="black"/>
<rect width="3.29371" height="19.2133" rx="1.64686" fill="black"/>
<rect x="1.64648" y="0.550781" width="20.8602" height="18.1154" rx="1.89319" fill="black"/>
<rect x="4.39258" width="2.74476" height="19.2133" rx="1.37238" fill="black"/>
<rect x="8.23486" width="2.74476" height="19.2133" rx="1.37238" fill="black"/>
<rect x="12.626" width="2.74476" height="19.2133" rx="1.37238" fill="black"/>
<rect x="16.4688" width="2.74476" height="19.2133" rx="1.37238" fill="black"/>
<rect x="20.3125" width="2.74476" height="19.2133" rx="1.37238" fill="black"/>
<rect x="92.2251" y="73.3086" width="3.29371" height="19.2133" rx="1.64686" fill="black"/>
<rect x="93.8716" y="73.8555" width="20.8602" height="18.1154" rx="1.89319" fill="black"/>
<rect x="96.6162" y="73.3086" width="2.74476" height="19.2133" rx="1.37238" fill="black"/>
<rect x="100.46" y="73.3086" width="2.74476" height="19.2133" rx="1.37238" fill="black"/>
<rect x="104.851" y="73.3086" width="2.74476" height="19.2133" rx="1.37238" fill="black"/>
<rect x="108.694" y="73.3086" width="2.74476" height="19.2133" rx="1.37238" fill="black"/>
<rect x="112.537" y="73.3086" width="2.74476" height="19.2133" rx="1.37238" fill="black"/>
<rect x="92.2251" width="3.29371" height="19.2133" rx="1.64686" fill="black"/>
<rect x="93.8716" y="0.550781" width="20.8602" height="18.1154" rx="1.89319" fill="black"/>
<rect x="96.6162" width="2.74476" height="19.2133" rx="1.37238" fill="black"/>
<rect x="100.46" width="2.74476" height="19.2133" rx="1.37238" fill="black"/>
<rect x="104.851" width="2.74476" height="19.2133" rx="1.37238" fill="black"/>
<rect x="108.694" width="2.74476" height="19.2133" rx="1.37238" fill="black"/>
<rect x="112.537" width="2.74476" height="19.2133" rx="1.37238" fill="black"/>
<rect x="68.5771" y="17.7344" width="3.54707" height="20.6913" rx="1.77354" fill="black"/>
<rect x="70.3506" y="18.3281" width="22.4648" height="19.5089" rx="1.89319" fill="black"/>
<rect x="73.3076" y="17.7344" width="2.95589" height="20.6913" rx="1.47795" fill="black"/>
<rect x="77.4458" y="17.7344" width="2.95589" height="20.6913" rx="1.47795" fill="black"/>
<rect x="82.1743" y="17.7344" width="2.95589" height="20.6913" rx="1.47795" fill="black"/>
<rect x="86.3125" y="17.7344" width="2.95589" height="20.6913" rx="1.47795" fill="black"/>
<rect x="90.4507" y="17.7344" width="2.95589" height="20.6913" rx="1.47795" fill="black"/>
<rect x="68.5771" y="54.9805" width="3.54707" height="20.6913" rx="1.77354" fill="black"/>
<rect x="70.3506" y="55.5742" width="22.4648" height="19.5089" rx="1.89319" fill="black"/>
<rect x="73.3076" y="54.9805" width="2.95589" height="20.6913" rx="1.47795" fill="black"/>
<rect x="77.4458" y="54.9805" width="2.95589" height="20.6913" rx="1.47795" fill="black"/>
<rect x="82.1743" y="54.9805" width="2.95589" height="20.6913" rx="1.47795" fill="black"/>
<rect x="86.3125" y="54.9805" width="2.95589" height="20.6913" rx="1.47795" fill="black"/>
<rect x="90.4507" y="54.9805" width="2.95589" height="20.6913" rx="1.47795" fill="black"/>
</svg>
