<svg width="18" height="18" viewBox="0 0 18 18" fill="none" xmlns="http://www.w3.org/2000/svg">
<g clip-path="url(#clip0_5607_3251)">
<path d="M15.9873 4.44172C15.949 4.06306 15.8256 3.72095 15.5873 3.42189C15.3767 3.15726 15.1065 2.96792 14.8512 2.75492C14.7235 2.64949 14.3852 2.36334 14.3427 2.20197C14.2916 2.00618 14.3704 1.80609 14.547 1.74155C14.8129 1.65118 15.2576 1.65333 15.515 1.67054C15.7341 1.68776 15.9596 1.6103 15.9682 1.51994C15.9767 1.42957 15.8469 1.29617 15.6746 1.2553C15.5384 1.22302 15.3299 1.17354 15.2044 1.08963C14.981 0.936869 14.7533 0.657169 14.4427 0.594774C14.0002 0.50656 13.6917 0.67438 13.547 1.05951C13.3172 1.6103 13.4662 2.31601 13.9491 2.83237C14.1661 3.06475 14.4193 3.26483 14.6618 3.47355C14.8406 3.62843 14.998 3.79841 15.149 3.98775C15.5533 4.49766 15.1256 5.43358 15.0235 5.54118C14.6661 5.91552 14.3555 5.98438 13.7385 5.95858C13.1321 5.93275 11.5598 5.11086 10.728 5.08503C8.66849 5.02049 7.23878 5.98223 6.75581 6.23181C6.03244 6.60618 5.00269 6.62983 4.97081 6.64061C4.50487 6.67718 3.53895 6.71375 3.06024 6.88158C2.38581 7.07092 2.02199 7.38289 1.7752 8.07998C1.69861 8.38121 1.68371 8.65444 1.79222 8.82012C2.02838 9.18158 2.66452 9.48278 2.95387 9.64846C3.10281 9.73452 3.39641 9.62695 3.45384 9.58606C3.77724 9.36446 4.06232 9.19018 4.44529 9.13423C4.52612 9.12132 5.06652 9.02452 5.33887 9.22675C5.53672 9.37306 5.70692 9.46126 5.93032 9.56455C6.33881 9.75172 7.23878 9.98841 7.25581 9.99269C7.37707 10.025 7.53238 10.0874 7.53238 10.1971C7.53238 10.352 6.10267 11.5612 6.02395 11.5913C5.66438 11.7397 5.45587 11.9786 5.38992 12.3228C5.36864 12.4347 5.31972 12.5509 5.25801 12.6434C5.02612 12.9833 3.99849 14.4593 3.72618 14.8638C3.59638 15.0531 3.46235 15.1478 3.27727 15.1779C3.01132 15.2209 2.81132 15.2274 2.69856 15.4189C2.62835 15.5415 2.67303 15.7803 2.71983 15.9353C2.77302 16.1117 2.62835 16.3311 2.61771 16.3569C2.49006 16.6087 2.43687 16.8497 2.45602 17.0928C2.4624 17.1917 2.46878 17.422 2.63048 17.4284C2.79217 17.437 2.83472 17.3316 2.85387 17.2929C2.87727 17.2456 2.96664 17.0497 2.99215 17.0024C3.09641 16.8066 3.49427 16.3849 3.53895 16.3354C3.68149 16.1762 5.80907 13.2135 5.80907 13.2135C5.92607 13.0586 6.04735 12.8994 6.24521 12.822C6.51967 12.7144 6.70264 12.4928 6.75581 12.2002C6.76858 12.1356 7.61749 11.4773 7.97915 11.1997C8.11107 11.0986 8.91104 10.7737 8.92381 10.778C8.92381 10.7845 8.19192 11.899 7.96427 12.4906C7.92809 12.5853 7.86852 12.908 7.93449 13.0715C8.03661 13.3233 8.25575 13.433 8.50467 13.3577C8.58127 13.334 8.64935 13.2953 8.71529 13.2587C8.74509 13.2415 8.77487 13.2265 8.80467 13.2114C8.83444 13.1963 8.86209 13.1813 8.89189 13.1662C8.95998 13.1296 9.02592 13.0952 9.09187 13.0737C9.33655 12.992 9.58335 12.9145 9.83015 12.837L10.3301 12.68C10.679 12.5702 11.028 12.4605 11.3769 12.3529C11.4535 12.3293 11.5279 12.3013 11.6237 12.3035C11.6769 12.3035 11.7343 12.325 11.7535 12.4046C11.7535 12.4089 11.7939 12.6499 11.9407 12.7467C12.0152 12.7961 12.1747 12.8349 12.2939 12.8306C12.3981 12.8263 12.53 12.8564 12.5981 12.9166L12.6853 12.9919C12.7492 13.0457 12.8279 13.0759 12.8811 13.0909C12.9364 13.106 13.0385 13.106 13.0981 13.0436C13.1619 12.9747 13.1385 12.8629 13.13 12.8284C13.1172 12.7811 13.0917 12.7445 13.0726 12.7122L13.0194 12.6284C12.9683 12.5466 12.9194 12.4648 12.8662 12.3831C12.7194 12.1571 12.5747 11.9334 12.4258 11.7096C12.2705 11.4773 12.03 11.3847 11.7152 11.4342C11.5939 11.4536 8.93232 12.2884 8.91315 12.2927C9.05572 12.0281 9.90887 10.8361 10.1472 10.6855C10.3238 10.5801 10.3982 10.4789 10.7195 10.423C11.3471 10.3154 12.7087 9.99701 13.047 9.74958C13.7044 9.26763 13.7576 8.17249 13.747 7.95303C13.7342 7.73358 13.8044 7.58298 13.9938 7.48186C14.0874 7.43238 15.1001 6.86652 15.5958 6.03172C15.8937 5.54332 16.0469 5.02049 15.9873 4.44172Z" fill="#EEDB5F"/>
</g>
<defs>
<clipPath id="clip0_5607_3251">
<rect width="18" height="18" fill="white" transform="translate(0 0.000488281)"/>
</clipPath>
</defs>
</svg>
