<svg width="25" height="25" viewBox="0 0 25 25" fill="none" xmlns="http://www.w3.org/2000/svg">
<path d="M19.2292 10.9712C15.3611 8.67405 8.98078 8.46287 5.28818 9.58358C4.69505 9.76348 4.06806 9.42882 3.88848 8.83579C3.70879 8.24245 4.04313 7.61578 4.63647 7.43555C8.87546 6.14891 15.9218 6.39738 20.3749 9.04074C20.9083 9.35746 21.0831 10.0462 20.767 10.5787C20.4506 11.112 19.7612 11.288 19.2291 10.9712M19.1025 14.3736C18.8311 14.814 18.2553 14.9521 17.8155 14.6817C14.5909 12.6995 9.67332 12.1252 5.8581 13.2833C5.36341 13.4327 4.84078 13.1539 4.69053 12.6599C4.61891 12.4225 4.64436 12.1663 4.76131 11.9476C4.87826 11.7289 5.07716 11.5655 5.3144 11.4932C9.67268 10.1706 15.0908 10.8111 18.7947 13.0873C19.2345 13.3582 19.3729 13.9342 19.1025 14.3736ZM17.6341 17.6411C17.583 17.7251 17.5159 17.7981 17.4365 17.8561C17.3571 17.914 17.2671 17.9558 17.1716 17.9789C17.076 18.002 16.9769 18.0061 16.8798 17.9908C16.7827 17.9756 16.6896 17.9413 16.6057 17.89C13.7878 16.1678 10.241 15.7789 6.06391 16.733C5.9682 16.7549 5.86911 16.7577 5.77231 16.7413C5.67551 16.7249 5.5829 16.6895 5.49975 16.6373C5.41661 16.5851 5.34456 16.517 5.28774 16.4369C5.23091 16.3569 5.19042 16.2664 5.16856 16.1707C5.14656 16.0749 5.14365 15.9758 5.16002 15.8789C5.17639 15.7821 5.2117 15.6894 5.26395 15.6062C5.31619 15.523 5.38433 15.4509 5.46446 15.3941C5.5446 15.3373 5.63516 15.2968 5.73096 15.275C10.302 14.2302 14.223 14.6799 17.386 16.6126C17.4698 16.6638 17.5428 16.7311 17.6006 16.8105C17.6585 16.8899 17.7001 16.9799 17.7232 17.0754C17.7462 17.1709 17.7502 17.2701 17.735 17.3671C17.7197 17.4642 17.6854 17.5573 17.6341 17.6411ZM12.1306 0.333008C5.50355 0.333008 0.130859 5.70548 0.130859 12.3328C0.130859 18.9607 5.50355 24.333 12.1308 24.333C18.7583 24.333 24.1309 18.9607 24.1309 12.3328C24.1309 5.70559 18.7583 0.333008 12.1306 0.333008Z" fill="#EEDB5F"/>
</svg>
