<?xml version="1.0" encoding="utf-8"?>
<!-- Generator: Adobe Illustrator 28.0.0, SVG Export Plug-In . SVG Version: 6.00 Build 0)  -->
<svg version="1.1" id="Layer_1" xmlns="http://www.w3.org/2000/svg" xmlns:xlink="http://www.w3.org/1999/xlink" x="0px" y="0px"
	 viewBox="0 0 1500 200" style="enable-background:new 0 0 1500 200;" xml:space="preserve">
<style type="text/css">
	.st0{clip-path:url(#SVGID_00000132802195860960324240000008669702014540247460_);}
	.st1{fill:#FFFFFF;}
	.st2{fill:#1A1A1A;}
	.st3{clip-path:url(#SVGID_00000021821088318806199410000006236740885114252456_);}
	.st4{clip-path:url(#SVGID_00000042728772407249364350000007565360138295764668_);}
	.st5{fill:#FFCD87;}
	.st6{fill:#FF9200;}
	.st7{fill:#231F20;}
	.st8{clip-path:url(#SVGID_00000005233021938960361810000009017258685687680667_);}
	.st9{clip-path:url(#SVGID_00000079468818224050150010000014470493453056687264_);}
	.st10{clip-path:url(#SVGID_00000107588247298801463150000015544038734519334812_);}
</style>
<g>
	<g>
		<g>
			<g>
				<path d="M724.6,44.9l-39.3,114.6h28.6l7.4-22.9h44.2l7.4,22.9h28.6L762.2,44.9H724.6z M728.7,113.6l13.1-40.9h3.3l13.1,40.9
					H728.7z"/>
				<path d="M879.2,116c-1,3.8-2.6,7-4.7,9.8c-3.8,5.1-10.3,9.8-21.4,9.8c-16.4,0-29.5-13.1-29.5-33.6c0-20.5,13.1-33.5,29.5-33.5
					c10.6,0,17.2,4.7,21.1,9.5c2.3,2.8,3.9,5.9,5.1,9.3h26.2c-2.1-8.2-5.2-15.5-9.7-22.1c-7.5-11.1-20.6-22.1-42.7-22.1
					c-30.9,0-55.6,24.4-55.6,58.9c0,34.5,24.7,58.9,55.6,58.9c22.3,0,35.7-11.1,43-22.4c4.4-6.7,7.5-14.2,9.3-22.6H879.2z"/>
				<path d="M939,44.9l-39.3,114.6h28.6l7.4-22.9h44.2l7.4,22.9h28.6L976.6,44.9H939z M943,113.6l13.1-40.9h3.3l13.1,40.9H943z"/>
				<path d="M1062.5,44.9H1020v114.6h42.6c30.9,0,55.6-24.6,55.6-57.3C1118.2,69.4,1093.4,44.9,1062.5,44.9z M1062.5,134h-16.4V70.2
					h16.4c16.4,0,29.5,13.1,29.5,31.9C1092,121,1078.9,134,1062.5,134z"/>
				<polygon points="1129.6,159.4 1208.2,159.4 1208.2,135.7 1155.8,135.7 1155.8,113.6 1204.9,113.6 1204.9,90.7 1155.8,90.7 
					1155.8,68.6 1208.2,68.6 1208.2,44.9 1129.6,44.9 				"/>
				<polygon points="1287.5,116 1284.3,116 1261.3,44.9 1221.2,44.9 1221.2,159.4 1247.4,159.4 1247.4,89 1250.7,89 1273.6,159.4 
					1298.2,159.4 1321.1,89 1324.4,89 1324.4,159.4 1350.5,159.4 1350.5,44.9 1310.4,44.9 				"/>
				<polygon points="1409.4,90.7 1406.2,90.7 1382.4,44.9 1353,44.9 1394.7,122.6 1394.7,159.4 1420.9,159.4 1420.9,122.6 
					1462.6,44.9 1433.2,44.9 				"/>
			</g>
		</g>
	</g>
	<g>
		<g>
			<g>
				<g>
					<g>
						<g>
							<polygon points="69.1,159.4 95.3,159.4 95.3,70.2 127.2,70.2 127.2,44.8 37.2,44.8 37.2,70.2 69.1,70.2 							"/>
							<path d="M161.6,122.6h3.3l32.7,36.8h32.7L195.2,121c5.9-0.7,11.1-2.5,15.9-5.2c8-4.9,16-13.8,16-31.6
								c0-23.7-15.6-39.3-37.7-39.3h-54v114.6h26.2V122.6z M161.6,69.4h26.2c7.4,0,13.1,5.6,13.1,14.7s-5.7,14.7-13.1,14.7h-26.2
								V69.4z"/>
							<polygon points="318.8,135.7 266.4,135.7 266.4,113.6 315.5,113.6 315.5,90.7 266.4,90.7 266.4,68.6 318.8,68.6 318.8,44.8 
								240.2,44.8 240.2,159.4 318.8,159.4 							"/>
							<polygon points="415.3,134.1 362.1,134.1 414.5,68.6 414.5,44.8 327.8,44.8 327.8,70.2 379.3,70.2 326.9,135.7 326.9,159.4 
								415.3,159.4 							"/>
							<path d="M612.9,121c5.9-0.7,11.1-2.5,15.9-5.2c8-4.9,16-13.8,16-31.6c0-23.7-15.6-39.3-37.7-39.3h-54v114.6h26.2v-36.8h3.3
								l32.7,36.8h32.7L612.9,121z M579.4,98.9V69.4h26.2c7.4,0,13.1,5.6,13.1,14.7s-5.7,14.7-13.1,14.7H579.4z"/>
						</g>
					</g>
				</g>
			</g>
		</g>
	</g>
	<g>
		<g>
			<g>
				<g>
					<defs>
						<rect id="SVGID_00000021832223979625147830000011318582830332144298_" x="419.4" y="37" width="126" height="127"/>
					</defs>
					<clipPath id="SVGID_00000124858118832671951200000014907218280466595990_">
						<use xlink:href="#SVGID_00000021832223979625147830000011318582830332144298_"  style="overflow:visible;"/>
					</clipPath>
					<g style="clip-path:url(#SVGID_00000124858118832671951200000014907218280466595990_);">
						<path class="st1" d="M482.6,163.9c34.4,0,62.3-28.2,62.3-63.1c0-34.8-27.9-63.1-62.3-63.1c-34.4,0-62.3,28.2-62.3,63.1
							C420.3,135.6,448.2,163.9,482.6,163.9z"/>
						<path d="M468.2,39.8l2.7,1.1l4.7-0.4l3.8-0.4l3,0.8l1.3,2.2l-1.6,2.2l-4.9,1.3l-1.9,0.5l-3.6,2.3l-2.4,1.1l-2.6-0.2l-0.6-2.6
							l1.8-2.5l0.1-1.3l-1.5-1l-2.3,0.4l-1.4,0.7v2.9l0.8,1.8l-3.2,1.2l-1.4,1.2l1.4,3.6l1,2.8l-0.3,1.3l-2.6,1l-1.8-0.3l-3.8,2.4
							h-3.8l-8.6,8.2l-2.2,2.1l-1.3,2.8l-0.5,2.2l-0.6,0.4l-0.9-0.8l-0.2-1.8l-1.8-1.2l-2.2,1.1l-1.8,2.7l-0.8,3l-0.1,1.7l0.1,1.2
							l1.7-1.9L431,80l0.8,0.5c0,0,0.4,0.7,0.4,0.7c0,0-0.2,0.9-0.2,0.9s-1,1.2-1.1,1.3c-0.1,0.1-0.5,1.4-0.5,1.4l1.4,0.8l0.4,1.4
							l-0.2,1.6l-0.1,1.5l0.9,1.6l1.4,0.1l1.5-1.4l2-1l2.5,0.3l1.6,0.5l2.9,1.2l2.9,2.4l2.5,2.3l2.6,0.6l1.6,2.1l2.3,3.1l4.8,2.8
							l5.9,1.8l1.4,1.2l0.4,2l-2.3,3.1l-1.5,2.9l0,4l-0.2,2.8l-2.7,1.6l-2.7,0.8l-1,1.6l-0.3,4.1l-1.1,2.3l-2,1.2l-0.4,2.3l-2.1,1.7
							l-1.3,1.5l0,2.5l1.8,3.4l3.3,2.5l-1.6,0.8l-3-0.8l-2.3-1.7l-2.8-3.8l-2.8-6.3l-1.7-6.4l-1.2-6.7l-1.8-4.4l-3.9-1.8l-1.8-5
							l-2-3.2l-0.2-4.9l1.8-5.4l0.6-3l-1.3-1.5h-1.2l-0.7-1.1l-0.7-2.3l-1.8-1.3l-0.5-2.2c0,0-1.9-0.9-2.2-1.1
							c-0.3-0.2-1.4-4.1-1.4-4.1l4.3-13l9.7-13.5l9.4-7.6l18.9-8L468.2,39.8L468.2,39.8z"/>
						<path d="M433.5,79.3l0.3,0.9l1.3,1l0.9,0.9l1.1,0.2l0.7-0.4l-0.9-1.3l-1.4-0.9l-1.6-0.4L433.5,79.3z"/>
						<path d="M438.6,83.1l0.4,1.3l1.2,0.3l0.9-0.8v-1.2l-1.3-0.8l-1.2,0.4L438.6,83.1z"/>
						<path d="M481.2,48.2h-0.8l0.4,1.2l2.2,0.7l3-0.2l1.7-0.8l-0.8-0.7l-2.8-0.7L481.2,48.2z"/>
						<path d="M492.4,41.7l0,0.8l1.6,0.6l2.3-0.3l-0.7-0.9l-2.1-0.5L492.4,41.7z"/>
						<path d="M490.2,54.5l-0.6,1.1l0.2,0.9h0.9l1.2-1.3l-0.3-0.9l-0.9-0.2L490.2,54.5z"/>
						<path d="M493.4,57.3l-0.2-0.6l0.3-0.9l-0.2-0.8l-0.6-1l-0.6-0.9l-0.2-1l0.4-0.6l0.6,0l0.8,0.8l0.6,1l0.9,0.9l0.5,0.5l0.7,0.2
							l0.2,0.5l-1.2,1l-1,0.2l-0.7,0.7H493.4z"/>
						<path d="M505.9,42.5l1,1.7l1.3,1.6l-0.3,0.9l-2,0.2l-3.2-1.1l-1.9,0.1l-1,0.8l-0.5,1.2l-2,1.1l-0.4,1.3l0.9,1.3h1.7l1.3,0.1
							l1,1.2l1.7,0.5l1.2-1l0.1-0.9l0.1,2.5l-0.6,1l-2.6-0.5l-2.3,0.8l-2.2,1.4l-1.6,1l-1.5,0.5l-0.1,0.9l0.9,0.6l1.4,0.4l0.9,1.2
							l-0.1,0.9l-1.5,1l-1.3-0.5l-1.8-0.9l-0.9,0.7l-0.2,1.9l0.3,1.6l1.1,1.6l0.5,0.3l1.1-0.3l0.5,1.1l-1.3,1c0,0-1.8,0.9-1.4,1.3
							s-0.4,1.8-0.4,1.8l-2.3,2.2l-2,4l-0.9,5.2v4l1.5,3l2.5,2.6l2.7,2.2l2.8,1.8l5-0.6l4.8-1.4l2.7,0.3l1.5,1.7l0.6,2.6l0.3,2.5
							l1.4,2.8l1.4,2l0.7,2.1l-0.2,2.2l-0.7,2.3l-1.1,3.1l-0.2,3.5l0.9,2l0.7,1.7l0,4.8l0,3.3l0.6,1.6l2.5,0.6l3.9-1.8l2.3-2.9
							l1.4-2.3l2.7-1.9l0.8-1.6v-2l3.3-3.4l2-4.1v-5.4l1.5-5l2.3-4.4l1.4-5.2v-3.8l-0.9-0.5l-2,0.5l-0.8-0.5v-1.5l2.6-2.1l1.3-2.1
							l0.4-2.3l-0.6-1.9c0,0-1.4-1.8-1.4-2c0-0.2,0.4-1.5,0.4-1.5l1.8,0.7l1.1,0.8l-0.8-2.4c0,0-2.2-4.5-2.3-4.7c-0.1-0.2-3-5-3-5
							l-2.8-3.9l-3.3-4l-2.9-3l-3.4-3.1l-3.3-2.6l-4.7-3.1l-6.6-3.4L505.9,42.5L505.9,42.5z"/>
						<path class="st1" d="M515.1,72.8l-3.5-1.2l-2.9-1.7l-0.7-1.4l-1.1-1.7l-1.5-0.1l-8.4,2.1l2.4-2.1l0.3-2.3l1.6-0.1l1.1-1.1
							l0.6-1l1.1,0.3l1.5-0.6l1.8,1.3l2.2,2l0.6,1.2l0,0.7l1.1-1.3l-0.1-0.9l-1.7-1.5l-2.3-1.4l-0.2-0.9l0.6-0.2l1.2,0.6l2.6,1.8
							l1.6,1.8l1.5,2.1l1.2,0.8l0.8-0.7v-0.7l-0.6-0.9l0.4-0.7l1.1,0.2l0.2,1.6l1.7,1.8l2.3-0.1l1.6,0.4l0.9,1.1l0.2,1.7l-0.6,0.7
							l-1.4,0.8l-1.3-0.2l-1.8-1l-2.1-0.2L515.1,72.8z"/>
						<path d="M533.2,126.4l-1.2,0.1l-0.2-1.8l1-1.7l0.1-1.1l-0.2-2l0.5-1.1l1.4-0.6l1-0.8l0.4-1.6l0.5-1.2l0.9,0l0.4,1.9l-0.8,2.6
							l-1.4,3.5l-1.2,2.3L533.2,126.4z"/>
						<path d="M450,154.3c-0.1-0.1-0.3-0.2-0.4-0.3c-0.1-0.1-0.1-0.1-0.2-0.2c-0.1-0.1-0.1-0.1-0.2-0.2c-0.1-0.1-0.1-0.1-0.2-0.1
							s-0.1-0.1-0.2-0.2c-0.1-0.1-0.3-0.2-0.4-0.3c0,0,0,0,0,0l0,0c0,0,0,0,0,0c0-0.1-0.1-0.1-0.2-0.1c-0.1-0.1-0.1-0.1-0.2-0.2
							c-0.1-0.1-0.3-0.2-0.4-0.3c-0.1-0.1-0.1-0.1-0.2-0.2c0.1,0.1,0,0,0,0c0,0,0,0-0.1,0c0.1,0,0,0,0,0c0,0,0,0-0.1-0.1
							c-0.1-0.1-0.3-0.2-0.4-0.3c-0.1-0.1-0.1-0.1-0.2-0.2c0,0,0,0,0,0l0,0c0,0.1,0,0-0.1-0.1c0,0-0.1-0.1-0.1-0.1
							c-0.1-0.1,0.1,0,0,0c-0.1-0.1-0.3-0.2-0.4-0.3c-0.3-0.2-0.5-0.5-0.8-0.7c-0.5-0.5-1.1-0.9-1.6-1.4c-1.1-0.9-2.1-1.9-3.1-2.9
							c-1-1-2-2-2.9-3.1c-0.9-1.1-1.9-2.1-2.7-3.3c-0.1-0.1-0.2-0.3-0.3-0.4l0.1,0.1c-1.1-1.4-2.1-2.9-3.1-4.4s-1.9-3-2.7-4.6
							c-0.5-0.9-0.9-1.8-1.3-2.7l0.1,0.2c-0.2-0.5-0.5-1.1-0.7-1.6c-0.2-0.5-0.4-1-0.6-1.5l0.1,0.2c-0.4-1-0.8-2-1.2-3.1
							c-0.4-1-0.7-2.1-1.1-3.2c-0.3-1.1-0.6-2.1-0.9-3.2c-0.3-1.1-0.5-2.1-0.7-3.2c-0.2-1.1-0.4-2.2-0.6-3.3c0-0.1,0-0.3-0.1-0.4
							l0,0.2c-0.3-2-0.4-4-0.5-5.9c-0.1-2,0-4,0.1-6.1c0.1-1.1,0.2-2.3,0.3-3.4l0,0.2c0-0.2,0-0.4,0.1-0.6l0,0.2
							c0.2-1.2,0.3-2.3,0.6-3.5c0.2-1.1,0.5-2.3,0.7-3.4c0.3-1.1,0.6-2.3,0.9-3.4c0.3-1.1,0.7-2.2,1.1-3.3c0.4-1.1,0.8-2.2,1.2-3.3
							c0.1-0.1,0.1-0.3,0.2-0.4l-0.1,0.2c0.4-1,0.9-2,1.4-3c0.5-1,1-2,1.5-2.9c0.5-1,1.1-1.9,1.6-2.8s1.2-1.9,1.8-2.8
							s1.3-1.8,1.9-2.7c0.1-0.1,0.2-0.2,0.2-0.3l-0.2,0.2c1-1.3,2-2.5,3.1-3.8s2.2-2.4,3.4-3.5c0.3-0.3,0.7-0.6,1-0.9
							c0.3-0.3,0.7-0.7,1-1c0.2-0.1,0.3-0.4,0.3-0.6s-0.1-0.5-0.3-0.6s-0.4-0.3-0.6-0.3c-0.2,0-0.4,0.1-0.6,0.3c0,0,0,0-0.1,0.1
							l0.2-0.1c-0.3,0.2-0.5,0.4-0.8,0.6c-0.2,0.2-0.4,0.3-0.6,0.5c-0.4,0.3-0.8,0.7-1.1,1c-0.7,0.7-1.5,1.4-2.2,2.2
							c-1.4,1.5-2.7,3.1-4,4.7c-1.3,1.7-2.5,3.4-3.7,5.2s-2.1,3.5-3,5.4c-0.9,1.8-1.8,3.8-2.6,5.8c-0.8,1.9-1.4,3.9-2,5.8
							c-0.6,2-1,4-1.4,6c-0.4,2-0.7,4.2-0.8,6.3c-0.2,2.1-0.3,4.1-0.2,6.1c0,2,0.1,4.1,0.4,6.1c0.1,0.5,0.1,1.1,0.2,1.6l0-0.2
							c0.2,1.5,0.4,3,0.7,4.5s0.6,2.8,1,4.2c0.4,1.4,0.8,2.8,1.3,4.1c0.5,1.4,1.1,2.8,1.6,4.2c0.6,1.3,1.2,2.6,1.8,3.9
							s1.4,2.5,2.1,3.8c0.8,1.2,1.5,2.5,2.3,3.6s1.7,2.4,2.6,3.6c0.9,1.2,1.8,2.2,2.8,3.3c1,1.1,2,2.1,3,3.1
							c0.3,0.3,0.6,0.5,0.9,0.8l-0.1-0.1c0.5,0.5,1.1,0.9,1.6,1.4c0.3,0.2,0.5,0.5,0.8,0.7c0.1,0.1,0.1,0.1,0.2,0.2
							c0,0,0.1,0.1,0.1,0.1l0.1,0.1l-0.1-0.1c0,0,0.1,0.1,0.1,0.1c0.1,0.1,0.3,0.2,0.4,0.3c0.3,0.2,0.6,0.5,0.9,0.7
							c0.1,0.1,0.3,0.2,0.4,0.3c0.1,0-0.1-0.1,0,0c0,0,0.1,0,0.1,0.1c0,0,0.1,0.1,0.1,0.1c0.1,0.1,0.1,0.1,0.2,0.2
							c0.1,0.1,0.3,0.2,0.4,0.3c0.1,0,0.1,0.1,0.2,0.1c0,0,0.1,0,0.1,0.1c0,0-0.1-0.1,0,0c0,0,0.1,0.1,0.1,0.1
							c0.3,0.2,0.6,0.4,0.9,0.6c0.2,0.1,0.3,0.2,0.5,0.3c0.1,0.1,0.2,0.1,0.3,0.2c0,0,0.1,0.1,0.1,0.1c0,0,0,0,0.1,0c0.1,0,0,0,0,0
							c0.2,0.1,0.3,0.2,0.5,0.3c0.1,0,0.2,0.1,0.2,0.1c0.1,0.1,0.2,0.1,0.3,0.2l-0.1,0c0.3,0.2,0.6,0.3,0.9,0.5
							C449.9,154.6,450.1,154.4,450,154.3L450,154.3z"/>
						<path d="M446.3,49.7c0.7-0.4,1.3-0.9,2-1.3l-0.2,0.1c0.4-0.1,0.7-0.4,1-0.6c0.3-0.2,0.6-0.3,0.8-0.5c0.6-0.3,1.1-0.6,1.7-1
							c1.2-0.6,2.3-1.2,3.5-1.8c0.7-0.3,1.3-0.6,2-0.9l-0.2,0.1c1-0.4,2.1-0.8,3.1-1.2c1.1-0.4,2.1-0.7,3.2-1.1
							c1.1-0.3,2.1-0.6,3.2-0.9c1.1-0.3,2.2-0.5,3.3-0.7c1.1-0.2,2.2-0.4,3.3-0.5c0.1,0,0.3,0,0.4-0.1l-0.2,0
							c1.1-0.2,2.3-0.3,3.4-0.4c1.1-0.1,2.3-0.2,3.4-0.2c1.1,0,2.3,0,3.4,0c1.1,0,2.3,0.1,3.4,0.2c1.1,0.1,2.3,0.2,3.4,0.3
							c0.1,0,0.3,0,0.4,0.1l-0.2,0c1.1,0.1,2.2,0.3,3.3,0.5c1.1,0.2,2.1,0.4,3.2,0.7c0.3,0.1,0.6,0.1,0.9,0.2
							c0.4,0.1,0.7,0.2,1.1,0.2l-0.2,0c0.4,0.1,0.9,0.2,1.3,0.3c0.2,0.1,0.4,0.1,0.6,0.2c0.3,0.1,0.5,0.2,0.8,0.2l-0.2,0
							c1.4,0.5,2.9,1,4.3,1.5c0.4,0.2,0.8,0.3,1.2,0.5l-0.2-0.1c0.3,0.1,0.7,0.3,1,0.4c0.4,0.2,0.7,0.4,1.1,0.5l-0.2-0.1
							c0.4,0.2,0.8,0.4,1.2,0.6c0.2,0.1,0.4,0.2,0.6,0.3c0.2,0.1,0.5,0.3,0.7,0.4l-0.1-0.1c1.4,0.7,2.7,1.5,4,2.3
							c1.3,0.8,2.6,1.7,3.8,2.6c0.2,0.1,0.3,0.2,0.5,0.4c0.1,0.1,0.1,0.1,0.2,0.2c0,0,0,0,0.1,0c0.1,0-0.1-0.1,0,0
							c0,0,0.1,0.1,0.1,0.1c0.3,0.2,0.6,0.5,0.9,0.7c0.6,0.5,1.2,1,1.8,1.5c1.2,1,2.3,2.1,3.4,3.2c1.1,1.1,2.2,2.2,3.2,3.4
							c0.5,0.6,1,1.2,1.5,1.8c0.1,0.2,0.2,0.3,0.4,0.5c0.1,0.1,0.1,0.1,0.2,0.2c0.1,0.1-0.1-0.1,0,0c0,0,0,0,0,0.1
							c0,0,0.1,0.1,0.1,0.1c0.2,0.3,0.5,0.6,0.7,0.9c0.9,1.3,1.8,2.5,2.6,3.9c0.4,0.7,0.8,1.3,1.2,2c0.2,0.3,0.4,0.7,0.6,1
							c0.1,0.2,0.2,0.3,0.3,0.5c0,0.1,0.1,0.2,0.1,0.2c0,0,0,0,0,0.1c0.1,0.1-0.1-0.2,0,0c0,0.1,0.1,0.1,0.1,0.2
							c0.7,1.4,1.4,2.8,2.1,4.2c0.2,0.4,0.3,0.7,0.5,1.1c0.1,0.2,0.2,0.4,0.2,0.5c0,0.1,0.1,0.2,0.1,0.3c0,0,0.1,0.2,0,0.1s0,0,0,0
							c0,0,0,0.1,0,0.1c0.3,0.7,0.6,1.4,0.9,2.2c0.5,1.5,1.1,2.9,1.5,4.4c0.4,1.5,0.8,3,1.1,4.5c0.2,0.8,0.3,1.5,0.4,2.3
							c0.1,0.4,0.1,0.8,0.2,1.2c0,0.1,0,0.2,0,0.3c0,0,0,0.1,0,0.1c0,0,0,0.1,0,0.1c0,0.1,0-0.1,0,0c0,0.2,0.1,0.4,0.1,0.6
							c0.2,1.6,0.3,3.1,0.4,4.7c0.1,1.6,0.1,3.2,0,4.8c-0.1,1.6-0.2,3.2-0.3,4.7c0,0.4-0.1,0.8-0.1,1.2c0,0,0,0.1,0,0.1
							c0,0,0,0.1,0,0.1c0,0.1,0-0.1,0,0c0,0.1,0,0.2,0,0.3c0,0.1,0,0.2,0,0.3c0,0,0,0.2,0,0.1c0,0,0,0,0,0.1c0,0.1,0,0.1,0,0.2
							c-0.1,0.8-0.3,1.6-0.4,2.3c-0.3,1.6-0.6,3.1-1.1,4.6c-0.4,1.5-0.9,3.1-1.4,4.6c-0.3,0.8-0.5,1.5-0.8,2.2
							c-0.1,0.4-0.3,0.7-0.4,1.1c0,0.1-0.1,0.2-0.1,0.3c0,0.1,0-0.1,0,0c0,0,0,0,0,0.1c0,0.1,0,0.1-0.1,0.2
							c-0.1,0.2-0.2,0.4-0.2,0.5c-0.6,1.5-1.3,2.9-2.1,4.3c-0.8,1.4-1.6,2.8-2.4,4.1c-0.4,0.7-0.9,1.3-1.3,2
							c-0.1,0.1-0.1,0.2-0.2,0.2l0,0c0.1-0.1,0-0.1,0,0.1c0,0,0,0,0,0.1c0,0-0.1,0.1-0.1,0.1c-0.1,0.2-0.2,0.3-0.3,0.5
							c-0.2,0.3-0.5,0.6-0.7,1c-0.2,0.3-0.5,0.6-0.7,1c0,0-0.1,0.2,0,0.1c0,0-0.1,0.1-0.1,0.1c-0.1,0.1-0.1,0.2-0.2,0.2
							c-0.1,0.2-0.2,0.3-0.4,0.5c-0.5,0.6-1,1.2-1.5,1.8c-1,1.2-2.1,2.4-3.2,3.5s-2.3,2.2-3.5,3.3c-0.6,0.5-1.2,1-1.8,1.5
							c-0.3,0.2-0.6,0.5-0.9,0.7c-0.1,0.1-0.1,0.1-0.2,0.2c0,0-0.1,0.1,0,0c0.1,0,0,0,0,0c0,0-0.1,0.1-0.1,0.1
							c-0.2,0.1-0.3,0.2-0.5,0.4c0,0-0.2,0.2-0.1,0.1c0,0-0.1,0-0.1,0.1c-0.1,0.1-0.2,0.1-0.3,0.2c-0.2,0.1-0.3,0.2-0.5,0.3
							c-0.3,0.2-0.7,0.5-1,0.7c-0.7,0.5-1.4,0.9-2.1,1.3c-1.4,0.9-2.9,1.7-4.3,2.4c-0.7,0.4-1.5,0.7-2.2,1.1
							c-0.4,0.2-0.8,0.3-1.1,0.5c-0.2,0.1-0.4,0.2-0.6,0.2c0.1,0,0,0,0,0c0,0-0.1,0-0.1,0c0,0-0.1,0-0.1,0.1c-0.1,0-0.2,0.1-0.3,0.1
							c-0.2,0.1-0.4,0.2-0.6,0.2c-0.2,0.1-0.4,0.2-0.6,0.3c0.1,0,0,0,0,0c0,0-0.1,0-0.1,0c0,0-0.1,0-0.1,0.1c-0.1,0-0.2,0.1-0.3,0.1
							c-0.2,0.1-0.4,0.1-0.6,0.2c-0.8,0.3-1.6,0.5-2.4,0.8c-1.6,0.5-3.2,0.9-4.8,1.3c-1.6,0.4-3.2,0.7-4.9,0.9
							c-0.4,0.1-0.8,0.1-1.2,0.2c0.1,0,0,0,0,0c0,0-0.1,0-0.1,0c0,0-0.1,0-0.1,0c-0.1,0-0.2,0-0.3,0c-0.2,0-0.4,0-0.6,0.1
							c-0.8,0.1-1.7,0.2-2.5,0.3c-1.7,0.1-3.3,0.2-5,0.2c-1.7,0-3.3-0.1-5-0.2c-1.7-0.1-3.3-0.3-4.9-0.6c-1.6-0.3-3.3-0.6-4.9-1
							c-1.6-0.4-3.2-0.8-4.8-1.3s-3.1-1.1-4.7-1.7c-0.1,0-0.2-0.1-0.3-0.1c0,0-0.1,0,0,0c0,0,0,0-0.1,0c-0.1,0-0.1,0-0.2-0.1
							c-0.2-0.1-0.4-0.2-0.5-0.2c-0.2-0.1-0.4-0.2-0.5-0.2c-0.1,0-0.2-0.1-0.3-0.1c-0.1,0-0.1-0.1-0.2-0.1c0,0,0,0-0.1,0
							c0.1,0,0,0,0,0c-0.4-0.2-0.7-0.3-1.1-0.5c-0.4-0.2-0.8-0.3-1.1-0.5c-0.1-0.1-0.3,0-0.4,0.1c-0.1,0.1,0,0.3,0.1,0.4
							c0.4,0.2,0.8,0.4,1.2,0.6c0.4,0.2,0.8,0.4,1.2,0.6c0.8,0.4,1.6,0.7,2.5,1.1c1.6,0.7,3.3,1.2,5,1.8c1.7,0.5,3.4,0.9,5.1,1.3
							c1.7,0.4,3.5,0.7,5.2,0.9c1.7,0.2,3.5,0.4,5.2,0.5c1.8,0.1,3.5,0.1,5.3,0.1c1.8,0,3.5-0.1,5.3-0.3c1.8-0.2,3.5-0.4,5.3-0.8
							c1.7-0.3,3.4-0.7,5.1-1.2c1.7-0.5,3.4-1,5-1.6c1.7-0.6,3.3-1.3,4.9-2c1.6-0.7,3.1-1.5,4.7-2.4c1.5-0.9,3-1.8,4.4-2.8
							c0.7-0.5,1.4-1,2-1.5c0.4-0.3,0.7-0.5,1.1-0.8c0,0,0.1-0.1,0,0c0,0,0.1-0.1,0.1-0.1c0,0,0.1-0.1,0.1-0.1
							c0.1-0.1,0.2-0.1,0.2-0.2c0.2-0.1,0.3-0.3,0.5-0.4c1.3-1.1,2.5-2.2,3.7-3.4c1.2-1.2,2.4-2.4,3.5-3.7c0.3-0.3,0.5-0.6,0.8-1
							c0.1-0.2,0.3-0.3,0.4-0.5c0,0,0.1-0.1,0.1-0.1l0,0c0-0.1,0.1-0.1,0,0c0,0,0,0,0-0.1c0.1-0.1,0.1-0.2,0.2-0.3
							c0.5-0.7,1.1-1.4,1.6-2.1c1-1.4,1.9-2.8,2.8-4.2c0.9-1.4,1.7-2.9,2.5-4.4s1.5-3,2.2-4.5c0-0.1,0.1-0.2,0.1-0.3
							c0-0.1,0.1-0.1,0.1-0.2c0,0,0,0,0-0.1c0,0.1,0,0,0,0c0.1-0.2,0.2-0.4,0.3-0.7c0.2-0.4,0.3-0.8,0.5-1.2
							c0.3-0.8,0.6-1.6,0.9-2.4c0.5-1.6,1-3.2,1.5-4.8c0.4-1.6,0.8-3.3,1.1-4.9c0.3-1.6,0.5-3.4,0.7-5.1c0.2-1.7,0.3-3.3,0.3-5
							s0-3.3-0.2-5c-0.1-1.7-0.3-3.4-0.6-5c-0.3-1.6-0.6-3.2-1-4.8c-0.4-1.6-0.8-3.2-1.3-4.7s-1.1-3.1-1.7-4.6
							c-0.6-1.6-1.3-3.1-2.1-4.6c-0.2-0.4-0.4-0.7-0.6-1.1c0-0.1-0.1-0.2-0.1-0.3s-0.1-0.2-0.2-0.2c0.1,0.1,0.1,0.1,0,0
							c0,0,0-0.1-0.1-0.1c-0.1-0.2-0.2-0.4-0.3-0.5c-0.4-0.7-0.8-1.4-1.3-2.1c-0.9-1.4-1.8-2.8-2.7-4.1s-2-2.7-3.1-4
							c-1.1-1.3-2.1-2.5-3.3-3.7c-1.1-1.2-2.3-2.3-3.6-3.4c-1.3-1.1-2.6-2.2-3.9-3.2c-1.3-1-2.7-1.9-4.1-2.8
							c-1.4-0.9-2.8-1.7-4.3-2.5c-1.5-0.8-3-1.5-4.6-2.2c-1.6-0.7-3.2-1.3-4.9-1.8l0.2,0.1c-0.1-0.1-0.3-0.1-0.5-0.2
							c-0.1,0-0.2-0.1-0.3-0.1c-0.2-0.1-0.4-0.1-0.6-0.2c-0.4-0.1-0.8-0.3-1.3-0.4l0.2,0.1c-0.4-0.2-0.8-0.3-1.2-0.4
							c-0.3-0.1-0.7-0.2-1-0.3c-0.7-0.2-1.4-0.3-2-0.5c-1.4-0.3-2.7-0.5-4.1-0.7c-0.8-0.1-1.7-0.2-2.5-0.3l0.2,0
							c-0.8-0.1-1.5-0.2-2.3-0.2c-0.7-0.1-1.4-0.1-2.1-0.1c-1.4-0.1-2.8-0.1-4.2,0c-1.4,0-2.8,0.1-4.2,0.2c-1.5,0.1-2.9,0.3-4.4,0.5
							c-1.4,0.2-2.7,0.5-4.1,0.8c-1.4,0.3-2.7,0.6-4,1c-1.3,0.4-2.7,0.8-4,1.3c-1.4,0.5-2.7,1-4.1,1.6c-1.3,0.6-2.5,1.2-3.8,1.8
							c-1.2,0.6-2.4,1.3-3.6,2.1c-0.1,0.1-0.3,0.2-0.4,0.3c-0.2,0.1-0.4,0.2-0.6,0.4l0.2-0.1c-0.7,0.4-1.3,0.9-2,1.4
							c-0.2,0.1-0.3,0.3-0.4,0.5c-0.1,0.2,0,0.5,0.1,0.7c0.1,0.2,0.3,0.3,0.5,0.4C445.9,49.8,446.1,49.8,446.3,49.7L446.3,49.7z"/>
						<path d="M467.2,40c0.2,0.1,0.3,0.3,0.5,0.4s0.3,0.2,0.5,0.3c0.4,0.2,0.7,0.3,1.1,0.4c0.8,0.2,1.6,0.3,2.4,0.3
							c0.8,0,1.6-0.1,2.4-0.2c0.2,0,0.5-0.1,0.7-0.1c0.1,0,0.1,0,0.2,0c0,0,0.1,0,0,0c0,0,0.1,0,0.1,0c0.1,0,0.2,0,0.4,0
							c0.5,0,0.9-0.1,1.4-0.1c0.5,0,1,0,1.5,0c0.5,0,1,0,1.5,0.1l-0.2,0c0.2,0,0.4,0.1,0.6,0.1l-0.2,0c0.5,0.1,0.9,0.2,1.3,0.4
							l-0.2-0.1c0.4,0.2,0.7,0.4,1.1,0.6l-0.2-0.1c0.2,0.2,0.4,0.3,0.5,0.5l-0.1-0.2c0.1,0.1,0.1,0.2,0.2,0.2l-0.1-0.2
							c0.1,0.2,0.2,0.3,0.3,0.5l-0.1-0.2c0.1,0.2,0.1,0.4,0.2,0.6l0-0.2c0,0.2,0,0.4,0,0.5l0-0.2c0,0.1,0,0.2,0,0.3l0-0.2
							c0,0.1-0.1,0.3-0.1,0.4l0.1-0.2c-0.1,0.2-0.2,0.4-0.3,0.6l0.1-0.1c-0.2,0.2-0.4,0.5-0.7,0.6l0.1-0.1c-0.3,0.3-0.7,0.5-1.1,0.6
							l0.2-0.1c-1.4,0.6-3,0.7-4.5,1c-0.8,0.2-1.6,0.4-2.3,0.7c-0.7,0.3-1.4,0.8-2.1,1.3c-0.8,0.5-1.5,1.1-2.4,1.5l0.2-0.1
							c-0.4,0.2-0.8,0.3-1.2,0.3l0.2,0c-0.3,0-0.6,0-0.9,0l0.2,0c-0.1,0-0.3-0.1-0.4-0.1c0,0-0.1,0-0.1,0c0,0-0.1-0.1,0,0s0,0,0,0
							c0,0-0.1,0-0.1-0.1c-0.1,0-0.1-0.1-0.2-0.1c0,0-0.1,0-0.1-0.1c0,0-0.1,0,0,0c0.1,0.1,0,0,0,0c-0.1-0.1-0.2-0.2-0.3-0.3
							c0,0,0-0.1-0.1-0.1c0,0,0,0,0,0c0-0.1,0.1,0.1,0,0c0-0.1-0.1-0.1-0.1-0.2c0-0.1-0.1-0.1-0.1-0.2c0,0-0.1-0.1,0,0
							c0,0.1,0,0,0-0.1c0-0.1,0-0.1-0.1-0.2c0,0,0-0.1,0-0.1c0,0,0,0,0-0.1c0-0.1,0,0.1,0,0.1c0,0,0-0.1,0-0.2c0,0,0-0.1,0-0.1
							c0,0,0-0.2,0-0.1c0,0.1,0,0,0,0c0,0,0-0.1,0-0.1c0-0.1,0-0.1,0.1-0.2c0,0,0,0,0,0c0,0-0.1,0.1,0,0.1c0,0,0,0,0-0.1
							c0-0.1,0.1-0.1,0.1-0.2c0.1-0.1,0.1-0.2,0.2-0.3c0.1-0.1-0.1,0.1,0,0c0,0,0,0,0.1-0.1c0-0.1,0.1-0.1,0.1-0.2
							c0.4-0.4,0.7-0.8,1-1.2c0.2-0.3,0.3-0.6,0.3-1c0-0.1,0-0.1,0-0.2c0-0.1,0-0.1,0-0.2c0,0,0-0.1,0,0.1c0,0,0-0.1,0-0.1
							c0-0.2-0.1-0.4-0.2-0.6l0.1,0.2c0-0.1-0.1-0.2-0.2-0.4c-0.1-0.1-0.2-0.2-0.3-0.2l0.1,0.1c-0.2-0.2-0.4-0.4-0.7-0.5
							c-0.3-0.1-0.6-0.2-0.9-0.3c-0.4,0-0.8,0-1.1,0.1c-0.2,0-0.4,0.1-0.6,0.1c-0.2,0-0.4,0.2-0.6,0.2c-0.2,0.1-0.1,0.4,0.1,0.3
							c0.2-0.1,0.4-0.1,0.5-0.1c0.2,0,0.3-0.1,0.5-0.1c0.3-0.1,0.7-0.1,1-0.1c0.3,0,0.5,0.1,0.8,0.2c0.1,0.1,0.2,0.1,0.3,0.2
							c0.1,0.1,0.2,0.2,0.3,0.3l-0.1-0.2c0,0.1,0,0.2,0.1,0.3c0,0,0,0.1,0,0.1c0,0.1,0-0.1,0,0c0,0,0,0.1,0,0.1v-0.2
							c0,0.1,0,0.3,0,0.4c0,0.1,0-0.1,0,0c0,0,0,0.2,0,0.1c0-0.1,0,0,0,0c0,0,0,0.1,0,0.1c0,0,0,0.1,0,0c0-0.1,0,0,0,0
							c0,0,0,0,0,0.1c0,0,0,0,0,0l-0.1,0.1l0-0.1c0,0,0,0.1-0.1,0.1c0,0.1,0.1-0.1,0-0.1c0,0,0,0,0,0.1c0,0,0,0.1-0.1,0.1
							c-0.1,0.1-0.1,0.2-0.2,0.3c-0.1,0.1,0.1-0.1,0,0c0,0,0,0-0.1,0.1c0,0-0.1,0.1-0.1,0.1c-0.1,0.2-0.3,0.3-0.4,0.5
							c-0.3,0.4-0.7,0.7-0.9,1.2c-0.3,0.5-0.4,1.1-0.2,1.7c0.1,0.6,0.5,1.1,0.9,1.4c0.4,0.4,1,0.7,1.5,0.8c1.4,0.3,2.7-0.2,3.9-0.9
							c1-0.7,2-1.5,3.1-2.1c0.1-0.1,0.3-0.1,0.4-0.2l-0.2,0.1c1.1-0.5,2.3-0.6,3.5-0.8c1.2-0.2,2.4-0.4,3.5-1
							c0.6-0.3,1.2-0.8,1.6-1.4l-0.1,0.1c0.3-0.3,0.5-0.7,0.6-1.2l-0.1,0.2c0.2-0.5,0.3-1,0.2-1.5l0,0.2c0-0.3-0.1-0.7-0.3-1
							c-0.1-0.3-0.3-0.5-0.5-0.7c-0.4-0.4-0.8-0.7-1.3-0.9c-0.3-0.1-0.6-0.2-0.9-0.3c-0.3-0.1-0.6-0.1-0.9-0.2c-0.7-0.1-1.3-0.1-2,0
							c-0.4,0-0.7,0.1-1.1,0.2c0,0-0.1,0-0.1,0c0,0,0,0-0.1,0c-0.1,0,0,0,0.1,0c0,0-0.1,0-0.2,0c0,0,0,0-0.1,0c0,0-0.1,0-0.1,0
							c-0.2,0-0.3,0.1-0.5,0.1c-0.3,0.1-0.7,0.1-1,0.2s-0.7,0.1-1,0.2c-0.2,0-0.3,0.1-0.5,0.1c-0.1,0-0.2,0-0.2,0c0,0-0.1,0-0.1,0
							c0,0,0,0-0.1,0c0,0-0.1,0,0,0c0,0,0,0,0,0c0,0,0,0-0.1,0c0,0-0.1,0-0.1,0c-0.1,0-0.1,0-0.2,0c-0.1,0-0.3,0-0.4,0
							c-0.6,0.1-1.1,0.1-1.7,0c-0.3,0-0.6,0-0.8-0.1c0,0-0.1,0-0.1,0c0,0-0.1,0-0.1,0s-0.1,0-0.1,0c0,0-0.1,0-0.1,0
							c-0.1,0-0.3,0-0.4-0.1c-0.3-0.1-0.5-0.1-0.8-0.2c-0.1,0-0.1,0-0.2-0.1c0,0-0.1,0-0.1,0c0,0,0,0,0,0c0,0,0,0-0.1,0
							c-0.1-0.1-0.3-0.1-0.4-0.2c0,0-0.1,0-0.2-0.1c-0.1,0-0.1-0.1-0.2-0.1c-0.1-0.1-0.3,0-0.3,0.1C467.1,39.7,467.1,39.9,467.2,40
							L467.2,40z"/>
						<path d="M462.7,43.3c-0.3,0-0.5,0.1-0.7,0.3l0.4-0.2h0c-0.2,0-0.4,0.1-0.5,0.3c-0.2,0.4-0.3,0.9-0.1,1.3
							c0.1,0.3,0.2,0.5,0.4,0.7c0.1,0.2,0.3,0.3,0.4,0.5l-0.1-0.1c0.1,0.1,0.2,0.3,0.3,0.4l-0.1-0.2c0,0.1,0.1,0.2,0.1,0.3l0-0.2
							c0,0.1,0,0.2,0,0.3l0-0.2c0,0.1,0,0.2-0.1,0.3l0.1-0.2c0,0.1-0.1,0.2-0.1,0.2l0.1-0.2c0,0,0,0,0,0l0.2-0.1
							c-0.1,0.1-0.2,0.1-0.3,0.2l0.2-0.1c-0.1,0-0.2,0.1-0.4,0.2l0.2-0.1c-0.1,0-0.2,0.1-0.2,0.1l0.3,0c-0.2,0-0.4,0.1-0.6,0.2
							c0,0-0.1,0-0.1,0.1l0.3-0.1c-0.3,0.1-0.6,0.2-0.9,0.2l0.3,0c-0.3,0-0.6,0.1-0.8,0.1c-0.2,0-0.3,0.1-0.5,0.1
							c-0.3,0.1-0.5,0.2-0.8,0.3c-0.2,0.1-0.3,0.1-0.4,0.2c-0.4,0.3-0.8,0.6-1.1,1.1c-0.1,0.2-0.2,0.5-0.3,0.7
							c-0.1,0.1-0.1,0.3-0.1,0.4c-0.1,0.4-0.1,0.8-0.1,1.2c0.1,0.4,0.1,0.8,0.3,1.2c0.3,0.8,0.7,1.4,1.1,2.1c0.4,0.7,1,1.3,1.3,2.1
							l-0.1-0.2c0.1,0.2,0.1,0.4,0.2,0.6c0,0.2,0.1,0.4,0.1,0.6l0-0.2c0,0.1,0,0.3,0,0.4s0,0.2,0,0.4l0-0.2c0,0.2-0.1,0.3-0.1,0.4
							l0.1-0.2c-0.1,0.2-0.2,0.3-0.3,0.5l0.1-0.1c-0.1,0.1-0.2,0.2-0.3,0.3l0.1-0.1c-0.1,0.1-0.3,0.2-0.4,0.2l0.2-0.1
							c-0.2,0.1-0.4,0.1-0.5,0.1l0.2,0c-0.3,0-0.6,0-1,0l0.2,0c-0.5-0.1-1-0.2-1.6-0.3l0.2,0c-0.7-0.1-1.4-0.2-2.1,0.1
							c-0.4,0.1-0.7,0.3-1,0.6c-0.2,0.2-0.4,0.4-0.6,0.6c-0.2,0.2-0.4,0.5-0.7,0.7l0.2-0.1c-0.1,0.1-0.3,0.2-0.4,0.3l0.2-0.1
							c-0.1,0-0.2,0.1-0.3,0.1l0.2-0.1c-0.1,0.1-0.3,0.1-0.4,0.1l0.2,0c-0.2,0-0.4,0-0.6,0l0.2,0c-0.6-0.1-1.1-0.2-1.7-0.3
							c-0.6-0.1-1.1,0-1.6,0.2c-0.3,0.1-0.6,0.3-0.8,0.4c-0.3,0.2-0.5,0.4-0.8,0.6c-0.4,0.3-0.8,0.7-1.2,1c-0.8,0.7-1.6,1.5-2.3,2.3
							c-0.7,0.8-1.5,1.6-2.2,2.4c-0.8,0.9-1.6,1.9-2.4,2.9c-0.1,0.1-0.1,0.4-0.1,0.6c0,0.2,0.2,0.4,0.3,0.4c0.2,0.1,0.4,0.1,0.6,0.1
							l0.2-0.1c0.1-0.1,0.2-0.2,0.3-0.3l0,0l-0.1,0.2c0.9-1.2,1.9-2.4,3-3.5c0.5-0.6,1-1.1,1.6-1.6c0.6-0.5,1.1-1,1.7-1.5
							c0.6-0.6,1.3-1.1,1.9-1.6l-0.2,0.1c0.4-0.3,0.7-0.5,1.1-0.7l-0.2,0.1c0.2-0.1,0.5-0.2,0.7-0.2l-0.2,0c0.3,0,0.5,0,0.8,0
							l-0.2,0c0.3,0,0.7,0.1,1,0.2c0.4,0.1,0.9,0.1,1.3,0.1c0.4-0.1,0.8-0.2,1.1-0.4c0.3-0.2,0.5-0.4,0.7-0.6
							c0.2-0.3,0.4-0.6,0.7-0.8l-0.1,0.1c0.2-0.3,0.4-0.5,0.7-0.7l-0.1,0.1c0.1-0.1,0.3-0.2,0.4-0.3l-0.2,0.1
							c0.2-0.1,0.4-0.1,0.5-0.1l-0.2,0c0.3,0,0.6,0,0.9,0l-0.2,0c0.4,0.1,0.7,0.2,1.1,0.2c0.4,0.1,0.8,0.2,1.2,0.2
							c0.8,0.1,1.7-0.2,2.2-0.9c0.3-0.4,0.5-0.8,0.7-1.2l-0.1,0.2c0.1-0.2,0.2-0.6,0.3-0.8c0-0.2,0.1-0.4,0.1-0.6c0-0.2,0-0.4,0-0.6
							l0,0.3c0-0.2,0-0.4-0.1-0.7c0-0.1-0.1-0.3-0.1-0.4c-0.1-0.4-0.3-0.8-0.5-1.2c-0.2-0.3-0.3-0.6-0.5-1c-0.2-0.3-0.3-0.7-0.5-1
							l0.1,0.3c-0.1-0.2-0.1-0.3-0.2-0.5l0.1,0.3c-0.2-0.4-0.3-0.8-0.3-1.2l0,0.3c0-0.3-0.1-0.7,0-1l0,0.4c0-0.3,0.1-0.6,0.2-0.8
							l-0.1,0.3c0.1-0.2,0.2-0.3,0.3-0.5l-0.2,0.3c0.1-0.1,0.2-0.3,0.4-0.4l-0.3,0.2c0.2-0.1,0.4-0.2,0.6-0.3l-0.3,0.1
							c0.2-0.1,0.4-0.2,0.6-0.3l-0.3,0.1c0.2-0.1,0.4-0.1,0.6-0.2c0.3-0.1,0.6-0.2,0.8-0.3c0.2-0.1,0.3-0.2,0.5-0.3
							c0.2-0.1,0.3-0.2,0.4-0.3c0,0,0.1-0.1,0.1-0.1c0.2-0.2,0.3-0.3,0.3-0.6l-0.1,0.3c0.1-0.2,0.2-0.4,0.3-0.6
							c0-0.1,0.1-0.3,0.1-0.4l-0.1,0.2c0.1-0.3,0.2-0.6,0.2-1c0-0.3-0.1-0.7-0.3-0.9c-0.3-0.4-0.7-0.7-1-1.1l0.1,0.1
							c-0.1-0.1-0.1-0.1-0.1-0.2l0.1,0.2c0-0.1-0.1-0.2-0.1-0.3l0,0.2c0-0.1,0-0.2,0-0.3l0,0.2c0-0.1,0-0.1,0-0.2
							c-0.1,0.1-0.1,0.1,0,0.1c0-0.1,0.1-0.1,0.1-0.2c0-0.2,0-0.3-0.1-0.5l0.1,0.5c0-0.1-0.1,0.1,0,0c0,0,0,0,0,0c0,0,0,0,0,0.1
							c0,0,0,0,0.1-0.1c-0.1,0.1-0.1,0.1,0,0c0,0,0,0,0,0c0.2-0.1,0.3-0.3,0.2-0.5C463,43.4,462.9,43.3,462.7,43.3L462.7,43.3z"/>
						<path d="M439.8,70.1c-0.2,0.1-0.4,0.2-0.6,0.3c0,0-0.1,0-0.1,0.1l0,0c0,0,0,0-0.1,0c0,0-0.1,0-0.1,0.1
							c-0.1,0.1-0.2,0.1-0.3,0.2c0.1-0.1,0,0,0,0c0,0,0,0-0.1,0.1c0,0-0.1,0.1-0.1,0.1c-0.1,0.1-0.2,0.1-0.2,0.2
							c-0.1,0.2-0.3,0.3-0.4,0.5c0,0-0.1,0.1-0.1,0.1c-0.1,0.1,0.1-0.1,0,0c0,0-0.1,0.1-0.1,0.1c-0.1,0.1-0.1,0.2-0.2,0.3
							c-0.1,0.2-0.2,0.4-0.3,0.6c-0.2,0.4-0.4,0.9-0.5,1.3c-0.1,0.2-0.1,0.5-0.1,0.7c0,0.1,0,0.1,0,0.2c0-0.1,0,0,0,0.1
							c0,0,0,0.1,0,0.1c0,0.1,0,0.2,0,0.3c0,0.1,0,0.2,0,0.2c0,0,0,0.1,0,0.1c0-0.1,0,0,0,0c0,0,0,0.1,0,0.1c0,0.2-0.1,0.3-0.1,0.5
							c0,0,0,0,0,0.1c0,0,0-0.1,0,0c0,0,0,0.1-0.1,0.1c0,0-0.1,0.1,0,0.1c0,0-0.1,0.1-0.1,0.1c0,0-0.1,0.1,0,0c0,0-0.1,0-0.1,0.1
							c0,0-0.1,0,0,0c0,0,0,0,0,0c0,0,0,0-0.1,0c-0.1,0,0,0,0,0c-0.1,0-0.1,0-0.2,0c0,0-0.1,0,0,0c0,0,0,0,0,0c0,0,0,0-0.1,0
							c0,0-0.1,0,0,0c-0.1-0.1-0.2-0.2-0.3-0.4c0,0,0,0,0,0c0,0,0,0,0-0.1c0,0,0-0.1,0-0.1c0-0.1,0-0.2,0-0.3c0-0.2,0-0.5,0-0.7
							c0-0.5-0.1-0.9-0.5-1.3c-0.3-0.3-0.6-0.5-0.9-0.7c-0.4-0.1-0.8-0.2-1.2-0.1c-0.9,0.2-1.7,0.8-2.3,1.5s-1.1,1.5-1.5,2.4
							c-0.4,0.9-0.7,1.8-0.8,2.7c-0.1,0.9-0.1,1.9,0,2.8c0,0.2,0.1,0.5,0.1,0.7c0,0.2,0.3,0.3,0.4,0.2c0.6-0.3,1-0.9,1.4-1.5
							c0.1-0.1,0.2-0.3,0.3-0.4c0,0,0.1-0.1,0-0.1c0,0,0-0.1,0.1-0.1c0.1-0.1,0.1-0.1,0.2-0.2c0.1,0,0.1-0.1,0.2-0.1c0,0,0.1,0,0,0
							s0,0,0,0c0,0,0.1-0.1,0.1-0.1c0.1,0,0.1-0.1,0.2-0.1c0,0,0.1,0,0.1,0c0,0,0.1,0,0,0c0,0,0,0,0.1,0c0.1,0,0.1,0,0.2-0.1
							c0,0,0.1,0,0.1,0c0,0-0.1,0,0,0c0,0,0,0,0.1,0c0,0,0.1,0,0.1,0c0,0,0.1,0,0,0c0.1,0,0.1,0,0.2,0.1c0,0,0,0,0,0c0,0,0,0,0,0
							c0,0,0.1,0,0.1,0c0,0,0,0,0,0c0,0,0,0,0,0c0,0,0.1,0.1,0.1,0.1c0,0,0,0,0,0.1c0,0,0,0.1,0.1,0.1c0-0.1,0,0,0,0
							c0,0,0,0.1,0,0.1c0-0.1,0,0,0,0c0,0,0,0,0,0.1c0,0,0,0.1,0,0.1c0,0,0,0.1,0,0.1c0-0.1,0,0.1,0,0.1c0,0.1,0,0.2-0.1,0.2
							c0,0.1,0,0.1-0.1,0.2c-0.1,0.2-0.2,0.3-0.3,0.4c0,0-0.1,0.1-0.1,0.2c-0.1,0.1-0.1,0.1-0.2,0.2c-0.5,0.6-1.1,1.3-0.9,2.2
							c0,0.1,0.1,0.1,0.2,0.1c0.5-0.1,1,0.3,1.2,0.7c0.3,0.5,0.4,1.2,0.3,1.8c-0.1,0.8-0.4,1.6-0.3,2.4c0,0.4,0.1,0.7,0.2,1
							c0.1,0.3,0.3,0.6,0.5,0.8c0.2,0.2,0.5,0.4,0.9,0.5c0.2,0,0.4,0.1,0.5,0s0.3-0.1,0.5-0.2c0.2-0.1,0-0.5-0.2-0.3
							c-0.1,0.1-0.2,0.1-0.3,0.1c-0.1,0-0.1,0-0.2,0c-0.1,0-0.1,0-0.2,0c-0.3-0.1-0.5-0.2-0.7-0.4c-0.2-0.2-0.4-0.4-0.5-0.7
							c-0.1-0.3-0.2-0.7-0.1-1c0-0.8,0.3-1.6,0.3-2.4c0-0.6-0.1-1.2-0.4-1.8c-0.3-0.5-0.9-1-1.5-0.9l0.2,0.2c0-0.2,0-0.3,0-0.5
							c0.1-0.2,0.1-0.3,0.2-0.5c0.1-0.1,0.2-0.3,0.3-0.4c0.1-0.1,0.3-0.3,0.4-0.4c0.5-0.5,1-1.2,0.9-2c0-0.4-0.2-0.8-0.6-1
							c-0.3-0.2-0.7-0.2-1-0.2s-0.7,0.2-0.9,0.4c-0.3,0.2-0.5,0.5-0.8,0.8c-0.2,0.3-0.4,0.7-0.6,1c0,0,0,0,0,0c-0.1,0.1,0,0,0,0
							c0,0-0.1,0.1-0.1,0.1c-0.1,0.1-0.1,0.1-0.2,0.2c0,0-0.1,0.1-0.1,0.1c0,0,0,0,0,0c0,0,0,0,0,0c-0.1,0.1-0.2,0.1-0.3,0.2
							l0.4,0.2c-0.1-0.4-0.1-0.9-0.1-1.3c0-0.2,0-0.5,0-0.7c0-0.1,0-0.2,0-0.3c0-0.1,0-0.1,0-0.2c0,0.1,0,0,0,0c0,0,0-0.1,0-0.1
							c0.1-0.9,0.3-1.8,0.7-2.6c0-0.1,0-0.1,0.1-0.2c0,0,0,0,0-0.1c0,0.1,0,0,0,0c0-0.1,0.1-0.2,0.1-0.3c0.1-0.2,0.2-0.4,0.3-0.6
							c0.2-0.4,0.5-0.8,0.7-1.2c0,0,0.1-0.1,0.1-0.1c-0.1,0.1,0,0,0,0c0,0,0,0,0-0.1c0.1-0.1,0.1-0.2,0.2-0.3
							c0.1-0.2,0.3-0.3,0.5-0.5c0.1-0.1,0.1-0.1,0.2-0.2c0,0,0.1-0.1,0,0c0,0,0,0,0.1,0c0.1,0,0.1-0.1,0.2-0.1
							c0.1-0.1,0.2-0.1,0.3-0.2c0,0,0.1,0,0.1-0.1c0,0,0.1,0,0,0c0,0,0.1,0,0.1,0c0.1,0,0.2-0.1,0.3-0.1c0,0,0.1,0,0.1,0
							c0,0,0.1,0,0,0c0,0,0.1,0,0.1,0c0.2,0,0.4,0,0.6,0c0.1,0,0,0,0,0c0,0,0,0,0.1,0c0,0,0.1,0,0.1,0c0.1,0,0.2,0.1,0.3,0.1
							c-0.1,0,0,0,0,0c0,0,0,0,0.1,0c0,0,0.1,0,0.1,0.1c0,0,0.1,0,0.1,0.1c0,0,0,0,0,0c0,0,0,0,0.1,0.1c0.1,0.1,0.1,0.1,0.1,0.2
							c0,0,0,0.1,0.1,0.1c0,0,0,0,0,0c0,0,0,0.1,0,0c0.1,0.2,0.1,0.5,0.1,0.7c0,0.5,0,0.9,0.2,1.4c0.2,0.4,0.4,0.7,0.8,0.9
							c0.4,0.1,0.8,0,1-0.3c0,0,0.1-0.1,0.1-0.1c0,0,0,0,0,0l0,0c0,0,0,0,0,0c0-0.1,0.1-0.1,0.1-0.2c0.1-0.2,0.1-0.3,0.2-0.5
							c0.1-0.4,0.1-0.7,0.2-1.1c0.1-0.4,0.2-0.8,0.4-1.2c0,0,0-0.1,0,0c0,0,0,0,0-0.1c0,0,0-0.1,0.1-0.1c0-0.1,0.1-0.2,0.1-0.3
							c0.1-0.2,0.2-0.4,0.3-0.6c0.2-0.4,0.4-0.7,0.7-1.1c-0.1,0.1,0,0,0,0c0,0,0,0,0.1-0.1c0,0,0.1-0.1,0.1-0.1
							c0.1-0.1,0.1-0.2,0.2-0.2c0.1-0.1,0.1-0.2,0.2-0.2c0.1-0.1,0.1-0.2,0.2-0.3c0.1-0.2,0.3-0.3,0.4-0.4
							C440.2,70.3,440,70,439.8,70.1L439.8,70.1z"/>
						<path d="M424.7,79.8c0,0.1-0.1,0.2-0.1,0.3c-0.1,0.1-0.1,0.2-0.2,0.3c-0.1,0.2-0.2,0.4-0.2,0.5c-0.1,0.4-0.2,0.7-0.3,1.1
							c-0.1,0.4-0.1,0.8-0.1,1.2c0,0.3,0.1,0.7,0.1,1c0.2,0.6,0.5,1.2,0.9,1.7c0.2,0.2,0.5,0.4,0.7,0.6c0.3,0.2,0.6,0.3,0.9,0.3
							c0.1,0,0.3,0,0.4,0.1c0.1,0,0.1,0,0.2,0.1c0.1,0-0.1,0,0,0c0,0,0.1,0,0.1,0.1c0.1,0,0.1,0.1,0.2,0.1c0,0-0.1-0.1,0,0
							c0,0,0,0,0,0c0,0,0.1,0.1,0.1,0.1c0,0,0,0,0,0c0,0,0-0.1,0,0c0,0,0,0.1,0.1,0.1c0,0,0,0.1,0,0.1c0,0,0-0.1,0,0c0,0,0,0,0,0.1
							c0,0.1,0,0.1,0.1,0.2c0,0,0,0.1,0,0.1c0,0,0,0,0,0c0,0.1,0-0.1,0,0c0,0.2,0,0.3,0,0.5c0,0.3,0.1,0.7,0.2,1
							c0.1,0.3,0.4,0.5,0.7,0.7c0.2,0.1,0.5,0.2,0.7,0.4c0.1,0.1,0.3,0.1,0.4,0.2c0.1,0,0.1,0.1,0.2,0.1c-0.1,0,0,0,0,0
							c0,0,0.1,0.1,0.1,0.1c0,0,0.1,0.1,0.1,0.1c0,0,0,0,0,0c0,0,0,0,0,0.1c0,0.1,0.1,0.1,0.1,0.2c0,0.1,0,0.1,0.1,0.2
							c0,0.1,0.1,0.2,0.1,0.2c0.2,0.7,0.2,1.3,0.5,2c0.3,0.6,0.9,1,1.5,0.8c0.1,0,0.3-0.1,0.4-0.2c0.1-0.1,0.1-0.2,0.1-0.3
							c-0.1-0.1-0.2-0.2-0.3-0.1c-0.2,0.1-0.4,0.1-0.6,0.1c-0.2-0.1-0.4-0.3-0.6-0.5c-0.2-0.3-0.2-0.6-0.3-0.9
							c0-0.3-0.1-0.6-0.1-0.9s-0.1-0.6-0.3-0.9s-0.4-0.5-0.7-0.7c-0.2-0.1-0.5-0.3-0.7-0.4c-0.1-0.1-0.2-0.1-0.3-0.2c0,0,0,0-0.1,0
							c0.1,0.1,0,0,0,0c-0.1,0-0.1-0.1-0.1-0.1c0-0.1,0,0,0,0c0,0,0,0,0,0c0,0,0-0.1-0.1-0.1c0,0,0-0.1,0-0.1c0,0,0,0,0,0
							c0,0,0-0.1,0-0.1c0-0.1,0-0.1-0.1-0.2c0,0,0-0.1,0-0.1c0,0,0-0.1,0,0c0,0.1,0,0,0,0c0-0.3,0-0.6-0.1-1c0-0.3-0.2-0.6-0.4-0.9
							c-0.2-0.3-0.5-0.4-0.8-0.5c0,0,0,0-0.1,0c0,0,0,0,0,0c0,0-0.1,0-0.1,0c-0.1,0-0.1-0.1-0.2-0.1c-0.2-0.1-0.3-0.1-0.5-0.2
							c-0.1,0,0.1,0,0,0c-0.1,0-0.1-0.1-0.2-0.1c0,0-0.1,0-0.1,0c-0.1,0,0.1,0,0,0c0,0,0,0-0.1,0c-0.1-0.1-0.3-0.1-0.4-0.2
							c0,0-0.1-0.1,0,0s0,0,0,0c-0.1,0-0.1-0.1-0.2-0.1c0,0-0.1-0.1-0.1-0.1c0,0,0-0.1-0.1-0.1c0,0,0,0,0,0c0,0,0.1,0.1,0,0
							c-0.1-0.1-0.2-0.2-0.2-0.4c0-0.1-0.1-0.1-0.1-0.2c0,0,0-0.1,0-0.1c0,0,0,0,0-0.1c0-0.1,0,0,0,0c-0.1-0.3-0.2-0.6-0.3-0.8
							c0,0,0-0.1,0-0.1c0,0,0-0.1,0,0c0-0.1,0-0.2,0-0.2c0-0.2,0-0.4,0-0.6c0-0.4,0-0.7,0.1-1.1c0-0.1,0-0.1,0-0.2
							c0-0.1,0-0.2,0-0.3c0-0.2,0-0.4,0-0.6c0-0.1,0-0.2,0-0.2c0-0.1,0-0.2,0-0.3C424.9,79.7,424.7,79.7,424.7,79.8L424.7,79.8z"/>
						<path d="M432.7,94.3C432.7,94.3,432.7,94.3,432.7,94.3C432.7,94.3,432.7,94.3,432.7,94.3c0.1,0.1,0.2,0.1,0.2,0.1
							c0,0,0,0,0.1,0c0,0,0,0,0,0c0,0,0,0,0,0c0,0,0,0,0,0c0,0,0,0,0,0c0,0.1,0.1,0.1,0.2,0.2c-0.1-0.1,0,0,0,0.1
							c0,0,0.1,0.1,0.1,0.1c-0.1-0.1,0,0,0,0c0,0,0,0,0,0.1c0,0,0,0,0,0.1c0,0,0,0,0,0c0-0.1,0,0,0,0.1c0,0,0,0.1,0.1,0.1
							c0,0,0-0.1,0,0c0,0,0,0,0,0.1c0,0.1,0.1,0.2,0.1,0.3c0,0.1,0,0.1,0,0.2c0,0,0,0.1,0,0s0,0,0,0c0,0.1,0,0.2,0,0.3l0-0.2
							c0,0.2,0,0.3,0,0.5c0,0.1,0,0.2,0,0.3l0-0.2c0,0.2-0.1,0.4-0.2,0.6l0.1-0.2c-0.1,0.1-0.1,0.3-0.2,0.4l0.1-0.2
							c-0.1,0.3-0.2,0.5-0.4,0.8c-0.1,0.1-0.1,0.3-0.2,0.4c-0.1,0.2-0.2,0.4-0.2,0.5l0.1-0.2c-0.1,0.2-0.1,0.3-0.1,0.5
							c0,0.2-0.1,0.4,0,0.5l0-0.3c-0.1,0.3-0.2,0.5-0.3,0.8s-0.2,0.5-0.2,0.8c-0.2,0.5-0.3,1.1-0.3,1.6c-0.2,1.1-0.3,2.3-0.3,3.4
							c0,0.6,0,1.2,0.1,1.7c0,0.3,0.1,0.6,0.2,0.8c0,0.1,0.1,0.2,0.1,0.4c0,0.1,0.1,0.1,0.1,0.2c0,0,0,0.1,0,0.1c0,0,0,0,0,0
							c0,0,0,0.1,0,0.1c0.1,0.1,0.1,0.2,0.1,0.3c0,0.1,0.1,0.1,0.1,0.2l0,0c0-0.1,0-0.1,0,0.1c0,0,0,0.1,0.1,0.1
							c0.1,0.2,0.3,0.4,0.4,0.6c0.3,0.4,0.6,0.8,0.9,1.3c0.1,0.1,0.1,0.2,0.2,0.3c0,0,0,0.1,0,0.1c0,0,0.1,0.1,0,0
							c0,0.1,0,0.1,0.1,0.2c0.1,0.2,0.2,0.5,0.2,0.7c0.1,0.5,0.2,0.9,0.3,1.4c0.1,0.5,0.2,0.9,0.4,1.4c0.2,0.5,0.4,0.9,0.8,1.3
							c0.3,0.4,0.7,0.7,1.2,0.9c0.2,0.1,0.4,0.3,0.6,0.4c0.2,0.1,0.4,0.2,0.6,0.3c0.2,0.1,0.4,0.2,0.6,0.3c0.1,0.1,0.3,0.2,0.4,0.2
							c-0.1,0-0.1,0,0,0c0,0,0.1,0,0.1,0c0.1,0,0.1,0.1,0.2,0.1c0.1,0.1,0.2,0.1,0.3,0.2c0.1,0.1-0.1-0.1,0,0c0,0,0,0,0,0
							c0.1,0,0.1,0.1,0.2,0.1c0,0,0.1,0.1,0.1,0.1l0,0c0.1,0.1,0.1,0.1,0,0c0,0,0,0,0.1,0.1c0.1,0.1,0.2,0.2,0.2,0.3c0,0,0,0,0,0
							c0,0,0.1,0.1,0.1,0.1c0,0,0,0,0,0c0,0,0,0,0,0.1c0.1,0.1,0.1,0.2,0.2,0.3c0.1,0.2,0.2,0.4,0.3,0.6c0.2,0.4,0.3,0.9,0.4,1.4
							c0.2,1,0.4,2.1,0.5,3.1c0.1,0.6,0.2,1.2,0.3,1.8c0.1,0.6,0.2,1.2,0.3,1.8c0.2,1.2,0.5,2.4,0.8,3.5c0.1,0.6,0.3,1.1,0.5,1.7
							s0.3,1.2,0.5,1.7c0.2,0.5,0.4,1,0.6,1.5c0,0.1,0.1,0.1,0.1,0.2c0,0,0,0,0,0.1c0,0,0.1,0.1,0,0c0.1,0.1,0.1,0.3,0.2,0.4
							c0.1,0.2,0.2,0.5,0.4,0.7c0.2,0.5,0.5,0.9,0.7,1.4c0.2,0.5,0.5,0.9,0.8,1.4c0.5,0.9,1.1,1.8,1.7,2.6c0.3,0.4,0.7,0.9,1,1.3
							c0.2,0.2,0.4,0.4,0.5,0.6c0.1,0.2,0.3,0.3,0.4,0.5c0.2,0.2,0.4,0.3,0.6,0.4c0.1,0.1,0.3,0.1,0.4,0.2c0.2,0.1,0.3,0.2,0.5,0.2
							c0.2,0,0.4,0.1,0.5,0.1c0.1,0-0.1,0,0,0c0,0,0,0,0.1,0c0,0,0.1,0,0.1,0c0.1,0,0.2,0.1,0.3,0.1c0.4,0.1,0.7,0.2,1.1,0.3
							c0.6,0.1,1.3,0.2,1.9,0.1c0.1,0,0.2,0,0.3-0.1c0.1,0,0.3-0.1,0.3-0.2l-0.1,0.1c0,0,0.1,0,0.1-0.1c0.2-0.2-0.1-0.4-0.3-0.3
							c0,0,0,0,0,0c0,0,0,0,0,0l0.1,0c-0.1,0-0.1,0-0.1,0c0,0,0,0,0,0c0,0,0,0,0,0c-0.1,0-0.1,0-0.2,0c0,0,0,0,0,0c0,0,0,0-0.1,0
							c0,0-0.1,0-0.1,0c-0.1,0-0.2,0-0.2,0c-0.1,0-0.2,0-0.3,0c0,0,0,0-0.1,0c0,0,0,0,0,0c0,0,0,0-0.1,0c0,0-0.1,0-0.1,0
							c0,0-0.1,0,0,0c0.1,0-0.1,0-0.1,0c0.1,0,0,0,0,0c0,0-0.1,0-0.1,0c-0.1,0-0.2,0-0.3-0.1c-0.4-0.1-0.9-0.2-1.3-0.3
							c-0.2-0.1-0.4-0.1-0.6-0.2c-0.1,0,0.1,0,0,0c0,0,0,0-0.1,0c0,0-0.1,0-0.1-0.1c-0.1,0-0.2-0.1-0.3-0.1
							c-0.1-0.1-0.2-0.1-0.4-0.1c0,0-0.1,0-0.1,0c0,0,0,0-0.1,0c0,0,0.1,0,0.1,0c0,0,0,0,0,0c-0.2-0.1-0.3-0.1-0.4-0.2
							c-0.1,0-0.1-0.1-0.2-0.1c0,0-0.1,0-0.1-0.1c0,0,0.1,0,0.1,0c0,0-0.1,0-0.1-0.1c0,0,0.1,0.1,0,0c-0.2-0.2-0.4-0.4-0.6-0.6
							c-0.4-0.5-0.9-1-1.3-1.5c-0.1-0.1-0.1-0.1-0.2-0.2c0,0,0-0.1-0.1-0.1c0,0,0,0,0-0.1c0,0,0,0,0,0c-0.1-0.1-0.2-0.3-0.3-0.4
							c-0.2-0.3-0.4-0.5-0.6-0.8c-0.7-1.1-1.4-2.2-1.9-3.4c-0.3-0.6-0.5-1.1-0.7-1.7c-0.2-0.6-0.4-1.3-0.6-1.9
							c-0.5-1.4-0.9-2.8-1.3-4.2c-0.4-1.4-0.7-2.9-1-4.3c-0.1-0.7-0.3-1.4-0.4-2.1c-0.1-0.7-0.2-1.3-0.3-2c-0.1-0.6-0.2-1.2-0.4-1.7
							c-0.2-0.6-0.4-1.1-0.6-1.7c0,0,0-0.1,0-0.1c0,0.1,0-0.1,0-0.1c0-0.1-0.1-0.1-0.1-0.2c-0.1-0.1-0.2-0.3-0.3-0.4l0.1,0.2
							c-0.1-0.2-0.2-0.4-0.4-0.6c-0.1-0.1-0.2-0.3-0.3-0.4c-0.1-0.1-0.1-0.1-0.2-0.2c0,0-0.1-0.1-0.1-0.1c0,0,0.1,0.1,0,0
							c-0.1-0.1-0.1-0.1-0.2-0.2c-0.1-0.1-0.3-0.2-0.4-0.3c-0.3-0.2-0.6-0.3-1-0.5c0,0-0.1,0-0.1-0.1c0,0-0.1,0-0.1-0.1l-0.1,0
							c0.1,0,0.1,0,0.1,0c-0.1,0-0.2-0.1-0.3-0.1c-0.2-0.1-0.3-0.2-0.5-0.2c-0.1,0-0.1-0.1-0.2-0.1c0,0-0.1-0.1-0.1-0.1l0,0
							l-0.1-0.1c0,0,0,0,0,0c0,0,0,0,0,0c0,0-0.4-0.3-0.4-0.4c-0.1-0.1-0.1-0.1-0.2-0.2c0,0,0,0,0,0c0,0,0.1,0.1,0,0
							c0,0-0.1-0.1-0.1-0.1c-0.1-0.1-0.2-0.3-0.3-0.5c0-0.1-0.1-0.2-0.1-0.2c0,0,0-0.1-0.1-0.1c0,0,0,0,0-0.1c0-0.1,0,0.1,0,0
							c-0.1-0.2-0.1-0.3-0.2-0.5c-0.1-0.3-0.2-0.7-0.3-1c-0.2-0.7-0.3-1.5-0.7-2.2c-0.2-0.4-0.4-0.7-0.6-1c-0.2-0.3-0.5-0.6-0.7-1
							c-0.1-0.2-0.3-0.3-0.4-0.5c0,0.1,0,0,0,0c0,0,0,0,0-0.1c0,0-0.1-0.1-0.1-0.1c-0.1-0.1-0.1-0.2-0.2-0.3
							c-0.2-0.4-0.3-0.7-0.4-1.1c-0.2-0.8-0.1-1.7-0.1-2.5c0.1-0.8,0.1-1.7,0.3-2.5c0.1-0.4,0.2-0.8,0.3-1.3
							c0.1-0.2,0.1-0.4,0.2-0.6c0.1-0.2,0.2-0.4,0.3-0.5c0.1-0.2,0.2-0.3,0.3-0.5L433,100c0.2,0,0.3-0.2,0.4-0.3
							c0.1,0,0.1-0.1,0.2-0.1c0,0,0.1,0,0.1-0.1l0.1-0.1c-0.1,0.1-0.1,0.1,0-0.1c0.2-0.2,0.3-0.4,0.4-0.7c0.3-0.5,0.5-1,0.6-1.6
							c0.1-0.5,0.1-1,0-1.5c-0.1-0.4-0.3-0.9-0.6-1.2c-0.2-0.2-0.3-0.3-0.5-0.5l0,0c-0.1,0-0.1-0.1,0,0c0,0-0.1,0-0.1,0
							c-0.1,0-0.2-0.1-0.2-0.1c-0.1,0-0.2-0.1-0.3-0.1c-0.2,0-0.4,0-0.4,0.2C432.4,94.1,432.5,94.2,432.7,94.3L432.7,94.3z"/>
						<path d="M435.5,91.8C435.5,91.8,435.6,91.7,435.5,91.8C435.5,91.8,435.5,91.8,435.5,91.8c0-0.1,0.1-0.1,0.1-0.2
							c0,0,0-0.1,0.1-0.1c0,0,0.2-0.2,0,0c0.1-0.2,0.3-0.3,0.4-0.4l-0.1,0.1c0.1-0.1,0.2-0.2,0.4-0.2l-0.4,0.1
							c0.3,0,0.5-0.2,0.7-0.3c0.1-0.1,0.3-0.1,0.4-0.2l-0.2,0.1c0.3-0.1,0.6-0.2,0.9-0.2l-0.2,0c0.3,0,0.7,0,1,0l-0.2,0
							c0.4,0.1,0.9,0.1,1.3,0.1l-0.2,0c0.1,0,0.3,0,0.4,0.1c0.2,0,0.4,0.1,0.6,0.1l-0.2,0c0.3,0.1,0.6,0.1,0.9,0.2
							c0.2,0.1,0.5,0.1,0.7,0.2c0.2,0.1,0.5,0.1,0.7,0.2c0.1,0,0.2,0.1,0.3,0.1l0.1,0c-0.1,0-0.1,0,0,0c0,0,0.1,0,0.1,0
							c0.1,0,0.1,0,0.2,0.1c0.1,0,0.2,0.1,0.3,0.1c0.1,0,0.1,0,0.2,0.1c0,0,0,0,0.1,0c0,0,0.1,0.1,0.1,0c0.2,0.1,0.5,0.2,0.7,0.3
							c0.2,0.1,0.4,0.2,0.7,0.3c0.1,0.1,0.2,0.1,0.3,0.2c0.1,0-0.1,0,0,0c0,0,0.1,0,0.1,0.1c0.1,0,0.1,0.1,0.2,0.1
							c0.4,0.3,0.7,0.7,1,1c0,0,0.1,0.1,0.1,0.1c0,0,0,0,0,0.1c-0.1-0.1,0,0,0,0c0.1,0.1,0.2,0.2,0.3,0.3c0.1,0.1-0.1-0.1,0,0
							c0,0,0,0,0,0.1c0,0,0.1,0.1,0.1,0.1c0.1,0.1,0.1,0.2,0.2,0.3c0.6,0.8,1.2,1.6,2.1,2c0.5,0.2,1,0.4,1.5,0.4
							c0.5,0.1,1,0.2,1.4,0.3l-0.1-0.1c0.2,0.1,0.3,0.2,0.5,0.3l-0.1-0.1c0.1,0.1,0.2,0.2,0.3,0.3l-0.1-0.1c0.1,0.2,0.2,0.3,0.3,0.5
							l-0.1-0.2c0.2,0.5,0.3,1.1,0.6,1.6c0.1,0.3,0.3,0.6,0.5,0.9c0.1,0.1,0.2,0.2,0.3,0.3c0,0,0.1,0.1,0.1,0.1c0,0,0,0,0.1,0.1
							c0,0,0.1,0,0.1,0.1c0.1,0.1,0.1,0.1,0,0c0,0,0,0,0,0c0,0.1,0.1,0.1,0.1,0.1c0.1,0.1,0.1,0.1,0.2,0.2c0.1,0.1,0.2,0.2,0.3,0.3
							c0.2,0.2,0.5,0.4,0.7,0.6c0.5,0.3,1,0.6,1.5,0.9c0.1,0.1,0.3,0.1,0.4,0.2c0.1,0.1,0.3,0.2,0.4,0.3c0.3,0.2,0.5,0.3,0.8,0.5
							c0.5,0.3,1.1,0.6,1.6,0.9c0.3,0.1,0.6,0.3,0.8,0.4c0.1,0,0.2,0.1,0.3,0.1c0.1,0,0,0,0,0c0,0,0.1,0,0.1,0.1c0,0,0.1,0,0.1,0
							c0.1,0,0.3,0.1,0.4,0.1c0.6,0.2,1.2,0.3,1.8,0.5c0.6,0.1,1.2,0.2,1.8,0.4c0.1,0,0.3,0.1,0.4,0.2c0,0,0.1,0,0.1,0
							c-0.1,0,0,0,0.1,0c0.1,0,0.1,0.1,0.2,0.1c0.1,0.1,0.3,0.2,0.4,0.2c0,0-0.1,0,0,0c0,0,0,0,0,0c0,0,0.1,0,0.1,0
							c0.1,0,0.1,0.1,0.2,0.1c0.1,0.1,0.2,0.2,0.4,0.2l-0.1-0.1c0.1,0.1,0.1,0.1,0.2,0.2c0,0,0.1,0.1,0.1,0.1c0,0,0,0,0,0
							c0.1,0.1,0,0,0,0c0.1,0.1,0.2,0.3,0.3,0.4c0,0,0,0.1,0.1,0.1c0,0,0,0,0,0.1c0,0,0-0.1,0,0c0,0.1,0.1,0.2,0.1,0.2
							c0,0.1,0,0.1,0,0.2c0,0,0,0.1,0,0.1c0,0.1,0,0.1,0,0.2c0,0.1,0,0.2,0,0.3c0,0,0,0.1,0,0.1c0,0,0,0.1,0,0c0-0.1,0,0,0,0
							c0,0.2-0.1,0.3-0.1,0.5c0,0,0,0.1,0,0.1c0-0.1,0,0,0,0.1c0,0.1-0.1,0.2-0.1,0.2c0,0,0,0.1-0.1,0.1c0,0.1,0-0.1,0,0
							c-0.1,0.1-0.1,0.1-0.2,0.2c-0.3,0.3-0.6,0.6-0.9,0.8l0.3-0.2c-0.1,0-0.2,0.1-0.3,0.2c0,0,0,0.1-0.1,0.1l0.1-0.1
							c-0.2,0.2-0.4,0.3-0.6,0.5l0.2-0.1c-0.3,0.1-0.5,0.3-0.7,0.5c-0.1,0.1-0.3,0.3-0.4,0.4c-0.3,0.3-0.6,0.7-0.8,1
							c-0.2,0.4-0.4,0.8-0.5,1.2c-0.1,0.4-0.2,0.9-0.3,1.4c-0.1,0.4-0.1,0.9-0.1,1.3l0-0.3c0,0.2-0.1,0.4,0,0.6c0,0.1,0,0.2,0,0.3
							c0,0.2,0,0.3,0,0.5c0,0.3,0,0.6,0,0.9c0,0.3,0,0.6,0,0.8c0,0.3,0,0.6-0.1,0.8l0-0.3c0,0.1-0.1,0.2,0,0.4l0-0.3
							c-0.1,0.3-0.1,0.5-0.3,0.8l0.1-0.3c-0.1,0.3-0.3,0.6-0.5,0.8l0.2-0.2c-0.2,0.2-0.3,0.4-0.5,0.5l0.2-0.2
							c-0.3,0.2-0.6,0.4-1,0.6l0.2-0.1c-0.3,0.1-0.6,0.2-0.9,0.3c-0.2,0-0.3,0.1-0.5,0.1c-0.2,0.1-0.4,0.1-0.6,0.2l0.2-0.1
							c-0.3,0.1-0.6,0.2-0.9,0.3s-0.5,0.3-0.8,0.5c-0.3,0.3-0.6,0.6-0.8,1c-0.4,0.8-0.5,1.7-0.6,2.6c0,0.2,0,0.5,0,0.7
							c0,0.3,0.1,0.6,0.1,0.8l0-0.2c0,0.1,0,0.1,0,0.2c0,0.2,0,0.3,0.2,0.5l-0.2-0.4c0,0.4,0,0.7-0.1,1.1c0,0,0,0,0,0.1
							c0,0,0-0.1,0-0.1c0,0,0,0.1,0,0.1c0,0.1,0,0.2,0,0.3c0,0.2-0.1,0.3-0.1,0.5c0,0,0,0.1,0,0.1c0,0,0,0,0,0c0,0.1,0.1-0.1,0,0
							c0,0.1-0.1,0.1-0.1,0.2c0,0.1-0.1,0.1-0.1,0.2c0,0,0,0.1-0.1,0.1c0,0-0.1,0.1,0,0c0,0,0,0,0,0.1c-0.1,0.1-0.2,0.2-0.4,0.4
							c-0.1,0,0,0,0,0l0,0c-0.1,0.1-0.1,0.1,0,0c0,0-0.1,0.1-0.1,0.1c-0.1,0.1-0.2,0.1-0.3,0.1c-0.7,0.4-1.5,0.6-1.9,1.4
							c0,0.1-0.1,0.1-0.1,0.2c0,0,0,0,0,0l0-0.1c0,0,0,0.1-0.1,0.1c0,0.1-0.1,0.2-0.1,0.3c0,0.1,0,0.3,0,0.4c0,0,0,0.2,0,0
							c0,0.1,0,0.2,0,0.3c0,0.2,0.1,0.4,0.1,0.7c0,0.1,0,0.2,0,0.3c0,0,0,0.1,0,0.1c0,0.1,0,0,0-0.1c0,0,0,0.1,0,0.1
							c0,0,0,0.1,0,0.1c0,0.1,0-0.1,0,0c0,0,0,0,0,0.1c0,0,0,0,0,0.1c0,0,0,0,0,0c0,0-0.1,0.1-0.1,0.1c0,0-0.1,0,0,0c0,0,0,0,0,0
							c0,0-0.1,0-0.1,0.1c0,0-0.1,0-0.1,0c0.1-0.1,0.1,0,0,0c-0.1,0-0.1,0-0.2,0.1c-0.4,0.1-0.8,0.2-1.2,0.3c-0.4,0.2-0.8,0.4-1,0.7
							s-0.5,0.7-0.6,1.1c-0.5,1.7,0.1,3.5,1,5c0.1,0.2,0.2,0.4,0.4,0.6c0.1,0.1,0.1,0.2,0.2,0.3c0,0,0.1,0.1,0.1,0.1
							c0,0,0.1,0.2,0.1,0.1c0,0,0,0,0,0c0,0,0.1,0.1,0.1,0.1c0.3,0.3,0.6,0.7,0.9,1c0.3,0.3,0.7,0.6,1.1,0.9
							c0.4,0.3,0.7,0.5,1.1,0.7c0.2,0.1,0.4,0.2,0.6,0.3c0.2,0.1,0.5,0.1,0.6-0.2c0.1-0.2,0.1-0.5-0.2-0.6c-0.1,0-0.1,0-0.2-0.1
							c0.1,0,0.1,0,0,0c-0.1,0-0.1,0-0.2-0.1c-0.1,0-0.2-0.1-0.3-0.1c-0.2-0.1-0.4-0.2-0.6-0.3c-0.1-0.1-0.2-0.1-0.3-0.2
							c0,0-0.1-0.1-0.1-0.1c0,0,0,0-0.1,0c0,0,0,0,0,0c0,0-0.1-0.1-0.1-0.1c0.1,0.1,0,0-0.1,0c0,0-0.1-0.1-0.1-0.1
							c-0.1-0.1-0.2-0.1-0.3-0.2c-0.3-0.3-0.6-0.6-0.9-0.9c-0.1-0.1-0.1-0.2-0.2-0.2c0,0-0.1-0.1-0.1-0.1c0,0,0.1,0.1,0,0
							c0,0-0.1-0.1-0.1-0.1c-0.1-0.2-0.3-0.4-0.4-0.5c-0.2-0.4-0.4-0.8-0.6-1.2c0,0,0-0.1-0.1-0.1c0,0,0,0,0-0.1c0-0.1,0,0.1,0,0
							c0-0.1-0.1-0.2-0.1-0.3c-0.1-0.2-0.1-0.4-0.2-0.6c-0.1-0.2-0.1-0.4-0.1-0.6c0-0.1,0-0.2,0-0.3c0,0.2,0,0,0,0c0,0,0-0.1,0-0.1
							c0-0.2,0-0.4,0-0.6c0-0.1,0-0.2,0-0.3c0,0,0-0.2,0,0c0-0.1,0-0.1,0-0.2c0-0.2,0.1-0.4,0.1-0.5c0,0,0-0.1,0-0.1
							c0-0.1,0,0.1,0,0c0,0,0,0,0-0.1c0-0.1,0.1-0.2,0.1-0.2c0,0,0-0.1,0.1-0.1c0,0,0.1-0.1,0,0c0.1-0.1,0.1-0.1,0.2-0.2
							c0,0,0.1-0.1,0.1-0.1c0,0,0,0,0.1,0c0.1,0,0,0,0,0c0.1,0,0.1-0.1,0.2-0.1c0,0,0.1,0,0.1-0.1c0,0,0.1,0,0,0c0,0,0,0,0.1,0
							c0.1,0,0.2-0.1,0.3-0.1c0.2-0.1,0.4-0.1,0.6-0.1c0.5-0.1,0.9-0.3,1.2-0.8c0.3-0.4,0.3-0.9,0.2-1.4c0-0.2-0.1-0.4-0.1-0.6
							c0-0.1,0-0.1,0-0.2l-0.1-0.1l0,0.1l0,0c0-0.1,0,0,0,0c0,0,0-0.1,0-0.1c0-0.1,0-0.2,0-0.3c0,0,0-0.1,0-0.1c0,0,0,0.1,0,0
							c0,0,0,0,0-0.1l0,0c0,0,0,0,0,0c0,0,0-0.1,0.1-0.1c0,0,0.1-0.1,0.1-0.1c0,0,0,0,0,0c0,0,0,0,0-0.1c0,0,0.1-0.1,0.1-0.1
							c0,0,0.1-0.1,0.1-0.1c0,0,0,0,0,0c-0.1,0-0.1,0,0,0c0,0,0,0,0,0c0.3-0.2,0.7-0.4,1-0.5c0.4-0.2,0.7-0.4,1-0.6
							c0.3-0.2,0.5-0.5,0.7-0.8c0.4-0.6,0.5-1.4,0.6-2.1c0-0.2,0-0.3,0-0.5l-0.2,0.4c0.2-0.2,0.2-0.5,0.3-0.8c0-0.1,0.1-0.3,0.1-0.5
							c0-0.1,0-0.2,0-0.3c0-0.4,0-0.8,0.1-1.2l0,0.2c0.1-0.4,0.1-0.8,0.3-1.2l-0.1,0.2c0.1-0.2,0.2-0.4,0.4-0.6l-0.1,0.1
							c0.1-0.2,0.3-0.3,0.4-0.4l-0.1,0.1c0.2-0.1,0.4-0.2,0.6-0.3l-0.2,0.1c0.2-0.1,0.5-0.2,0.7-0.2h-0.4c0.1,0,0.2,0,0.3,0
							c0,0,0.1,0,0.1,0c0.1,0,0.2,0,0.3,0c0.2,0,0.4,0,0.6,0c0.5,0,0.9-0.1,1.4-0.2c0.3-0.1,0.5-0.2,0.7-0.3
							c0.2-0.1,0.4-0.3,0.6-0.5c0.3-0.3,0.6-0.6,0.8-1c0.2-0.4,0.4-0.9,0.6-1.3l-0.1,0.3c0.1-0.1,0.1-0.2,0.1-0.3c0,0,0-0.1,0-0.1
							c0-0.1,0.1-0.2,0.1-0.2c0.1-0.3,0.1-0.5,0.2-0.8l0,0.3c0.1-0.5,0.1-1,0.1-1.6c0-0.3,0-0.5,0-0.8c0-0.4,0-0.7-0.1-1.1l0,0.3
							c-0.1-0.7-0.1-1.5,0-2.2l0,0.3c0.1-0.4,0.2-0.8,0.3-1.2l-0.1,0.2c0.2-0.5,0.5-0.9,0.8-1.3l-0.1,0.2c0.1-0.1,0.1-0.2,0.2-0.3
							c0.2-0.2,0.3-0.3,0.4-0.6l-0.1,0.2c0.1-0.2,0.3-0.4,0.4-0.6l-0.1,0.1c0.1-0.1,0.2-0.2,0.3-0.4l-0.1,0.2c0.2-0.3,0.4-0.6,0.6-1
							c0-0.1,0.1-0.2,0.1-0.3c0-0.1,0.1-0.1,0.1-0.2c0,0,0,0,0-0.1c0,0,0,0,0,0l0,0c0,0,0.1-0.3,0.1-0.1c0-0.1,0.1-0.1,0.1-0.2
							c0-0.1,0.1-0.2,0.1-0.3c0.2-0.8,0.2-1.6-0.2-2.3c-0.2-0.4-0.5-0.7-0.8-0.9l0.1,0.1c-0.1-0.2-0.3-0.4-0.5-0.6
							c-0.1-0.1-0.2-0.2-0.3-0.2c-0.1-0.1-0.2-0.1-0.3-0.2c-0.5-0.2-1-0.4-1.5-0.5c-1-0.2-2-0.5-2.9-0.8c-0.2-0.1-0.5-0.2-0.7-0.2
							c-0.2-0.1-0.5-0.1-0.7-0.2c-0.2-0.1-0.5-0.2-0.7-0.3c-0.1,0-0.2-0.1-0.3-0.1c-0.1,0-0.1,0-0.2-0.1c0,0-0.1,0-0.1,0
							c0.1,0,0,0,0,0c-0.1,0-0.2-0.1-0.3-0.1c-0.1,0-0.1-0.1-0.2-0.1c-0.2-0.1-0.1,0-0.1,0c0,0-0.1,0-0.1-0.1
							c-0.2-0.1-0.5-0.2-0.7-0.3c-0.2-0.1-0.4-0.2-0.6-0.3c-0.2-0.1-0.4-0.3-0.6-0.4c-0.4-0.3-0.8-0.6-1.2-1
							c-0.2-0.2-0.4-0.4-0.5-0.6c-0.1-0.1-0.2-0.2-0.2-0.3c0,0,0,0-0.1-0.1c0,0,0,0,0,0c0,0,0,0,0-0.1c-0.1-0.1-0.1-0.2-0.2-0.2
							l0.1,0.2c0-0.2-0.2-0.3-0.2-0.5c-0.1-0.1-0.1-0.3-0.2-0.4c-0.1-0.1-0.1-0.2-0.2-0.4s-0.1-0.3-0.2-0.4l0.1,0.2
							c-0.3-0.6-0.4-1.4-0.8-2c-0.2-0.3-0.5-0.6-0.8-0.8c-0.3-0.2-0.6-0.3-0.9-0.3c-0.4-0.1-0.8-0.1-1.1-0.2l0.2,0
							c-0.1,0-0.3,0-0.4-0.1l0.2,0c-0.3,0-0.6-0.1-0.9-0.2c-0.1,0-0.1,0-0.2-0.1c-0.1,0,0,0,0,0c0,0,0,0-0.1,0c0,0-0.1,0-0.1-0.1
							c-0.1-0.1-0.3-0.1-0.4-0.2c-0.1,0-0.1-0.1-0.2-0.1c0,0,0.1,0.1,0,0c0,0,0,0,0,0c0,0-0.1-0.1-0.1-0.1c-0.1-0.1-0.2-0.2-0.3-0.3
							c-0.2-0.2-0.4-0.5-0.6-0.7c-0.4-0.5-0.8-1-1.3-1.4c-0.3-0.2-0.6-0.5-0.9-0.7c-0.1-0.1-0.3-0.2-0.4-0.3
							c-0.1-0.1-0.3-0.2-0.4-0.3c-0.7-0.4-1.4-0.8-2.1-1.1l0.2,0.1c-0.2-0.2-0.4-0.3-0.7-0.4c-0.2-0.1-0.4-0.2-0.6-0.3
							c-0.2-0.1-0.4-0.2-0.6-0.3c-0.3-0.1-0.6-0.3-0.9-0.4l0.2,0.1c-0.2-0.1-0.4-0.2-0.6-0.3c-0.2-0.1-0.3-0.1-0.5-0.2
							c-0.4-0.1-0.8-0.2-1.2-0.2c-0.4,0-0.8,0-1.2,0.1c-0.3,0.1-0.6,0.2-0.9,0.3c-0.1,0.1-0.3,0.1-0.4,0.2c-0.3,0.2-0.6,0.4-0.7,0.7
							l0.2-0.4c-0.5,0.6-0.8,1.2-0.8,2c0,0.3,0.2,0.5,0.4,0.5C435.2,92.2,435.4,92.1,435.5,91.8L435.5,91.8z"/>
						<path d="M433.7,80.6c0.2,0,0.4,0.1,0.5,0.2c0.2,0.1,0.3,0.2,0.4,0.4c0.3,0.3,0.5,0.6,0.8,0.9c0.3,0.3,0.6,0.5,1,0.5
							c0.3,0,0.7-0.1,1-0.4c0.3-0.3,0.3-0.7,0.1-1.1c-0.2-0.4-0.6-0.7-0.9-0.9c-0.4-0.3-0.7-0.5-1.2-0.7c-0.4-0.2-0.8-0.4-1.2-0.4
							c-0.5-0.1-1,0.1-1.1,0.5c-0.1,0.4,0.1,0.9,0.5,0.9c0.1,0,0.2-0.1,0.2-0.2c0-0.1-0.1-0.2-0.2-0.3c0.1,0,0,0,0,0c0,0,0,0,0,0
							c0,0,0,0.1,0,0c0,0,0,0,0-0.1c0,0,0,0,0,0c0,0,0,0,0,0c0,0,0,0,0,0c0,0,0,0.1,0,0c0,0,0,0,0-0.1c0-0.1,0,0,0,0c0,0,0-0.1,0,0
							c0,0,0,0,0-0.1c0,0,0,0,0,0c0,0,0,0,0,0c0,0,0,0,0,0c0,0,0,0,0.1,0c0,0,0.1,0,0.1,0c0.1,0,0.3,0,0.4,0c0.4,0.1,0.7,0.2,1,0.4
							c0.3,0.2,0.7,0.4,1,0.6c0.3,0.2,0.6,0.4,0.7,0.7c0.1,0.1,0.1,0.3,0.1,0.4c0,0.1,0,0.1-0.1,0.1c0,0,0,0,0,0c0,0,0,0,0,0
							c0,0-0.1,0.1,0,0c0,0-0.1,0-0.1,0.1c0,0-0.1,0-0.1,0c-0.1,0-0.1,0-0.2,0.1c0,0-0.1,0-0.1,0c0,0-0.1,0-0.1,0c0,0-0.1,0-0.1,0
							c0,0,0,0-0.1,0c0,0,0.1,0,0,0c-0.3-0.1-0.5-0.2-0.8-0.5c-0.3-0.3-0.5-0.6-0.8-0.8c-0.2-0.1-0.3-0.3-0.5-0.3
							c-0.2-0.1-0.4-0.1-0.6-0.1C433.7,80.4,433.6,80.6,433.7,80.6L433.7,80.6z"/>
						<path d="M438.7,82.6c-0.5,0.5-0.4,1.3,0,1.9c0.5,0.6,1.3,0.6,1.9,0.2c0.3-0.2,0.6-0.5,0.7-0.9c0.1-0.4,0.1-0.8-0.1-1.1
							c-0.4-0.7-1.2-1.1-2-0.9c-0.4,0.1-0.8,0.4-1,0.8c-0.1,0.2-0.2,0.4-0.3,0.6c0,0.2,0,0.4,0,0.7c0,0.2,0.3,0.1,0.3,0
							c0-0.3,0.1-0.6,0.3-0.8c0.1-0.3,0.4-0.5,0.6-0.6c0.5-0.3,1.2-0.1,1.5,0.4c0.4,0.5,0.3,1.1-0.1,1.5c-0.1,0.1-0.2,0.2-0.3,0.2
							c-0.1,0.1-0.3,0.1-0.4,0.1c-0.3,0-0.5-0.1-0.7-0.2c0,0,0,0-0.1-0.1c0,0,0,0,0,0c0,0,0-0.1,0,0c0,0-0.1-0.1-0.1-0.2
							c-0.1-0.1-0.1-0.2-0.1-0.4c0-0.1,0-0.3,0-0.4c0-0.1,0.1-0.3,0.1-0.4C439.1,82.7,438.9,82.5,438.7,82.6L438.7,82.6z"/>
						<path d="M492.7,72.7c-0.2,0-0.4-0.1-0.7-0.1l0.3,0.1c-0.2-0.1-0.4-0.1-0.5-0.1c-0.1,0-0.1,0-0.2,0.1c-0.1,0-0.2,0.1-0.3,0.1
							c-0.3,0.1-0.5,0.2-0.8,0.4c-0.5,0.3-0.9,0.6-1.3,1c-0.2,0.3-0.5,0.5-0.7,0.8l0.1-0.2c-0.3,0.3-0.6,0.7-0.8,1.1
							c-0.3,0.4-0.5,0.8-0.7,1.2l0.1-0.3c-0.3,0.7-0.6,1.5-0.9,2.2l0.1-0.3c-0.1,0.2-0.1,0.3-0.2,0.5c0,0.1,0,0.2-0.1,0.2
							c0,0.2-0.1,0.3-0.1,0.5c-0.1,0.3-0.1,0.7-0.2,1c-0.1,0.7-0.2,1.3-0.3,2c-0.1,0.5-0.1,1-0.2,1.4l0.1-0.4
							c-0.2,1.1-0.3,2.3-0.2,3.4c0.1,0.6,0.2,1.2,0.4,1.8c0.1,0.3,0.3,0.7,0.4,1c0.1,0.3,0.4,0.6,0.6,0.8c0.2,0.2,0.3,0.4,0.5,0.6
							c0.2,0.3,0.5,0.5,0.8,0.7l-0.3-0.2c0.2,0.2,0.4,0.4,0.7,0.6c0.2,0.2,0.5,0.4,0.7,0.6c0.2,0.2,0.5,0.4,0.7,0.6
							c0.1,0.1,0.2,0.2,0.4,0.3c0.1,0,0.1,0.1,0.2,0.1c0.1,0.1,0.2,0.2,0.4,0.3l-0.2-0.2c0.2,0.2,0.5,0.4,0.8,0.6
							c0.1,0.1,0.2,0.1,0.3,0.2c0.1,0.1,0.2,0.2,0.3,0.2l-0.2-0.1c0.6,0.5,1.3,1,2,1.4c0.4,0.2,0.8,0.4,1.2,0.5
							c0.4,0.1,0.9,0.3,1.3,0.3l-0.2,0c0.4,0.1,0.7,0.1,1.1,0.2c0.3,0,0.6,0,0.9,0.1c0.3,0,0.6,0,0.9,0c0.4,0,0.7-0.1,1.1-0.1
							l-0.2,0c0.5-0.1,1.1-0.2,1.6-0.3c0.5-0.1,1.1-0.2,1.6-0.5l-0.2,0.1c0.1,0,0.3-0.1,0.4-0.2c0.1,0,0.1,0,0.2-0.1
							c0.1,0,0.1-0.1,0.2-0.1c-0.2,0.1,0,0,0,0c0.1,0,0.2-0.1,0.4-0.1c0.1,0,0.2-0.1,0.3-0.1c-0.2,0.1,0.2-0.1,0.1,0c0.1,0,0,0,0,0
							c0,0,0,0,0.1,0c0.3-0.1,0.5-0.2,0.8-0.3c0.1,0,0.1,0,0.2-0.1c0.1,0,0.2-0.1,0.3-0.1c-0.1,0.1,0,0,0,0c0,0,0.1,0,0.1,0
							c0.1,0,0.1,0,0.2-0.1c0.1,0,0.1,0,0.2,0c0,0,0,0,0.1,0c0.1,0-0.1,0,0,0c0.1,0,0.3,0,0.4,0c0.1,0,0.2,0,0.4,0
							c0.1,0,0.1,0,0.2,0c0,0,0.1,0,0.1,0c0.1,0-0.1,0,0,0c0.3,0,0.5,0.1,0.8,0.2c0.1,0,0,0,0,0c0,0,0.1,0,0.1,0
							c0.1,0,0.1,0.1,0.2,0.1c0.1,0.1,0.2,0.1,0.3,0.2c0.1,0.1-0.1-0.1,0,0c0,0,0,0,0,0c0,0,0.1,0.1,0.1,0.1
							c0.1,0.1,0.2,0.2,0.2,0.3c0,0,0,0,0.1,0.1c0,0,0.1,0.1,0,0c0-0.1,0,0,0,0c0,0,0,0,0.1,0.1c0.1,0.1,0.1,0.2,0.2,0.3
							c0.1,0.1,0.1,0.2,0.2,0.3c0,0.1,0.1,0.1,0.1,0.2l0,0c0,0,0,0,0,0c0,0,0,0.1,0,0.1c0.1,0.2,0.2,0.4,0.2,0.7
							c0.1,0.2,0.1,0.5,0.2,0.7c0,0,0,0.1,0,0.1l0-0.1c0,0,0,0,0,0.1c0,0,0,0.1,0,0.1c0,0.1,0,0.3,0,0.4c0,0.6,0.1,1.1,0.1,1.7
							c0.1,0.6,0.2,1.2,0.3,1.8c0.2,0.5,0.4,1,0.7,1.5c0.1,0.2,0.3,0.4,0.4,0.6c0.1,0.1,0.1,0.2,0.2,0.2c0,0,0.1,0.1,0,0
							c0,0,0,0.1,0.1,0.1c0.1,0.1,0.2,0.2,0.2,0.3c0.3,0.4,0.6,0.8,0.9,1.2c0.1,0.2,0.3,0.4,0.4,0.7c0,0,0,0.1,0.1,0.1
							c0,0,0,0.1,0,0.1l0-0.1c0,0,0,0,0,0.1c0.1,0.1,0.1,0.3,0.1,0.4c0,0.1,0.1,0.3,0.1,0.4c0,0.1,0,0.1,0,0.2c0,0,0,0,0,0.1
							c0,0,0,0.2,0,0c0,0.3,0,0.5,0,0.8c0,0.3,0,0.5-0.1,0.8c0,0,0,0.1,0,0c0,0,0,0.1,0,0.1c0,0.1,0,0.1,0,0.2
							c0,0.2-0.1,0.3-0.1,0.5c-0.1,0.6-0.3,1.1-0.5,1.7c-0.2,0.5-0.4,1.1-0.6,1.6c-0.2,0.5-0.4,0.9-0.5,1.4
							c-0.1,0.4-0.3,0.9-0.3,1.3c0,0.1,0,0.2-0.1,0.3c0,0.1,0,0.1,0,0.2c0,0,0,0,0,0.1c0,0.2,0,0.2,0,0.1c0,0,0,0,0,0.1
							c0,0.3-0.1,0.5-0.1,0.8c0,0.2,0,0.4,0,0.7l0-0.2c0,0.2,0,0.5,0,0.7c0,0.2,0,0.4,0,0.6c0.1,0.4,0.1,0.8,0.3,1.2l0-0.2
							c0,0.2,0,0.3,0.1,0.5c0,0,0,0.1,0.1,0.1c0,0.1,0.1,0.1,0.1,0.2c0.1,0.2,0.2,0.3,0.4,0.5c0.1,0.2,0.3,0.2,0.5,0.3
							c0.2,0.1,0.4,0.2,0.7,0.2l-0.4-0.2l0,0c0.1,0.1,0.2,0.2,0.4,0.2c0.1,0,0.3-0.1,0.4-0.2c0.2-0.2,0.3-0.6,0-0.8l0,0l0.1,0.3
							c-0.1-0.2-0.2-0.3-0.2-0.5l0.1,0.2c0-0.1-0.1-0.1-0.1-0.2c-0.1-0.2-0.1-0.3-0.2-0.4c0,0-0.1-0.1-0.1-0.1l0.1,0.2
							c-0.1-0.1-0.1-0.2-0.2-0.3c-0.1-0.1-0.2-0.3-0.3-0.4l0.1,0.2c-0.2-0.2-0.3-0.5-0.4-0.7l0.1,0.2c-0.2-0.4-0.3-0.8-0.3-1.2
							l0,0.2c0-0.1,0-0.2,0-0.3l0,0.2c-0.1-0.5-0.1-1,0-1.5c0-0.1,0-0.1,0-0.2c0,0,0,0,0,0c0,0,0,0.1,0,0.1c0,0,0-0.1,0-0.1
							c0-0.1,0-0.2,0.1-0.4c0-0.2,0.1-0.5,0.2-0.7c0.3-1.1,0.7-2.2,1.1-3.2c0.4-1.2,0.8-2.4,0.8-3.7c0-0.6-0.1-1.3-0.3-1.9
							c-0.2-0.5-0.4-1.1-0.8-1.5c-0.3-0.5-0.6-0.9-1-1.3c-0.3-0.4-0.6-0.9-0.9-1.4c-0.1-0.1-0.1-0.3-0.2-0.4c0,0,0,0,0,0
							c0,0,0,0.1,0,0.1c0,0,0-0.1,0-0.1c0-0.1-0.1-0.1-0.1-0.2c-0.1-0.3-0.2-0.6-0.3-0.9c0-0.2-0.1-0.3-0.1-0.5c0-0.1,0-0.1,0-0.2
							c0,0,0-0.1,0-0.1c0,0.1,0,0,0,0c0,0,0,0,0-0.1c0-0.3-0.1-0.6-0.1-0.9c0,0,0-0.1,0-0.1c0-0.2,0,0,0,0c0,0,0-0.1,0-0.1
							c0-0.1,0-0.2,0-0.2c0-0.2,0-0.4-0.1-0.6c0-0.3-0.1-0.5-0.1-0.8c-0.1-0.5-0.3-1.1-0.5-1.6c-0.4-1-1.2-1.9-2.3-2.2
							c-0.6-0.2-1.2-0.2-1.8-0.1c-0.1,0-0.1,0-0.2,0c0,0,0,0-0.1,0c0,0,0.1,0,0,0c-0.1,0-0.1,0-0.2,0c-0.1,0-0.3,0.1-0.4,0.1
							c0,0,0,0-0.1,0c0,0,0,0,0,0l0,0l-0.1,0c0,0,0,0-0.1,0c-0.1,0-0.2,0-0.2,0c-0.1,0-0.3,0.1-0.4,0.1c-0.6,0.1-1.2,0.3-1.7,0.5
							c-0.3,0.1-0.6,0.1-0.9,0.2c-0.3,0.1-0.6,0.1-0.9,0.2c-0.3,0.1-0.6,0.1-0.9,0.1l0.2,0c-1,0.1-2,0.1-2.9,0l0.2,0
							c-0.4,0-0.7-0.1-1.1-0.2c-0.4-0.1-0.7-0.2-1-0.4l0.2,0.1c-0.4-0.2-0.9-0.4-1.3-0.6c-0.4-0.2-0.8-0.5-1.2-0.8l0.2,0.1
							c-0.1-0.1-0.3-0.2-0.4-0.3c-0.1-0.1-0.2-0.2-0.4-0.4c-0.2-0.2-0.5-0.5-0.7-0.7l0.2,0.2c-0.1-0.2-0.3-0.4-0.4-0.5
							c-0.1-0.1-0.2-0.2-0.3-0.3c-0.2-0.2-0.4-0.5-0.6-0.7s-0.4-0.4-0.6-0.7c-0.2-0.2-0.4-0.5-0.6-0.7l0.2,0.3
							c-0.1-0.1-0.2-0.3-0.3-0.4c-0.1-0.1-0.2-0.3-0.3-0.4c-0.2-0.3-0.3-0.6-0.4-0.9l0.2,0.4c-0.1-0.2-0.2-0.4-0.3-0.6
							c-0.1-0.1-0.1-0.2-0.1-0.3l0.2,0.4c-0.2-0.5-0.4-1.1-0.4-1.7l0.1,0.4c0-0.2-0.1-0.4-0.1-0.7l0.1,0.4c-0.2-1.4,0-2.9,0.1-4.3
							c0-0.4,0.1-0.8,0.1-1.3l0,0.4c0.1-0.5,0.1-0.9,0.2-1.4l0,0.4c0-0.2,0.1-0.4,0.1-0.7c0.1-0.3,0.1-0.6,0.1-0.9l0,0.3
							c0.1-0.4,0.1-0.8,0.2-1.1c0-0.2,0.1-0.4,0.1-0.5c0-0.1,0-0.2,0.1-0.3c0,0,0-0.1,0-0.1c0-0.1,0-0.2,0.1-0.4l0,0.3
							c0.1-0.4,0.2-0.8,0.4-1.1l-0.1,0.2c0.1-0.3,0.2-0.6,0.4-0.8c0.2-0.3,0.3-0.5,0.5-0.7l-0.1,0.2c0.1-0.1,0.2-0.2,0.2-0.3
							c0.1-0.1,0.3-0.3,0.3-0.4l-0.1,0.2c0.1-0.2,0.3-0.3,0.5-0.5l-0.1,0.1c0.1-0.1,0.3-0.2,0.4-0.3l-0.1,0.1c0.1,0,0.1-0.1,0.2-0.1
							c0.1-0.1,0.2-0.1,0.3-0.2l-0.1,0.1c0.1-0.1,0.2-0.2,0.4-0.2c0,0,0.1-0.1,0.2-0.1l-0.1,0c0.1,0,0.1,0,0.2-0.1
							c0.2-0.1,0.2-0.2,0.3-0.4l-0.1,0.2c0,0,0,0,0.1,0c0,0,0.1-0.1,0,0c-0.1,0.1,0,0,0,0c0,0,0,0,0.1,0c0.1-0.1,0.2-0.1,0.2-0.2
							c0.1-0.1,0.2-0.2,0.2-0.3C492.9,72.9,492.8,72.7,492.7,72.7L492.7,72.7z"/>
						<path d="M513.6,124.1c-0.1,0.6-0.1,1.2-0.2,1.8c0,0.3,0,0.6,0,0.9c0,0.3,0,0.6,0,0.9c0,1.2-0.1,2.3-0.1,3.5c0,0.3,0,0.5,0,0.8
							c0,0.2,0,0.5,0.1,0.7c0.1,0.4,0.2,0.9,0.4,1.3c0.1,0.2,0.2,0.4,0.4,0.5c0.1,0.1,0.2,0.2,0.3,0.2c0,0,0.1,0.1,0.1,0.1
							c0,0,0,0,0.1,0c0,0,0.1,0,0.1,0.1c-0.1,0,0,0,0,0c0.5,0.2,0.9,0.2,1.4,0.2c0.5,0,1-0.2,1.5-0.3c0.4-0.1,0.9-0.2,1.3-0.4
							c0.9-0.3,1.8-0.7,2.6-1.2c0.4-0.3,0.8-0.6,1.1-1c0.2-0.2,0.3-0.4,0.5-0.7s0.2-0.5,0.3-0.8c0-0.1,0.1-0.2,0.1-0.3
							c0,0,0,0,0-0.1l0,0c-0.1,0.1,0,0.1,0-0.1c0-0.1,0-0.1,0.1-0.2c0.1-0.2,0.2-0.4,0.2-0.6c0-0.1,0.1-0.2,0.1-0.3c0,0,0,0.1,0,0
							c0,0,0-0.1,0-0.1c0-0.1,0.1-0.1,0.1-0.2c0.1-0.2,0.2-0.4,0.3-0.6c0,0,0.1-0.1,0.1-0.1c-0.1,0.1,0,0,0,0c0,0,0,0,0,0
							c0.1-0.1,0.2-0.2,0.3-0.3c0.1-0.1,0.2-0.2,0.3-0.2c0,0,0,0,0.1,0c-0.1,0,0,0,0,0c0.1,0,0.1-0.1,0.2-0.1
							c0.4-0.3,0.8-0.5,1.2-0.8c0.8-0.5,1.5-1.4,1.5-2.3c0-0.1,0-0.2,0-0.3c0-0.1-0.1-0.2-0.1-0.3c-0.1-0.1-0.3-0.1-0.3,0.1
							c0,0.2,0,0.3,0,0.5c0,0.1,0,0.3-0.1,0.4c-0.1,0.3-0.3,0.6-0.5,0.8c-0.4,0.5-1,0.8-1.6,1.1c-0.6,0.3-1.2,0.7-1.7,1.2
							c0,0.1-0.1,0.1-0.1,0.2c0,0.1-0.1,0.1-0.1,0.2c0,0,0.1-0.1,0,0c0,0-0.1,0.1-0.1,0.1c-0.1,0.1-0.2,0.3-0.3,0.4
							c-0.2,0.3-0.3,0.6-0.5,0.8c-0.4,0.6-0.8,1.3-1.2,1.8l0.1-0.1c-0.3,0.4-0.7,0.7-1,1l0.1-0.1c-0.4,0.3-0.9,0.6-1.3,0.8
							c-0.5,0.2-0.9,0.5-1.4,0.7c-0.1,0.1-0.2,0.1-0.3,0.2c0,0-0.1,0-0.1,0.1c0,0-0.1,0-0.1,0c0.1,0,0.1,0-0.1,0c0.1,0,0.1,0,0,0
							c-0.2,0.1-0.5,0.2-0.7,0.3c-0.2,0.1-0.5,0.2-0.8,0.2c-0.1,0,0.1,0,0,0c0,0-0.1,0-0.1,0c-0.1,0-0.1,0-0.2,0c-0.1,0-0.1,0-0.2,0
							c0,0-0.1,0,0,0c0,0-0.1,0-0.1,0c-0.1,0-0.1,0-0.2,0c0,0-0.1,0-0.1,0c0,0-0.1-0.1,0,0c-0.1,0-0.1-0.1-0.2-0.1
							c0,0-0.1,0-0.1-0.1c0.1,0.1,0,0,0,0c0,0-0.1-0.1-0.1-0.1c0,0,0,0-0.1-0.1l0,0c0,0,0,0,0,0c0,0-0.1-0.1-0.1-0.1
							c0-0.1-0.1-0.1-0.1-0.2c0-0.1,0,0.1,0,0c0,0,0,0,0-0.1c0,0,0-0.1,0-0.1c0-0.1-0.1-0.2-0.1-0.4c0-0.1,0,0.1,0,0
							c0,0,0-0.1,0-0.1c0,0,0-0.1,0-0.1c0-0.1,0-0.3,0-0.4c0-0.6,0-1.2,0-1.7c0-0.7,0-1.3,0-2c0-0.7,0-1.5,0-2.2
							c0-0.4,0-0.8-0.1-1.1c0-0.4-0.1-0.8-0.1-1.2C514,123.8,513.6,123.8,513.6,124.1L513.6,124.1z"/>
						<path d="M527.6,122.7c0.3-0.3,0.7-0.7,1-1c0.2-0.2,0.3-0.3,0.5-0.5c0.1-0.1,0.2-0.1,0.3-0.2c0,0,0.1-0.1,0.1-0.1
							c0.1,0,0,0,0.1-0.1c0.1-0.1,0.2-0.2,0.3-0.3c0.1-0.1,0.2-0.2,0.3-0.3c0.2-0.2,0.3-0.3,0.5-0.5c0,0,0.1-0.1,0.1-0.1l0,0
							c-0.1,0.1,0,0,0.1-0.1l0.1-0.1c-0.1,0.1-0.1,0.1,0,0c0,0,0,0,0-0.1c0.1-0.1,0.2-0.2,0.2-0.3c0.2-0.2,0.4-0.5,0.5-0.7
							c0.6-0.8,1-1.7,1.3-2.7c0.3-1,0.5-2.1,0.5-3.2c0-1.3-0.1-2.5,0.1-3.8l0,0.2c0.1-0.9,0.4-1.8,0.8-2.6l-0.1,0.2c0.4-1,1-2,1.5-3
							c0.6-1,1-2.1,1.4-3.2c0.4-1.1,0.7-2.2,1-3.3c0.3-1.2,0.5-2.3,0.6-3.5c0.1-0.6,0.1-1.2,0.1-1.8c0-0.3-0.1-0.6-0.2-1
							c-0.1-0.4-0.3-0.8-0.6-1l0.2,0.2l0,0c-0.1-0.2-0.5-0.3-0.7-0.2c-0.2,0.1-0.3,0.5-0.2,0.7l0,0l-0.1-0.3c0,0.2,0.1,0.5,0.2,0.7
							c0.1,0.2,0.1,0.4,0.1,0.6l0-0.2c0.1,0.5,0,1,0,1.5l0-0.2c-0.1,0.5-0.2,1-0.2,1.5c-0.1,0.5-0.2,1-0.3,1.5c-0.2,1-0.5,2-0.9,3
							c-0.2,0.6-0.4,1.1-0.6,1.7l0.1-0.2c-0.4,0.9-0.8,1.7-1.2,2.5c-0.4,0.8-0.8,1.6-1.2,2.4c-0.4,0.8-0.8,1.7-1,2.7
							c-0.2,1-0.3,2-0.3,3c0,1.1,0.1,2.2-0.1,3.3l0-0.2c-0.1,0.8-0.3,1.6-0.6,2.3l0.1-0.2c-0.4,0.9-0.9,1.8-1.4,2.6
							c0,0-0.1,0.1-0.1,0.1l0,0c-0.1,0.2-0.1,0.2,0,0.1c0,0,0,0,0,0.1c-0.1,0.1-0.1,0.2-0.2,0.4c-0.1,0.2-0.3,0.4-0.4,0.6
							c-0.1,0.1,0.1-0.1,0,0c0,0-0.1,0.2-0.1,0.1c0,0.1-0.1,0.1-0.1,0.2c-0.1,0.1-0.1,0.2-0.2,0.3c-0.1,0.1-0.1,0.2-0.2,0.3
							c-0.1,0.1-0.2,0.2-0.2,0.3c-0.4,0.4-0.7,0.9-1.1,1.3C527.4,122.7,527.5,122.8,527.6,122.7L527.6,122.7z"/>
						<path d="M538,90c-0.6-0.2-1.2,0.1-1.7,0.3c-0.1,0-0.2,0.1-0.4,0.1c-0.1,0-0.1,0-0.2,0.1c0,0-0.1,0-0.1,0c0,0-0.1,0-0.1,0
							c-0.1,0-0.1,0-0.2,0c0,0,0,0,0,0c0.1,0,0,0,0,0c0,0-0.1,0-0.1,0c0,0,0,0,0,0c0,0,0,0,0,0c0,0-0.1,0-0.1,0
							c-0.1,0-0.1-0.1-0.1-0.1c0,0,0-0.1,0-0.1c0,0,0,0,0,0c0,0,0,0,0,0c0-0.1,0-0.2-0.1-0.2c0-0.1,0-0.3,0-0.4
							c0-0.2,0.1-0.3,0.2-0.4s0.2-0.3,0.4-0.4c0.6-0.5,1.2-1,1.7-1.6c0.5-0.6,1-1.2,1.4-1.9c0.4-0.7,0.6-1.4,0.8-2.2
							c0.1-0.7,0-1.5-0.2-2.2c-0.1-0.4-0.3-0.7-0.5-1c-0.2-0.3-0.5-0.6-0.7-0.9c0,0-0.1-0.1-0.1-0.1c0,0,0-0.1,0,0c0,0,0,0,0,0
							c-0.1-0.1-0.1-0.1-0.1-0.2c0-0.1-0.1-0.1-0.1-0.2c0,0,0-0.1,0-0.1c0-0.1,0,0.1,0,0c0,0,0,0,0-0.1c0-0.1,0-0.1-0.1-0.2
							c0-0.1,0,0.1,0,0c0,0,0,0,0-0.1c0,0,0-0.1,0-0.1c0,0,0,0,0-0.1c0-0.1,0,0,0,0c0,0,0-0.1,0-0.1c0,0,0-0.1,0-0.1c0-0.1,0,0,0,0
							c0,0,0-0.1,0-0.1c0,0,0-0.1,0.1-0.1c0,0,0,0,0,0c0,0-0.1,0.1,0,0c0,0,0.1-0.1,0.1-0.1c0,0,0,0,0,0c0,0,0,0,0,0c0,0,0,0,0,0
							c0,0,0.2-0.1,0.2-0.1c0.1,0,0,0,0,0c0,0,0.1,0,0.1,0c0,0,0.1,0,0.1,0c0.1,0,0,0,0,0c0,0,0.1,0,0.1,0c0,0,0.1,0,0.1,0
							c0,0,0,0,0.1,0c0,0-0.1,0,0,0c0,0,0.1,0,0.1,0c0,0,0,0,0.1,0l0,0c0,0,0,0,0,0l0,0c0,0,0,0,0,0c0,0,0,0,0.1,0
							c0,0,0.1,0,0.1,0.1c0,0,0,0,0,0c0,0,0,0,0,0c0,0-0.1,0,0,0c0,0,0.1,0.1,0.1,0.1c0,0,0.1,0,0.1,0.1c0,0-0.1,0,0,0
							c0,0,0.1,0.1,0.1,0.1c0,0,0,0,0,0c0,0,0-0.1,0,0c0.1,0.1,0.2,0.2,0.4,0.1s0.2-0.2,0.2-0.4c0-0.2-0.1-0.4-0.3-0.6
							c-0.1-0.2-0.3-0.3-0.5-0.4c-0.4-0.2-0.9-0.2-1.3,0c-0.4,0.2-0.7,0.5-0.8,0.9c-0.1,0.4-0.1,0.8,0,1.2c0.1,0.4,0.4,0.7,0.6,1
							c0.1,0.1,0.2,0.3,0.4,0.4c0.1,0.1,0.1,0.1,0.2,0.2c0,0,0.1,0.1,0.1,0.1c0,0,0.1,0.1,0,0c0,0,0,0,0,0c0.1,0.2,0.2,0.3,0.3,0.5
							c0,0.1,0.1,0.2,0.1,0.2c0-0.1,0,0,0,0.1c0,0,0,0.1,0.1,0.1c0.1,0.2,0.1,0.4,0.1,0.5c0,0,0,0.1,0,0.1c0,0,0,0,0,0.1
							c0,0.1,0-0.1,0,0c0,0.1,0,0.2,0,0.3c0,0.2,0,0.4,0,0.6c0,0.1,0,0.2,0,0.3c0,0,0,0.1,0,0.1c0,0,0,0.1,0,0c0,0.1,0,0.1,0,0.2
							c-0.1,0.4-0.2,0.7-0.3,1.1c-0.1,0.2-0.1,0.3-0.2,0.5c-0.1,0.2-0.2,0.4-0.3,0.5c-0.2,0.3-0.4,0.7-0.7,0.9
							c-0.5,0.6-1.1,1.2-1.7,1.7c-0.3,0.3-0.6,0.5-0.8,0.9c-0.2,0.3-0.3,0.7-0.2,1.1c0.1,0.3,0.3,0.7,0.6,0.8c0.3,0.1,0.6,0.1,0.9,0
							c0.6-0.2,1.1-0.5,1.7-0.7c0.1,0,0.2,0,0.4,0c0.1,0,0.2,0,0.2-0.1C538.1,90.2,538.1,90.1,538,90L538,90z"/>
						<path d="M492.2,41.6c-0.3,0.2-0.3,0.6-0.1,0.9c0.2,0.3,0.5,0.5,0.9,0.6c0.8,0.2,1.6,0.3,2.4,0.2c0.5-0.1,0.9-0.2,1.4-0.3
							c0.2-0.1,0.3-0.4,0.1-0.5c-1-1-2.5-1.5-3.9-1.4c-0.4,0-0.8,0.1-1.2,0.3c-0.2,0.1-0.3,0.3-0.3,0.5c0.1,0.2,0.3,0.3,0.5,0.3
							c0.2-0.1,0.3-0.1,0.5-0.1c0.1,0,0.1,0,0.2,0c0,0,0.1,0,0.1,0c0,0,0,0,0.1,0c0.1,0-0.1,0,0,0c0,0,0.1,0,0.1,0l0.1,0l0,0
							c0,0,0.1,0,0.1,0c0.1,0,0.2,0,0.2,0c0.2,0,0.3,0,0.5,0c0.1,0,0.1,0,0.2,0c0,0,0,0,0.1,0c0.1,0,0,0,0,0c0,0,0.1,0,0.1,0
							c0.2,0,0.3,0.1,0.5,0.1c0.2,0,0.3,0.1,0.5,0.1c0.1,0,0.1,0.1,0.2,0.1c-0.1,0,0,0,0.1,0c0,0,0.1,0,0.1,0.1
							c0.2,0.1,0.3,0.2,0.5,0.3c0.1,0.1,0.2,0.1,0.2,0.2c0,0,0,0,0,0c0,0,0,0,0,0c0,0,0.1,0.1,0.1,0.1l0.1-0.5c0,0-0.1,0.1-0.2,0.1
							c-0.1,0-0.2,0.1-0.2,0.1c-0.2,0.1-0.3,0.1-0.5,0.1c-0.3,0.1-0.7,0.1-1,0.1c-0.3,0-0.7,0-1-0.1c-0.3,0-0.6-0.1-0.9-0.3
							c-0.2-0.1-0.3-0.4-0.1-0.6c0.1-0.1,0.1-0.2,0-0.3C492.4,41.5,492.3,41.5,492.2,41.6L492.2,41.6z"/>
						<path d="M482.6,48c-0.3-0.2-0.6-0.3-1-0.4c-0.3,0-0.6,0-0.9,0.1c-0.3,0.1-0.5,0.4-0.6,0.6c-0.1,0.3,0,0.6,0.1,0.8
							c0.3,0.5,0.9,0.7,1.4,0.9c0.7,0.2,1.3,0.3,2,0.3c0.7,0,1.4,0,2.1-0.1c0.3,0,0.7-0.1,1-0.2c0.3-0.1,0.6-0.2,0.8-0.3
							c0.3-0.2,0.5-0.5,0.4-0.9c-0.1-0.3-0.4-0.5-0.7-0.7c-0.6-0.3-1.2-0.5-1.9-0.6c-0.6-0.1-1.3-0.3-1.9-0.3
							c-0.6,0-1.3,0.1-1.9,0.3c-0.2,0-0.3,0.1-0.4,0.1c-0.2,0.1-0.3,0.2-0.2,0.4c0.1,0.2,0.2,0.3,0.4,0.2c0.3-0.1,0.6-0.1,0.9-0.2
							c0.1,0-0.1,0,0,0c0,0,0.1,0,0.1,0c0.1,0,0.1,0,0.2,0c0.1,0,0.3,0,0.4,0c0.6-0.1,1.2-0.1,1.7,0c0.1,0,0.2,0,0.3,0
							c0.1,0,0.3,0.1,0.4,0.1c0.3,0.1,0.6,0.1,0.8,0.2c0.3,0.1,0.5,0.2,0.7,0.3c0.1,0,0.1,0.1,0.2,0.1c0,0,0.1,0.1,0,0c0,0,0,0,0,0
							l0,0c0,0,0,0,0,0l0,0c0,0,0,0,0,0c0,0.1,0-0.1,0,0c0,0,0,0,0,0c0,0,0,0,0,0l0,0c0,0,0,0,0,0c0,0,0,0,0,0c0,0,0,0-0.1,0.1
							c0,0-0.1,0.1,0,0c0,0-0.1,0.1-0.1,0.1c0,0-0.1,0-0.1,0c-0.1,0,0.1,0,0,0c-0.3,0.1-0.5,0.2-0.8,0.2c-0.1,0-0.3,0.1-0.4,0.1
							c-0.1,0-0.1,0-0.2,0c0,0-0.1,0-0.1,0c-0.1,0-0.1,0-0.2,0c-0.3,0-0.6,0.1-0.9,0.1c-0.6,0-1.2,0-1.7-0.1
							c-0.3-0.1-0.6-0.1-0.9-0.2c-0.1,0-0.2-0.1-0.4-0.1c0,0,0,0-0.1,0c0,0-0.1,0,0,0c-0.1,0-0.1-0.1-0.2-0.1
							c-0.1,0-0.1-0.1-0.2-0.1c0,0,0,0,0,0c0.1,0,0,0,0,0c0,0,0,0-0.1-0.1c0,0,0,0,0,0c0,0,0,0,0,0c0,0,0,0,0-0.1c0,0,0,0,0,0
							c0,0,0,0,0,0c0,0,0,0,0,0c0,0,0-0.1,0-0.1c0,0,0-0.1,0-0.1c0,0,0,0,0,0c0,0,0,0,0-0.1c0,0,0-0.1,0-0.1c0,0.1,0,0,0-0.1
							c0,0,0,0,0,0c0,0,0,0,0,0c0,0,0,0,0,0c0.2-0.2,0.4-0.3,0.7-0.3c0.4,0,0.7,0,1,0.1C482.7,48.2,482.7,48,482.6,48L482.6,48z"/>
						<path d="M492.7,73c0-0.3,0.1-0.6,0.2-1c0-0.2,0.1-0.3,0.2-0.5c0,0,0,0,0-0.1c0,0,0,0,0,0c0,0,0-0.1,0.1-0.1
							c0-0.1,0.1-0.2,0.1-0.2c0.1-0.1,0.2-0.3,0.3-0.4c0-0.1,0.1-0.1,0.1-0.2c0-0.1,0,0,0,0c0,0,0,0,0,0c0,0,0.1-0.1,0.1-0.1
							c0.1-0.1,0.2-0.2,0.3-0.4c0.1-0.1,0.1-0.1,0.2-0.2c0.1-0.1,0,0,0,0c0,0,0,0,0.1,0c0,0,0.1-0.1,0.1-0.1
							c0.1-0.1,0.2-0.1,0.3-0.1c0,0,0.1,0,0.1-0.1c0,0,0,0,0.1,0c0.1,0-0.1,0,0,0c0.1,0,0.2-0.1,0.4-0.2c0,0,0,0,0.1,0l0.1-0.1
							c0.1-0.1,0.1-0.1,0,0c0.1-0.1,0.1-0.1,0.1-0.2c0-0.2,0-0.3-0.2-0.4c-0.2-0.2-0.6-0.1-0.8,0.1c-0.2,0.1-0.4,0.2-0.5,0.4
							c0,0-0.1,0,0,0c0.1,0,0,0,0,0c-0.1,0-0.1,0.1-0.2,0.1c-0.1,0.1-0.1,0.1-0.2,0.2c-0.1,0.1-0.2,0.3-0.4,0.4
							c-0.1,0.2-0.3,0.3-0.4,0.5c-0.1,0.2-0.2,0.4-0.3,0.5c-0.1,0.3-0.2,0.7-0.3,1c0,0.2,0,0.4,0,0.6c0,0.2,0.1,0.4,0.1,0.6
							C492.4,73.2,492.6,73.2,492.7,73L492.7,73z"/>
						<path d="M496.4,68.9c0.1,0,0.1,0,0.2,0c0.1,0,0.2,0,0.2,0c0.1,0,0.3,0,0.4-0.1c0.3-0.1,0.6-0.1,1-0.2c0.7-0.1,1.4-0.3,2.1-0.5
							c1.3-0.3,2.6-0.6,3.9-1c0.3-0.1,0.6-0.2,1-0.2c0,0,0,0,0.1,0c0.1,0-0.1,0,0,0c0,0,0.1,0,0.1,0c0.1,0,0.2,0,0.3,0
							c0.2,0,0.3,0,0.5,0c0,0,0,0,0.1,0c0.1,0-0.1,0,0,0c0,0,0.1,0,0.1,0c0.1,0,0.2,0,0.2,0.1c0,0,0.1,0,0.1,0c0,0,0,0,0.1,0
							c0,0-0.1,0,0,0c0.1,0,0.1,0.1,0.2,0.1c0,0,0.1,0,0.1,0.1c0.1,0,0,0,0,0c0,0,0,0,0,0c0.1,0.1,0.1,0.1,0.2,0.2c0,0.1,0-0.1,0,0
							c0,0,0,0.1,0.1,0.1c0,0.1,0.1,0.1,0.1,0.2c0,0,0,0.1,0,0.1c0-0.1,0,0,0,0c0,0.1,0.1,0.2,0.1,0.2c0.1,0.2,0.1,0.3,0.2,0.5
							c0.1,0.4,0.3,0.7,0.6,1c0.3,0.3,0.5,0.5,0.8,0.7c0.3,0.2,0.6,0.4,0.9,0.5c0.4,0.2,0.7,0.3,1.1,0.5c0.4,0.2,0.8,0.4,1.2,0.6
							c0.8,0.4,1.7,0.8,2.5,1.1c0.1,0,0.2,0.1,0.3,0.1c0.1,0,0.3,0,0.4,0c0.1,0,0.2,0,0.3-0.1c0-0.1,0.1-0.2,0-0.3
							c-0.1-0.1-0.2-0.2-0.3-0.3c-0.1-0.1-0.2-0.1-0.3-0.2c-0.2-0.1-0.4-0.2-0.6-0.3c-0.4-0.2-0.8-0.4-1.3-0.6
							c-0.8-0.4-1.8-0.6-2.6-0.9c-0.3-0.1-0.7-0.3-1-0.4c-0.3-0.2-0.6-0.3-0.8-0.6c0-0.1-0.1-0.1-0.1-0.2c0,0,0-0.1,0,0
							c0,0,0,0,0-0.1c0,0,0-0.1,0-0.1c0-0.2-0.1-0.3-0.1-0.5c-0.1-0.3-0.2-0.7-0.3-1c-0.1-0.4-0.3-0.7-0.6-1c-0.3-0.3-0.6-0.4-1-0.5
							c-0.7-0.2-1.4-0.1-2.1,0.1c-0.6,0.1-1.2,0.3-1.8,0.5c-0.7,0.2-1.3,0.4-2,0.5c-0.7,0.2-1.4,0.4-2.1,0.6
							c-0.6,0.2-1.2,0.4-1.8,0.6c-0.1,0-0.1,0-0.2,0.1c-0.1,0-0.1,0.1-0.2,0.1C496.3,68.8,496.3,68.9,496.4,68.9L496.4,68.9z"/>
						<path d="M515.6,73.1c0.1-0.3,0.2-0.5,0.4-0.7c0.1-0.1,0.2-0.1,0.3-0.2c0.1,0,0.1-0.1,0.2-0.1c0,0,0.1,0,0.1,0c0,0,0,0,0.1,0
							c0,0,0,0,0,0c0.1-0.1,0.3-0.1,0.4-0.1c0,0,0,0,0,0c0,0,0,0,0.1,0c0,0,0.1,0,0.1,0c0.1,0,0.2,0,0.3,0c0.2,0,0.3,0,0.5,0.1
							c0.2,0,0.4,0.1,0.5,0.2c0.7,0.3,1.4,0.6,2.1,0.9c0.7,0.2,1.4,0.3,2.1,0.1c0.3-0.1,0.7-0.3,0.9-0.5s0.5-0.6,0.4-1
							c0-0.1-0.3-0.2-0.4-0.1c0,0.1-0.1,0.1-0.1,0.2c0,0,0,0.1-0.1,0.1c0,0,0,0,0,0c0-0.1,0,0,0,0c0,0,0,0.1-0.1,0.1
							c0,0-0.1,0.1,0,0.1c0,0,0,0,0,0c0,0,0,0,0,0c0,0-0.1,0.1-0.1,0.1c0,0,0,0-0.1,0.1c0,0,0,0,0,0c0,0,0,0,0,0c0,0,0,0-0.1,0
							c0,0-0.1,0-0.1,0.1c-0.1,0-0.1,0.1-0.2,0.1c0,0,0,0-0.1,0c0,0,0,0,0,0c0,0-0.1,0-0.1,0c-0.1,0-0.1,0-0.2,0.1c0,0-0.1,0-0.1,0
							c0,0,0,0,0,0c0,0-0.1,0,0,0c0,0-0.1,0-0.1,0c0,0-0.1,0-0.1,0c-0.1,0-0.2,0-0.3,0c-0.3,0-0.7-0.1-1-0.3
							c-0.7-0.3-1.4-0.6-2.1-0.9c-0.7-0.2-1.4-0.3-2.1,0c-0.3,0.1-0.6,0.3-0.9,0.6c-0.2,0.3-0.3,0.6-0.3,1
							C515.3,73.2,515.6,73.3,515.6,73.1L515.6,73.1z"/>
						<path d="M517.4,64.9c-0.3,0.7-0.2,1.5,0.1,2.2s1,1.3,1.8,1.4c0.5,0.1,1,0.1,1.5,0.1c0.2,0,0.5,0,0.7,0c0.1,0,0.2,0,0.3,0
							c0.1,0,0.1,0,0.2,0c0,0-0.1,0,0,0c0,0,0.1,0,0.1,0c0.1,0,0.2,0,0.3,0.1c0,0,0.1,0,0.1,0c-0.1,0,0,0,0,0c0,0,0.1,0,0.1,0
							c0.1,0,0.2,0.1,0.2,0.1c0,0,0.1,0.1,0.1,0c0,0,0.1,0.1,0.1,0.1c0.1,0.1,0.1,0.1,0.2,0.2c0,0,0.1,0.1,0.1,0.1c0-0.1,0,0,0,0
							c0,0,0,0.1,0.1,0.1c0,0.1,0.1,0.2,0.1,0.2c0,0,0,0.1,0.1,0.1c0,0,0-0.1,0,0c0,0,0,0.1,0,0.1c0,0.1,0.1,0.2,0.1,0.3
							c0-0.1,0,0,0,0c0,0,0,0.1,0,0.1c0,0.1,0,0.1,0,0.2c0,0,0,0,0,0.1c0,0,0,0,0,0.1c0,0,0-0.1,0,0c0,0.1,0,0.1,0,0.2
							c0,0,0,0.1,0,0.1c0,0-0.1,0.1,0,0c0,0.1,0,0.1-0.1,0.2c0,0,0,0.1-0.1,0.1c0.1-0.1,0,0,0,0c0,0,0,0.1,0,0.1
							c-0.1,0.1-0.1,0.2-0.2,0.3s-0.1,0.2-0.2,0.3c0,0-0.1,0.1-0.1,0.1c0-0.1,0,0,0,0c0,0-0.1,0.1-0.1,0.1c-0.1,0.1-0.1,0.3,0,0.5
							s0.3,0.2,0.5,0.1c0.2-0.1,0.4-0.3,0.6-0.4c0.2-0.2,0.3-0.5,0.4-0.7c0.2-0.4,0.2-0.9,0.1-1.3c-0.1-0.9-0.6-1.7-1.4-2.1
							c-0.9-0.5-1.9-0.4-2.9-0.4c-0.1,0-0.2,0-0.4,0c0,0-0.1,0-0.1,0c0,0-0.1,0,0,0c0,0-0.1,0-0.1,0c-0.1,0-0.2,0-0.3-0.1
							c0,0-0.1,0-0.1,0c0,0,0,0-0.1,0c0,0,0,0,0,0c0,0,0,0-0.1,0c-0.2-0.1-0.3-0.2-0.5-0.3c0,0-0.1-0.1,0,0c0,0,0,0,0,0
							c0,0-0.1-0.1-0.1-0.1c-0.1-0.1-0.1-0.1-0.2-0.2c0,0-0.1-0.1-0.1-0.1c0.1,0.1-0.1-0.1-0.1-0.1c0,0,0,0,0,0c0,0,0-0.1-0.1-0.1
							c0,0-0.1-0.1-0.1-0.1c-0.1-0.2-0.2-0.3-0.2-0.5c-0.1-0.4-0.2-0.8-0.1-1.2C517.6,64.8,517.4,64.8,517.4,64.9L517.4,64.9z"/>
						<path d="M539.2,78c0.1,0,0.1,0.1,0.2,0.1c0.1,0.1,0.2,0.1,0.3,0.2l-0.1-0.1c0.2,0.2,0.4,0.4,0.6,0.6l-0.1-0.1
							c0.1,0.1,0.1,0.2,0.2,0.3c0,0,0,0.1,0,0c0,0,0,0.1,0,0.1c0,0.1,0,0.1,0,0.2c0,0.2,0.2,0.3,0.4,0.3c0.1,0,0.2,0,0.2-0.1
							c0.1-0.1,0.1-0.2,0.1-0.3c0-0.3-0.1-0.6-0.3-0.8l0,0.1c-0.1-0.3-0.3-0.6-0.6-0.8c-0.1-0.1-0.3-0.2-0.4-0.2c-0.1,0-0.3,0-0.4,0
							c-0.1,0-0.3,0.1-0.3,0.2C539.1,77.7,539.1,77.9,539.2,78L539.2,78z"/>
						<path d="M495.5,68.8c0-0.1-0.1-0.2-0.1-0.3c0-0.1-0.1-0.2-0.2-0.4c-0.1-0.2-0.2-0.4-0.4-0.7c-0.1-0.2-0.4-0.2-0.5,0
							c0,0,0,0,0,0c0,0,0,0,0,0c0,0,0,0,0,0c0,0,0,0,0,0c0,0,0,0-0.1,0c0,0-0.1,0,0,0c0,0-0.1,0-0.1,0c0,0-0.1,0-0.1,0
							c0,0,0,0-0.1,0c0,0-0.1,0-0.1,0c0,0,0,0-0.1,0c0,0,0.1,0,0,0c0,0-0.1,0-0.1,0s-0.1,0-0.1,0c0,0,0,0,0,0c0,0,0,0,0,0
							c0,0-0.1,0-0.1-0.1c0,0,0,0,0,0c0,0,0,0,0,0c0,0,0,0,0,0c0,0,0,0,0,0c0,0-0.1-0.1-0.1-0.1c0,0-0.1-0.1-0.1-0.1
							c0,0,0-0.1-0.1-0.1c0-0.1-0.1-0.1-0.1-0.2c0-0.1-0.1-0.1-0.1-0.2c0,0,0,0,0,0c0,0,0,0,0-0.1c0,0,0-0.1,0-0.1
							c-0.1-0.4-0.3-0.7-0.4-1.1c-0.1-0.4-0.3-0.8-0.4-1.1c-0.1-0.4-0.2-0.7-0.2-1.1c0-0.1,0-0.1,0-0.2c0,0,0,0,0,0c0,0,0,0,0,0
							c0-0.1,0-0.1,0.1-0.2c0-0.1,0.1-0.2,0.2-0.3c0.2-0.2,0.4-0.4,0.6-0.4c0.2,0,0.5,0,0.7,0.2c0.2,0.1,0.4,0.3,0.6,0.5
							c0.5,0.4,0.9,0.7,1.6,0.8c0.6,0,1.2-0.2,1.6-0.7c0.4-0.5,0.5-1.1,0.3-1.7c-0.2-0.6-0.6-1.1-1.3-1.3c-0.3-0.1-0.7-0.2-1-0.3
							c-0.1,0-0.1,0-0.2-0.1c0,0-0.1,0-0.1-0.1c0,0,0,0-0.1,0c0,0,0,0,0,0c-0.1-0.1-0.2-0.2-0.3-0.3c0-0.1,0,0,0,0c0,0,0,0,0-0.1
							c0,0,0,0,0,0c0,0,0,0,0,0c0,0,0-0.1,0-0.1c0,0,0,0,0,0c0,0,0,0,0-0.1c0-0.1-0.1-0.3-0.2-0.3c-0.1,0-0.3,0.1-0.3,0.2
							c-0.1,0.4,0,0.7,0.3,1c0.2,0.3,0.6,0.4,0.9,0.5c0.4,0.1,0.7,0.1,1.1,0.3c0.1,0,0.1,0.1,0.2,0.1c0,0,0,0,0,0c0,0,0,0,0,0
							c0,0,0.1,0.1,0.1,0.1c0,0,0.1,0.1,0.1,0.2c0,0,0,0,0,0c0,0,0,0,0,0c0,0,0,0.1,0.1,0.1c0,0.1,0.1,0.1,0.1,0.2c0,0,0,0,0,0
							c0,0,0,0.1,0,0.1c0,0.1,0,0.1,0,0.2c0,0,0,0,0,0c0,0,0,0,0,0.1c0,0,0,0.1,0,0.1c0,0.1,0,0.1,0,0.2c0,0,0,0,0,0
							c0,0,0,0.1,0,0.1c0,0.1-0.1,0.2-0.2,0.3c0,0,0,0.1-0.1,0.1c0,0,0,0,0,0.1c0,0.1-0.1,0.1-0.2,0.2c0,0,0,0,0,0c0,0,0,0,0,0
							c0,0-0.1,0-0.1,0.1c-0.1,0-0.1,0.1-0.2,0.1c-0.1,0-0.1,0-0.2,0.1c-0.1,0-0.1,0-0.2,0.1c-0.1,0-0.1,0-0.2,0c-0.1,0-0.2,0-0.2,0
							c-0.2,0-0.5-0.1-0.7-0.3c-0.2-0.2-0.5-0.3-0.7-0.5c-0.5-0.3-1-0.7-1.6-0.5c-0.6,0.2-1.1,0.9-1.2,1.5c0,0.4,0,0.8,0.1,1.2
							c0.1,0.4,0.2,0.8,0.4,1.2c0.1,0.4,0.3,0.8,0.4,1.2c0.1,0.3,0.3,0.7,0.5,1c0.2,0.3,0.5,0.5,0.8,0.6c0.3,0.1,0.7,0.1,0.9-0.1
							c0.1-0.1,0.3-0.2,0.3-0.4h-0.5c0.1,0.2,0.3,0.4,0.4,0.6c0.1,0.1,0.1,0.2,0.2,0.3s0.2,0.2,0.3,0.3
							C495.4,69,495.6,68.9,495.5,68.8L495.5,68.8z"/>
						<path d="M496.5,69c0.6-0.2,1.2-0.5,1.7-0.9c0.6-0.4,1.2-0.9,1.5-1.5c0.2-0.3,0.2-0.6,0.2-0.9c0-0.2-0.1-0.5-0.1-0.7
							c0-0.1,0-0.1,0.1-0.2c0-0.1,0,0,0,0c0,0,0,0,0,0c0,0,0.1,0,0,0c0,0,0,0,0.1,0s0,0,0.1,0c-0.1,0,0,0,0,0c0,0,0.1,0,0.1,0
							c0,0,0.1,0,0.1,0c-0.1,0,0,0,0,0c0,0,0.1,0,0.1,0c0.2,0,0.4,0,0.6,0c0.4,0,0.8-0.1,1.1-0.4c0.2-0.2,0.3-0.4,0.4-0.7
							c0-0.1,0.1-0.2,0.1-0.4c0-0.1,0.1-0.2,0.1-0.3c0.1-0.1,0.1-0.1,0.2-0.2c0.1-0.1,0.1-0.1,0.2-0.1c-0.1,0,0,0,0,0c0,0,0,0,0.1,0
							c0.1,0,0,0,0,0c0,0,0,0,0.1,0s0,0,0.1,0c0.1,0,0,0,0,0c0,0,0,0,0.1,0c0.2,0.1,0.5,0,0.3-0.3c-0.1-0.2-0.3-0.3-0.6-0.3
							c-0.2,0-0.4,0.1-0.6,0.2c-0.2,0.1-0.3,0.3-0.4,0.5c-0.1,0.2-0.2,0.4-0.2,0.6c-0.1,0.2-0.1,0.4-0.3,0.5c0,0-0.1,0.1-0.1,0.1
							c0,0-0.1,0-0.1,0.1c-0.1,0,0,0,0,0c0,0,0,0,0,0c0,0-0.1,0-0.1,0c0,0,0,0-0.1,0c0.1,0,0,0,0,0c0,0-0.1,0-0.1,0
							c-0.1,0-0.2,0-0.3,0c-0.2,0-0.4,0-0.6,0c-0.4,0.1-0.8,0.3-0.9,0.8c0,0.3,0,0.6,0.1,0.8c0,0.1,0,0.1,0,0.2c0,0,0,0,0,0
							c0,0,0,0,0,0c0,0,0,0.1,0,0.1c0,0,0,0,0,0c0,0.1,0-0.1,0,0c0,0.1,0,0.1,0,0.2c0,0,0,0.1,0,0c0,0,0,0.1-0.1,0.1
							c0,0.1-0.1,0.1-0.1,0.2c0,0,0,0.1-0.1,0.1c0,0,0,0,0,0c0,0,0,0,0,0c0,0,0,0,0,0c-0.2,0.3-0.5,0.5-0.8,0.8
							c-0.3,0.3-0.7,0.5-1,0.7c-0.2,0.1-0.3,0.2-0.5,0.3c-0.1,0.1-0.2,0.1-0.4,0.2C496.2,68.7,496.3,69.1,496.5,69L496.5,69z"/>
						<path d="M517.4,65c-0.2-0.2-0.4-0.3-0.6-0.4c-0.2-0.1-0.4-0.1-0.6,0c-0.4,0.1-0.7,0.5-0.6,0.9c0.1,0.4,0.4,0.6,0.6,0.9
							c0.1,0.1,0.1,0.2,0.2,0.4c0,0.1,0,0.3,0,0.4c-0.1,0.1-0.2,0.3-0.3,0.4c-0.1,0-0.1,0.1-0.2,0.1c-0.1,0-0.2,0.1-0.2,0.1
							c-0.1,0.1,0,0.2,0.1,0.2c0.1,0.1,0.3,0,0.5-0.1c0.1-0.1,0.3-0.2,0.3-0.3c0.2-0.2,0.3-0.6,0.3-0.9c0-0.2,0-0.3-0.1-0.5
							c-0.1-0.1-0.2-0.3-0.3-0.4c0-0.1-0.1-0.1-0.1-0.2c0-0.1-0.1-0.1-0.1-0.2c0-0.1,0-0.2,0.1-0.3c0.1-0.1,0.3-0.1,0.4-0.1
							c0.1,0,0.2,0.1,0.3,0.1c0.1,0,0.2,0.1,0.3,0.1C517.4,65.3,517.6,65.1,517.4,65L517.4,65z"/>
						<path d="M507.5,61.1c0.3,0.2,0.6,0.3,0.9,0.5c0.3,0.2,0.6,0.3,0.9,0.5c0.6,0.3,1.2,0.7,1.7,1.2c0.5,0.5,1,1,1.5,1.5
							c0.5,0.6,0.8,1.2,1.2,1.8c0.2,0.4,0.5,0.7,0.8,1c0,0,0.1,0.1,0.1,0.1s0,0,0,0c0,0,0,0,0.1,0.1c0.1,0,0.1,0.1,0.2,0.1
							c0,0,0,0,0.1,0c0,0,0,0,0,0c0.1,0.1,0.2,0.2,0.3,0.2c0.2,0.1-0.1,0,0,0c0.1,0,0.1,0.1,0.2,0.1c0.1,0,0.2,0,0.3,0
							c0.2-0.1,0.3-0.2,0.3-0.4c0-0.2-0.1-0.3-0.2-0.5c-0.1-0.1-0.3-0.1-0.4-0.1c0,0,0,0-0.1,0c-0.2,0,0.1,0,0,0c0,0-0.1,0-0.1,0
							c0,0,0,0-0.1,0c0,0,0.1,0,0,0c0,0-0.1,0-0.1,0c0,0,0,0-0.1,0c0,0,0,0,0,0c0,0-0.1-0.1-0.1-0.1c0,0-0.1,0-0.1-0.1
							c0,0,0,0-0.1,0c-0.1-0.1-0.1-0.1-0.2-0.2c-0.1-0.1-0.3-0.3-0.4-0.4c-0.2-0.3-0.4-0.6-0.6-0.9c-0.2-0.3-0.4-0.6-0.6-0.9
							c-0.9-1.1-2-2-3.2-2.7c-0.3-0.2-0.7-0.4-1.1-0.5c-0.2-0.1-0.4-0.2-0.6-0.2c-0.2,0-0.4-0.1-0.6-0.1
							C507.4,60.9,507.4,61,507.5,61.1L507.5,61.1z"/>
						<path d="M494.9,58.2c0-0.1,0.2-0.2,0.3-0.3c0.2-0.1,0.3-0.1,0.5,0c0.2,0,0.5,0.1,0.7,0.1c0.2,0,0.4,0,0.6-0.1
							c0.4-0.1,0.8-0.3,1.1-0.5c0.2-0.1,0.4-0.3,0.6-0.4c0.2-0.1,0.3-0.3,0.4-0.4c0.2-0.2,0.3-0.3,0.5-0.5c0.2-0.2,0.3-0.3,0.5-0.5
							l-0.1,0.1c0.1-0.1,0.3-0.2,0.4-0.3c0,0,0.1,0,0.1-0.1c0,0,0,0,0.1,0c-0.1,0.1-0.1,0,0,0c0.1,0,0.2-0.1,0.3-0.1
							c0.2-0.1,0.3-0.1,0.5-0.1c0.1,0,0.2,0,0.3-0.1c0,0,0.1,0,0.1,0c0.1,0-0.1,0,0,0c0,0,0.1,0,0.1,0c0.4,0,0.7,0,1.1,0
							c0,0,0.1,0,0.1,0c0,0-0.1,0,0,0c0.1,0,0.1,0,0.2,0c0.1,0,0.2,0,0.3,0.1c0.2,0,0.4,0.1,0.7,0.1c0.2,0,0.4,0,0.6,0
							c0.2,0,0.5,0,0.7,0c0.1,0,0.2-0.2,0.1-0.3c-0.2-0.1-0.3-0.2-0.5-0.3c-0.1,0-0.2-0.1-0.3-0.1s-0.2-0.1-0.3-0.2
							c-0.1-0.1-0.2-0.1-0.4-0.2c-0.1,0-0.2-0.1-0.3-0.1c-0.2,0-0.4-0.1-0.6-0.1c-0.8-0.1-1.7-0.2-2.5,0c-0.2,0-0.4,0.1-0.6,0.2
							c-0.2,0.1-0.5,0.2-0.7,0.3l0.2-0.1c-0.3,0.1-0.5,0.2-0.8,0.4c-0.2,0.1-0.3,0.3-0.4,0.4c-0.1,0.1-0.3,0.3-0.4,0.4
							c-0.2,0.2-0.3,0.4-0.5,0.6l0.1-0.1c-0.1,0.1-0.2,0.2-0.2,0.3c0,0,0,0.1-0.1,0.1c0,0,0,0,0-0.1c0,0,0,0,0,0.1
							c-0.1,0.1-0.1,0.2,0,0.1c0,0,0,0,0,0.1c0,0-0.1,0.1-0.1,0.1c-0.1,0.1-0.1,0.1-0.2,0.2c0,0,0,0,0,0c0,0,0,0,0,0
							c0,0-0.1,0-0.1,0.1c-0.1,0-0.1,0.1-0.2,0.1c0,0-0.1,0-0.1,0c0,0,0,0,0,0c0,0,0,0-0.1,0c-0.1,0-0.2,0.1-0.2,0.1
							c-0.3,0.1-0.7,0-1.1,0.2c-0.3,0.1-0.5,0.4-0.5,0.7C494.6,58.4,494.8,58.4,494.9,58.2L494.9,58.2z"/>
						<path d="M503.5,62.1c0,0.3,0.2,0.5,0.5,0.5c0.3,0.1,0.6-0.1,0.8-0.2s0.5-0.2,0.8-0.2c0.3,0.1,0.6,0.2,0.9,0.4
							c0.5,0.3,1,0.8,1.4,1.2c0.5,0.4,1,0.8,1.4,1.3s0.8,1.1,0.6,1.8c-0.1,0.2,0.2,0.4,0.4,0.2c0.5-0.4,0.9-0.9,1.1-1.5
							c0.1-0.3,0.1-0.6,0-0.9c-0.1-0.3-0.3-0.5-0.5-0.7c-0.2-0.2-0.5-0.4-0.8-0.6c-0.3-0.2-0.6-0.4-1-0.6c-0.3-0.2-0.6-0.4-1-0.6
							c-0.3-0.2-0.6-0.4-0.9-0.6c-0.1-0.1-0.2-0.2-0.2-0.3c0,0,0-0.1,0-0.1c0,0,0-0.1,0.1-0.1c0,0,0,0,0,0c0,0,0,0,0,0c0,0,0,0,0,0
							c0,0,0,0,0,0l0,0c0,0,0,0,0,0c0,0,0,0,0,0h0c0,0,0,0,0,0c0,0,0,0,0,0c0,0,0.1,0,0.1,0.1c0,0,0.1,0,0.1,0c0,0,0,0.1,0,0.1
							c0,0.1,0.2,0.1,0.3,0.1c0.1,0,0.2-0.2,0.1-0.3c-0.1-0.3-0.4-0.5-0.8-0.5s-0.6,0.3-0.7,0.6c-0.1,0.3,0.1,0.6,0.3,0.9
							c0.3,0.2,0.6,0.4,0.9,0.6c0.7,0.4,1.3,0.9,2,1.3c0.5,0.3,1.1,0.7,1.2,1.3c0,0.3-0.1,0.6-0.3,0.9c-0.2,0.3-0.5,0.5-0.8,0.8
							l0.4,0.2c0.2-0.6,0-1.3-0.4-1.8c-0.4-0.6-0.9-1-1.4-1.4c-0.5-0.4-0.9-0.9-1.4-1.3c-0.5-0.4-1.1-0.8-1.8-0.8
							c-0.2,0-0.4,0-0.5,0.1c-0.2,0.1-0.3,0.2-0.4,0.3c-0.1,0.1-0.2,0.1-0.4,0.1c-0.1,0-0.2-0.1-0.2-0.2
							C503.8,61.9,503.5,61.9,503.5,62.1L503.5,62.1z"/>
						<path d="M537.4,114.5c-0.5-0.2-1,0.1-1.3,0.4c-0.2,0.2-0.3,0.4-0.4,0.7c-0.1,0.2-0.1,0.5-0.2,0.7c0,0.2-0.1,0.5-0.2,0.7
							c-0.1,0.2-0.1,0.4-0.3,0.6c-0.3,0.3-0.7,0.5-1,0.6c-0.4,0.2-0.8,0.3-1.2,0.6c-0.3,0.3-0.5,0.7-0.6,1.2c-0.1,0.2,0,0.5,0,0.7
							s0,0.5,0.1,0.7c0,0.2,0.1,0.5,0.1,0.7c0,0.1,0,0.2,0,0.3c0,0,0,0.1,0,0.1c0,0,0,0.1,0,0.1c0,0.1,0-0.1,0,0
							c0,0.1,0,0.2-0.1,0.3c0,0,0,0.1,0,0.1c0,0.1,0-0.1,0,0c0,0.1-0.1,0.2-0.1,0.2c0-0.1-0.1,0.1,0,0c0,0,0,0.1-0.1,0.1
							c0,0-0.1,0.1-0.1,0.1c-0.1,0.1-0.2,0.2-0.2,0.3c-0.3,0.4-0.5,0.8-0.6,1.3c-0.1,0.4,0,0.9,0.4,1.2c0.4,0.4,1.1,0.4,1.6,0.2
							c0.5-0.2,0.9-0.7,1.2-1.2c0.2-0.2,0.3-0.5,0.5-0.7c0.2-0.2,0.3-0.5,0.4-0.7c0.6-1,1.1-2.1,1.5-3.1c0.4-1.1,0.7-2.1,1-3.2
							c0.1-0.6,0.3-1.1,0.4-1.7c0-0.6-0.2-1.2-0.7-1.6c-0.2-0.2-0.5-0.2-0.8-0.1c-0.2,0-0.3,0.2-0.3,0.4c0,0.2,0.2,0.3,0.4,0.3h0
							c0,0,0,0,0,0c0,0,0.1,0,0.1,0c0,0,0.1,0,0.1,0.1c0,0-0.1,0,0,0c0,0,0.1,0,0.1,0c0,0,0.1,0.1,0,0s0,0,0,0c0,0,0,0,0.1,0.1
							c0,0,0.1,0,0,0c0,0,0.1,0.1,0.1,0.1c0,0,0,0.1,0,0.1c0-0.1,0,0,0,0c0,0.1,0,0.1,0,0.2c0-0.1,0,0,0,0c0,0,0,0.1,0,0.1
							c0,0.1,0,0.1,0,0.2c0,0,0,0.1,0,0.1c0,0.1,0-0.1,0,0c0,0.1,0,0.2,0,0.2c-0.1,0.3-0.1,0.5-0.2,0.8c-0.1,0.5-0.3,1-0.5,1.6
							c-0.1,0.3-0.2,0.5-0.3,0.8c-0.1,0.2-0.2,0.5-0.3,0.7c0,0.1-0.1,0.2-0.1,0.4c0,0.1,0,0.1-0.1,0.2c0,0,0,0.1,0,0.1
							c0,0-0.1,0.2,0,0c-0.1,0.1-0.1,0.3-0.2,0.4c0,0,0,0.1,0,0.1c0,0,0,0.1,0,0c0-0.1,0,0,0,0c0,0,0,0.1-0.1,0.1
							c-0.2,0.5-0.4,1-0.7,1.4s-0.5,0.9-0.8,1.4c-0.1,0.2-0.2,0.5-0.4,0.7c-0.1,0.1-0.1,0.2-0.2,0.3c0,0.1-0.1,0.1-0.1,0.2
							c0,0,0,0,0,0.1c0,0-0.1,0.1-0.1,0.1c0,0,0,0,0,0c0,0,0,0.1-0.1,0.1c0,0-0.1,0.1-0.1,0.1c0,0,0,0-0.1,0.1c0,0,0.1,0,0,0
							c-0.1,0-0.1,0.1-0.2,0.1c0,0-0.1,0-0.1,0c0,0,0.1,0,0,0c-0.1,0-0.1,0-0.2,0c0,0-0.1,0,0,0c0,0-0.1,0-0.1,0c0,0-0.1,0-0.1,0
							c0,0,0,0-0.1,0c0,0,0,0,0,0c-0.1,0-0.1,0-0.1,0c0.1,0,0,0,0,0c0,0-0.1,0-0.1,0c-0.1,0,0,0,0,0c0,0,0,0,0,0c0,0,0,0-0.1-0.1
							c0,0,0,0,0,0c0,0,0-0.1-0.1-0.1c0-0.1,0,0.1,0,0c0,0,0,0,0,0c0,0,0-0.1,0-0.2c0,0,0-0.1,0,0c0,0,0-0.1,0-0.1c0,0,0-0.1,0-0.1
							c0,0,0,0,0-0.1c0-0.1,0,0.1,0,0c0-0.1,0-0.2,0.1-0.3c0,0,0-0.1,0-0.1c0,0.1,0,0,0,0c0,0,0,0,0-0.1c0.1-0.1,0.1-0.2,0.2-0.3
							c0.1-0.2,0.3-0.4,0.4-0.6c0.1-0.1,0.1-0.2,0.2-0.3c0.1-0.1,0.1-0.2,0.2-0.3c0.2-0.5,0.2-0.9,0.2-1.4c0-0.2-0.1-0.5-0.1-0.7
							c0-0.1,0-0.2,0-0.3c0,0,0-0.1,0-0.1c0,0.1,0,0,0,0c0-0.1,0-0.1,0-0.2c0-0.1,0-0.2,0-0.3c0,0,0-0.1,0-0.1c0,0,0-0.2,0-0.1
							c0,0,0-0.1,0-0.1c0,0,0-0.1,0-0.1c0-0.1,0,0.1,0,0c0,0,0,0,0-0.1c0,0,0-0.1,0-0.1c0,0,0,0,0-0.1c0,0,0-0.1,0-0.1
							c0.2-0.4,0.5-0.6,0.8-0.7c0.4-0.2,0.8-0.3,1.1-0.5c0.4-0.2,0.7-0.6,0.9-1c0.2-0.4,0.2-0.9,0.3-1.4c0.1-0.2,0.1-0.4,0.2-0.5
							c0.1-0.2,0.2-0.3,0.4-0.4c0.1-0.1,0.3-0.1,0.5-0.1C537.6,114.9,537.7,114.6,537.4,114.5L537.4,114.5z"/>
						<path d="M495.2,56.4c-0.2-0.2-0.5-0.2-0.7,0c-0.3,0.1-0.4,0.4-0.6,0.6c-0.1,0.1-0.2,0.1-0.3,0.1c-0.1,0-0.1,0-0.1-0.1
							c0-0.1,0-0.2,0-0.3c0-0.1,0.1-0.3,0.2-0.4c0.1-0.3,0.2-0.6,0.1-1c-0.1-0.3-0.2-0.6-0.4-0.9c-0.3-0.5-0.8-0.9-1-1.4
							c-0.1-0.2-0.2-0.5-0.2-0.8c0-0.1,0-0.2,0.1-0.3c0-0.1,0-0.1,0.1-0.1c0,0,0.1-0.1,0.1-0.1c0.1,0,0.2,0,0.3,0.1
							c0.1,0.1,0.2,0.1,0.3,0.2c0.2,0.2,0.4,0.3,0.5,0.5c0.2,0.2,0.3,0.4,0.4,0.6c0.2,0.2,0.3,0.4,0.5,0.6c0.3,0.4,0.7,0.8,1.1,1
							c0.2,0.1,0.4,0.2,0.7,0.3c0.1,0,0.1,0.1,0.2,0.2c0,0,0,0.1,0,0.1c0,0,0,0.1,0,0c0,0,0,0.1,0,0.1c0,0,0,0,0,0c0,0,0,0,0,0
							c0,0.1,0,0.1-0.1,0.1c0,0,0,0-0.1,0.1c0,0,0,0-0.1,0c-0.1,0.1-0.2,0.1-0.3,0.2c-0.3,0.1-0.6,0.1-0.9,0.2
							c-0.2,0.1-0.3,0.2-0.4,0.3c-0.1,0.1-0.1,0.3,0,0.4c0.1,0.1,0.2,0.1,0.4,0.1c0.1,0,0.1,0,0.2-0.1c0.1,0,0.1,0,0.2-0.1
							c0.1-0.1,0.3-0.1,0.4-0.1c0.3-0.1,0.6-0.2,0.9-0.4c0.3-0.2,0.4-0.5,0.4-0.9c0-0.3-0.3-0.5-0.6-0.7c-0.3-0.1-0.5-0.2-0.7-0.4
							c-0.1-0.1-0.2-0.1-0.3-0.2c-0.1-0.1-0.2-0.2-0.3-0.3c-0.1-0.1-0.2-0.2-0.3-0.3c-0.1-0.1-0.1-0.2-0.2-0.3
							c-0.2-0.2-0.3-0.5-0.5-0.7c-0.3-0.4-0.7-0.9-1.3-1.1c-0.3-0.1-0.7-0.1-0.9,0.2c-0.2,0.2-0.3,0.6-0.3,0.9
							c0,0.7,0.5,1.2,0.9,1.7c0.4,0.5,0.8,1,0.8,1.6c0,0.3-0.3,0.6-0.3,0.9c-0.1,0.3,0,0.7,0.3,0.8c0.3,0.2,0.6,0,0.9-0.2
							c0.2-0.2,0.3-0.5,0.6-0.6c0.1-0.1,0.2-0.1,0.3-0.1C495.2,56.6,495.3,56.5,495.2,56.4L495.2,56.4z"/>
						<path d="M490.1,54.7c-0.2,0.2-0.4,0.4-0.6,0.7c-0.1,0.2-0.2,0.5-0.1,0.8c0,0.3,0.2,0.5,0.4,0.6c0.3,0.1,0.6,0.1,0.9,0
							c0.3-0.1,0.5-0.3,0.7-0.5c0.2-0.2,0.4-0.4,0.6-0.7c0.3-0.5,0.2-1.2-0.4-1.5c-0.6-0.3-1.3,0-1.8,0.5c-0.2,0.2,0.1,0.5,0.3,0.3
							c0.4-0.2,0.7-0.5,1.2-0.5c0.2,0,0.3,0.1,0.4,0.3c0.1,0.2,0.1,0.4,0,0.6c-0.1,0.2-0.2,0.4-0.4,0.5c-0.2,0.2-0.3,0.3-0.5,0.5
							c-0.3,0.2-0.8,0.3-0.9-0.1c-0.2-0.5,0.2-0.9,0.5-1.2C490.4,54.8,490.2,54.6,490.1,54.7L490.1,54.7z"/>
						<path d="M498.8,48.6c-0.5-0.3-1.1-0.1-1.5,0.2c-0.5,0.4-0.8,0.9-0.7,1.5c0.1,0.6,0.3,1.1,0.8,1.5c0.5,0.3,1,0.4,1.6,0.3
							c0.3,0,0.6-0.1,0.8-0.1c0,0,0.1,0,0.1,0l0,0c0.1,0,0,0,0,0c0,0,0.2,0,0.2,0c0.1,0,0.1,0,0.2,0c0,0,0.1,0,0.1,0c0,0,0,0,0.1,0
							c0,0,0,0,0,0c0,0,0.1,0,0.2,0c0,0,0.1,0,0.1,0l0,0c0,0,0,0,0.1,0c0.1,0,0.1,0.1,0.2,0.1c0.1,0.1-0.1-0.1,0,0
							c0,0,0.1,0.1,0.1,0.1c0,0,0.1,0.1,0.1,0.1c0,0,0,0,0.1,0.1c0.1,0.1-0.1-0.1,0,0c0.1,0.1,0.1,0.2,0.2,0.3
							c0.3,0.5,0.7,0.8,1.3,1c0.6,0.1,1.1,0.1,1.6-0.2c0.3-0.1,0.5-0.4,0.6-0.7c0.1-0.1,0.1-0.3,0.2-0.4c0-0.1,0-0.2,0-0.3
							c0,0,0-0.1,0-0.1c0,0.1,0-0.1,0-0.1c0-0.1,0-0.2,0-0.4c0-0.2,0-0.3,0-0.4c0-0.1-0.1-0.3-0.1-0.4s-0.2-0.3-0.3-0.4
							c-0.2-0.3-0.7,0.1-0.5,0.4c0,0,0.1,0.1,0.1,0.1c0,0,0,0.1,0,0c0-0.1,0,0.1,0,0.1c0,0,0,0.1,0,0c0,0,0,0.1,0.1,0.1
							c0,0,0,0,0,0.1c0-0.1,0,0,0,0.1c0,0,0,0.1,0,0.1c0,0,0,0.1,0,0.1c0,0,0,0.1,0,0c0,0,0,0,0,0c0,0.1,0,0,0,0c0,0.1,0,0.1,0,0.2
							c0,0.1,0,0.1,0,0.1c0,0,0-0.1,0,0c0,0,0,0,0,0.1c-0.1,0.1-0.1,0.2-0.2,0.3c0,0,0.1-0.1,0,0c0,0,0,0-0.1,0.1
							c0,0-0.1,0.1-0.1,0.1c0,0-0.1,0.1-0.1,0.1c0,0,0,0,0,0c0.1-0.1,0,0,0,0c-0.1,0.1-0.2,0.1-0.3,0.2c0,0,0,0-0.1,0
							c-0.1,0,0.1,0,0,0c-0.1,0-0.1,0-0.2,0.1c-0.1,0-0.1,0-0.2,0c0,0-0.1,0,0,0c0,0-0.1,0-0.1,0c-0.1,0-0.2,0-0.3,0c-0.1,0,0,0,0,0
							c0,0-0.1,0-0.1,0c0,0-0.1,0-0.1,0c-0.1,0-0.1,0-0.2-0.1c-0.1,0,0,0,0,0c0,0-0.1,0-0.1-0.1c0,0-0.1,0-0.1-0.1c0,0-0.1,0-0.1,0
							l0,0c0,0,0,0,0,0c-0.1-0.1-0.2-0.2-0.2-0.3c0.1,0.1,0,0,0,0c0,0,0-0.1-0.1-0.1c0,0-0.1-0.1-0.1-0.1c-0.1-0.1-0.2-0.2-0.3-0.4
							c-0.2-0.2-0.3-0.4-0.6-0.5c-0.5-0.2-1-0.3-1.5-0.2c-0.2,0-0.5,0.1-0.7,0.1c-0.1,0-0.2,0-0.3,0c-0.1,0-0.1,0-0.2,0
							c0,0-0.1,0-0.1,0c0.1,0,0.1,0,0,0c0,0,0,0-0.1,0c0,0-0.1,0-0.1,0c0,0-0.1,0-0.1,0c0,0,0.1,0.1,0,0c0,0-0.1-0.1-0.1-0.1
							c0,0,0,0,0,0c0,0,0,0,0,0c0,0,0,0,0,0c0,0-0.1-0.1-0.1-0.1c0,0,0,0-0.1-0.1c0,0-0.1-0.1,0,0c-0.1-0.1-0.1-0.2-0.2-0.3
							s0,0.1,0,0c0,0,0-0.1,0-0.1c0-0.1,0-0.1,0-0.2c0-0.1,0,0.1,0,0c0,0,0-0.1,0-0.1c0-0.1,0-0.1,0-0.2c0-0.1,0,0.1,0,0
							c0,0,0-0.1,0-0.1c0,0,0,0,0-0.1c0,0,0,0,0-0.1c0,0,0,0,0,0c0,0,0.1-0.1,0.1-0.2c0,0,0,0,0-0.1c0.1-0.1-0.1,0.1,0,0
							c0.1-0.1,0.2-0.2,0.3-0.3c0.1-0.1-0.1,0.1,0,0c0,0,0,0,0.1,0c0.1,0,0.1-0.1,0.2-0.1l0,0c-0.1,0-0.1,0,0.1,0c0,0,0.1,0,0.1-0.1
							c0.1,0,0,0,0,0c0,0,0.1,0,0.1,0c0.1,0,0.2-0.1,0.3-0.1C498.9,49,499,48.7,498.8,48.6L498.8,48.6z"/>
						<path d="M498.5,49c0.5,0,0.9-0.5,1.2-0.9c0.1-0.3,0.2-0.5,0.3-0.8c0,0,0-0.1,0-0.1c0,0.1,0,0,0,0c0-0.1,0.1-0.1,0.1-0.2
							c0,0,0.1-0.1,0.1-0.1c0.1-0.1,0,0.1,0,0c0,0,0-0.1,0.1-0.1c0,0,0.1-0.1,0.1-0.1c0,0,0,0,0.1,0c0,0-0.1,0,0,0
							c0.1-0.1,0.2-0.1,0.3-0.2c0,0,0,0,0.1,0c0.1,0-0.1,0,0,0c0.1,0,0.1,0,0.2-0.1c0.1,0,0.2-0.1,0.3-0.1c0,0,0.1,0,0.1,0
							c-0.1,0,0,0,0,0c0.1,0,0.1,0,0.2,0c0.1,0,0.2,0,0.4,0c0.1,0,0.1,0,0.2,0c0,0-0.1,0,0,0c0,0,0.1,0,0.1,0c0.2,0,0.3,0.1,0.5,0.1
							c0.3,0.1,0.5,0.2,0.8,0.3c0.1,0,0.1,0.1,0.2,0.1c0,0,0.1,0,0.1,0c0.1,0-0.1,0,0,0c0.1,0.1,0.3,0.1,0.4,0.2
							c0.3,0.1,0.6,0.2,0.9,0.3c0.1,0,0.3,0.1,0.4,0.1c0.1,0,0.1,0,0.2,0c0.1,0,0.1,0,0.2,0c0,0,0,0,0,0c0,0,0,0,0.1,0
							c0.6,0.1,1.3,0.1,1.8-0.2c0.5-0.3,0.8-0.8,0.6-1.3c-0.1-0.3-0.3-0.5-0.5-0.8c-0.3-0.3-0.5-0.6-0.7-0.8
							c-0.2-0.3-0.4-0.5-0.6-0.8c-0.2-0.3-0.5-0.6-0.8-0.9c-0.2-0.1-0.3-0.2-0.5,0c-0.1,0.1-0.2,0.3-0.1,0.5
							c0.1,0.1,0.2,0.3,0.3,0.4c0.1,0.1,0.2,0.2,0.4,0.3c0.2,0.2,0.5,0.4,0.7,0.6c0.2,0.2,0.5,0.4,0.7,0.7c0.2,0.2,0.4,0.4,0.6,0.7
							c0.1,0.1,0.1,0.2,0.2,0.3c0,0,0,0.1,0,0.1s0,0,0,0c0,0,0,0.1,0,0.1c0,0,0,0,0,0.1c0,0,0,0,0,0c0,0-0.1,0.1-0.1,0.1
							c0,0,0,0,0,0c0,0,0,0,0,0c0,0-0.1,0-0.1,0c0,0-0.1,0.1-0.1,0c-0.1,0-0.2,0.1-0.3,0.1c-0.1,0-0.1,0-0.2,0c0.1,0-0.1,0-0.1,0
							c0,0-0.1,0-0.1,0c-0.3,0-0.5,0-0.8-0.1c-0.3-0.1-0.6-0.2-0.8-0.3c-0.1,0-0.1,0-0.2-0.1c0.1,0,0,0,0,0c0,0-0.1,0-0.1,0
							c-0.2-0.1-0.3-0.1-0.5-0.2c-0.5-0.2-1.1-0.4-1.6-0.6c-1-0.2-2.1-0.2-3,0.5c-0.2,0.2-0.4,0.4-0.5,0.6c-0.2,0.3-0.2,0.6-0.3,0.9
							c-0.1,0.5-0.2,1.1-0.8,1.3C498.3,48.8,498.4,49,498.5,49L498.5,49z"/>
						<path d="M494.4,58.6c0.1-0.1,0.2-0.2,0.3-0.3c0,0,0.1-0.1,0.1-0.1c0.1-0.1,0.1-0.1,0.1-0.2c0-0.1,0-0.2,0-0.2
							c-0.1-0.1-0.2-0.1-0.2,0l-0.1,0.1c0,0-0.1,0-0.1,0.1c0,0-0.1,0.1-0.1,0.1c-0.1,0.1-0.2,0.2-0.3,0.3c0,0-0.1,0.1-0.1,0.1
							c0,0.1,0,0.1,0.1,0.1C494.1,58.7,494.3,58.7,494.4,58.6L494.4,58.6z"/>
						<path d="M504.5,50.9c0.2,0.6,0.3,1.3,0.3,1.9c0,0.2,0,0.3,0,0.5c0,0,0,0,0,0c0,0,0,0,0,0.1c0,0,0,0.1,0,0.1c0,0.1,0,0.2,0,0.2
							c0,0.2-0.1,0.3-0.1,0.5s-0.1,0.3-0.2,0.5c-0.1,0.2,0.1,0.4,0.2,0.4c0.2,0.1,0.4,0,0.5-0.2c0.1-0.2,0.2-0.4,0.2-0.6
							c0-0.1,0.1-0.2,0.1-0.3c0,0,0-0.1,0-0.1c0,0,0,0,0,0l0-0.1c0-0.3,0.1-0.7,0-1c-0.1-0.7-0.2-1.4-0.6-2
							C504.7,50.6,504.4,50.7,504.5,50.9z"/>
						<path d="M477,159.1c1.6,0.1,3.3,0.2,4.9,0.2c1.6,0,3.3-0.1,4.9-0.3s3.3-0.5,4.9-0.8c1.6-0.3,3.2-0.8,4.7-1.3
							c1.6-0.5,3.1-1,4.6-1.7c1.5-0.6,3-1.3,4.5-2.1c1.5-0.7,2.9-1.6,4.2-2.4c1.4-0.9,2.7-1.8,4-2.8c1.3-1,2.6-2.1,3.8-3.2
							c1.2-1.1,2.3-2.3,3.4-3.5c0.3-0.3,0.6-0.7,0.9-1l-0.1,0.1c0.1-0.1,0.2-0.2,0.2-0.3c0,0,0.1-0.1,0.1-0.1c0,0,0.1-0.2,0,0
							c0.1-0.1,0.2-0.3,0.2-0.4c0-0.2-0.1-0.3-0.2-0.4c-0.2-0.2-0.7-0.3-0.9,0c-0.1,0.2-0.3,0.3-0.4,0.4c-0.1,0.2-0.3,0.3-0.4,0.5
							c-0.3,0.3-0.5,0.6-0.8,0.9c-0.5,0.6-1.1,1.2-1.7,1.8c-1.2,1.2-2.4,2.3-3.6,3.3c-0.3,0.3-0.6,0.5-1,0.8
							c-0.2,0.1-0.3,0.3-0.5,0.4c-0.1,0.1-0.2,0.1-0.2,0.2c0.1-0.1,0,0,0,0c0,0-0.1,0.1-0.1,0.1c-0.7,0.5-1.3,1-2,1.4
							c-1.3,0.9-2.7,1.8-4.2,2.6c-1.4,0.8-2.9,1.6-4.4,2.2c-0.4,0.2-0.7,0.3-1.1,0.5c-0.1,0-0.2,0.1-0.3,0.1c0.1-0.1,0,0-0.1,0
							c0,0-0.1,0-0.1,0.1c-0.2,0.1-0.4,0.2-0.6,0.2c-0.8,0.3-1.5,0.6-2.3,0.9c-1.5,0.5-3.1,1-4.7,1.4c-1.6,0.4-3.2,0.7-4.8,1
							c-0.4,0.1-0.8,0.1-1.2,0.2c-0.1,0-0.2,0-0.3,0c0,0-0.1,0,0,0c0.1,0,0,0,0,0c-0.1,0-0.1,0-0.2,0c-0.1,0-0.2,0-0.4,0
							c-0.1,0-0.1,0-0.2,0c0,0,0,0-0.1,0c0.1,0,0,0,0,0c-0.8,0.1-1.6,0.2-2.5,0.3c-1.6,0.1-3.3,0.2-4.9,0.2c-0.4,0-0.8,0-1.2,0
							C476.8,158.9,476.8,159.1,477,159.1L477,159.1z"/>
					</g>
				</g>
			</g>
		</g>
		<g>
			<path class="st2" d="M477.4,122.5l-3,12.2c-0.2,0.6-0.8,1.4-2.1,1.1c0,0.1-3.4-0.8-3.4-0.8l-2.3,5.3l6.1,1.5
				c1.1,0.3,2.2,0.6,3.3,0.9l-1.9,7.7l4.6,1.2l1.9-7.6c1.3,0.3,2.5,0.7,3.7,1l-1.9,7.6l4.6,1.2l1.9-7.7c7.9,1.5,13.9,0.9,16.4-6.3
				c2-5.8-0.1-9.1-4.3-11.3c3-0.7,5.3-2.7,5.9-6.8l0,0l0,0c0.8-5.6-3.4-8.7-9.3-10.7l1.9-7.6l-4.6-1.2l-1.9,7.4
				c-1.2-0.3-2.5-0.6-3.7-0.9l1.9-7.5l-4.6-1.2l-1.9,7.6c-1-0.2-2-0.5-3-0.7l0,0l-6.4-1.6l-1.2,5c0,0,3.4,0.8,3.4,0.8
				c1.9,0.5,2.2,1.7,2.2,2.7L477.4,122.5 M496.4,136.4c-1.4,5.8-11.2,2.7-14.3,1.9l2.6-10.2C487.8,128.8,497.9,130.4,496.4,136.4
				L496.4,136.4z M497.8,121.4c-1.3,5.3-9.4,2.6-12,1.9l2.3-9.3C490.7,114.7,499.2,115.9,497.8,121.4L497.8,121.4z"/>
		</g>
	</g>
</g>
</svg>
