<svg width="30" height="24" viewBox="0 0 30 24" fill="none" xmlns="http://www.w3.org/2000/svg">
<path fill-rule="evenodd" clip-rule="evenodd" d="M18.0107 5.12333C15.9687 5.93244 11.8875 7.60711 5.76721 10.1473C4.77337 10.5238 4.25275 10.8921 4.20535 11.2523C4.12526 11.8609 4.92536 12.1006 6.0149 12.427C6.16311 12.4714 6.31667 12.5174 6.4741 12.5661C7.54604 12.8981 8.988 13.2864 9.73761 13.3018C10.4176 13.3158 11.1765 13.0488 12.0144 12.5007C17.7328 8.82345 20.6846 6.9648 20.87 6.92473C21.0007 6.89646 21.1819 6.86091 21.3046 6.96486C21.4274 7.0688 21.4153 7.26565 21.4023 7.31845C21.3231 7.64035 18.1823 10.4219 16.557 11.8614C16.0503 12.3102 15.6909 12.6285 15.6174 12.7012C15.4529 12.864 15.2851 13.0181 15.1239 13.1661C14.128 14.0807 13.3812 14.7665 15.1652 15.8864C16.0226 16.4246 16.7086 16.8697 17.393 17.3137C18.1405 17.7986 18.886 18.2822 19.8505 18.8846C20.0963 19.038 20.331 19.1974 20.5596 19.3527C21.4294 19.9434 22.2109 20.4742 23.1763 20.3895C23.7373 20.3403 24.3168 19.8378 24.6111 18.3391C25.3066 14.797 26.6737 7.12254 26.9897 3.96006C27.0174 3.68299 26.9826 3.32839 26.9546 3.17273C26.9266 3.01707 26.8682 2.79529 26.6558 2.63111C26.4043 2.43667 26.0159 2.39566 25.8423 2.39858C25.0526 2.41183 23.8411 2.81314 18.0107 5.12333Z" fill="#EEDB5F"/>
</svg>
