<svg width="957" height="417" viewBox="0 0 957 417" fill="none" xmlns="http://www.w3.org/2000/svg">
<path d="M18 1H939C948.389 1 956 8.61116 956 18V134.003C916.742 134.272 885 166.178 885 205.5C885 244.822 916.742 276.727 956 276.996V399C956 408.389 948.389 416 939 416H18C8.61116 416 1 408.389 1 399V276.981C39.7959 276.183 71 244.487 71 205.5C71 166.513 39.7959 134.815 1 134.017V18C1 8.61116 8.61116 1 18 1Z" stroke="black" stroke-width="2"/>
<line x1="606" y1="53" x2="606" y2="365" stroke="black" stroke-width="2" stroke-dasharray="4 4"/>
<path d="M847 239.623C844.025 239.317 841.46 239.076 838.889 238.797C834.82 238.392 830.75 237.995 826.677 237.605C825.233 237.468 823.784 237.364 822.335 237.282C818.576 237.071 814.818 236.866 811.063 236.67C804.795 236.358 798.523 236.074 792.255 235.746C790.456 235.652 788.656 235.461 786.666 235.297C787.431 234.635 788.159 234.028 788.853 233.383C789.367 232.934 789.838 232.438 790.259 231.901C790.392 231.752 790.487 231.572 790.534 231.378C790.581 231.183 790.579 230.98 790.528 230.787C790.477 230.593 790.379 230.415 790.242 230.269C790.105 230.122 789.935 230.013 789.745 229.949C788.678 229.456 787.53 228.855 786.409 228.855C781.743 228.73 777.073 228.767 772.403 228.806C770.5 228.806 768.574 228.915 766.693 229.118C762.487 229.566 758.26 229.91 754.114 230.638C746.802 231.917 739.534 233.443 732.238 234.876C731.747 235.019 731.23 235.041 730.728 234.942C731.276 234.433 731.822 233.913 732.369 233.41C733.073 232.853 733.742 232.252 734.371 231.611C735.465 230.337 735.158 229.118 733.605 228.478C732.992 228.165 732.322 227.979 731.636 227.931C727.474 228.068 723.307 228.193 719.15 228.511C715.579 228.784 712.008 229.188 708.47 229.757C704.215 230.435 699.987 231.267 695.771 232.169C688.956 233.627 682.151 235.146 675.355 236.724C671.461 237.627 667.605 238.693 663.727 239.678C663.602 239.71 663.448 239.639 663 239.557C681.42 230.025 689.191 214.002 691.614 194.523H697.958C698.833 197.164 699.708 199.816 700.605 202.463C700.66 202.627 700.884 202.742 701.338 203.163C702.043 200.948 702.765 198.925 703.328 196.863C703.892 194.802 703.826 194.747 706.063 194.747C710.318 194.747 714.568 194.747 718.823 194.747C733.485 194.84 748.142 194.988 762.805 195.026C768.82 195.026 774.836 194.867 780.82 194.725C782.258 194.692 783.696 194.468 784.927 194.348C786.43 199.57 787.71 204.64 789.362 209.583C791.014 214.527 793.228 219.317 797.298 222.883C799.469 224.876 802.233 226.104 805.167 226.378C810.385 226.859 814.629 224.879 818.468 221.653C820.557 219.892 822.608 218.087 824.539 216.425C828.673 226.58 836.981 233.689 847 239.623Z" fill="black"/>
<path d="M748.651 154.391C748.448 158.602 748.241 162.78 748.027 167.133L755.684 166.766L755.892 167.204L741.18 188.384V173.618H734.431C734.601 171.989 747.223 154.664 748.651 154.391Z" fill="black"/>
<path d="M726.228 177.126L731.319 176.448L723.203 190.803L722.848 190.77C722.684 187.768 722.52 184.755 722.35 181.681L717.975 182.299C718.385 180.112 724.68 169.617 725.747 169.289C725.883 171.892 726.047 174.462 726.228 177.126Z" fill="black"/>
<path d="M755.973 180.161C760.316 174.938 760.403 175.026 765.681 168.988C765.32 171.723 764.975 174.353 764.631 176.956C765.878 177.137 766.911 177.251 767.912 177.454C768.694 177.612 768.891 178.105 768.372 178.755C766.217 181.435 764.046 184.104 761.885 186.778C761.196 187.626 760.529 188.495 759.818 189.326C759.562 189.578 759.282 189.804 758.981 189.999L758.61 189.813L760.179 180.642L755.973 180.161Z" fill="black"/>
</svg>
