<?xml version="1.0" encoding="utf-8"?>
<!-- Generator: Adobe Illustrator 23.0.6, SVG Export Plug-In . SVG Version: 6.00 Build 0)  -->
<!DOCTYPE svg PUBLIC "-//W3C//DTD SVG 1.1//EN" "http://www.w3.org/Graphics/SVG/1.1/DTD/svg11.dtd" [
	<!ENTITY ns_extend "http://ns.adobe.com/Extensibility/1.0/">
	<!ENTITY ns_ai "http://ns.adobe.com/AdobeIllustrator/10.0/">
	<!ENTITY ns_graphs "http://ns.adobe.com/Graphs/1.0/">
	<!ENTITY ns_vars "http://ns.adobe.com/Variables/1.0/">
	<!ENTITY ns_imrep "http://ns.adobe.com/ImageReplacement/1.0/">
	<!ENTITY ns_sfw "http://ns.adobe.com/SaveForWeb/1.0/">
	<!ENTITY ns_custom "http://ns.adobe.com/GenericCustomNamespace/1.0/">
	<!ENTITY ns_adobe_xpath "http://ns.adobe.com/XPath/1.0/">
]>
<svg version="1.1" id="Layer_1" xmlns:x="&ns_extend;" xmlns:i="&ns_ai;" xmlns:graph="&ns_graphs;"
	 xmlns="http://www.w3.org/2000/svg" xmlns:xlink="http://www.w3.org/1999/xlink" x="0px" y="0px" width="24px" height="24px"
	 viewBox="0 0 24 24" style="enable-background:new 0 0 24 24;" xml:space="preserve">
<style type="text/css">
	.st0{clip-path:url(#SVGID_2_);}
	.st1{fill-rule:evenodd;clip-rule:evenodd;fill:#FAB44B;}
</style>
<metadata>
	<sfw  xmlns="&ns_sfw;">
		<slices></slices>
		<sliceSourceBounds  bottomLeftOrigin="true" height="24" width="24" x="0" y="0"></sliceSourceBounds>
	</sfw>
</metadata>
<g>
	<defs>
		<rect id="SVGID_1_" width="24" height="24"/>
	</defs>
	<clipPath id="SVGID_2_">
		<use xlink:href="#SVGID_1_"  style="overflow:visible;"/>
	</clipPath>
	<g class="st0">
		<path class="st1" d="M14.2,1c0.2-0.2,0.4-0.3,0.7-0.3s0.5,0.1,0.7,0.3l2.1,2.1c0,0,0,0,0,0c0.2,0.2,0.3,0.4,0.3,0.6
			c0,0.2-0.1,0.5-0.2,0.6l0,0l0,0c-0.2,0.3-0.4,0.6-0.3,1c0,0.4,0.2,0.7,0.4,1c0.3,0.3,0.6,0.4,1,0.4c0.4,0,0.7-0.1,1-0.3l0,0l0,0
			c0.2-0.2,0.4-0.2,0.6-0.2c0.2,0,0.5,0.1,0.6,0.3c0,0,0,0,0,0L23,8.5c0.2,0.2,0.3,0.4,0.3,0.7c0,0.2-0.1,0.5-0.3,0.7l-3.3,3.3
			c0,0,0,0,0,0c-0.2,0.2-0.5,0.4-0.7,0.4c-0.1,0-0.1,0-0.1,0.1c0,0-0.1,0.1-0.1,0.1l0,0l0,0c-0.1,0.3-0.2,0.5-0.4,0.7L9.8,23
			c-0.2,0.2-0.4,0.3-0.7,0.3c-0.2,0-0.5-0.1-0.7-0.3l-2.1-2.1c0,0,0,0,0,0c-0.2-0.2-0.3-0.4-0.3-0.6c0-0.2,0.1-0.5,0.2-0.6l0,0l0,0
			c0.2-0.3,0.4-0.6,0.3-1c0-0.4-0.2-0.7-0.4-1c-0.3-0.3-0.6-0.4-1-0.4c-0.4,0-0.7,0.1-1,0.3l0,0l0,0c-0.2,0.2-0.4,0.2-0.6,0.2
			c-0.2,0-0.5-0.1-0.6-0.3c0,0,0,0,0,0L1,15.5c-0.2-0.2-0.3-0.4-0.3-0.7s0.1-0.5,0.3-0.7l8.5-8.5c0.2-0.2,0.5-0.4,0.7-0.4
			 M18.4,12.2C18.4,12.2,18.4,12.2,18.4,12.2L18.4,12.2c0.1,0,0.2-0.1,0.2-0.1l0,0l2.9-2.9l-1.3-1.3c-0.5,0.3-1,0.4-1.6,0.4
			c-0.7,0-1.4-0.3-2-0.9l0,0l0,0c-0.5-0.5-0.8-1.2-0.9-2c0-0.6,0.1-1.1,0.4-1.6l-1.3-1.3l-2.9,2.9c0,0-0.1,0.1-0.1,0.1
			c0,0,0,0.1,0,0.1l0.4,0.4c0.3,0.3,0.3,0.8,0,1.1c-0.3,0.3-0.8,0.3-1.1,0l-0.4-0.4c0,0-0.1,0-0.1,0l0,0l0,0c-0.1,0-0.1,0-0.1,0.1
			c0,0,0,0,0,0l-8.1,8.1l1.3,1.3c0.5-0.3,1-0.4,1.6-0.4c0.7,0,1.4,0.3,2,0.9c0.5,0.5,0.8,1.2,0.9,2c0,0.6-0.1,1.1-0.4,1.6l1.3,1.3
			l8.1-8.1c0,0,0.1-0.1,0.1-0.1c0,0,0-0.1,0-0.1l-0.4-0.4c-0.3-0.3-0.3-0.8,0-1.1s0.8-0.3,1.1,0L18.4,12.2z M10.2,5.3
			c0.1,0,0.1,0,0.1-0.1c0,0,0.1-0.1,0.1-0.1l0,0l0,0c0.1-0.3,0.2-0.5,0.4-0.7c0,0,0,0,0,0L14.2,1 M12.8,7.6c0.3-0.3,0.8-0.3,1.1,0
			l0.5,0.5c0.3,0.3,0.3,0.8,0,1.1c-0.3,0.3-0.8,0.3-1.1,0l-0.5-0.5C12.5,8.4,12.5,7.9,12.8,7.6z M14.8,9.7c0.3-0.3,0.8-0.3,1.1,0
			l0.5,0.5c0.3,0.3,0.3,0.8,0,1.1c-0.3,0.3-0.8,0.3-1.1,0l-0.5-0.5C14.5,10.4,14.5,10,14.8,9.7z"/>
	</g>
</g>
</svg>
