<svg width="957" height="417" viewBox="0 0 957 417" fill="none" xmlns="http://www.w3.org/2000/svg">
<path d="M18 1H939C948.389 1 956 8.61116 956 18V134.003C916.742 134.272 885 166.178 885 205.5C885 244.822 916.742 276.727 956 276.996V399C956 408.389 948.389 416 939 416H18C8.61116 416 1 408.389 1 399V276.981C39.7959 276.183 71 244.487 71 205.5C71 166.513 39.7959 134.815 1 134.017V18C1 8.61116 8.61116 1 18 1Z" stroke="black" stroke-width="2"/>
<line x1="636" y1="53" x2="636" y2="365" stroke="black" stroke-width="2" stroke-dasharray="4 4"/>
<path d="M847 232.913C844.494 232.655 842.333 232.452 840.168 232.217C836.74 231.876 833.311 231.542 829.88 231.213C828.664 231.098 827.443 231.01 826.222 230.941C823.056 230.763 819.89 230.591 816.727 230.425C811.447 230.162 806.163 229.923 800.883 229.647C799.368 229.568 797.852 229.407 796.175 229.269C796.82 228.711 797.433 228.2 798.018 227.657C798.451 227.278 798.847 226.86 799.202 226.408C799.314 226.283 799.394 226.131 799.434 225.967C799.473 225.803 799.471 225.632 799.428 225.469C799.385 225.306 799.303 225.156 799.187 225.033C799.072 224.91 798.929 224.817 798.769 224.763C797.87 224.349 796.903 223.842 795.959 223.842C792.028 223.736 788.094 223.768 784.16 223.801C782.557 223.801 780.935 223.893 779.35 224.063C775.807 224.441 772.246 224.731 768.753 225.344C762.594 226.422 756.471 227.707 750.325 228.914C749.912 229.034 749.476 229.053 749.054 228.97C749.515 228.541 749.975 228.103 750.436 227.68C751.029 227.21 751.592 226.704 752.122 226.164C753.044 225.09 752.786 224.063 751.477 223.524C750.961 223.261 750.397 223.104 749.819 223.063C746.313 223.179 742.802 223.285 739.301 223.552C736.292 223.782 733.284 224.123 730.303 224.602C726.719 225.173 723.158 225.874 719.606 226.634C713.865 227.862 708.132 229.142 702.407 230.471C699.127 231.231 695.879 232.13 692.613 232.959C692.507 232.987 692.378 232.927 692 232.857C707.517 224.828 714.063 211.33 716.104 194.921H721.448C722.185 197.146 722.923 199.38 723.678 201.61C723.724 201.748 723.913 201.845 724.295 202.2C724.89 200.334 725.498 198.629 725.972 196.893C726.447 195.156 726.392 195.11 728.276 195.11C731.86 195.11 735.44 195.11 739.025 195.11C751.376 195.188 763.723 195.312 776.074 195.345C781.142 195.345 786.21 195.211 791.25 195.091C792.462 195.064 793.673 194.875 794.71 194.773C795.977 199.173 797.055 203.443 798.446 207.608C799.838 211.773 801.703 215.808 805.131 218.812C806.96 220.491 809.288 221.525 811.761 221.755C816.156 222.161 819.731 220.493 822.965 217.775C824.725 216.291 826.452 214.771 828.079 213.371C831.562 221.926 838.56 227.914 847 232.913Z" fill="black"/>
<path d="M764.151 161.113C763.981 164.66 763.806 168.18 763.626 171.847L770.076 171.538L770.251 171.907L757.858 189.749V177.311H752.173C752.316 175.938 762.949 161.344 764.151 161.113Z" fill="black"/>
<path d="M745.263 180.266L749.552 179.694L742.715 191.787L742.416 191.759C742.277 189.23 742.139 186.692 741.996 184.103L738.311 184.624C738.656 182.781 743.959 173.94 744.857 173.664C744.972 175.857 745.11 178.022 745.263 180.266Z" fill="black"/>
<path d="M770.32 182.822C773.978 178.422 774.052 178.496 778.497 173.41C778.194 175.714 777.903 177.929 777.613 180.122C778.663 180.274 779.534 180.371 780.377 180.541C781.036 180.675 781.202 181.09 780.764 181.638C778.949 183.895 777.12 186.143 775.3 188.396C774.72 189.11 774.158 189.842 773.559 190.543C773.343 190.755 773.107 190.945 772.854 191.109L772.541 190.953L773.863 183.227L770.32 182.822Z" fill="black"/>
</svg>
