<svg width="29" height="24" viewBox="0 0 29 24" fill="none" xmlns="http://www.w3.org/2000/svg">
<path d="M26.1729 6.96567C26.1729 6.96567 25.9503 5.43643 25.2645 4.76495C24.3961 3.8812 23.4254 3.87687 22.98 3.82488C19.7916 3.59961 15.0045 3.59961 15.0045 3.59961H14.9956C14.9956 3.59961 10.2085 3.59961 7.02004 3.82488C6.57472 3.87687 5.60394 3.8812 4.73558 4.76495C4.0498 5.43643 3.8316 6.96567 3.8316 6.96567C3.8316 6.96567 3.60004 8.76351 3.60004 10.557V12.2379C3.60004 14.0314 3.82715 15.8292 3.82715 15.8292C3.82715 15.8292 4.0498 17.3585 4.73113 18.0299C5.59949 18.9137 6.73949 18.8834 7.24715 18.9787C9.07293 19.1476 15 19.1996 15 19.1996C15 19.1996 19.7916 19.1909 22.98 18.97C23.4254 18.918 24.3961 18.9137 25.2645 18.0299C25.9503 17.3585 26.1729 15.8292 26.1729 15.8292C26.1729 15.8292 26.4 14.0357 26.4 12.2379V10.557C26.4 8.76351 26.1729 6.96567 26.1729 6.96567ZM12.6443 14.2783V8.04437L18.803 11.1722L12.6443 14.2783Z" fill="#EEDB5F"/>
</svg>
